G75*
G70*
%OFA0B0*%
%FSLAX24Y24*%
%IPPOS*%
%LPD*%
%AMOC8*
5,1,8,0,0,1.08239X$1,22.5*
%
%ADD10C,0.0080*%
%ADD11R,0.0500X0.0350*%
%ADD12C,0.0050*%
%ADD13C,0.0070*%
%ADD14R,0.0200X0.0450*%
%ADD15R,0.0200X0.0100*%
%ADD16R,0.0200X0.0300*%
%ADD17R,0.0200X0.3300*%
%ADD18C,0.0220*%
%ADD19C,0.0240*%
%ADD20R,0.0200X0.3100*%
%ADD21R,0.0200X0.3450*%
%ADD22C,0.0160*%
%ADD23R,0.0600X0.1000*%
%ADD24C,0.0100*%
%ADD25C,0.0060*%
D10*
X001412Y000694D02*
X001412Y001175D01*
X001652Y001175D01*
X001732Y001095D01*
X001732Y000935D01*
X001652Y000854D01*
X001412Y000854D01*
X001572Y000854D02*
X001732Y000694D01*
X001927Y000774D02*
X001927Y000935D01*
X002007Y001015D01*
X002168Y001015D01*
X002248Y000935D01*
X002248Y000854D01*
X001927Y000854D01*
X001927Y000774D02*
X002007Y000694D01*
X002168Y000694D01*
X002443Y000694D02*
X002683Y000694D01*
X002763Y000774D01*
X002683Y000854D01*
X002523Y000854D01*
X002443Y000935D01*
X002523Y001015D01*
X002763Y001015D01*
X002959Y000935D02*
X003039Y001015D01*
X003199Y001015D01*
X003279Y000935D01*
X003279Y000854D01*
X002959Y000854D01*
X002959Y000774D02*
X002959Y000935D01*
X002959Y000774D02*
X003039Y000694D01*
X003199Y000694D01*
X003554Y000774D02*
X003634Y000694D01*
X003554Y000774D02*
X003554Y001095D01*
X003474Y001015D02*
X003634Y001015D01*
X003472Y001954D02*
X003472Y003654D01*
X004061Y004071D02*
X004532Y004071D01*
X004532Y003836D01*
X004453Y003757D01*
X004297Y003757D01*
X004218Y003836D01*
X004218Y004071D01*
X004297Y003564D02*
X004375Y003564D01*
X004375Y003251D01*
X004453Y003251D02*
X004297Y003251D01*
X004218Y003329D01*
X004218Y003486D01*
X004297Y003564D01*
X004532Y003486D02*
X004532Y003329D01*
X004453Y003251D01*
X004532Y003058D02*
X004375Y002901D01*
X004375Y002980D02*
X004375Y002744D01*
X004532Y002744D02*
X004061Y002744D01*
X004061Y002980D01*
X004140Y003058D01*
X004297Y003058D01*
X004375Y002980D01*
X004722Y003054D02*
X004972Y002804D01*
X005472Y002804D01*
X005722Y003054D01*
X005722Y003554D01*
X005472Y003804D01*
X004972Y003804D01*
X004722Y003554D01*
X004722Y003054D01*
X004867Y002459D02*
X005576Y002459D01*
X005576Y001976D01*
X005572Y001772D02*
X005222Y001772D01*
X005458Y001636D01*
X004986Y001636D01*
X005222Y001772D01*
X004871Y001772D01*
X004867Y001976D02*
X004867Y002459D01*
X004867Y001492D02*
X004867Y000949D01*
X005576Y000949D01*
X005576Y001482D01*
X006867Y001492D02*
X006867Y000949D01*
X007576Y000949D01*
X007576Y001482D01*
X007458Y001636D02*
X007222Y001772D01*
X006986Y001636D01*
X007458Y001636D01*
X007572Y001772D02*
X007222Y001772D01*
X006871Y001772D01*
X006867Y001976D02*
X006867Y002459D01*
X007576Y002459D01*
X007576Y001976D01*
X007761Y002030D02*
X007761Y001873D01*
X007840Y001794D01*
X008153Y001794D01*
X008232Y001873D01*
X008232Y002030D01*
X008153Y002108D01*
X007997Y002108D01*
X007997Y001951D01*
X007840Y002108D02*
X007761Y002030D01*
X007918Y002301D02*
X008232Y002301D01*
X008075Y002301D02*
X007918Y002458D01*
X007918Y002536D01*
X007997Y002723D02*
X007918Y002801D01*
X007918Y002958D01*
X007997Y003036D01*
X008075Y003036D01*
X008075Y002723D01*
X008153Y002723D02*
X007997Y002723D01*
X008153Y002723D02*
X008232Y002801D01*
X008232Y002958D01*
X008153Y003229D02*
X007997Y003229D01*
X007918Y003308D01*
X007918Y003464D01*
X007997Y003543D01*
X008075Y003543D01*
X008075Y003229D01*
X008153Y003229D02*
X008232Y003308D01*
X008232Y003464D01*
X008232Y003736D02*
X007918Y003736D01*
X007918Y003971D01*
X007997Y004049D01*
X008232Y004049D01*
X008472Y004554D02*
X007972Y004554D01*
X007722Y004804D01*
X007472Y004554D01*
X006972Y004554D01*
X006722Y004804D01*
X006472Y004554D01*
X005972Y004554D01*
X005722Y004804D01*
X005472Y004554D01*
X004972Y004554D01*
X004722Y004804D01*
X004472Y004554D01*
X003972Y004554D01*
X003722Y004804D01*
X003472Y004554D01*
X002972Y004554D01*
X002722Y004804D01*
X002472Y004554D01*
X001972Y004554D01*
X001722Y004804D01*
X001722Y005304D01*
X001472Y005554D01*
X000972Y005554D01*
X000722Y005304D01*
X000722Y004804D01*
X000972Y004554D01*
X001472Y004554D01*
X001722Y004804D01*
X001722Y005304D01*
X001972Y005554D01*
X002472Y005554D01*
X002722Y005304D01*
X002972Y005554D01*
X003472Y005554D01*
X003722Y005304D01*
X003972Y005554D01*
X004472Y005554D01*
X004722Y005304D01*
X004972Y005554D01*
X005472Y005554D01*
X005722Y005304D01*
X005972Y005554D01*
X006472Y005554D01*
X006722Y005304D01*
X006972Y005554D01*
X007472Y005554D01*
X007722Y005304D01*
X007972Y005554D01*
X008472Y005554D01*
X008722Y005304D01*
X008972Y005554D01*
X009472Y005554D01*
X009722Y005304D01*
X009972Y005554D01*
X010472Y005554D01*
X010722Y005304D01*
X010972Y005554D01*
X011472Y005554D01*
X011722Y005304D01*
X011972Y005554D01*
X012472Y005554D01*
X012722Y005304D01*
X012972Y005554D01*
X013472Y005554D01*
X013722Y005304D01*
X013972Y005554D01*
X014472Y005554D01*
X014722Y005304D01*
X014972Y005554D01*
X015472Y005554D01*
X015722Y005304D01*
X015972Y005554D01*
X016472Y005554D01*
X016722Y005304D01*
X016972Y005554D01*
X017472Y005554D01*
X017722Y005304D01*
X017972Y005554D01*
X018472Y005554D01*
X018722Y005304D01*
X018972Y005554D01*
X019472Y005554D01*
X019722Y005304D01*
X019972Y005554D01*
X020472Y005554D01*
X020722Y005304D01*
X020972Y005554D01*
X021472Y005554D01*
X021722Y005304D01*
X021722Y004804D01*
X021972Y004554D01*
X022472Y004554D01*
X022722Y004804D01*
X022722Y005304D01*
X022472Y005554D01*
X021972Y005554D01*
X021722Y005304D01*
X021722Y004804D01*
X021472Y004554D01*
X020972Y004554D01*
X020722Y004804D01*
X020472Y004554D01*
X019972Y004554D01*
X019722Y004804D01*
X019472Y004554D01*
X018972Y004554D01*
X018722Y004804D01*
X018472Y004554D01*
X017972Y004554D01*
X017722Y004804D01*
X017472Y004554D01*
X016972Y004554D01*
X016722Y004804D01*
X016472Y004554D01*
X015972Y004554D01*
X015722Y004804D01*
X015472Y004554D01*
X014972Y004554D01*
X014722Y004804D01*
X014472Y004554D01*
X013972Y004554D01*
X013722Y004804D01*
X013472Y004554D01*
X012972Y004554D01*
X012722Y004804D01*
X012472Y004554D01*
X011972Y004554D01*
X011722Y004804D01*
X011472Y004554D01*
X010972Y004554D01*
X010722Y004804D01*
X010472Y004554D01*
X009972Y004554D01*
X009722Y004804D01*
X009472Y004554D01*
X008972Y004554D01*
X008722Y004804D01*
X008472Y004554D01*
X009222Y003804D02*
X009472Y004054D01*
X009972Y004054D01*
X010222Y003804D01*
X010472Y004054D01*
X010972Y004054D01*
X011222Y003804D01*
X011472Y004054D01*
X011972Y004054D01*
X012222Y003804D01*
X012472Y004054D01*
X012972Y004054D01*
X013222Y003804D01*
X013472Y004054D01*
X013972Y004054D01*
X014222Y003804D01*
X014472Y004054D01*
X014972Y004054D01*
X015222Y003804D01*
X015222Y003304D01*
X014972Y003054D01*
X014472Y003054D01*
X014222Y003304D01*
X013972Y003054D01*
X013472Y003054D01*
X013222Y003304D01*
X012972Y003054D01*
X012472Y003054D01*
X012222Y003304D01*
X011972Y003054D01*
X011472Y003054D01*
X011222Y003304D01*
X010972Y003054D01*
X010472Y003054D01*
X010222Y003304D01*
X009972Y003054D01*
X009472Y003054D01*
X009222Y003304D01*
X009222Y003804D01*
X007722Y003554D02*
X007722Y003054D01*
X007472Y002804D01*
X006972Y002804D01*
X006722Y003054D01*
X006722Y003554D01*
X006972Y003804D01*
X007472Y003804D01*
X007722Y003554D01*
X009472Y002054D02*
X009222Y001804D01*
X009222Y001304D01*
X009472Y001054D01*
X009972Y001054D01*
X010222Y001304D01*
X010472Y001054D01*
X010972Y001054D01*
X011222Y001304D01*
X011472Y001054D01*
X011972Y001054D01*
X012222Y001304D01*
X012472Y001054D01*
X012972Y001054D01*
X013222Y001304D01*
X013472Y001054D01*
X013972Y001054D01*
X014222Y001304D01*
X014472Y001054D01*
X014972Y001054D01*
X015222Y001304D01*
X015222Y001804D01*
X014972Y002054D01*
X014472Y002054D01*
X014222Y001804D01*
X013972Y002054D01*
X013472Y002054D01*
X013222Y001804D01*
X012972Y002054D01*
X012472Y002054D01*
X012222Y001804D01*
X011972Y002054D01*
X011472Y002054D01*
X011222Y001804D01*
X010972Y002054D01*
X010472Y002054D01*
X010222Y001804D01*
X009972Y002054D01*
X009472Y002054D01*
X016222Y001804D02*
X016222Y001304D01*
X016472Y001054D01*
X016972Y001054D01*
X017222Y001304D01*
X017472Y001054D01*
X017972Y001054D01*
X018222Y001304D01*
X018472Y001054D01*
X018972Y001054D01*
X019222Y001304D01*
X019472Y001054D01*
X019972Y001054D01*
X020222Y001304D01*
X020472Y001054D01*
X020972Y001054D01*
X021222Y001304D01*
X021472Y001054D01*
X021972Y001054D01*
X022222Y001304D01*
X022222Y001804D01*
X021972Y002054D01*
X021472Y002054D01*
X021222Y001804D01*
X020972Y002054D01*
X020472Y002054D01*
X020222Y001804D01*
X019972Y002054D01*
X019472Y002054D01*
X019222Y001804D01*
X018972Y002054D01*
X018472Y002054D01*
X018222Y001804D01*
X017972Y002054D01*
X017472Y002054D01*
X017222Y001804D01*
X016972Y002054D01*
X016472Y002054D01*
X016222Y001804D01*
X016472Y003054D02*
X016972Y003054D01*
X017222Y003304D01*
X017472Y003054D01*
X017972Y003054D01*
X018222Y003304D01*
X018472Y003054D01*
X018972Y003054D01*
X019222Y003304D01*
X019472Y003054D01*
X019972Y003054D01*
X020222Y003304D01*
X020472Y003054D01*
X020972Y003054D01*
X021222Y003304D01*
X021472Y003054D01*
X021972Y003054D01*
X022222Y003304D01*
X022222Y003804D01*
X021972Y004054D01*
X021472Y004054D01*
X021222Y003804D01*
X020972Y004054D01*
X020472Y004054D01*
X020222Y003804D01*
X019972Y004054D01*
X019472Y004054D01*
X019222Y003804D01*
X018972Y004054D01*
X018472Y004054D01*
X018222Y003804D01*
X017972Y004054D01*
X017472Y004054D01*
X017222Y003804D01*
X016972Y004054D01*
X016472Y004054D01*
X016222Y003804D01*
X016222Y003304D01*
X016472Y003054D01*
X022922Y004934D02*
X023202Y005215D01*
X023202Y004934D01*
X023132Y004864D01*
X022992Y004864D01*
X022922Y004934D01*
X022922Y005215D01*
X022992Y005285D01*
X023132Y005285D01*
X023202Y005215D01*
X023382Y005285D02*
X023382Y005004D01*
X023522Y004864D01*
X023662Y005004D01*
X023662Y005285D01*
X023482Y005574D02*
X023061Y005574D01*
X023061Y005784D01*
X023132Y005855D01*
X023272Y005855D01*
X023342Y005784D01*
X023342Y005574D01*
X023342Y006035D02*
X023061Y006035D01*
X023061Y006175D02*
X023061Y006245D01*
X023061Y006175D02*
X023202Y006035D01*
X023272Y006418D02*
X023202Y006488D01*
X023202Y006699D01*
X023132Y006699D02*
X023342Y006699D01*
X023342Y006488D01*
X023272Y006418D01*
X023061Y006488D02*
X023061Y006628D01*
X023132Y006699D01*
X023132Y006879D02*
X023272Y006879D01*
X023342Y006949D01*
X023342Y007159D01*
X023272Y007409D02*
X023342Y007479D01*
X023272Y007409D02*
X022991Y007409D01*
X023061Y007339D02*
X023061Y007479D01*
X023061Y007646D02*
X023061Y007716D01*
X023342Y007716D01*
X023342Y007646D02*
X023342Y007786D01*
X023272Y007953D02*
X023342Y008023D01*
X023342Y008233D01*
X023272Y008413D02*
X023202Y008483D01*
X023202Y008693D01*
X023132Y008693D02*
X023342Y008693D01*
X023342Y008483D01*
X023272Y008413D01*
X023061Y008483D02*
X023061Y008623D01*
X023132Y008693D01*
X023342Y008874D02*
X023342Y009014D01*
X023342Y008944D02*
X022921Y008944D01*
X022921Y008874D01*
X023061Y009250D02*
X023061Y009391D01*
X023132Y009461D01*
X023342Y009461D01*
X023342Y009250D01*
X023272Y009180D01*
X023202Y009250D01*
X023202Y009461D01*
X023202Y009641D02*
X023061Y009781D01*
X023061Y009851D01*
X023132Y010024D02*
X023061Y010094D01*
X023061Y010305D01*
X022921Y010305D02*
X023342Y010305D01*
X023342Y010094D01*
X023272Y010024D01*
X023132Y010024D01*
X023061Y009641D02*
X023342Y009641D01*
X023272Y010485D02*
X023061Y010485D01*
X023272Y010485D02*
X023342Y010555D01*
X023342Y010765D01*
X023061Y010765D01*
X023061Y010945D02*
X023061Y011015D01*
X023342Y011015D01*
X023342Y010945D02*
X023342Y011085D01*
X023342Y011252D02*
X023061Y011252D01*
X023061Y011462D01*
X023132Y011532D01*
X023342Y011532D01*
X023272Y011712D02*
X023342Y011782D01*
X023342Y011922D01*
X023272Y011993D01*
X023132Y011993D01*
X023061Y011922D01*
X023061Y011782D01*
X023132Y011712D01*
X023272Y011712D01*
X023272Y012173D02*
X023272Y012243D01*
X023342Y012243D01*
X023342Y012173D01*
X023272Y012173D01*
X023272Y012403D02*
X023132Y012403D01*
X023061Y012473D01*
X023061Y012683D01*
X023132Y012863D02*
X023272Y012863D01*
X023342Y012933D01*
X023342Y013073D01*
X023272Y013143D01*
X023132Y013143D01*
X023061Y013073D01*
X023061Y012933D01*
X023132Y012863D01*
X023342Y012683D02*
X023342Y012473D01*
X023272Y012403D01*
X023342Y013324D02*
X023061Y013324D01*
X023061Y013394D01*
X023132Y013464D01*
X023061Y013534D01*
X023132Y013604D01*
X023342Y013604D01*
X023342Y013464D02*
X023132Y013464D01*
X023032Y013864D02*
X022892Y013864D01*
X022822Y013934D01*
X022822Y014074D02*
X022962Y014145D01*
X023032Y014145D01*
X023102Y014074D01*
X023102Y013934D01*
X023032Y013864D01*
X023282Y014004D02*
X023422Y013864D01*
X023562Y014004D01*
X023562Y014285D01*
X023282Y014285D02*
X023282Y014004D01*
X023102Y014285D02*
X022822Y014285D01*
X022822Y014074D01*
X022722Y014304D02*
X022722Y013804D01*
X022472Y013554D01*
X021972Y013554D01*
X021722Y013804D01*
X021722Y014304D01*
X021972Y014554D01*
X022472Y014554D01*
X022722Y014304D01*
X022222Y014554D02*
X001222Y014554D01*
X001472Y014554D02*
X000972Y014554D01*
X000722Y014304D01*
X000722Y013804D01*
X000972Y013554D01*
X001472Y013554D01*
X001722Y013804D01*
X001722Y014304D01*
X001472Y014554D01*
X001722Y014304D02*
X001972Y014554D01*
X002472Y014554D01*
X002722Y014304D01*
X002972Y014554D01*
X003472Y014554D01*
X003722Y014304D01*
X003972Y014554D01*
X004472Y014554D01*
X004722Y014304D01*
X004972Y014554D01*
X005472Y014554D01*
X005722Y014304D01*
X005972Y014554D01*
X006472Y014554D01*
X006722Y014304D01*
X006972Y014554D01*
X007472Y014554D01*
X007722Y014304D01*
X007972Y014554D01*
X008472Y014554D01*
X008722Y014304D01*
X008972Y014554D01*
X009472Y014554D01*
X009722Y014304D01*
X009972Y014554D01*
X010472Y014554D01*
X010722Y014304D01*
X010972Y014554D01*
X011472Y014554D01*
X011722Y014304D01*
X011972Y014554D01*
X012472Y014554D01*
X012722Y014304D01*
X012972Y014554D01*
X013472Y014554D01*
X013722Y014304D01*
X013972Y014554D01*
X014472Y014554D01*
X014722Y014304D01*
X014972Y014554D01*
X015472Y014554D01*
X015722Y014304D01*
X015972Y014554D01*
X016472Y014554D01*
X016722Y014304D01*
X016972Y014554D01*
X017472Y014554D01*
X017722Y014304D01*
X017972Y014554D01*
X018472Y014554D01*
X018722Y014304D01*
X018972Y014554D01*
X019472Y014554D01*
X019722Y014304D01*
X019972Y014554D01*
X020472Y014554D01*
X020722Y014304D01*
X020972Y014554D01*
X021472Y014554D01*
X021722Y014304D01*
X021722Y013804D01*
X021472Y013554D01*
X020972Y013554D01*
X020722Y013804D01*
X020472Y013554D01*
X019972Y013554D01*
X019722Y013804D01*
X019472Y013554D01*
X018972Y013554D01*
X018722Y013804D01*
X018472Y013554D01*
X017972Y013554D01*
X017722Y013804D01*
X017472Y013554D01*
X016972Y013554D01*
X016722Y013804D01*
X016472Y013554D01*
X015972Y013554D01*
X015722Y013804D01*
X015472Y013554D01*
X014972Y013554D01*
X014722Y013804D01*
X014472Y013554D01*
X013972Y013554D01*
X013722Y013804D01*
X013472Y013554D01*
X012972Y013554D01*
X012722Y013804D01*
X012472Y013554D01*
X011972Y013554D01*
X011722Y013804D01*
X011472Y013554D01*
X010972Y013554D01*
X010722Y013804D01*
X010472Y013554D01*
X009972Y013554D01*
X009722Y013804D01*
X009472Y013554D01*
X008972Y013554D01*
X008722Y013804D01*
X008472Y013554D01*
X007972Y013554D01*
X007722Y013804D01*
X007472Y013554D01*
X006972Y013554D01*
X006722Y013804D01*
X006472Y013554D01*
X005972Y013554D01*
X005722Y013804D01*
X005472Y013554D01*
X004972Y013554D01*
X004722Y013804D01*
X004472Y013554D01*
X003972Y013554D01*
X003722Y013804D01*
X003472Y013554D01*
X002972Y013554D01*
X002722Y013804D01*
X002472Y013554D01*
X001972Y013554D01*
X001722Y013804D01*
X001722Y014304D01*
X001222Y013554D02*
X022072Y013554D01*
X020722Y013804D02*
X020722Y014304D01*
X020972Y015054D02*
X020472Y015054D01*
X020222Y015304D01*
X019972Y015054D01*
X019472Y015054D01*
X019222Y015304D01*
X018972Y015054D01*
X018472Y015054D01*
X018222Y015304D01*
X017972Y015054D01*
X017472Y015054D01*
X017222Y015304D01*
X016972Y015054D01*
X016472Y015054D01*
X016222Y015304D01*
X015972Y015054D01*
X015472Y015054D01*
X015222Y015304D01*
X014972Y015054D01*
X014472Y015054D01*
X014222Y015304D01*
X014222Y015804D01*
X014472Y016054D01*
X014972Y016054D01*
X015222Y015804D01*
X015472Y016054D01*
X015972Y016054D01*
X016222Y015804D01*
X016472Y016054D01*
X016972Y016054D01*
X017222Y015804D01*
X017472Y016054D01*
X017972Y016054D01*
X018222Y015804D01*
X018472Y016054D01*
X018972Y016054D01*
X019222Y015804D01*
X019472Y016054D01*
X019972Y016054D01*
X020222Y015804D01*
X020472Y016054D01*
X020972Y016054D01*
X021222Y015804D01*
X021472Y016054D01*
X021972Y016054D01*
X022222Y015804D01*
X022222Y015304D01*
X021972Y015054D01*
X021472Y015054D01*
X021222Y015304D01*
X020972Y015054D01*
X019722Y014304D02*
X019722Y013804D01*
X018722Y013804D02*
X018722Y014304D01*
X017722Y014304D02*
X017722Y013804D01*
X016722Y013804D02*
X016722Y014304D01*
X015722Y014304D02*
X015722Y013804D01*
X014722Y013804D02*
X014722Y014304D01*
X013722Y014304D02*
X013722Y013804D01*
X012722Y013804D02*
X012722Y014304D01*
X012872Y015054D02*
X012622Y015304D01*
X012372Y015054D01*
X011872Y015054D01*
X011622Y015304D01*
X011372Y015054D01*
X010872Y015054D01*
X010622Y015304D01*
X010372Y015054D01*
X009872Y015054D01*
X009622Y015304D01*
X009372Y015054D01*
X008872Y015054D01*
X008622Y015304D01*
X008372Y015054D01*
X007872Y015054D01*
X007622Y015304D01*
X007372Y015054D01*
X006872Y015054D01*
X006622Y015304D01*
X006372Y015054D01*
X005872Y015054D01*
X005622Y015304D01*
X005622Y015804D01*
X005872Y016054D01*
X006372Y016054D01*
X006622Y015804D01*
X006872Y016054D01*
X007372Y016054D01*
X007622Y015804D01*
X007872Y016054D01*
X008372Y016054D01*
X008622Y015804D01*
X008872Y016054D01*
X009372Y016054D01*
X009622Y015804D01*
X009872Y016054D01*
X010372Y016054D01*
X010622Y015804D01*
X010872Y016054D01*
X011372Y016054D01*
X011622Y015804D01*
X011872Y016054D01*
X012372Y016054D01*
X012622Y015804D01*
X012872Y016054D01*
X013372Y016054D01*
X013622Y015804D01*
X013622Y015304D01*
X013372Y015054D01*
X012872Y015054D01*
X011722Y014304D02*
X011722Y013804D01*
X010722Y013804D02*
X010722Y014304D01*
X009722Y014304D02*
X009722Y013804D01*
X008722Y013804D02*
X008722Y014304D01*
X007722Y014304D02*
X007722Y013804D01*
X006722Y013804D02*
X006722Y014304D01*
X005722Y014304D02*
X005722Y013804D01*
X004722Y013804D02*
X004722Y014304D01*
X004922Y015204D02*
X004472Y015204D01*
X004922Y015204D02*
X004922Y015904D01*
X004722Y015904D01*
X003972Y015904D02*
X003522Y015904D01*
X003522Y015204D01*
X003972Y015204D01*
X003722Y014304D02*
X003722Y013804D01*
X002722Y013804D02*
X002722Y014304D01*
X002494Y015200D02*
X002977Y015200D01*
X002977Y015909D01*
X002494Y015909D01*
X002290Y015905D02*
X002290Y015554D01*
X002154Y015318D01*
X002154Y015791D01*
X002290Y015554D01*
X002290Y015204D01*
X002000Y015200D02*
X001467Y015200D01*
X001467Y015909D01*
X002009Y015909D01*
X002000Y016700D02*
X001467Y016700D01*
X001467Y017409D01*
X002009Y017409D01*
X002154Y017291D02*
X002154Y016818D01*
X002290Y017054D01*
X002154Y017291D01*
X002290Y017405D02*
X002290Y017054D01*
X002290Y016704D01*
X002494Y016700D02*
X002977Y016700D01*
X002977Y017409D01*
X002494Y017409D01*
X002472Y018054D02*
X001972Y018054D01*
X001722Y018304D01*
X001472Y018054D01*
X000972Y018054D01*
X000722Y018304D01*
X000722Y018804D01*
X000972Y019054D01*
X001472Y019054D01*
X001722Y018804D01*
X001972Y019054D01*
X002472Y019054D01*
X002722Y018804D01*
X002972Y019054D01*
X003472Y019054D01*
X003722Y018804D01*
X003972Y019054D01*
X004222Y019054D01*
X014222Y019054D01*
X014472Y019054D01*
X014722Y018804D01*
X014972Y019054D01*
X015472Y019054D01*
X015722Y018804D01*
X015972Y019054D01*
X016472Y019054D01*
X016722Y018804D01*
X016972Y019054D01*
X017472Y019054D01*
X017722Y018804D01*
X017722Y018304D01*
X017472Y018054D01*
X016972Y018054D01*
X016722Y018304D01*
X016472Y018054D01*
X015972Y018054D01*
X015722Y018304D01*
X015472Y018054D01*
X014972Y018054D01*
X014722Y018304D01*
X014472Y018054D01*
X014222Y018054D01*
X004222Y018054D01*
X003972Y018054D01*
X003722Y018304D01*
X003472Y018054D01*
X002972Y018054D01*
X002722Y018304D01*
X002472Y018054D01*
X003522Y017404D02*
X003972Y017404D01*
X003522Y017404D02*
X003522Y016704D01*
X003972Y016704D01*
X004422Y016704D02*
X004922Y016704D01*
X004922Y017404D01*
X004722Y017404D01*
X004472Y018054D02*
X004222Y018054D01*
X004472Y018054D02*
X004722Y018304D01*
X004722Y018804D01*
X004472Y019054D01*
X004222Y019054D01*
X005622Y020304D02*
X005622Y020804D01*
X005872Y021054D01*
X006372Y021054D01*
X006622Y020804D01*
X006872Y021054D01*
X007372Y021054D01*
X007622Y020804D01*
X007872Y021054D01*
X008372Y021054D01*
X008622Y020804D01*
X008872Y021054D01*
X009372Y021054D01*
X009622Y020804D01*
X009872Y021054D01*
X010372Y021054D01*
X010622Y020804D01*
X010872Y021054D01*
X011372Y021054D01*
X011622Y020804D01*
X011872Y021054D01*
X012372Y021054D01*
X012622Y020804D01*
X012872Y021054D01*
X013372Y021054D01*
X013622Y020804D01*
X013622Y020304D01*
X013372Y020054D01*
X012872Y020054D01*
X012622Y020304D01*
X012372Y020054D01*
X011872Y020054D01*
X011622Y020304D01*
X011372Y020054D01*
X010872Y020054D01*
X010622Y020304D01*
X010372Y020054D01*
X009872Y020054D01*
X009622Y020304D01*
X009372Y020054D01*
X008872Y020054D01*
X008622Y020304D01*
X008372Y020054D01*
X007872Y020054D01*
X007622Y020304D01*
X007372Y020054D01*
X006872Y020054D01*
X006622Y020304D01*
X006372Y020054D01*
X005872Y020054D01*
X005622Y020304D01*
X001722Y020104D02*
X001722Y020604D01*
X001472Y020854D01*
X000972Y020854D01*
X000722Y020604D01*
X000722Y020104D01*
X000972Y019854D01*
X001472Y019854D01*
X001722Y020104D01*
X000668Y013622D02*
X000415Y013622D01*
X000668Y013368D01*
X000732Y013431D01*
X000732Y013558D01*
X000668Y013622D01*
X000415Y013622D02*
X000351Y013558D01*
X000351Y013431D01*
X000415Y013368D01*
X000668Y013368D01*
X000668Y013220D02*
X000732Y013220D01*
X000732Y013156D01*
X000668Y013156D01*
X000668Y013220D01*
X000732Y012986D02*
X000732Y012733D01*
X000732Y012860D02*
X000351Y012860D01*
X000478Y012733D01*
X000478Y012563D02*
X000732Y012436D01*
X000478Y012309D01*
X000478Y011723D02*
X000478Y011660D01*
X000605Y011533D01*
X000732Y011533D02*
X000478Y011533D01*
X000542Y011363D02*
X000478Y011299D01*
X000478Y011173D01*
X000542Y011109D01*
X000668Y011109D01*
X000732Y011173D01*
X000732Y011299D01*
X000605Y011363D02*
X000605Y011109D01*
X000478Y010939D02*
X000732Y010812D01*
X000478Y010686D01*
X000478Y010467D02*
X000732Y010467D01*
X000732Y010530D02*
X000732Y010403D01*
X000605Y010233D02*
X000605Y009980D01*
X000668Y009980D02*
X000542Y009980D01*
X000478Y010043D01*
X000478Y010170D01*
X000542Y010233D01*
X000605Y010233D01*
X000732Y010170D02*
X000732Y010043D01*
X000668Y009980D01*
X000732Y009810D02*
X000732Y009620D01*
X000668Y009556D01*
X000542Y009556D01*
X000478Y009620D01*
X000478Y009810D01*
X000542Y009386D02*
X000478Y009323D01*
X000478Y009196D01*
X000542Y009133D01*
X000668Y009133D01*
X000732Y009196D01*
X000732Y009323D01*
X000605Y009386D02*
X000605Y009133D01*
X000542Y008963D02*
X000415Y008963D01*
X000351Y008899D01*
X000351Y008709D01*
X000732Y008709D01*
X000605Y008709D02*
X000605Y008899D01*
X000542Y008963D01*
X000605Y008836D02*
X000732Y008963D01*
X000605Y009386D02*
X000542Y009386D01*
X000478Y010403D02*
X000478Y010467D01*
X000351Y010467D02*
X000288Y010467D01*
X000542Y011363D02*
X000605Y011363D01*
X000478Y008116D02*
X000732Y007862D01*
X000732Y008116D01*
X000478Y008116D02*
X000478Y007862D01*
X000542Y007692D02*
X000478Y007629D01*
X000478Y007502D01*
X000542Y007439D01*
X000732Y007439D02*
X000351Y007439D01*
X000351Y007269D02*
X000732Y007269D01*
X000732Y007015D02*
X000351Y007015D01*
X000478Y007142D01*
X000351Y007269D01*
X000415Y006845D02*
X000478Y006845D01*
X000542Y006782D01*
X000605Y006845D01*
X000668Y006845D01*
X000732Y006782D01*
X000732Y006655D01*
X000668Y006591D01*
X000668Y006421D02*
X000732Y006358D01*
X000732Y006231D01*
X000668Y006168D01*
X000542Y006295D02*
X000542Y006358D01*
X000605Y006421D01*
X000668Y006421D01*
X000542Y006358D02*
X000478Y006421D01*
X000415Y006421D01*
X000351Y006358D01*
X000351Y006231D01*
X000415Y006168D01*
X000542Y005998D02*
X000542Y005744D01*
X000351Y005934D01*
X000732Y005934D01*
X000415Y006591D02*
X000351Y006655D01*
X000351Y006782D01*
X000415Y006845D01*
X000542Y006782D02*
X000542Y006718D01*
X000542Y007692D02*
X000732Y007692D01*
X001879Y004004D02*
X002672Y004004D01*
X001572Y002804D02*
X001574Y002856D01*
X001580Y002908D01*
X001590Y002960D01*
X001603Y003010D01*
X001620Y003060D01*
X001641Y003108D01*
X001666Y003154D01*
X001694Y003198D01*
X001725Y003240D01*
X001759Y003280D01*
X001796Y003317D01*
X001836Y003351D01*
X001878Y003382D01*
X001922Y003410D01*
X001968Y003435D01*
X002016Y003456D01*
X002066Y003473D01*
X002116Y003486D01*
X002168Y003496D01*
X002220Y003502D01*
X002272Y003504D01*
X002324Y003502D01*
X002376Y003496D01*
X002428Y003486D01*
X002478Y003473D01*
X002528Y003456D01*
X002576Y003435D01*
X002622Y003410D01*
X002666Y003382D01*
X002708Y003351D01*
X002748Y003317D01*
X002785Y003280D01*
X002819Y003240D01*
X002850Y003198D01*
X002878Y003154D01*
X002903Y003108D01*
X002924Y003060D01*
X002941Y003010D01*
X002954Y002960D01*
X002964Y002908D01*
X002970Y002856D01*
X002972Y002804D01*
X002970Y002752D01*
X002964Y002700D01*
X002954Y002648D01*
X002941Y002598D01*
X002924Y002548D01*
X002903Y002500D01*
X002878Y002454D01*
X002850Y002410D01*
X002819Y002368D01*
X002785Y002328D01*
X002748Y002291D01*
X002708Y002257D01*
X002666Y002226D01*
X002622Y002198D01*
X002576Y002173D01*
X002528Y002152D01*
X002478Y002135D01*
X002428Y002122D01*
X002376Y002112D01*
X002324Y002106D01*
X002272Y002104D01*
X002220Y002106D01*
X002168Y002112D01*
X002116Y002122D01*
X002066Y002135D01*
X002016Y002152D01*
X001968Y002173D01*
X001922Y002198D01*
X001878Y002226D01*
X001836Y002257D01*
X001796Y002291D01*
X001759Y002328D01*
X001725Y002368D01*
X001694Y002410D01*
X001666Y002454D01*
X001641Y002500D01*
X001620Y002548D01*
X001603Y002598D01*
X001590Y002648D01*
X001580Y002700D01*
X001574Y002752D01*
X001572Y002804D01*
X001072Y003654D02*
X001072Y001954D01*
X001867Y001604D02*
X002672Y001604D01*
X013972Y018054D02*
X014222Y018054D01*
X013972Y018054D02*
X013722Y018304D01*
X013722Y018804D01*
X013972Y019054D01*
X014222Y019054D01*
X014472Y020054D02*
X014222Y020304D01*
X014222Y020804D01*
X014472Y021054D01*
X014972Y021054D01*
X015222Y020804D01*
X015472Y021054D01*
X015972Y021054D01*
X016222Y020804D01*
X016472Y021054D01*
X016972Y021054D01*
X017222Y020804D01*
X017472Y021054D01*
X017972Y021054D01*
X018222Y020804D01*
X018472Y021054D01*
X018972Y021054D01*
X019222Y020804D01*
X019472Y021054D01*
X019972Y021054D01*
X020222Y020804D01*
X020472Y021054D01*
X020972Y021054D01*
X021222Y020804D01*
X021472Y021054D01*
X021972Y021054D01*
X022222Y020804D01*
X022222Y020304D01*
X021972Y020054D01*
X021472Y020054D01*
X021222Y020304D01*
X020972Y020054D01*
X020472Y020054D01*
X020222Y020304D01*
X019972Y020054D01*
X019472Y020054D01*
X019222Y020304D01*
X018972Y020054D01*
X018472Y020054D01*
X018222Y020304D01*
X017972Y020054D01*
X017472Y020054D01*
X017222Y020304D01*
X016972Y020054D01*
X016472Y020054D01*
X016222Y020304D01*
X015972Y020054D01*
X015472Y020054D01*
X015222Y020304D01*
X014972Y020054D01*
X014472Y020054D01*
X022851Y011015D02*
X022921Y011015D01*
X023061Y008233D02*
X023061Y008023D01*
X023132Y007953D01*
X023272Y007953D01*
X022921Y007716D02*
X022851Y007716D01*
X023061Y007159D02*
X023061Y006949D01*
X023132Y006879D01*
D11*
X007222Y002629D03*
X005222Y002629D03*
D12*
X005847Y002669D02*
X006027Y002669D01*
X006027Y002759D02*
X005847Y002759D01*
X005847Y002979D02*
X006027Y002979D01*
X006141Y003024D02*
X006186Y002979D01*
X006276Y002979D01*
X006321Y003024D01*
X006321Y003204D01*
X006276Y003250D01*
X006186Y003250D01*
X006141Y003204D01*
X006141Y003024D01*
X006186Y002850D02*
X006141Y002804D01*
X006141Y002624D01*
X006186Y002579D01*
X006276Y002579D01*
X006321Y002624D01*
X006321Y002804D01*
X006276Y002850D01*
X006186Y002850D01*
X005847Y002979D02*
X005847Y003250D01*
X006436Y003250D02*
X006436Y002979D01*
X006526Y003069D01*
X006616Y002979D01*
X006616Y003250D01*
X006616Y002850D02*
X006616Y002579D01*
X006436Y002850D01*
X006436Y002579D01*
X006471Y000950D02*
X006291Y000769D01*
X006336Y000814D02*
X006471Y000679D01*
X006291Y000679D02*
X006291Y000950D01*
X006087Y000950D02*
X006087Y000679D01*
X005997Y000679D02*
X006177Y000679D01*
X005997Y000859D02*
X006087Y000950D01*
X004471Y000950D02*
X004291Y000769D01*
X004336Y000814D02*
X004471Y000679D01*
X004291Y000679D02*
X004291Y000950D01*
X004087Y000950D02*
X004087Y000679D01*
X003997Y000679D02*
X004177Y000679D01*
X003997Y000859D02*
X004087Y000950D01*
X008147Y000859D02*
X008237Y000950D01*
X008237Y000679D01*
X008147Y000679D02*
X008327Y000679D01*
X008441Y000724D02*
X008621Y000904D01*
X008621Y000724D01*
X008576Y000679D01*
X008486Y000679D01*
X008441Y000724D01*
X008441Y000904D01*
X008486Y000950D01*
X008576Y000950D01*
X008621Y000904D01*
X008736Y000904D02*
X008736Y000724D01*
X008916Y000904D01*
X008916Y000724D01*
X008871Y000679D01*
X008781Y000679D01*
X008736Y000724D01*
X008736Y000904D02*
X008781Y000950D01*
X008871Y000950D01*
X008916Y000904D01*
X009031Y000859D02*
X009166Y000859D01*
X009211Y000814D01*
X009211Y000679D01*
X009325Y000679D02*
X009325Y000950D01*
X009505Y000950D01*
X009415Y000814D02*
X009325Y000814D01*
X009031Y000859D02*
X009031Y000679D01*
X009347Y002229D02*
X009347Y002500D01*
X009482Y002500D01*
X009527Y002454D01*
X009527Y002364D01*
X009482Y002319D01*
X009347Y002319D01*
X009437Y002319D02*
X009527Y002229D01*
X009641Y002274D02*
X009686Y002229D01*
X009776Y002229D01*
X009821Y002274D01*
X009821Y002319D01*
X009776Y002364D01*
X009686Y002364D01*
X009641Y002409D01*
X009641Y002454D01*
X009686Y002500D01*
X009776Y002500D01*
X009821Y002454D01*
X009936Y002500D02*
X010116Y002500D01*
X010026Y002500D02*
X010026Y002229D01*
X010392Y002579D02*
X010347Y002624D01*
X010392Y002579D02*
X010482Y002579D01*
X010527Y002624D01*
X010527Y002669D01*
X010482Y002714D01*
X010437Y002714D01*
X010482Y002714D02*
X010527Y002759D01*
X010527Y002804D01*
X010482Y002850D01*
X010392Y002850D01*
X010347Y002804D01*
X010641Y002850D02*
X010641Y002669D01*
X010731Y002579D01*
X010821Y002669D01*
X010821Y002850D01*
X010936Y002804D02*
X010981Y002850D01*
X011071Y002850D01*
X011116Y002804D01*
X011116Y002759D01*
X011071Y002714D01*
X011116Y002669D01*
X011116Y002624D01*
X011071Y002579D01*
X010981Y002579D01*
X010936Y002624D01*
X011026Y002714D02*
X011071Y002714D01*
X011497Y002500D02*
X011497Y002364D01*
X011587Y002409D01*
X011632Y002409D01*
X011677Y002364D01*
X011677Y002274D01*
X011632Y002229D01*
X011542Y002229D01*
X011497Y002274D01*
X011497Y002500D02*
X011677Y002500D01*
X011791Y002500D02*
X011791Y002319D01*
X011881Y002229D01*
X011971Y002319D01*
X011971Y002500D01*
X012347Y002624D02*
X012347Y002804D01*
X012392Y002850D01*
X012482Y002850D01*
X012527Y002804D01*
X012527Y002714D02*
X012437Y002714D01*
X012527Y002714D02*
X012527Y002624D01*
X012482Y002579D01*
X012392Y002579D01*
X012347Y002624D01*
X012641Y002579D02*
X012641Y002850D01*
X012821Y002579D01*
X012821Y002850D01*
X012936Y002850D02*
X012936Y002579D01*
X013071Y002579D01*
X013116Y002624D01*
X013116Y002804D01*
X013071Y002850D01*
X012936Y002850D01*
X013347Y002454D02*
X013347Y002274D01*
X013392Y002229D01*
X013482Y002229D01*
X013527Y002274D01*
X013527Y002364D01*
X013437Y002364D01*
X013527Y002454D02*
X013482Y002500D01*
X013392Y002500D01*
X013347Y002454D01*
X013641Y002500D02*
X013821Y002229D01*
X013821Y002500D01*
X013936Y002500D02*
X013936Y002229D01*
X014071Y002229D01*
X014116Y002274D01*
X014116Y002454D01*
X014071Y002500D01*
X013936Y002500D01*
X013641Y002500D02*
X013641Y002229D01*
X014397Y002669D02*
X014487Y002579D01*
X014577Y002669D01*
X014577Y002850D01*
X014691Y002850D02*
X014781Y002850D01*
X014736Y002850D02*
X014736Y002579D01*
X014691Y002579D02*
X014781Y002579D01*
X014888Y002579D02*
X014888Y002850D01*
X015068Y002579D01*
X015068Y002850D01*
X014397Y002850D02*
X014397Y002669D01*
X022402Y002624D02*
X022402Y004174D01*
X022452Y004224D01*
X022452Y002624D01*
X023502Y002624D01*
X023502Y002574D01*
X022502Y002574D01*
X022502Y003024D01*
X022502Y003174D01*
X022502Y003224D01*
X022552Y003274D01*
X022502Y003274D01*
X022502Y003324D01*
X022602Y003324D01*
X022552Y003274D01*
X022602Y003274D02*
X022502Y003174D01*
X022502Y003224D02*
X022502Y003274D01*
X022502Y003324D02*
X022602Y003274D01*
X022602Y003324D01*
X022652Y003324D01*
X022602Y003274D01*
X022502Y003374D01*
X022652Y003324D01*
X022502Y003424D01*
X022752Y003324D01*
X022502Y003474D01*
X022852Y003324D01*
X022952Y003324D02*
X023502Y003074D01*
X023002Y003274D01*
X023502Y003024D01*
X023052Y003224D01*
X023402Y003024D01*
X023102Y003174D01*
X023302Y003024D01*
X023102Y003124D01*
X023202Y003024D01*
X023102Y003024D01*
X023102Y003074D01*
X023202Y003024D01*
X023302Y003024D01*
X023402Y003024D01*
X023502Y003024D01*
X023502Y002974D01*
X023102Y002974D01*
X023102Y003024D01*
X023102Y002974D02*
X023102Y002924D01*
X023502Y002924D01*
X023502Y002624D01*
X023502Y002574D02*
X023502Y002524D01*
X023552Y002574D01*
X023552Y004224D01*
X023602Y004224D01*
X023602Y002624D01*
X023552Y002574D01*
X023502Y002524D02*
X022502Y002524D01*
X022502Y002574D01*
X022502Y002524D02*
X022452Y002574D01*
X022452Y002624D01*
X022452Y002574D02*
X022402Y002624D01*
X022752Y002924D02*
X022752Y002974D01*
X022802Y002974D01*
X022852Y002974D02*
X022850Y002987D01*
X022845Y002999D01*
X022837Y003009D01*
X022827Y003017D01*
X022815Y003022D01*
X022802Y003024D01*
X022789Y003022D01*
X022777Y003017D01*
X022767Y003009D01*
X022759Y002999D01*
X022754Y002987D01*
X022752Y002974D01*
X022752Y002924D02*
X022802Y002924D01*
X022802Y002974D01*
X022852Y002974D01*
X022852Y002924D01*
X022802Y002924D01*
X023102Y003024D02*
X023100Y003058D01*
X023094Y003091D01*
X023085Y003123D01*
X023072Y003154D01*
X023056Y003184D01*
X023037Y003211D01*
X023014Y003236D01*
X022989Y003259D01*
X022962Y003278D01*
X022932Y003294D01*
X022901Y003307D01*
X022869Y003316D01*
X022836Y003322D01*
X022802Y003324D01*
X022768Y003322D01*
X022735Y003316D01*
X022703Y003307D01*
X022672Y003294D01*
X022642Y003278D01*
X022615Y003259D01*
X022590Y003236D01*
X022567Y003211D01*
X022548Y003184D01*
X022532Y003154D01*
X022519Y003123D01*
X022510Y003091D01*
X022504Y003058D01*
X022502Y003024D01*
X022502Y003324D02*
X022502Y003374D01*
X022502Y003424D01*
X022502Y003474D01*
X023502Y003174D01*
X023502Y003124D01*
X022952Y003324D01*
X022977Y003674D02*
X022802Y003724D01*
X022977Y003774D01*
X022977Y003674D01*
X022952Y003724D02*
X022852Y003724D01*
X023202Y003724D02*
X023202Y003774D01*
X023202Y003824D01*
X023502Y003724D01*
X023502Y003774D01*
X023252Y003824D01*
X023302Y003824D01*
X023502Y003874D01*
X023502Y003824D01*
X023302Y003824D01*
X023202Y003824D02*
X023502Y003924D01*
X023502Y003874D01*
X023502Y003824D02*
X023502Y003774D01*
X023502Y003724D02*
X023502Y003674D01*
X023202Y003774D01*
X023202Y003724D02*
X023502Y003624D01*
X023502Y003674D01*
X023502Y003624D02*
X023502Y003574D01*
X023202Y003674D01*
X023202Y003724D01*
X023202Y003674D02*
X023202Y003624D01*
X023502Y003524D01*
X023502Y003224D01*
X022502Y003524D01*
X022502Y003474D01*
X022502Y003524D02*
X022502Y003574D01*
X023502Y003224D01*
X023502Y003174D01*
X023502Y003124D02*
X023502Y003074D01*
X023502Y003024D01*
X023502Y002974D02*
X023502Y002924D01*
X023502Y003524D02*
X023502Y003574D01*
X023502Y003924D02*
X023502Y004224D01*
X023352Y004174D01*
X023352Y004224D01*
X023352Y004274D01*
X023352Y004324D01*
X022502Y004124D01*
X022552Y004124D01*
X022552Y004224D01*
X022602Y004224D01*
X022602Y004124D01*
X022652Y004124D01*
X022652Y004224D01*
X022702Y004224D01*
X022702Y004274D01*
X022752Y004324D01*
X022802Y004374D01*
X022802Y004174D01*
X022852Y004174D01*
X022852Y004374D01*
X022902Y004374D01*
X022902Y004174D01*
X022952Y004174D01*
X022952Y004374D01*
X023002Y004374D01*
X023002Y004224D01*
X023052Y004224D01*
X023052Y004374D01*
X023102Y004374D01*
X023102Y004274D01*
X023152Y004274D01*
X023152Y004374D01*
X023202Y004374D01*
X023202Y004274D01*
X023252Y004274D01*
X023252Y004374D01*
X023302Y004374D01*
X023302Y004274D01*
X023352Y004274D01*
X022502Y004024D01*
X022502Y004074D01*
X023352Y004324D01*
X023352Y004374D01*
X023402Y004324D01*
X023402Y004224D01*
X023452Y004224D01*
X023302Y004224D01*
X023352Y004224D02*
X022502Y003974D01*
X022502Y004024D01*
X022502Y003974D02*
X022502Y003924D01*
X023502Y004224D01*
X022502Y003874D01*
X022502Y003924D01*
X022502Y003874D02*
X022502Y003574D01*
X022502Y004074D02*
X022502Y004124D01*
X022502Y004224D01*
X022552Y004224D01*
X022602Y004224D02*
X022652Y004224D01*
X022702Y004274D01*
X022702Y004224D02*
X022702Y004174D01*
X022752Y004174D01*
X022752Y004324D01*
X022802Y004374D02*
X022852Y004374D01*
X022902Y004374D02*
X022952Y004374D01*
X023002Y004374D02*
X023052Y004374D01*
X023102Y004374D02*
X023152Y004374D01*
X023202Y004374D02*
X023252Y004374D01*
X023302Y004374D02*
X023352Y004374D01*
X023402Y004324D02*
X023452Y004274D01*
X023452Y004224D01*
X023502Y004224D02*
X023552Y004224D01*
X023502Y004224D02*
X023452Y004274D01*
X022502Y004224D02*
X022452Y004224D01*
X010516Y016229D02*
X010336Y016229D01*
X010426Y016229D02*
X010426Y016500D01*
X010336Y016409D01*
X010221Y016229D02*
X010041Y016229D01*
X010131Y016229D02*
X010131Y016500D01*
X010041Y016409D01*
X009927Y016454D02*
X009882Y016500D01*
X009747Y016500D01*
X009747Y016229D01*
X009882Y016229D01*
X009927Y016274D01*
X009927Y016454D01*
X009516Y016579D02*
X009336Y016579D01*
X009516Y016759D01*
X009516Y016804D01*
X009471Y016850D01*
X009381Y016850D01*
X009336Y016804D01*
X009131Y016850D02*
X009041Y016759D01*
X008927Y016804D02*
X008927Y016624D01*
X008882Y016579D01*
X008747Y016579D01*
X008747Y016850D01*
X008882Y016850D01*
X008927Y016804D01*
X009131Y016850D02*
X009131Y016579D01*
X009041Y016579D02*
X009221Y016579D01*
X008516Y016454D02*
X008516Y016409D01*
X008471Y016364D01*
X008516Y016319D01*
X008516Y016274D01*
X008471Y016229D01*
X008381Y016229D01*
X008336Y016274D01*
X008221Y016229D02*
X008041Y016229D01*
X008131Y016229D02*
X008131Y016500D01*
X008041Y016409D01*
X007927Y016454D02*
X007882Y016500D01*
X007747Y016500D01*
X007747Y016229D01*
X007882Y016229D01*
X007927Y016274D01*
X007927Y016454D01*
X008336Y016454D02*
X008381Y016500D01*
X008471Y016500D01*
X008516Y016454D01*
X008471Y016364D02*
X008426Y016364D01*
X007516Y016624D02*
X007471Y016579D01*
X007336Y016579D01*
X007336Y016850D01*
X007471Y016850D01*
X007516Y016804D01*
X007516Y016624D01*
X007221Y016579D02*
X007221Y016850D01*
X007041Y016850D02*
X007221Y016579D01*
X007041Y016579D02*
X007041Y016850D01*
X006927Y016804D02*
X006882Y016850D01*
X006792Y016850D01*
X006747Y016804D01*
X006747Y016624D01*
X006792Y016579D01*
X006882Y016579D01*
X006927Y016624D01*
X006927Y016714D01*
X006837Y016714D01*
X006516Y016500D02*
X006336Y016500D01*
X006336Y016229D01*
X006221Y016229D02*
X006041Y016229D01*
X006041Y016500D01*
X006221Y016500D01*
X006227Y016629D02*
X006227Y016809D01*
X006137Y016900D01*
X006047Y016809D01*
X006047Y016629D01*
X006047Y016764D02*
X006227Y016764D01*
X006131Y016364D02*
X006041Y016364D01*
X005927Y016364D02*
X005882Y016319D01*
X005747Y016319D01*
X005747Y016229D02*
X005747Y016500D01*
X005882Y016500D01*
X005927Y016454D01*
X005927Y016364D01*
X005837Y016319D02*
X005927Y016229D01*
X006336Y016364D02*
X006426Y016364D01*
X004621Y016200D02*
X004441Y016019D01*
X004486Y016064D02*
X004621Y015929D01*
X004441Y015929D02*
X004441Y016200D01*
X004237Y016200D02*
X004237Y015929D01*
X004147Y015929D02*
X004327Y015929D01*
X004147Y016109D02*
X004237Y016200D01*
X004237Y017429D02*
X004237Y017700D01*
X004147Y017609D01*
X004147Y017429D02*
X004327Y017429D01*
X004441Y017429D02*
X004441Y017700D01*
X004486Y017564D02*
X004621Y017429D01*
X004441Y017519D02*
X004621Y017700D01*
X002905Y017800D02*
X002905Y017529D01*
X002725Y017800D01*
X002725Y017529D01*
X002611Y017529D02*
X002431Y017529D01*
X002431Y017800D01*
X002611Y017800D01*
X002521Y017664D02*
X002431Y017664D01*
X002316Y017529D02*
X002136Y017529D01*
X002136Y017800D01*
X002316Y017800D01*
X002226Y017664D02*
X002136Y017664D01*
X002021Y017664D02*
X001976Y017619D01*
X001841Y017619D01*
X001841Y017529D02*
X001841Y017800D01*
X001976Y017800D01*
X002021Y017754D01*
X002021Y017664D01*
X001931Y017619D02*
X002021Y017529D01*
X001727Y017574D02*
X001727Y017664D01*
X001637Y017664D01*
X001727Y017574D02*
X001682Y017529D01*
X001592Y017529D01*
X001547Y017574D01*
X001547Y017754D01*
X001592Y017800D01*
X001682Y017800D01*
X001727Y017754D01*
X001061Y017190D02*
X000971Y017144D01*
X000881Y017054D01*
X001016Y017054D01*
X001061Y017009D01*
X001061Y016964D01*
X001016Y016919D01*
X000926Y016919D01*
X000881Y016964D01*
X000881Y017054D01*
X000767Y016964D02*
X000767Y017144D01*
X000722Y017190D01*
X000587Y017190D01*
X000587Y016919D01*
X000722Y016919D01*
X000767Y016964D01*
X001547Y016300D02*
X001682Y016300D01*
X001727Y016254D01*
X001727Y016164D01*
X001682Y016119D01*
X001547Y016119D01*
X001547Y016029D02*
X001547Y016300D01*
X001637Y016119D02*
X001727Y016029D01*
X001841Y016029D02*
X001841Y016300D01*
X002021Y016300D01*
X002136Y016300D02*
X002271Y016300D01*
X002316Y016254D01*
X002316Y016074D01*
X002271Y016029D01*
X002136Y016029D01*
X002136Y016300D01*
X001931Y016164D02*
X001841Y016164D01*
X001841Y016029D02*
X002021Y016029D01*
X001061Y015690D02*
X001061Y015644D01*
X000881Y015464D01*
X000881Y015419D01*
X000767Y015464D02*
X000767Y015644D01*
X000722Y015690D01*
X000587Y015690D01*
X000587Y015419D01*
X000722Y015419D01*
X000767Y015464D01*
X000881Y015690D02*
X001061Y015690D01*
X001747Y019429D02*
X001747Y019700D01*
X001927Y019700D01*
X002041Y019700D02*
X002041Y019474D01*
X002086Y019429D01*
X002176Y019429D01*
X002221Y019474D01*
X002221Y019700D01*
X002336Y019700D02*
X002336Y019429D01*
X002516Y019429D01*
X002631Y019429D02*
X002811Y019429D01*
X002925Y019429D02*
X002925Y019474D01*
X002970Y019474D01*
X002970Y019429D01*
X002925Y019429D01*
X002925Y019564D02*
X002925Y019609D01*
X002970Y019609D01*
X002970Y019564D01*
X002925Y019564D01*
X002925Y019879D02*
X002925Y019924D01*
X002970Y019924D01*
X002970Y019879D01*
X002925Y019879D01*
X002811Y019879D02*
X002631Y019879D01*
X002811Y020059D01*
X002811Y020104D01*
X002766Y020150D01*
X002676Y020150D01*
X002631Y020104D01*
X002516Y020150D02*
X002336Y019879D01*
X002221Y019879D02*
X002041Y019879D01*
X002131Y019879D02*
X002131Y020150D01*
X002041Y020059D01*
X002041Y020329D02*
X002221Y020329D01*
X002131Y020329D02*
X002131Y020600D01*
X002041Y020509D01*
X002027Y020779D02*
X002027Y020959D01*
X001937Y021050D01*
X001847Y020959D01*
X001847Y020779D01*
X001847Y020914D02*
X002027Y020914D01*
X002141Y020779D02*
X002141Y021050D01*
X002321Y020779D01*
X002321Y021050D01*
X002436Y021050D02*
X002616Y021050D01*
X002526Y021050D02*
X002526Y020779D01*
X002516Y020600D02*
X002336Y020329D01*
X002631Y020464D02*
X002811Y020464D01*
X002925Y020464D02*
X002925Y020509D01*
X002970Y020509D01*
X002970Y020464D01*
X002925Y020464D01*
X002925Y020374D02*
X002925Y020329D01*
X002970Y020329D01*
X002970Y020374D01*
X002925Y020374D01*
X002766Y020329D02*
X002766Y020600D01*
X002631Y020464D01*
X002731Y020779D02*
X002911Y020779D01*
X003025Y020779D02*
X003025Y021050D01*
X003205Y020779D01*
X003205Y021050D01*
X003320Y021050D02*
X003500Y020779D01*
X003500Y021050D01*
X003615Y020959D02*
X003705Y021050D01*
X003795Y020959D01*
X003795Y020779D01*
X003795Y020914D02*
X003615Y020914D01*
X003615Y020959D02*
X003615Y020779D01*
X003662Y020600D02*
X003842Y020600D01*
X003842Y020554D01*
X003662Y020374D01*
X003662Y020329D01*
X003547Y020329D02*
X003367Y020329D01*
X003457Y020329D02*
X003457Y020600D01*
X003367Y020509D01*
X003320Y020779D02*
X003320Y021050D01*
X002911Y021050D02*
X002731Y021050D01*
X002731Y020779D01*
X002731Y020914D02*
X002821Y020914D01*
X003412Y020150D02*
X003502Y020150D01*
X003547Y020104D01*
X003547Y020059D01*
X003502Y020014D01*
X003547Y019969D01*
X003547Y019924D01*
X003502Y019879D01*
X003412Y019879D01*
X003367Y019924D01*
X003457Y020014D02*
X003502Y020014D01*
X003662Y020014D02*
X003752Y020059D01*
X003797Y020059D01*
X003842Y020014D01*
X003842Y019924D01*
X003797Y019879D01*
X003707Y019879D01*
X003662Y019924D01*
X003662Y020014D02*
X003662Y020150D01*
X003842Y020150D01*
X003957Y020104D02*
X003957Y019924D01*
X004002Y019879D01*
X004092Y019879D01*
X004137Y019924D01*
X004251Y019879D02*
X004251Y020150D01*
X004341Y020059D01*
X004431Y020150D01*
X004431Y019879D01*
X004431Y019700D02*
X004431Y019429D01*
X004251Y019429D02*
X004251Y019700D01*
X004341Y019609D01*
X004431Y019700D01*
X004137Y019654D02*
X004092Y019700D01*
X004002Y019700D01*
X003957Y019654D01*
X003957Y019474D01*
X004002Y019429D01*
X004092Y019429D01*
X004137Y019474D01*
X003842Y019474D02*
X003797Y019429D01*
X003707Y019429D01*
X003662Y019474D01*
X003707Y019564D02*
X003842Y019564D01*
X003842Y019474D02*
X003842Y019654D01*
X003797Y019700D01*
X003707Y019700D01*
X003662Y019654D01*
X003662Y019609D01*
X003707Y019564D01*
X003547Y019519D02*
X003502Y019564D01*
X003367Y019564D01*
X003367Y019474D01*
X003412Y019429D01*
X003502Y019429D01*
X003547Y019474D01*
X003547Y019519D01*
X003457Y019654D02*
X003547Y019700D01*
X003457Y019654D02*
X003367Y019564D01*
X003367Y020104D02*
X003412Y020150D01*
X002970Y020059D02*
X002970Y020014D01*
X002925Y020014D01*
X002925Y020059D01*
X002970Y020059D01*
X002631Y019700D02*
X002631Y019429D01*
X001837Y019564D02*
X001747Y019564D01*
X003957Y020104D02*
X004002Y020150D01*
X004092Y020150D01*
X004137Y020104D01*
X004092Y020329D02*
X004137Y020374D01*
X004092Y020329D02*
X004002Y020329D01*
X003957Y020374D01*
X003957Y020554D01*
X004002Y020600D01*
X004092Y020600D01*
X004137Y020554D01*
X004251Y020600D02*
X004251Y020329D01*
X004431Y020329D02*
X004431Y020600D01*
X004341Y020509D01*
X004251Y020600D01*
X004597Y021179D02*
X004777Y021179D01*
X004687Y021179D02*
X004687Y021450D01*
X004597Y021359D01*
X004891Y021404D02*
X004891Y021224D01*
X005071Y021404D01*
X005071Y021224D01*
X005026Y021179D01*
X004936Y021179D01*
X004891Y021224D01*
X004891Y021404D02*
X004936Y021450D01*
X005026Y021450D01*
X005071Y021404D01*
X005186Y021404D02*
X005231Y021450D01*
X005321Y021450D01*
X005366Y021404D01*
X005186Y021224D01*
X005231Y021179D01*
X005321Y021179D01*
X005366Y021224D01*
X005366Y021404D01*
X005481Y021359D02*
X005481Y021179D01*
X005661Y021179D02*
X005661Y021314D01*
X005616Y021359D01*
X005481Y021359D01*
X005775Y021314D02*
X005865Y021314D01*
X005775Y021179D02*
X005775Y021450D01*
X005955Y021450D01*
X005186Y021404D02*
X005186Y021224D01*
X010747Y016850D02*
X010747Y016579D01*
X010882Y016579D01*
X010927Y016624D01*
X010927Y016804D01*
X010882Y016850D01*
X010747Y016850D01*
X011041Y016759D02*
X011131Y016850D01*
X011131Y016579D01*
X011041Y016579D02*
X011221Y016579D01*
X011336Y016624D02*
X011381Y016579D01*
X011471Y016579D01*
X011516Y016624D01*
X011516Y016804D01*
X011336Y016624D01*
X011336Y016804D01*
X011381Y016850D01*
X011471Y016850D01*
X011516Y016804D01*
X019077Y017269D02*
X019167Y017179D01*
X019077Y017269D02*
X019347Y017269D01*
X019347Y017179D02*
X019347Y017359D01*
X019347Y017474D02*
X019077Y017474D01*
X019212Y017519D02*
X019347Y017654D01*
X019257Y017474D02*
X019077Y017654D01*
D13*
X019357Y016870D02*
X019572Y016870D01*
X019644Y016798D01*
X019644Y016511D01*
X019572Y016439D01*
X019357Y016439D01*
X019357Y016870D01*
X019104Y016598D02*
X019104Y016526D01*
X019032Y016454D01*
X019104Y016383D01*
X019104Y016311D01*
X019032Y016239D01*
X018889Y016239D01*
X018817Y016311D01*
X018644Y016311D02*
X018644Y016598D01*
X018572Y016670D01*
X018357Y016670D01*
X018357Y016239D01*
X018572Y016239D01*
X018644Y016311D01*
X018961Y016454D02*
X019032Y016454D01*
X019104Y016598D02*
X019032Y016670D01*
X018889Y016670D01*
X018817Y016598D01*
X018104Y016654D02*
X017817Y016654D01*
X018032Y016870D01*
X018032Y016439D01*
X017644Y016511D02*
X017644Y016798D01*
X017572Y016870D01*
X017357Y016870D01*
X017357Y016439D01*
X017572Y016439D01*
X017644Y016511D01*
X017104Y016454D02*
X017104Y016311D01*
X017032Y016239D01*
X016889Y016239D01*
X016817Y016311D01*
X016817Y016454D02*
X016961Y016526D01*
X017032Y016526D01*
X017104Y016454D01*
X017104Y016670D02*
X016817Y016670D01*
X016817Y016454D01*
X016644Y016311D02*
X016572Y016239D01*
X016357Y016239D01*
X016357Y016670D01*
X016572Y016670D01*
X016644Y016598D01*
X016644Y016311D01*
X016104Y016511D02*
X016104Y016583D01*
X016032Y016654D01*
X015817Y016654D01*
X015817Y016511D01*
X015889Y016439D01*
X016032Y016439D01*
X016104Y016511D01*
X015961Y016798D02*
X015817Y016654D01*
X015961Y016798D02*
X016104Y016870D01*
X015644Y016798D02*
X015644Y016511D01*
X015572Y016439D01*
X015357Y016439D01*
X015357Y016870D01*
X015572Y016870D01*
X015644Y016798D01*
X015104Y016670D02*
X015104Y016598D01*
X014817Y016311D01*
X014817Y016239D01*
X014644Y016311D02*
X014644Y016598D01*
X014572Y016670D01*
X014357Y016670D01*
X014357Y016239D01*
X014572Y016239D01*
X014644Y016311D01*
X014817Y016670D02*
X015104Y016670D01*
X013554Y016726D02*
X013482Y016654D01*
X013339Y016654D01*
X013267Y016726D01*
X013267Y016798D01*
X013339Y016870D01*
X013482Y016870D01*
X013554Y016798D01*
X013554Y016726D01*
X013482Y016654D02*
X013554Y016583D01*
X013554Y016511D01*
X013482Y016439D01*
X013339Y016439D01*
X013267Y016511D01*
X013267Y016583D01*
X013339Y016654D01*
X013094Y016511D02*
X013094Y016798D01*
X013022Y016870D01*
X012807Y016870D01*
X012807Y016439D01*
X013022Y016439D01*
X013094Y016511D01*
X012554Y016454D02*
X012339Y016454D01*
X012267Y016526D01*
X012267Y016598D01*
X012339Y016670D01*
X012482Y016670D01*
X012554Y016598D01*
X012554Y016311D01*
X012482Y016239D01*
X012339Y016239D01*
X012267Y016311D01*
X012094Y016311D02*
X012094Y016598D01*
X012022Y016670D01*
X011807Y016670D01*
X011807Y016239D01*
X012022Y016239D01*
X012094Y016311D01*
X019817Y016439D02*
X020104Y016726D01*
X020104Y016798D01*
X020032Y016870D01*
X019889Y016870D01*
X019817Y016798D01*
X019817Y016439D02*
X020104Y016439D01*
X020357Y016239D02*
X020572Y016239D01*
X020644Y016311D01*
X020644Y016598D01*
X020572Y016670D01*
X020357Y016670D01*
X020357Y016239D01*
X020817Y016239D02*
X021104Y016239D01*
X020961Y016239D02*
X020961Y016670D01*
X020817Y016526D01*
X021357Y016439D02*
X021357Y016870D01*
X021572Y016870D01*
X021644Y016798D01*
X021644Y016511D01*
X021572Y016439D01*
X021357Y016439D01*
X021817Y016511D02*
X022104Y016798D01*
X022104Y016511D01*
X022032Y016439D01*
X021889Y016439D01*
X021817Y016511D01*
X021817Y016798D01*
X021889Y016870D01*
X022032Y016870D01*
X022104Y016798D01*
X022104Y002870D02*
X021817Y002870D01*
X021817Y002654D01*
X021961Y002726D01*
X022032Y002726D01*
X022104Y002654D01*
X022104Y002511D01*
X022032Y002439D01*
X021889Y002439D01*
X021817Y002511D01*
X021644Y002439D02*
X021644Y002726D01*
X021500Y002870D01*
X021357Y002726D01*
X021357Y002439D01*
X021357Y002654D02*
X021644Y002654D01*
X021104Y002454D02*
X020817Y002454D01*
X021032Y002670D01*
X021032Y002239D01*
X020644Y002239D02*
X020644Y002526D01*
X020500Y002670D01*
X020357Y002526D01*
X020357Y002239D01*
X020357Y002454D02*
X020644Y002454D01*
X020104Y002511D02*
X020032Y002439D01*
X019889Y002439D01*
X019817Y002511D01*
X019644Y002439D02*
X019644Y002726D01*
X019500Y002870D01*
X019357Y002726D01*
X019357Y002439D01*
X019357Y002654D02*
X019644Y002654D01*
X019817Y002798D02*
X019889Y002870D01*
X020032Y002870D01*
X020104Y002798D01*
X020104Y002726D01*
X020032Y002654D01*
X020104Y002583D01*
X020104Y002511D01*
X020032Y002654D02*
X019961Y002654D01*
X019104Y002598D02*
X019032Y002670D01*
X018889Y002670D01*
X018817Y002598D01*
X018644Y002526D02*
X018644Y002239D01*
X018817Y002239D02*
X019104Y002526D01*
X019104Y002598D01*
X019104Y002239D02*
X018817Y002239D01*
X018644Y002454D02*
X018357Y002454D01*
X018357Y002526D02*
X018500Y002670D01*
X018644Y002526D01*
X018357Y002526D02*
X018357Y002239D01*
X018104Y002439D02*
X017817Y002439D01*
X017961Y002439D02*
X017961Y002870D01*
X017817Y002726D01*
X017644Y002726D02*
X017644Y002439D01*
X017644Y002654D02*
X017357Y002654D01*
X017357Y002726D02*
X017500Y002870D01*
X017644Y002726D01*
X017357Y002726D02*
X017357Y002439D01*
X017104Y002311D02*
X017032Y002239D01*
X016889Y002239D01*
X016817Y002311D01*
X017104Y002598D01*
X017104Y002311D01*
X017104Y002598D02*
X017032Y002670D01*
X016889Y002670D01*
X016817Y002598D01*
X016817Y002311D01*
X016644Y002239D02*
X016644Y002526D01*
X016500Y002670D01*
X016357Y002526D01*
X016357Y002239D01*
X016357Y002454D02*
X016644Y002454D01*
D14*
X014722Y002279D03*
X013722Y002829D03*
X012722Y002279D03*
X011722Y002829D03*
X010722Y002279D03*
X009722Y002829D03*
X009122Y016279D03*
X011122Y016279D03*
X007122Y016279D03*
D15*
X008122Y016104D03*
X010122Y016104D03*
X012122Y016104D03*
X014722Y016104D03*
X016722Y016104D03*
X018722Y016104D03*
X020722Y016104D03*
X021722Y003004D03*
X020722Y002104D03*
X019722Y003004D03*
X018722Y002104D03*
X017722Y003004D03*
X016722Y002104D03*
X014722Y003004D03*
X013722Y002104D03*
X012722Y003004D03*
X011722Y002104D03*
X010722Y003004D03*
X009722Y002104D03*
X006122Y016104D03*
D16*
X013122Y016204D03*
X015722Y016204D03*
X017722Y016204D03*
X019722Y016204D03*
X021722Y016204D03*
X020722Y002904D03*
X021722Y002204D03*
X019722Y002204D03*
X018722Y002904D03*
X017722Y002204D03*
X016722Y002904D03*
D17*
X016722Y018404D03*
X018722Y018404D03*
X020722Y018404D03*
X014722Y018404D03*
X012122Y018404D03*
D18*
X022722Y005484D02*
X000722Y005484D01*
X000722Y004624D02*
X022722Y004624D01*
D19*
X022722Y004654D02*
X022722Y005454D01*
X021722Y005454D02*
X021722Y004654D01*
X020722Y004654D02*
X020722Y005454D01*
X019722Y005454D02*
X019722Y004654D01*
X018722Y004654D02*
X018722Y005454D01*
X017722Y005454D02*
X017722Y004654D01*
X016722Y004654D02*
X016722Y005454D01*
X015722Y005454D02*
X015722Y004654D01*
X014722Y004654D02*
X014722Y005454D01*
X013722Y005454D02*
X013722Y004654D01*
X012722Y004654D02*
X012722Y005454D01*
X011722Y005454D02*
X011722Y004654D01*
X010722Y004654D02*
X010722Y005454D01*
X009722Y005454D02*
X009722Y004654D01*
X008722Y004654D02*
X008722Y005454D01*
X007722Y005454D02*
X007722Y004654D01*
X006722Y004654D02*
X006722Y005454D01*
X005722Y005454D02*
X005722Y004654D01*
X004722Y004654D02*
X004722Y005454D01*
X003722Y005454D02*
X003722Y004654D01*
X002722Y004654D02*
X002722Y005454D01*
X001722Y005454D02*
X001722Y004654D01*
X000722Y004654D02*
X000722Y005454D01*
D20*
X006122Y018504D03*
X007122Y018504D03*
X009122Y018504D03*
X011122Y018504D03*
X013122Y018504D03*
X015722Y018504D03*
X017722Y018504D03*
X019722Y018504D03*
X021722Y018504D03*
D21*
X010122Y018329D03*
X008122Y018329D03*
D22*
X008372Y017454D02*
X008822Y017454D01*
X008822Y017054D02*
X008372Y017054D01*
X007822Y017054D02*
X007372Y017054D01*
X007372Y017454D02*
X007822Y017454D01*
X006822Y017454D02*
X006372Y017454D01*
X006372Y017054D02*
X006822Y017054D01*
X005822Y017054D02*
X005472Y017054D01*
X005472Y016054D01*
X004972Y015554D01*
X003472Y015554D02*
X003022Y015554D01*
X003022Y017054D02*
X003472Y017054D01*
X004972Y017054D02*
X005222Y017454D01*
X005822Y017454D01*
X009372Y017454D02*
X009822Y017454D01*
X009822Y017054D02*
X009372Y017054D01*
X010372Y017054D02*
X010822Y017054D01*
X010822Y017454D02*
X010372Y017454D01*
X011372Y017454D02*
X011822Y017454D01*
X011822Y017054D02*
X011372Y017054D01*
X012372Y017054D02*
X012822Y017054D01*
X012822Y017454D02*
X012372Y017454D01*
X013172Y017654D02*
X013322Y017804D01*
X013172Y017954D01*
X013172Y017804D01*
X013522Y017804D01*
X014472Y017804D01*
X014472Y017454D02*
X013372Y017454D01*
X013372Y017054D02*
X014412Y017054D01*
X014472Y017054D01*
X014672Y016854D01*
X014672Y017004D01*
X014572Y017104D01*
X014472Y017054D02*
X014712Y017294D01*
X014972Y017454D02*
X015622Y017454D01*
X015672Y017404D01*
X015672Y017254D01*
X015472Y017454D01*
X015672Y017654D01*
X015222Y017904D02*
X015222Y018004D01*
X015222Y017904D02*
X015122Y017804D01*
X014972Y017804D01*
X014422Y017054D02*
X014412Y017054D01*
X013522Y017804D02*
X013462Y017804D01*
X013472Y016054D02*
X012622Y016054D01*
X012622Y015054D01*
X013472Y015054D01*
X013722Y015304D01*
X013722Y015804D01*
X013472Y016054D01*
X016222Y016054D01*
X016222Y015054D01*
X013472Y015054D01*
X013602Y015204D02*
X013642Y015164D01*
X013602Y015204D02*
X013602Y015944D01*
X014172Y015864D02*
X014322Y016014D01*
X014172Y015864D02*
X014172Y015844D01*
X014102Y015294D02*
X014102Y015284D01*
X014292Y015094D01*
X015112Y015104D02*
X015142Y015104D01*
X015232Y015194D01*
X015232Y015184D01*
X015282Y015134D01*
X015242Y015904D02*
X015342Y016004D01*
X015242Y015904D02*
X015132Y016014D01*
X015092Y016014D01*
X016122Y016014D02*
X016182Y015954D01*
X016182Y015944D01*
X016152Y015134D02*
X016102Y015084D01*
X016102Y015074D01*
X012752Y015084D02*
X012652Y015184D01*
X012652Y015934D02*
X012752Y016034D01*
X001422Y015554D02*
X001222Y015554D01*
X001222Y014554D01*
X001222Y015554D02*
X001222Y017054D01*
X001422Y017054D01*
X001222Y019104D02*
X001222Y019804D01*
D23*
X013922Y015554D03*
D24*
X015222Y015894D02*
X015222Y015174D01*
X015242Y015154D01*
D25*
X018986Y018474D02*
X018986Y018634D01*
X019458Y018634D02*
X019458Y018474D01*
X005258Y020324D02*
X005258Y020484D01*
X004786Y020484D02*
X004786Y020324D01*
X004302Y017291D02*
X004142Y017291D01*
X004142Y016818D02*
X004302Y016818D01*
X004302Y015791D02*
X004142Y015791D01*
X004142Y015318D02*
X004302Y015318D01*
X004458Y001784D02*
X004458Y001624D01*
X003986Y001624D02*
X003986Y001784D01*
X005986Y001784D02*
X005986Y001624D01*
X006458Y001624D02*
X006458Y001784D01*
X008486Y001784D02*
X008486Y001624D01*
X008958Y001624D02*
X008958Y001784D01*
M02*
