%
M48
M72
T01C0.0400
%
T01
X1202Y5054
X2202Y5054
X3202Y5054
X4202Y5054
X5202Y5054
X6202Y5054
X7202Y5054
X8202Y5054
X9202Y5054
X10202Y5054
X11202Y5054
X12202Y5054
X13202Y5054
X14202Y5054
X15202Y5054
X16202Y5054
X17202Y5054
X18202Y5054
X19202Y5054
X20202Y5054
X21202Y5054
X22202Y5054
X22202Y6054
X22202Y7054
X21202Y7054
X21202Y6054
X20202Y6054
X20202Y7054
X19202Y7054
X19202Y6054
X18202Y6054
X18202Y7054
X17202Y7054
X17202Y6054
X16202Y6054
X16202Y7054
X15202Y7054
X15202Y6054
X14202Y6054
X14202Y7054
X14202Y8054
X15202Y8054
X16202Y8054
X17202Y8054
X18202Y8054
X19202Y8054
X20202Y8054
X20202Y9054
X19202Y9054
X18202Y9054
X17202Y9054
X16202Y9054
X15202Y9054
X14202Y9054
X14202Y10054
X15202Y10054
X16202Y10054
X17202Y10054
X18202Y10054
X19202Y10054
X20202Y10054
X20202Y11054
X19202Y11054
X18202Y11054
X17202Y11054
X16202Y11054
X15202Y11054
X14202Y11054
X14202Y12054
X15202Y12054
X16202Y12054
X17202Y12054
X18202Y12054
X19202Y12054
X20202Y12054
X21202Y12054
X22202Y12054
X22202Y11054
X22202Y10054
X21202Y10054
X21202Y11054
X21202Y9054
X22202Y9054
X22202Y8054
X21202Y8054
X21702Y3554
X20702Y3554
X19702Y3554
X18702Y3554
X17702Y3554
X16702Y3554
X14702Y3554
X13702Y3554
X12702Y3554
X11702Y3554
X10702Y3554
X9702Y3554
X7952Y3304
X9702Y1554
X10702Y1554
X11702Y1554
X12702Y1554
X13702Y1554
X14702Y1554
X16702Y1554
X17702Y1554
X18702Y1554
X19702Y1554
X20702Y1554
X21702Y1554
X13202Y6054
X13202Y7054
X12202Y7054
X12202Y6054
X11202Y6054
X11202Y7054
X10202Y7054
X10202Y6054
X9202Y6054
X9202Y7054
X8202Y7054
X8202Y6054
X7202Y6054
X7202Y7054
X6202Y7054
X6202Y6054
X5202Y6054
X5202Y7054
X4202Y7054
X4202Y6054
X3202Y6054
X3202Y7054
X2202Y7054
X2202Y6054
X1202Y6054
X1202Y7054
X1202Y8054
X1202Y9054
X2202Y9054
X3202Y9054
X4202Y9054
X5202Y9054
X6202Y9054
X7202Y9054
X7202Y8054
X6202Y8054
X5202Y8054
X4202Y8054
X3202Y8054
X2202Y8054
X2202Y10054
X3202Y10054
X4202Y10054
X5202Y10054
X6202Y10054
X7202Y10054
X7202Y11054
X6202Y11054
X5202Y11054
X4202Y11054
X3202Y11054
X2202Y11054
X2202Y12054
X3202Y12054
X4202Y12054
X5202Y12054
X6202Y12054
X7202Y12054
X8202Y12054
X9202Y12054
X10202Y12054
X11202Y12054
X12202Y12054
X13202Y12054
X13202Y11054
X13202Y10054
X12202Y10054
X12202Y11054
X11202Y11054
X11202Y10054
X10202Y10054
X10202Y11054
X9202Y11054
X9202Y10054
X8202Y10054
X8202Y11054
X8202Y9054
X9202Y9054
X10202Y9054
X11202Y9054
X12202Y9054
X13202Y9054
X13202Y8054
X12202Y8054
X11202Y8054
X10202Y8054
X9202Y8054
X8202Y8054
X5952Y3304
X1202Y10054
X1202Y11054
X1202Y12054
X1202Y13054
X1202Y14054
X2202Y14054
X3202Y14054
X4202Y14054
X5202Y14054
X6202Y14054
X7202Y14054
X7202Y13054
X6202Y13054
X5202Y13054
X4202Y13054
X3202Y13054
X2202Y13054
X6702Y15554
X7702Y15554
X8702Y15554
X9702Y15554
X10702Y15554
X11702Y15554
X12702Y15554
X13702Y15554
X14702Y15554
X15702Y15554
X16702Y15554
X17702Y15554
X18702Y15554
X19702Y15554
X20702Y15554
X21702Y15554
X22202Y14054
X22202Y13054
X21202Y13054
X21202Y14054
X20202Y14054
X20202Y13054
X19202Y13054
X19202Y14054
X18202Y14054
X18202Y13054
X17202Y13054
X17202Y14054
X16202Y14054
X16202Y13054
X15202Y13054
X15202Y14054
X14202Y14054
X14202Y13054
X13202Y13054
X13202Y14054
X12202Y14054
X12202Y13054
X11202Y13054
X11202Y14054
X10202Y14054
X10202Y13054
X9202Y13054
X9202Y14054
X8202Y14054
X8202Y13054
X4202Y18554
X3202Y18554
X2202Y18554
X1202Y18554
X1202Y20354
X6102Y20554
X7102Y20554
X8102Y20554
X9102Y20554
X10102Y20554
X11102Y20554
X12102Y20554
X13102Y20554
X14702Y20554
X15702Y20554
X16702Y20554
X17702Y20554
X18702Y20554
X19702Y20554
X20702Y20554
X21702Y20554
X17202Y18554
X16202Y18554
X15202Y18554
X14202Y18554
M30
