G75*
G70*
%OFA0B0*%
%FSLAX24Y24*%
%IPPOS*%
%LPD*%
%AMOC8*
5,1,8,0,0,1.08239X$1,22.5*
%
%ADD10C,0.0000*%
%ADD11C,0.0600*%
%ADD12R,0.0600X0.0600*%
%ADD13R,0.0500X0.0500*%
%ADD14C,0.0240*%
%ADD15C,0.0320*%
%ADD16C,0.0120*%
%ADD17C,0.0160*%
%ADD18C,0.0200*%
D10*
X001222Y000554D02*
X021722Y000554D01*
X021782Y000556D01*
X021843Y000561D01*
X021902Y000570D01*
X021961Y000583D01*
X022020Y000599D01*
X022077Y000619D01*
X022132Y000642D01*
X022187Y000669D01*
X022239Y000698D01*
X022290Y000731D01*
X022339Y000767D01*
X022385Y000805D01*
X022429Y000847D01*
X022471Y000891D01*
X022509Y000937D01*
X022545Y000986D01*
X022578Y001037D01*
X022607Y001089D01*
X022634Y001144D01*
X022657Y001199D01*
X022677Y001256D01*
X022693Y001315D01*
X022706Y001374D01*
X022715Y001433D01*
X022720Y001494D01*
X022722Y001554D01*
X023722Y002554D01*
X023722Y015554D01*
X022722Y016554D01*
X022722Y020554D01*
X022720Y020614D01*
X022715Y020675D01*
X022706Y020734D01*
X022693Y020793D01*
X022677Y020852D01*
X022657Y020909D01*
X022634Y020964D01*
X022607Y021019D01*
X022578Y021071D01*
X022545Y021122D01*
X022509Y021171D01*
X022471Y021217D01*
X022429Y021261D01*
X022385Y021303D01*
X022339Y021341D01*
X022290Y021377D01*
X022239Y021410D01*
X022187Y021439D01*
X022132Y021466D01*
X022077Y021489D01*
X022020Y021509D01*
X021961Y021525D01*
X021902Y021538D01*
X021843Y021547D01*
X021782Y021552D01*
X021722Y021554D01*
X001222Y021554D01*
X001221Y021555D02*
X001156Y021544D01*
X001092Y021529D01*
X001029Y021511D01*
X000966Y021489D01*
X000905Y021464D01*
X000846Y021435D01*
X000788Y021403D01*
X000732Y021368D01*
X000679Y021330D01*
X000627Y021289D01*
X000578Y021245D01*
X000531Y021198D01*
X000487Y021149D01*
X000446Y021097D01*
X000408Y021044D01*
X000373Y020988D01*
X000341Y020930D01*
X000312Y020871D01*
X000287Y020810D01*
X000265Y020747D01*
X000247Y020684D01*
X000232Y020620D01*
X000221Y020555D01*
X000222Y020554D02*
X000222Y001554D01*
X000221Y001554D02*
X000232Y001489D01*
X000247Y001425D01*
X000265Y001362D01*
X000287Y001299D01*
X000312Y001238D01*
X000341Y001179D01*
X000373Y001121D01*
X000408Y001065D01*
X000446Y001012D01*
X000487Y000960D01*
X000531Y000911D01*
X000578Y000864D01*
X000627Y000820D01*
X000679Y000779D01*
X000732Y000741D01*
X000788Y000706D01*
X000846Y000674D01*
X000905Y000645D01*
X000966Y000620D01*
X001029Y000598D01*
X001092Y000580D01*
X001156Y000565D01*
X001221Y000554D01*
D11*
X001382Y001524D03*
X003162Y001524D03*
X005222Y003304D03*
X005222Y005054D03*
X006222Y005054D03*
X007222Y005054D03*
X008222Y005054D03*
X009222Y005054D03*
X010222Y005054D03*
X011222Y005054D03*
X012222Y005054D03*
X013222Y005054D03*
X014222Y005054D03*
X015222Y005054D03*
X016222Y005054D03*
X017222Y005054D03*
X018222Y005054D03*
X019222Y005054D03*
X020222Y005054D03*
X021222Y005054D03*
X022222Y005054D03*
X022222Y006054D03*
X021222Y006054D03*
X020222Y006054D03*
X019222Y006054D03*
X018222Y006054D03*
X017222Y006054D03*
X016222Y006054D03*
X015222Y006054D03*
X014222Y006054D03*
X013222Y006054D03*
X012222Y006054D03*
X011222Y006054D03*
X010222Y006054D03*
X009222Y006054D03*
X008222Y006054D03*
X007222Y006054D03*
X006222Y006054D03*
X005222Y006054D03*
X004222Y006054D03*
X003222Y006054D03*
X003222Y007054D03*
X004222Y007054D03*
X005222Y007054D03*
X006222Y007054D03*
X007222Y007054D03*
X008222Y007054D03*
X009222Y007054D03*
X010222Y007054D03*
X011222Y007054D03*
X012222Y007054D03*
X013222Y007054D03*
X014222Y007054D03*
X015222Y007054D03*
X016222Y007054D03*
X017222Y007054D03*
X018222Y007054D03*
X019222Y007054D03*
X020222Y007054D03*
X021222Y007054D03*
X022222Y007054D03*
X022222Y008054D03*
X021222Y008054D03*
X020222Y008054D03*
X019222Y008054D03*
X018222Y008054D03*
X017222Y008054D03*
X016222Y008054D03*
X015222Y008054D03*
X014222Y008054D03*
X013222Y008054D03*
X012222Y008054D03*
X011222Y008054D03*
X010222Y008054D03*
X009222Y008054D03*
X008222Y008054D03*
X007222Y008054D03*
X006222Y008054D03*
X005222Y008054D03*
X004222Y008054D03*
X003222Y008054D03*
X003222Y009054D03*
X004222Y009054D03*
X005222Y009054D03*
X006222Y009054D03*
X007222Y009054D03*
X008222Y009054D03*
X009222Y009054D03*
X010222Y009054D03*
X011222Y009054D03*
X012222Y009054D03*
X013222Y009054D03*
X014222Y009054D03*
X015222Y009054D03*
X016222Y009054D03*
X017222Y009054D03*
X018222Y009054D03*
X019222Y009054D03*
X020222Y009054D03*
X021222Y009054D03*
X022222Y009054D03*
X022222Y010054D03*
X021222Y010054D03*
X020222Y010054D03*
X019222Y010054D03*
X018222Y010054D03*
X017222Y010054D03*
X016222Y010054D03*
X015222Y010054D03*
X014222Y010054D03*
X013222Y010054D03*
X012222Y010054D03*
X011222Y010054D03*
X010222Y010054D03*
X009222Y010054D03*
X008222Y010054D03*
X007222Y010054D03*
X006222Y010054D03*
X005222Y010054D03*
X004222Y010054D03*
X003222Y010054D03*
X003222Y011054D03*
X004222Y011054D03*
X005222Y011054D03*
X006222Y011054D03*
X007222Y011054D03*
X008222Y011054D03*
X009222Y011054D03*
X010222Y011054D03*
X011222Y011054D03*
X012222Y011054D03*
X013222Y011054D03*
X014222Y011054D03*
X015222Y011054D03*
X016222Y011054D03*
X017222Y011054D03*
X018222Y011054D03*
X019222Y011054D03*
X020222Y011054D03*
X021222Y011054D03*
X022222Y011054D03*
X022222Y012054D03*
X021222Y012054D03*
X020222Y012054D03*
X019222Y012054D03*
X018222Y012054D03*
X017222Y012054D03*
X016222Y012054D03*
X015222Y012054D03*
X014222Y012054D03*
X013222Y012054D03*
X012222Y012054D03*
X011222Y012054D03*
X010222Y012054D03*
X009222Y012054D03*
X008222Y012054D03*
X007222Y012054D03*
X006222Y012054D03*
X005222Y012054D03*
X004222Y012054D03*
X003222Y012054D03*
X002222Y012054D03*
X001222Y012054D03*
X001222Y011054D03*
X001222Y010054D03*
X002222Y010054D03*
X002222Y011054D03*
X002222Y009054D03*
X002222Y008054D03*
X001222Y008054D03*
X001222Y009054D03*
X001222Y007054D03*
X001222Y006054D03*
X002222Y006054D03*
X002222Y007054D03*
X003222Y005054D03*
X003162Y004084D03*
X004222Y005054D03*
X001382Y004084D03*
X001222Y005054D03*
X007222Y003304D03*
X009722Y003554D03*
X010722Y003554D03*
X011722Y003554D03*
X012722Y003554D03*
X013722Y003554D03*
X014722Y003554D03*
X016722Y003554D03*
X017722Y003554D03*
X018722Y003554D03*
X019722Y003554D03*
X020722Y003554D03*
X021722Y003554D03*
X021722Y001554D03*
X020722Y001554D03*
X019722Y001554D03*
X018722Y001554D03*
X017722Y001554D03*
X016722Y001554D03*
X014722Y001554D03*
X013722Y001554D03*
X012722Y001554D03*
X011722Y001554D03*
X010722Y001554D03*
X009722Y001554D03*
X010222Y013054D03*
X011222Y013054D03*
X012222Y013054D03*
X013222Y013054D03*
X014222Y013054D03*
X015222Y013054D03*
X016222Y013054D03*
X017222Y013054D03*
X018222Y013054D03*
X019222Y013054D03*
X020222Y013054D03*
X021222Y013054D03*
X022222Y013054D03*
X022222Y014054D03*
X021222Y014054D03*
X020222Y014054D03*
X019222Y014054D03*
X018222Y014054D03*
X017222Y014054D03*
X016222Y014054D03*
X015222Y014054D03*
X014222Y014054D03*
X013222Y014054D03*
X012222Y014054D03*
X011222Y014054D03*
X010222Y014054D03*
X009222Y014054D03*
X009222Y013054D03*
X008222Y013054D03*
X007222Y013054D03*
X006222Y013054D03*
X005222Y013054D03*
X004222Y013054D03*
X003222Y013054D03*
X003222Y014054D03*
X004222Y014054D03*
X005222Y014054D03*
X006222Y014054D03*
X007222Y014054D03*
X008222Y014054D03*
X008122Y015554D03*
X009122Y015554D03*
X010122Y015554D03*
X011122Y015554D03*
X012122Y015554D03*
X014722Y015554D03*
X015722Y015554D03*
X016722Y015554D03*
X017722Y015554D03*
X018722Y015554D03*
X019722Y015554D03*
X020722Y015554D03*
X017222Y018554D03*
X016222Y018554D03*
X015222Y018554D03*
X014222Y018554D03*
X014722Y020554D03*
X015722Y020554D03*
X016722Y020554D03*
X017722Y020554D03*
X018722Y020554D03*
X019722Y020554D03*
X020722Y020554D03*
X012122Y020554D03*
X011122Y020554D03*
X010122Y020554D03*
X009122Y020554D03*
X008122Y020554D03*
X007122Y020554D03*
X006122Y020554D03*
X004222Y018554D03*
X003222Y018554D03*
X002222Y018554D03*
X001222Y020354D03*
X006122Y015554D03*
X007122Y015554D03*
X002222Y013054D03*
X001222Y013054D03*
X001222Y014054D03*
D12*
X002222Y014054D03*
X001222Y018554D03*
X013122Y020554D03*
X013122Y015554D03*
X021722Y015554D03*
X021722Y020554D03*
X002222Y005054D03*
D13*
X004222Y002104D03*
X004222Y001304D03*
X005222Y001304D03*
X005222Y002104D03*
X006222Y002104D03*
X006222Y001304D03*
X007222Y001304D03*
X007222Y002104D03*
X008722Y002104D03*
X008722Y001304D03*
X004622Y015554D03*
X003822Y015554D03*
X002622Y015554D03*
X001822Y015554D03*
X001822Y017054D03*
X002622Y017054D03*
X003822Y017054D03*
X004622Y017054D03*
X005022Y020004D03*
X005022Y020804D03*
X019222Y018954D03*
X019222Y018154D03*
X021222Y018504D03*
X021222Y019304D03*
D14*
X007122Y020554D02*
X007122Y021004D01*
X006922Y021204D01*
X005172Y021204D01*
X005026Y021059D01*
X003632Y004304D02*
X009472Y004304D01*
X009722Y004054D01*
X009722Y003554D01*
X009722Y001554D01*
X009722Y003554D01*
X010722Y003554D02*
X010722Y001554D01*
X014722Y001554D02*
X014722Y003554D01*
X016722Y003554D02*
X016722Y001554D01*
X017722Y001554D02*
X017722Y003554D01*
X018722Y003554D02*
X018722Y001554D01*
X019722Y001554D02*
X019722Y003554D01*
X020722Y003554D02*
X020722Y001554D01*
X021722Y001554D02*
X021722Y003554D01*
X003632Y004304D02*
X003162Y004084D01*
X003162Y001524D01*
D15*
X005222Y002104D02*
X005222Y003304D01*
X007222Y003304D02*
X007222Y002104D01*
X011722Y001554D02*
X011722Y003554D01*
X011722Y004054D01*
X011724Y004084D01*
X011729Y004114D01*
X011738Y004143D01*
X011751Y004170D01*
X011766Y004196D01*
X011785Y004220D01*
X011806Y004241D01*
X011830Y004260D01*
X011856Y004275D01*
X011883Y004288D01*
X011912Y004297D01*
X011942Y004302D01*
X011972Y004304D01*
X023172Y004304D01*
X023172Y013804D01*
X023170Y013834D01*
X023165Y013864D01*
X023156Y013893D01*
X023143Y013920D01*
X023128Y013946D01*
X023109Y013970D01*
X023088Y013991D01*
X023064Y014010D01*
X023038Y014025D01*
X023011Y014038D01*
X022982Y014047D01*
X022952Y014052D01*
X022922Y014054D01*
X012222Y014054D01*
X013222Y014054D01*
X014222Y014054D01*
X015222Y014054D01*
X016222Y014054D01*
X017222Y014054D01*
X018222Y014054D01*
X019222Y014054D01*
X020222Y014054D01*
X021222Y014054D01*
X022222Y014054D01*
X012222Y014054D02*
X011222Y014054D01*
X010222Y014054D01*
X009222Y014054D01*
X008222Y014054D01*
X007222Y014054D01*
X006222Y014054D01*
X005222Y014054D01*
X004222Y014054D01*
X003222Y014054D01*
X002222Y014054D01*
X001722Y014054D01*
X001222Y014054D01*
D16*
X001322Y014154D01*
X001722Y014054D02*
X001822Y014154D01*
X001822Y015554D01*
X001822Y017054D01*
X002622Y017054D02*
X003822Y017054D01*
X004622Y017054D02*
X014972Y017054D01*
X015722Y016304D01*
X015722Y015554D01*
X014722Y015554D02*
X014722Y016054D01*
X014222Y016554D01*
X005622Y016554D01*
X004622Y015554D01*
X003822Y015554D02*
X002622Y015554D01*
X004222Y002104D02*
X004272Y002104D01*
X005022Y001354D01*
X005172Y001354D01*
X005222Y001304D01*
X004322Y000854D02*
X006172Y000854D01*
X006222Y000904D01*
X006222Y001304D01*
X006172Y000854D02*
X008522Y000854D01*
X008722Y001054D01*
X007222Y001304D02*
X007172Y001354D01*
X007022Y001354D01*
X006272Y002104D01*
X006222Y002104D01*
X004222Y001304D02*
X004222Y000954D01*
X004322Y000854D01*
D17*
X003049Y001030D02*
X000793Y001030D01*
X000739Y001071D02*
X000926Y000928D01*
X001143Y000836D01*
X001246Y000814D01*
X003998Y000814D01*
X003982Y000854D01*
X003889Y000854D01*
X003772Y000971D01*
X003772Y001637D01*
X003839Y001704D01*
X003772Y001771D01*
X003772Y002437D01*
X003889Y002554D01*
X004555Y002554D01*
X004672Y002437D01*
X004672Y002072D01*
X004772Y001972D01*
X004772Y002437D01*
X004862Y002527D01*
X004862Y002957D01*
X004798Y003021D01*
X004722Y003205D01*
X004722Y003404D01*
X004798Y003588D01*
X004939Y003728D01*
X005122Y003804D01*
X005321Y003804D01*
X005505Y003728D01*
X005646Y003588D01*
X005722Y003404D01*
X005722Y003205D01*
X005646Y003021D01*
X005582Y002957D01*
X005582Y002527D01*
X005672Y002437D01*
X005672Y001771D01*
X005605Y001704D01*
X005672Y001637D01*
X005672Y001114D01*
X005772Y001114D01*
X005772Y001637D01*
X005839Y001704D01*
X005772Y001771D01*
X005772Y002437D01*
X005889Y002554D01*
X006555Y002554D01*
X006672Y002437D01*
X006672Y002072D01*
X006772Y001972D01*
X006772Y002437D01*
X006862Y002527D01*
X006862Y002957D01*
X006798Y003021D01*
X006722Y003205D01*
X006722Y003404D01*
X006798Y003588D01*
X006939Y003728D01*
X007122Y003804D01*
X007321Y003804D01*
X007505Y003728D01*
X007646Y003588D01*
X007722Y003404D01*
X007722Y003205D01*
X007646Y003021D01*
X007582Y002957D01*
X007582Y002527D01*
X007672Y002437D01*
X007672Y001771D01*
X007605Y001704D01*
X007672Y001637D01*
X007672Y001114D01*
X008272Y001114D01*
X008272Y001637D01*
X008353Y001718D01*
X008292Y001780D01*
X008292Y002059D01*
X008676Y002059D01*
X008676Y002149D01*
X008292Y002149D01*
X008292Y002429D01*
X008397Y002534D01*
X008677Y002534D01*
X008677Y002150D01*
X008767Y002150D01*
X008767Y002534D01*
X009046Y002534D01*
X009152Y002429D01*
X009152Y002149D01*
X008767Y002149D01*
X008767Y002059D01*
X009152Y002059D01*
X009152Y001780D01*
X009090Y001718D01*
X009172Y001637D01*
X009172Y001184D01*
X009385Y001184D01*
X009298Y001271D01*
X009222Y001455D01*
X009222Y001654D01*
X009298Y001838D01*
X009402Y001941D01*
X009402Y003167D01*
X009298Y003271D01*
X009222Y003455D01*
X009222Y003654D01*
X009298Y003838D01*
X009392Y003932D01*
X009339Y003984D01*
X003703Y003984D01*
X003651Y003960D01*
X003586Y003801D01*
X003482Y003697D01*
X003482Y001911D01*
X003586Y001808D01*
X003662Y001624D01*
X003662Y001425D01*
X003586Y001241D01*
X003445Y001100D01*
X003261Y001024D01*
X003062Y001024D01*
X002879Y001100D01*
X002738Y001241D01*
X002662Y001425D01*
X002662Y001624D01*
X002738Y001808D01*
X002842Y001911D01*
X002842Y003697D01*
X002738Y003801D01*
X002662Y003985D01*
X002662Y004184D01*
X002738Y004368D01*
X002879Y004508D01*
X003062Y004584D01*
X003102Y004584D01*
X002950Y004647D01*
X002815Y004782D01*
X002742Y004959D01*
X002742Y005034D01*
X003201Y005034D01*
X003201Y005074D01*
X002742Y005074D01*
X002742Y005150D01*
X002815Y005326D01*
X002950Y005461D01*
X003126Y005534D01*
X003202Y005534D01*
X003202Y005075D01*
X003242Y005075D01*
X003242Y005534D01*
X003317Y005534D01*
X003494Y005461D01*
X003629Y005326D01*
X003702Y005150D01*
X003702Y005074D01*
X003242Y005074D01*
X003242Y005034D01*
X003702Y005034D01*
X003702Y004959D01*
X003629Y004782D01*
X003494Y004647D01*
X003317Y004574D01*
X003285Y004574D01*
X003375Y004537D01*
X003445Y004570D01*
X003450Y004576D01*
X003503Y004597D01*
X003554Y004621D01*
X003561Y004621D01*
X003568Y004624D01*
X003624Y004624D01*
X003681Y004627D01*
X003688Y004624D01*
X004006Y004624D01*
X003950Y004647D01*
X003815Y004782D01*
X003742Y004959D01*
X003742Y005034D01*
X004201Y005034D01*
X004201Y005074D01*
X003742Y005074D01*
X003742Y005150D01*
X003815Y005326D01*
X003950Y005461D01*
X004126Y005534D01*
X004202Y005534D01*
X004202Y005075D01*
X004242Y005075D01*
X004242Y005534D01*
X004317Y005534D01*
X004494Y005461D01*
X004629Y005326D01*
X004702Y005150D01*
X004702Y005074D01*
X004242Y005074D01*
X004242Y005034D01*
X004702Y005034D01*
X004702Y004959D01*
X004629Y004782D01*
X004494Y004647D01*
X004438Y004624D01*
X005006Y004624D01*
X004950Y004647D01*
X004815Y004782D01*
X004742Y004959D01*
X004742Y005034D01*
X005201Y005034D01*
X005201Y005074D01*
X004742Y005074D01*
X004742Y005150D01*
X004815Y005326D01*
X004950Y005461D01*
X005126Y005534D01*
X005202Y005534D01*
X005202Y005075D01*
X005242Y005075D01*
X005242Y005534D01*
X005317Y005534D01*
X005494Y005461D01*
X005629Y005326D01*
X005702Y005150D01*
X005702Y005074D01*
X005242Y005074D01*
X005242Y005034D01*
X005702Y005034D01*
X005702Y004959D01*
X005629Y004782D01*
X005494Y004647D01*
X005438Y004624D01*
X006006Y004624D01*
X005950Y004647D01*
X005815Y004782D01*
X005742Y004959D01*
X005742Y005034D01*
X006201Y005034D01*
X006201Y005074D01*
X005742Y005074D01*
X005742Y005150D01*
X005815Y005326D01*
X005950Y005461D01*
X006126Y005534D01*
X006202Y005534D01*
X006202Y005075D01*
X006242Y005075D01*
X006242Y005534D01*
X006317Y005534D01*
X006494Y005461D01*
X006629Y005326D01*
X006702Y005150D01*
X006702Y005074D01*
X006242Y005074D01*
X006242Y005034D01*
X006702Y005034D01*
X006702Y004959D01*
X006629Y004782D01*
X006494Y004647D01*
X006438Y004624D01*
X007006Y004624D01*
X006950Y004647D01*
X006815Y004782D01*
X006742Y004959D01*
X006742Y005034D01*
X007201Y005034D01*
X007201Y005074D01*
X006742Y005074D01*
X006742Y005150D01*
X006815Y005326D01*
X006950Y005461D01*
X007126Y005534D01*
X007202Y005534D01*
X007202Y005075D01*
X007242Y005075D01*
X007242Y005534D01*
X007317Y005534D01*
X007494Y005461D01*
X007629Y005326D01*
X007702Y005150D01*
X007702Y005074D01*
X007242Y005074D01*
X007242Y005034D01*
X007702Y005034D01*
X007702Y004959D01*
X007629Y004782D01*
X007494Y004647D01*
X007438Y004624D01*
X008006Y004624D01*
X007950Y004647D01*
X007815Y004782D01*
X007742Y004959D01*
X007742Y005034D01*
X008201Y005034D01*
X008201Y005074D01*
X007742Y005074D01*
X007742Y005150D01*
X007815Y005326D01*
X007950Y005461D01*
X008126Y005534D01*
X008202Y005534D01*
X008202Y005075D01*
X008242Y005075D01*
X008242Y005534D01*
X008317Y005534D01*
X008494Y005461D01*
X008629Y005326D01*
X008702Y005150D01*
X008702Y005074D01*
X008242Y005074D01*
X008242Y005034D01*
X008702Y005034D01*
X008702Y004959D01*
X008629Y004782D01*
X008494Y004647D01*
X008438Y004624D01*
X009006Y004624D01*
X008950Y004647D01*
X008815Y004782D01*
X008742Y004959D01*
X008742Y005034D01*
X009201Y005034D01*
X009201Y005074D01*
X008742Y005074D01*
X008742Y005150D01*
X008815Y005326D01*
X008950Y005461D01*
X009126Y005534D01*
X009202Y005534D01*
X009202Y005075D01*
X009242Y005075D01*
X009242Y005534D01*
X009317Y005534D01*
X009494Y005461D01*
X009629Y005326D01*
X009702Y005150D01*
X009702Y005074D01*
X009242Y005074D01*
X009242Y005034D01*
X009702Y005034D01*
X009702Y004959D01*
X009629Y004782D01*
X009494Y004647D01*
X009438Y004624D01*
X009535Y004624D01*
X009653Y004576D01*
X009743Y004486D01*
X009743Y004486D01*
X009993Y004236D01*
X010042Y004118D01*
X010042Y003991D01*
X010042Y003941D01*
X010146Y003838D01*
X010222Y003654D01*
X010222Y003455D01*
X010222Y003654D01*
X010298Y003838D01*
X010439Y003978D01*
X010622Y004054D01*
X010821Y004054D01*
X011005Y003978D01*
X011146Y003838D01*
X011222Y003654D01*
X011222Y003455D01*
X011222Y003654D01*
X011298Y003838D01*
X011362Y003901D01*
X011362Y004126D01*
X011362Y004126D01*
X011362Y004176D01*
X011362Y004176D01*
X011455Y004400D01*
X011455Y004400D01*
X011626Y004571D01*
X011626Y004571D01*
X011850Y004664D01*
X011850Y004664D01*
X011900Y004664D01*
X011900Y004664D01*
X011933Y004664D01*
X011815Y004782D01*
X011742Y004959D01*
X011742Y005034D01*
X012201Y005034D01*
X012201Y005074D01*
X011742Y005074D01*
X011742Y005150D01*
X011815Y005326D01*
X011950Y005461D01*
X012126Y005534D01*
X012202Y005534D01*
X012202Y005075D01*
X012242Y005075D01*
X012242Y005534D01*
X012317Y005534D01*
X012494Y005461D01*
X012629Y005326D01*
X012702Y005150D01*
X012702Y005074D01*
X012242Y005074D01*
X012242Y005034D01*
X012702Y005034D01*
X012702Y004959D01*
X012629Y004782D01*
X012510Y004664D01*
X012933Y004664D01*
X012815Y004782D01*
X012742Y004959D01*
X012742Y005034D01*
X013201Y005034D01*
X013201Y005074D01*
X012742Y005074D01*
X012742Y005150D01*
X012815Y005326D01*
X012950Y005461D01*
X013126Y005534D01*
X013202Y005534D01*
X013202Y005075D01*
X013242Y005075D01*
X013242Y005534D01*
X013317Y005534D01*
X013494Y005461D01*
X013629Y005326D01*
X013702Y005150D01*
X013702Y005074D01*
X013242Y005074D01*
X013242Y005034D01*
X013702Y005034D01*
X013702Y004959D01*
X013629Y004782D01*
X013510Y004664D01*
X013933Y004664D01*
X013815Y004782D01*
X013742Y004959D01*
X013742Y005034D01*
X014201Y005034D01*
X014201Y005074D01*
X013742Y005074D01*
X013742Y005150D01*
X013815Y005326D01*
X013950Y005461D01*
X014126Y005534D01*
X014202Y005534D01*
X014202Y005075D01*
X014242Y005075D01*
X014242Y005534D01*
X014317Y005534D01*
X014494Y005461D01*
X014629Y005326D01*
X014702Y005150D01*
X014702Y005074D01*
X014242Y005074D01*
X014242Y005034D01*
X014702Y005034D01*
X014702Y004959D01*
X014629Y004782D01*
X014510Y004664D01*
X014933Y004664D01*
X014815Y004782D01*
X014742Y004959D01*
X014742Y005034D01*
X015201Y005034D01*
X015201Y005074D01*
X014742Y005074D01*
X014742Y005150D01*
X014815Y005326D01*
X014950Y005461D01*
X015126Y005534D01*
X015202Y005534D01*
X015202Y005075D01*
X015242Y005075D01*
X015242Y005534D01*
X015317Y005534D01*
X015494Y005461D01*
X015629Y005326D01*
X015702Y005150D01*
X015702Y005074D01*
X015242Y005074D01*
X015242Y005034D01*
X015702Y005034D01*
X015702Y004959D01*
X015629Y004782D01*
X015510Y004664D01*
X015933Y004664D01*
X015815Y004782D01*
X015742Y004959D01*
X015742Y005034D01*
X016201Y005034D01*
X016201Y005074D01*
X015742Y005074D01*
X015742Y005150D01*
X015815Y005326D01*
X015950Y005461D01*
X016126Y005534D01*
X016202Y005534D01*
X016202Y005075D01*
X016242Y005075D01*
X016242Y005534D01*
X016317Y005534D01*
X016494Y005461D01*
X016629Y005326D01*
X016702Y005150D01*
X016702Y005074D01*
X016242Y005074D01*
X016242Y005034D01*
X016702Y005034D01*
X016702Y004959D01*
X016629Y004782D01*
X016510Y004664D01*
X016933Y004664D01*
X016815Y004782D01*
X016742Y004959D01*
X016742Y005034D01*
X017201Y005034D01*
X017201Y005074D01*
X016742Y005074D01*
X016742Y005150D01*
X016815Y005326D01*
X016950Y005461D01*
X017126Y005534D01*
X017202Y005534D01*
X017202Y005075D01*
X017242Y005075D01*
X017242Y005534D01*
X017317Y005534D01*
X017494Y005461D01*
X017629Y005326D01*
X017702Y005150D01*
X017702Y005074D01*
X017242Y005074D01*
X017242Y005034D01*
X017702Y005034D01*
X017702Y004959D01*
X017629Y004782D01*
X017510Y004664D01*
X017933Y004664D01*
X017815Y004782D01*
X017742Y004959D01*
X017742Y005034D01*
X018201Y005034D01*
X018201Y005074D01*
X017742Y005074D01*
X017742Y005150D01*
X017815Y005326D01*
X017950Y005461D01*
X018126Y005534D01*
X018202Y005534D01*
X018202Y005075D01*
X018242Y005075D01*
X018242Y005534D01*
X018317Y005534D01*
X018494Y005461D01*
X018629Y005326D01*
X018702Y005150D01*
X018702Y005074D01*
X018242Y005074D01*
X018242Y005034D01*
X018702Y005034D01*
X018702Y004959D01*
X018629Y004782D01*
X018510Y004664D01*
X018933Y004664D01*
X018815Y004782D01*
X018742Y004959D01*
X018742Y005034D01*
X019201Y005034D01*
X019201Y005074D01*
X018742Y005074D01*
X018742Y005150D01*
X018815Y005326D01*
X018950Y005461D01*
X019126Y005534D01*
X019202Y005534D01*
X019202Y005075D01*
X019242Y005075D01*
X019242Y005534D01*
X019317Y005534D01*
X019494Y005461D01*
X019629Y005326D01*
X019702Y005150D01*
X019702Y005074D01*
X019242Y005074D01*
X019242Y005034D01*
X019702Y005034D01*
X019702Y004959D01*
X019629Y004782D01*
X019510Y004664D01*
X019933Y004664D01*
X019815Y004782D01*
X019742Y004959D01*
X019742Y005034D01*
X020201Y005034D01*
X020201Y005074D01*
X019742Y005074D01*
X019742Y005150D01*
X019815Y005326D01*
X019950Y005461D01*
X020126Y005534D01*
X020202Y005534D01*
X020202Y005075D01*
X020242Y005075D01*
X020242Y005534D01*
X020317Y005534D01*
X020494Y005461D01*
X020629Y005326D01*
X020702Y005150D01*
X020702Y005074D01*
X020242Y005074D01*
X020242Y005034D01*
X020702Y005034D01*
X020702Y004959D01*
X020629Y004782D01*
X020510Y004664D01*
X020933Y004664D01*
X020815Y004782D01*
X020742Y004959D01*
X020742Y005034D01*
X021201Y005034D01*
X021201Y005074D01*
X020742Y005074D01*
X020742Y005150D01*
X020815Y005326D01*
X020950Y005461D01*
X021126Y005534D01*
X021202Y005534D01*
X021202Y005075D01*
X021242Y005075D01*
X021242Y005534D01*
X021317Y005534D01*
X021494Y005461D01*
X021629Y005326D01*
X021702Y005150D01*
X021702Y005074D01*
X021242Y005074D01*
X021242Y005034D01*
X021702Y005034D01*
X021702Y004959D01*
X021629Y004782D01*
X021510Y004664D01*
X021933Y004664D01*
X021815Y004782D01*
X021742Y004959D01*
X021742Y005034D01*
X022201Y005034D01*
X022201Y005074D01*
X021742Y005074D01*
X021742Y005150D01*
X021815Y005326D01*
X021950Y005461D01*
X022126Y005534D01*
X022202Y005534D01*
X022202Y005075D01*
X022242Y005075D01*
X022242Y005534D01*
X022317Y005534D01*
X022494Y005461D01*
X022629Y005326D01*
X022702Y005150D01*
X022702Y005074D01*
X022242Y005074D01*
X022242Y005034D01*
X022702Y005034D01*
X022702Y004959D01*
X022629Y004782D01*
X022510Y004664D01*
X022812Y004664D01*
X022812Y013694D01*
X022569Y013694D01*
X022505Y013630D01*
X022321Y013554D01*
X022122Y013554D01*
X021939Y013478D01*
X021798Y013338D01*
X021722Y013154D01*
X021722Y012955D01*
X021798Y012771D01*
X021939Y012630D01*
X022122Y012554D01*
X021939Y012478D01*
X021798Y012338D01*
X021722Y012154D01*
X021722Y011955D01*
X021798Y011771D01*
X021939Y011630D01*
X022122Y011554D01*
X021939Y011478D01*
X021798Y011338D01*
X021722Y011154D01*
X021722Y010955D01*
X021798Y010771D01*
X021939Y010630D01*
X022122Y010554D01*
X021939Y010478D01*
X021798Y010338D01*
X021722Y010154D01*
X021722Y009955D01*
X021798Y009771D01*
X021939Y009630D01*
X022122Y009554D01*
X021939Y009478D01*
X021798Y009338D01*
X021722Y009154D01*
X021722Y008955D01*
X021798Y008771D01*
X021939Y008630D01*
X022122Y008554D01*
X021939Y008478D01*
X021798Y008338D01*
X021722Y008154D01*
X021722Y007955D01*
X021798Y007771D01*
X021939Y007630D01*
X022122Y007554D01*
X021939Y007478D01*
X021798Y007338D01*
X021722Y007154D01*
X021722Y006955D01*
X021798Y006771D01*
X021939Y006630D01*
X022122Y006554D01*
X021939Y006478D01*
X021798Y006338D01*
X021722Y006154D01*
X021722Y005955D01*
X021798Y005771D01*
X021939Y005630D01*
X022122Y005554D01*
X022321Y005554D01*
X022505Y005630D01*
X022646Y005771D01*
X022722Y005955D01*
X022722Y006154D01*
X022646Y006338D01*
X022505Y006478D01*
X022321Y006554D01*
X022122Y006554D01*
X022321Y006554D01*
X022505Y006630D01*
X022646Y006771D01*
X022722Y006955D01*
X022722Y007154D01*
X022646Y007338D01*
X022505Y007478D01*
X022321Y007554D01*
X022122Y007554D01*
X022321Y007554D01*
X022505Y007630D01*
X022646Y007771D01*
X022722Y007955D01*
X022722Y008154D01*
X022646Y008338D01*
X022505Y008478D01*
X022321Y008554D01*
X022122Y008554D01*
X022321Y008554D01*
X022505Y008630D01*
X022646Y008771D01*
X022722Y008955D01*
X022722Y009154D01*
X022646Y009338D01*
X022505Y009478D01*
X022321Y009554D01*
X022122Y009554D01*
X022321Y009554D01*
X022505Y009630D01*
X022646Y009771D01*
X022722Y009955D01*
X022722Y010154D01*
X022646Y010338D01*
X022505Y010478D01*
X022321Y010554D01*
X022122Y010554D01*
X022321Y010554D01*
X022505Y010630D01*
X022646Y010771D01*
X022722Y010955D01*
X022722Y011154D01*
X022646Y011338D01*
X022505Y011478D01*
X022321Y011554D01*
X022122Y011554D01*
X022321Y011554D01*
X022505Y011630D01*
X022646Y011771D01*
X022722Y011955D01*
X022722Y012154D01*
X022646Y012338D01*
X022505Y012478D01*
X022321Y012554D01*
X022122Y012554D01*
X022321Y012554D01*
X022505Y012630D01*
X022646Y012771D01*
X022722Y012955D01*
X022722Y013154D01*
X022646Y013338D01*
X022505Y013478D01*
X022321Y013554D01*
X022122Y013554D01*
X021939Y013630D01*
X021875Y013694D01*
X021569Y013694D01*
X021505Y013630D01*
X021321Y013554D01*
X021122Y013554D01*
X020939Y013478D01*
X020798Y013338D01*
X020722Y013154D01*
X020722Y012955D01*
X020798Y012771D01*
X020939Y012630D01*
X021122Y012554D01*
X020939Y012478D01*
X020798Y012338D01*
X020722Y012154D01*
X020722Y011955D01*
X020798Y011771D01*
X020939Y011630D01*
X021122Y011554D01*
X020939Y011478D01*
X020798Y011338D01*
X020722Y011154D01*
X020722Y010955D01*
X020798Y010771D01*
X020939Y010630D01*
X021122Y010554D01*
X020939Y010478D01*
X020798Y010338D01*
X020722Y010154D01*
X020722Y009955D01*
X020798Y009771D01*
X020939Y009630D01*
X021122Y009554D01*
X020939Y009478D01*
X020798Y009338D01*
X020722Y009154D01*
X020722Y008955D01*
X020798Y008771D01*
X020939Y008630D01*
X021122Y008554D01*
X020939Y008478D01*
X020798Y008338D01*
X020722Y008154D01*
X020722Y007955D01*
X020798Y007771D01*
X020939Y007630D01*
X021122Y007554D01*
X020939Y007478D01*
X020798Y007338D01*
X020722Y007154D01*
X020722Y006955D01*
X020798Y006771D01*
X020939Y006630D01*
X021122Y006554D01*
X020939Y006478D01*
X020798Y006338D01*
X020722Y006154D01*
X020722Y005955D01*
X020798Y005771D01*
X020939Y005630D01*
X021122Y005554D01*
X021321Y005554D01*
X021505Y005630D01*
X021646Y005771D01*
X021722Y005955D01*
X021722Y006154D01*
X021646Y006338D01*
X021505Y006478D01*
X021321Y006554D01*
X021122Y006554D01*
X021321Y006554D01*
X021505Y006630D01*
X021646Y006771D01*
X021722Y006955D01*
X021722Y007154D01*
X021646Y007338D01*
X021505Y007478D01*
X021321Y007554D01*
X021122Y007554D01*
X021321Y007554D01*
X021505Y007630D01*
X021646Y007771D01*
X021722Y007955D01*
X021722Y008154D01*
X021646Y008338D01*
X021505Y008478D01*
X021321Y008554D01*
X021122Y008554D01*
X021321Y008554D01*
X021505Y008630D01*
X021646Y008771D01*
X021722Y008955D01*
X021722Y009154D01*
X021646Y009338D01*
X021505Y009478D01*
X021321Y009554D01*
X021122Y009554D01*
X021321Y009554D01*
X021505Y009630D01*
X021646Y009771D01*
X021722Y009955D01*
X021722Y010154D01*
X021646Y010338D01*
X021505Y010478D01*
X021321Y010554D01*
X021122Y010554D01*
X021321Y010554D01*
X021505Y010630D01*
X021646Y010771D01*
X021722Y010955D01*
X021722Y011154D01*
X021646Y011338D01*
X021505Y011478D01*
X021321Y011554D01*
X021122Y011554D01*
X021321Y011554D01*
X021505Y011630D01*
X021646Y011771D01*
X021722Y011955D01*
X021722Y012154D01*
X021646Y012338D01*
X021505Y012478D01*
X021321Y012554D01*
X021122Y012554D01*
X021321Y012554D01*
X021505Y012630D01*
X021646Y012771D01*
X021722Y012955D01*
X021722Y013154D01*
X021646Y013338D01*
X021505Y013478D01*
X021321Y013554D01*
X021122Y013554D01*
X020939Y013630D01*
X020875Y013694D01*
X020569Y013694D01*
X020505Y013630D01*
X020321Y013554D01*
X020122Y013554D01*
X019939Y013478D01*
X019798Y013338D01*
X019722Y013154D01*
X019722Y012955D01*
X019646Y012771D01*
X019505Y012630D01*
X019321Y012554D01*
X019122Y012554D01*
X018939Y012478D01*
X018798Y012338D01*
X018722Y012154D01*
X018722Y011955D01*
X018646Y011771D01*
X018505Y011630D01*
X018321Y011554D01*
X018122Y011554D01*
X017939Y011478D01*
X017798Y011338D01*
X017722Y011154D01*
X017722Y010955D01*
X017646Y010771D01*
X017505Y010630D01*
X017321Y010554D01*
X017122Y010554D01*
X016939Y010478D01*
X016798Y010338D01*
X016722Y010154D01*
X016722Y009955D01*
X016646Y009771D01*
X016505Y009630D01*
X016321Y009554D01*
X016122Y009554D01*
X015939Y009478D01*
X015798Y009338D01*
X015722Y009154D01*
X015722Y008955D01*
X015646Y008771D01*
X015505Y008630D01*
X015321Y008554D01*
X015122Y008554D01*
X014939Y008478D01*
X014798Y008338D01*
X014722Y008154D01*
X014722Y007955D01*
X014646Y007771D01*
X014505Y007630D01*
X014321Y007554D01*
X014122Y007554D01*
X013939Y007478D01*
X013798Y007338D01*
X013722Y007154D01*
X013722Y006955D01*
X013646Y006771D01*
X013505Y006630D01*
X013321Y006554D01*
X013122Y006554D01*
X012939Y006478D01*
X012798Y006338D01*
X012722Y006154D01*
X012722Y005955D01*
X012646Y005771D01*
X012505Y005630D01*
X012321Y005554D01*
X012122Y005554D01*
X011939Y005630D01*
X011798Y005771D01*
X011722Y005955D01*
X011646Y005771D01*
X011505Y005630D01*
X011321Y005554D01*
X011122Y005554D01*
X010939Y005630D01*
X010798Y005771D01*
X010722Y005955D01*
X010646Y005771D01*
X010505Y005630D01*
X010321Y005554D01*
X010122Y005554D01*
X009939Y005630D01*
X009798Y005771D01*
X009722Y005955D01*
X009646Y005771D01*
X009505Y005630D01*
X009321Y005554D01*
X009122Y005554D01*
X008939Y005630D01*
X008798Y005771D01*
X008722Y005955D01*
X008646Y005771D01*
X008505Y005630D01*
X008321Y005554D01*
X008122Y005554D01*
X007939Y005630D01*
X007798Y005771D01*
X007722Y005955D01*
X007646Y005771D01*
X007505Y005630D01*
X007321Y005554D01*
X007122Y005554D01*
X006939Y005630D01*
X006798Y005771D01*
X006722Y005955D01*
X006646Y005771D01*
X006505Y005630D01*
X006321Y005554D01*
X006122Y005554D01*
X005939Y005630D01*
X005798Y005771D01*
X005722Y005955D01*
X005646Y005771D01*
X005505Y005630D01*
X005321Y005554D01*
X005122Y005554D01*
X004939Y005630D01*
X004798Y005771D01*
X004722Y005955D01*
X004646Y005771D01*
X004505Y005630D01*
X004321Y005554D01*
X004122Y005554D01*
X003939Y005630D01*
X003798Y005771D01*
X003722Y005955D01*
X003646Y005771D01*
X003505Y005630D01*
X003321Y005554D01*
X003122Y005554D01*
X002939Y005630D01*
X002798Y005771D01*
X002722Y005955D01*
X002646Y005771D01*
X002505Y005630D01*
X002321Y005554D01*
X002122Y005554D01*
X001939Y005630D01*
X001798Y005771D01*
X001722Y005955D01*
X001646Y005771D01*
X001505Y005630D01*
X001321Y005554D01*
X001122Y005554D01*
X000939Y005630D01*
X000798Y005771D01*
X000722Y005955D01*
X000722Y006154D01*
X000798Y006338D01*
X000939Y006478D01*
X001122Y006554D01*
X001321Y006554D01*
X001505Y006478D01*
X001646Y006338D01*
X001722Y006154D01*
X001722Y005955D01*
X001722Y006154D01*
X001798Y006338D01*
X001939Y006478D01*
X002122Y006554D01*
X002321Y006554D01*
X002505Y006478D01*
X002646Y006338D01*
X002722Y006154D01*
X002722Y005955D01*
X002722Y006154D01*
X002798Y006338D01*
X002939Y006478D01*
X003122Y006554D01*
X003321Y006554D01*
X003505Y006478D01*
X003646Y006338D01*
X003722Y006154D01*
X003722Y005955D01*
X003722Y006154D01*
X003798Y006338D01*
X003939Y006478D01*
X004122Y006554D01*
X004321Y006554D01*
X004505Y006478D01*
X004646Y006338D01*
X004722Y006154D01*
X004722Y005955D01*
X004722Y006154D01*
X004798Y006338D01*
X004939Y006478D01*
X005122Y006554D01*
X005321Y006554D01*
X005505Y006478D01*
X005646Y006338D01*
X005722Y006154D01*
X005722Y005955D01*
X005722Y006154D01*
X005798Y006338D01*
X005939Y006478D01*
X006122Y006554D01*
X006321Y006554D01*
X006505Y006478D01*
X006646Y006338D01*
X006722Y006154D01*
X006722Y005955D01*
X006722Y006154D01*
X006798Y006338D01*
X006939Y006478D01*
X007122Y006554D01*
X007321Y006554D01*
X007505Y006478D01*
X007646Y006338D01*
X007722Y006154D01*
X007722Y005955D01*
X007722Y006154D01*
X007798Y006338D01*
X007939Y006478D01*
X008122Y006554D01*
X008321Y006554D01*
X008505Y006478D01*
X008646Y006338D01*
X008722Y006154D01*
X008722Y005955D01*
X008722Y006154D01*
X008798Y006338D01*
X008939Y006478D01*
X009122Y006554D01*
X009321Y006554D01*
X009505Y006478D01*
X009646Y006338D01*
X009722Y006154D01*
X009722Y005955D01*
X009722Y006154D01*
X009798Y006338D01*
X009939Y006478D01*
X010122Y006554D01*
X010321Y006554D01*
X010505Y006478D01*
X010646Y006338D01*
X010722Y006154D01*
X010722Y005955D01*
X010722Y006154D01*
X010798Y006338D01*
X010939Y006478D01*
X011122Y006554D01*
X011321Y006554D01*
X011505Y006478D01*
X011646Y006338D01*
X011722Y006154D01*
X011722Y005955D01*
X011722Y006154D01*
X011798Y006338D01*
X011939Y006478D01*
X012122Y006554D01*
X012321Y006554D01*
X012505Y006478D01*
X012646Y006338D01*
X012722Y006154D01*
X012722Y005955D01*
X012798Y005771D01*
X012939Y005630D01*
X013122Y005554D01*
X013321Y005554D01*
X013505Y005630D01*
X013646Y005771D01*
X013722Y005955D01*
X013722Y006154D01*
X013722Y005955D01*
X013798Y005771D01*
X013939Y005630D01*
X014122Y005554D01*
X014321Y005554D01*
X014505Y005630D01*
X014646Y005771D01*
X014722Y005955D01*
X014722Y006154D01*
X014722Y005955D01*
X014798Y005771D01*
X014939Y005630D01*
X015122Y005554D01*
X015321Y005554D01*
X015505Y005630D01*
X015646Y005771D01*
X015722Y005955D01*
X015722Y006154D01*
X015722Y005955D01*
X015798Y005771D01*
X015939Y005630D01*
X016122Y005554D01*
X016321Y005554D01*
X016505Y005630D01*
X016646Y005771D01*
X016722Y005955D01*
X016722Y006154D01*
X016722Y005955D01*
X016798Y005771D01*
X016939Y005630D01*
X017122Y005554D01*
X017321Y005554D01*
X017505Y005630D01*
X017646Y005771D01*
X017722Y005955D01*
X017722Y006154D01*
X017722Y005955D01*
X017798Y005771D01*
X017939Y005630D01*
X018122Y005554D01*
X018321Y005554D01*
X018505Y005630D01*
X018646Y005771D01*
X018722Y005955D01*
X018722Y006154D01*
X018722Y005955D01*
X018798Y005771D01*
X018939Y005630D01*
X019122Y005554D01*
X019321Y005554D01*
X019505Y005630D01*
X019646Y005771D01*
X019722Y005955D01*
X019722Y006154D01*
X019722Y005955D01*
X019798Y005771D01*
X019939Y005630D01*
X020122Y005554D01*
X020321Y005554D01*
X020505Y005630D01*
X020646Y005771D01*
X020722Y005955D01*
X020722Y006154D01*
X020646Y006338D01*
X020505Y006478D01*
X020321Y006554D01*
X020122Y006554D01*
X019939Y006478D01*
X019798Y006338D01*
X019722Y006154D01*
X019646Y006338D01*
X019505Y006478D01*
X019321Y006554D01*
X019122Y006554D01*
X018939Y006478D01*
X018798Y006338D01*
X018722Y006154D01*
X018646Y006338D01*
X018505Y006478D01*
X018321Y006554D01*
X018122Y006554D01*
X017939Y006478D01*
X017798Y006338D01*
X017722Y006154D01*
X017646Y006338D01*
X017505Y006478D01*
X017321Y006554D01*
X017122Y006554D01*
X016939Y006478D01*
X016798Y006338D01*
X016722Y006154D01*
X016646Y006338D01*
X016505Y006478D01*
X016321Y006554D01*
X016122Y006554D01*
X015939Y006478D01*
X015798Y006338D01*
X015722Y006154D01*
X015646Y006338D01*
X015505Y006478D01*
X015321Y006554D01*
X015122Y006554D01*
X014939Y006478D01*
X014798Y006338D01*
X014722Y006154D01*
X014646Y006338D01*
X014505Y006478D01*
X014321Y006554D01*
X014122Y006554D01*
X013939Y006478D01*
X013798Y006338D01*
X013722Y006154D01*
X013646Y006338D01*
X013505Y006478D01*
X013321Y006554D01*
X013122Y006554D01*
X012939Y006630D01*
X012798Y006771D01*
X012722Y006955D01*
X012646Y006771D01*
X012505Y006630D01*
X012321Y006554D01*
X012122Y006554D01*
X011939Y006630D01*
X011798Y006771D01*
X011722Y006955D01*
X011646Y006771D01*
X011505Y006630D01*
X011321Y006554D01*
X011122Y006554D01*
X010939Y006630D01*
X010798Y006771D01*
X010722Y006955D01*
X010646Y006771D01*
X010505Y006630D01*
X010321Y006554D01*
X010122Y006554D01*
X009939Y006630D01*
X009798Y006771D01*
X009722Y006955D01*
X009646Y006771D01*
X009505Y006630D01*
X009321Y006554D01*
X009122Y006554D01*
X008939Y006630D01*
X008798Y006771D01*
X008722Y006955D01*
X008646Y006771D01*
X008505Y006630D01*
X008321Y006554D01*
X008122Y006554D01*
X007939Y006630D01*
X007798Y006771D01*
X007722Y006955D01*
X007646Y006771D01*
X007505Y006630D01*
X007321Y006554D01*
X007122Y006554D01*
X006939Y006630D01*
X006798Y006771D01*
X006722Y006955D01*
X006646Y006771D01*
X006505Y006630D01*
X006321Y006554D01*
X006122Y006554D01*
X005939Y006630D01*
X005798Y006771D01*
X005722Y006955D01*
X005646Y006771D01*
X005505Y006630D01*
X005321Y006554D01*
X005122Y006554D01*
X004939Y006630D01*
X004798Y006771D01*
X004722Y006955D01*
X004646Y006771D01*
X004505Y006630D01*
X004321Y006554D01*
X004122Y006554D01*
X003939Y006630D01*
X003798Y006771D01*
X003722Y006955D01*
X003646Y006771D01*
X003505Y006630D01*
X003321Y006554D01*
X003122Y006554D01*
X002939Y006630D01*
X002798Y006771D01*
X002722Y006955D01*
X002646Y006771D01*
X002505Y006630D01*
X002321Y006554D01*
X002122Y006554D01*
X001939Y006630D01*
X001798Y006771D01*
X001722Y006955D01*
X001646Y006771D01*
X001505Y006630D01*
X001321Y006554D01*
X001122Y006554D01*
X000939Y006630D01*
X000798Y006771D01*
X000722Y006955D01*
X000722Y007154D01*
X000798Y007338D01*
X000939Y007478D01*
X001122Y007554D01*
X001321Y007554D01*
X001505Y007478D01*
X001646Y007338D01*
X001722Y007154D01*
X001722Y006955D01*
X001722Y007154D01*
X001798Y007338D01*
X001939Y007478D01*
X002122Y007554D01*
X002321Y007554D01*
X002505Y007478D01*
X002646Y007338D01*
X002722Y007154D01*
X002722Y006955D01*
X002722Y007154D01*
X002798Y007338D01*
X002939Y007478D01*
X003122Y007554D01*
X003321Y007554D01*
X003505Y007478D01*
X003646Y007338D01*
X003722Y007154D01*
X003722Y006955D01*
X003722Y007154D01*
X003798Y007338D01*
X003939Y007478D01*
X004122Y007554D01*
X004321Y007554D01*
X004505Y007478D01*
X004646Y007338D01*
X004722Y007154D01*
X004722Y006955D01*
X004722Y007154D01*
X004798Y007338D01*
X004939Y007478D01*
X005122Y007554D01*
X005321Y007554D01*
X005505Y007478D01*
X005646Y007338D01*
X005722Y007154D01*
X005722Y006955D01*
X005722Y007154D01*
X005798Y007338D01*
X005939Y007478D01*
X006122Y007554D01*
X006321Y007554D01*
X006505Y007478D01*
X006646Y007338D01*
X006722Y007154D01*
X006722Y006955D01*
X006722Y007154D01*
X006798Y007338D01*
X006939Y007478D01*
X007122Y007554D01*
X007321Y007554D01*
X007505Y007478D01*
X007646Y007338D01*
X007722Y007154D01*
X007722Y006955D01*
X007722Y007154D01*
X007798Y007338D01*
X007939Y007478D01*
X008122Y007554D01*
X008321Y007554D01*
X008505Y007478D01*
X008646Y007338D01*
X008722Y007154D01*
X008722Y006955D01*
X008722Y007154D01*
X008798Y007338D01*
X008939Y007478D01*
X009122Y007554D01*
X009321Y007554D01*
X009505Y007478D01*
X009646Y007338D01*
X009722Y007154D01*
X009722Y006955D01*
X009722Y007154D01*
X009798Y007338D01*
X009939Y007478D01*
X010122Y007554D01*
X010321Y007554D01*
X010505Y007478D01*
X010646Y007338D01*
X010722Y007154D01*
X010722Y006955D01*
X010722Y007154D01*
X010798Y007338D01*
X010939Y007478D01*
X011122Y007554D01*
X011321Y007554D01*
X011505Y007478D01*
X011646Y007338D01*
X011722Y007154D01*
X011722Y006955D01*
X011722Y007154D01*
X011798Y007338D01*
X011939Y007478D01*
X012122Y007554D01*
X012321Y007554D01*
X012505Y007478D01*
X012646Y007338D01*
X012722Y007154D01*
X012722Y006955D01*
X012722Y007154D01*
X012798Y007338D01*
X012939Y007478D01*
X013122Y007554D01*
X013321Y007554D01*
X013505Y007478D01*
X013646Y007338D01*
X013722Y007154D01*
X013722Y006955D01*
X013798Y006771D01*
X013939Y006630D01*
X014122Y006554D01*
X014321Y006554D01*
X014505Y006630D01*
X014646Y006771D01*
X014722Y006955D01*
X014722Y007154D01*
X014722Y006955D01*
X014798Y006771D01*
X014939Y006630D01*
X015122Y006554D01*
X015321Y006554D01*
X015505Y006630D01*
X015646Y006771D01*
X015722Y006955D01*
X015722Y007154D01*
X015722Y006955D01*
X015798Y006771D01*
X015939Y006630D01*
X016122Y006554D01*
X016321Y006554D01*
X016505Y006630D01*
X016646Y006771D01*
X016722Y006955D01*
X016722Y007154D01*
X016722Y006955D01*
X016798Y006771D01*
X016939Y006630D01*
X017122Y006554D01*
X017321Y006554D01*
X017505Y006630D01*
X017646Y006771D01*
X017722Y006955D01*
X017722Y007154D01*
X017722Y006955D01*
X017798Y006771D01*
X017939Y006630D01*
X018122Y006554D01*
X018321Y006554D01*
X018505Y006630D01*
X018646Y006771D01*
X018722Y006955D01*
X018722Y007154D01*
X018722Y006955D01*
X018798Y006771D01*
X018939Y006630D01*
X019122Y006554D01*
X019321Y006554D01*
X019505Y006630D01*
X019646Y006771D01*
X019722Y006955D01*
X019722Y007154D01*
X019722Y006955D01*
X019798Y006771D01*
X019939Y006630D01*
X020122Y006554D01*
X020321Y006554D01*
X020505Y006630D01*
X020646Y006771D01*
X020722Y006955D01*
X020722Y007154D01*
X020646Y007338D01*
X020505Y007478D01*
X020321Y007554D01*
X020122Y007554D01*
X019939Y007478D01*
X019798Y007338D01*
X019722Y007154D01*
X019646Y007338D01*
X019505Y007478D01*
X019321Y007554D01*
X019122Y007554D01*
X018939Y007478D01*
X018798Y007338D01*
X018722Y007154D01*
X018646Y007338D01*
X018505Y007478D01*
X018321Y007554D01*
X018122Y007554D01*
X017939Y007478D01*
X017798Y007338D01*
X017722Y007154D01*
X017646Y007338D01*
X017505Y007478D01*
X017321Y007554D01*
X017122Y007554D01*
X016939Y007478D01*
X016798Y007338D01*
X016722Y007154D01*
X016646Y007338D01*
X016505Y007478D01*
X016321Y007554D01*
X016122Y007554D01*
X015939Y007478D01*
X015798Y007338D01*
X015722Y007154D01*
X015646Y007338D01*
X015505Y007478D01*
X015321Y007554D01*
X015122Y007554D01*
X014939Y007478D01*
X014798Y007338D01*
X014722Y007154D01*
X014646Y007338D01*
X014505Y007478D01*
X014321Y007554D01*
X014122Y007554D01*
X013939Y007630D01*
X013798Y007771D01*
X013722Y007955D01*
X013646Y007771D01*
X013505Y007630D01*
X013321Y007554D01*
X013122Y007554D01*
X012939Y007630D01*
X012798Y007771D01*
X012722Y007955D01*
X012646Y007771D01*
X012505Y007630D01*
X012321Y007554D01*
X012122Y007554D01*
X011939Y007630D01*
X011798Y007771D01*
X011722Y007955D01*
X011646Y007771D01*
X011505Y007630D01*
X011321Y007554D01*
X011122Y007554D01*
X010939Y007630D01*
X010798Y007771D01*
X010722Y007955D01*
X010646Y007771D01*
X010505Y007630D01*
X010321Y007554D01*
X010122Y007554D01*
X009939Y007630D01*
X009798Y007771D01*
X009722Y007955D01*
X009646Y007771D01*
X009505Y007630D01*
X009321Y007554D01*
X009122Y007554D01*
X008939Y007630D01*
X008798Y007771D01*
X008722Y007955D01*
X008646Y007771D01*
X008505Y007630D01*
X008321Y007554D01*
X008122Y007554D01*
X007939Y007630D01*
X007798Y007771D01*
X007722Y007955D01*
X007646Y007771D01*
X007505Y007630D01*
X007321Y007554D01*
X007122Y007554D01*
X006939Y007630D01*
X006798Y007771D01*
X006722Y007955D01*
X006646Y007771D01*
X006505Y007630D01*
X006321Y007554D01*
X006122Y007554D01*
X005939Y007630D01*
X005798Y007771D01*
X005722Y007955D01*
X005646Y007771D01*
X005505Y007630D01*
X005321Y007554D01*
X005122Y007554D01*
X004939Y007630D01*
X004798Y007771D01*
X004722Y007955D01*
X004646Y007771D01*
X004505Y007630D01*
X004321Y007554D01*
X004122Y007554D01*
X003939Y007630D01*
X003798Y007771D01*
X003722Y007955D01*
X003646Y007771D01*
X003505Y007630D01*
X003321Y007554D01*
X003122Y007554D01*
X002939Y007630D01*
X002798Y007771D01*
X002722Y007955D01*
X002646Y007771D01*
X002505Y007630D01*
X002321Y007554D01*
X002122Y007554D01*
X001939Y007630D01*
X001798Y007771D01*
X001722Y007955D01*
X001646Y007771D01*
X001505Y007630D01*
X001321Y007554D01*
X001122Y007554D01*
X000939Y007630D01*
X000798Y007771D01*
X000722Y007955D01*
X000722Y008154D01*
X000798Y008338D01*
X000939Y008478D01*
X001122Y008554D01*
X001321Y008554D01*
X001505Y008478D01*
X001646Y008338D01*
X001722Y008154D01*
X001722Y007955D01*
X001722Y008154D01*
X001798Y008338D01*
X001939Y008478D01*
X002122Y008554D01*
X002321Y008554D01*
X002505Y008478D01*
X002646Y008338D01*
X002722Y008154D01*
X002722Y007955D01*
X002722Y008154D01*
X002798Y008338D01*
X002939Y008478D01*
X003122Y008554D01*
X003321Y008554D01*
X003505Y008478D01*
X003646Y008338D01*
X003722Y008154D01*
X003722Y007955D01*
X003722Y008154D01*
X003798Y008338D01*
X003939Y008478D01*
X004122Y008554D01*
X004321Y008554D01*
X004505Y008478D01*
X004646Y008338D01*
X004722Y008154D01*
X004722Y007955D01*
X004722Y008154D01*
X004798Y008338D01*
X004939Y008478D01*
X005122Y008554D01*
X005321Y008554D01*
X005505Y008478D01*
X005646Y008338D01*
X005722Y008154D01*
X005722Y007955D01*
X005722Y008154D01*
X005798Y008338D01*
X005939Y008478D01*
X006122Y008554D01*
X006321Y008554D01*
X006505Y008478D01*
X006646Y008338D01*
X006722Y008154D01*
X006722Y007955D01*
X006722Y008154D01*
X006798Y008338D01*
X006939Y008478D01*
X007122Y008554D01*
X007321Y008554D01*
X007505Y008478D01*
X007646Y008338D01*
X007722Y008154D01*
X007722Y007955D01*
X007722Y008154D01*
X007798Y008338D01*
X007939Y008478D01*
X008122Y008554D01*
X008321Y008554D01*
X008505Y008478D01*
X008646Y008338D01*
X008722Y008154D01*
X008722Y007955D01*
X008722Y008154D01*
X008798Y008338D01*
X008939Y008478D01*
X009122Y008554D01*
X009321Y008554D01*
X009505Y008478D01*
X009646Y008338D01*
X009722Y008154D01*
X009722Y007955D01*
X009722Y008154D01*
X009798Y008338D01*
X009939Y008478D01*
X010122Y008554D01*
X010321Y008554D01*
X010505Y008478D01*
X010646Y008338D01*
X010722Y008154D01*
X010722Y007955D01*
X010722Y008154D01*
X010798Y008338D01*
X010939Y008478D01*
X011122Y008554D01*
X011321Y008554D01*
X011505Y008478D01*
X011646Y008338D01*
X011722Y008154D01*
X011722Y007955D01*
X011722Y008154D01*
X011798Y008338D01*
X011939Y008478D01*
X012122Y008554D01*
X012321Y008554D01*
X012505Y008478D01*
X012646Y008338D01*
X012722Y008154D01*
X012722Y007955D01*
X012722Y008154D01*
X012798Y008338D01*
X012939Y008478D01*
X013122Y008554D01*
X013321Y008554D01*
X013505Y008478D01*
X013646Y008338D01*
X013722Y008154D01*
X013722Y007955D01*
X013722Y008154D01*
X013798Y008338D01*
X013939Y008478D01*
X014122Y008554D01*
X014321Y008554D01*
X014505Y008478D01*
X014646Y008338D01*
X014722Y008154D01*
X014722Y007955D01*
X014798Y007771D01*
X014939Y007630D01*
X015122Y007554D01*
X015321Y007554D01*
X015505Y007630D01*
X015646Y007771D01*
X015722Y007955D01*
X015722Y008154D01*
X015722Y007955D01*
X015798Y007771D01*
X015939Y007630D01*
X016122Y007554D01*
X016321Y007554D01*
X016505Y007630D01*
X016646Y007771D01*
X016722Y007955D01*
X016722Y008154D01*
X016722Y007955D01*
X016798Y007771D01*
X016939Y007630D01*
X017122Y007554D01*
X017321Y007554D01*
X017505Y007630D01*
X017646Y007771D01*
X017722Y007955D01*
X017722Y008154D01*
X017722Y007955D01*
X017798Y007771D01*
X017939Y007630D01*
X018122Y007554D01*
X018321Y007554D01*
X018505Y007630D01*
X018646Y007771D01*
X018722Y007955D01*
X018722Y008154D01*
X018722Y007955D01*
X018798Y007771D01*
X018939Y007630D01*
X019122Y007554D01*
X019321Y007554D01*
X019505Y007630D01*
X019646Y007771D01*
X019722Y007955D01*
X019722Y008154D01*
X019722Y007955D01*
X019798Y007771D01*
X019939Y007630D01*
X020122Y007554D01*
X020321Y007554D01*
X020505Y007630D01*
X020646Y007771D01*
X020722Y007955D01*
X020722Y008154D01*
X020646Y008338D01*
X020505Y008478D01*
X020321Y008554D01*
X020122Y008554D01*
X019939Y008478D01*
X019798Y008338D01*
X019722Y008154D01*
X019646Y008338D01*
X019505Y008478D01*
X019321Y008554D01*
X019122Y008554D01*
X018939Y008478D01*
X018798Y008338D01*
X018722Y008154D01*
X018646Y008338D01*
X018505Y008478D01*
X018321Y008554D01*
X018122Y008554D01*
X017939Y008478D01*
X017798Y008338D01*
X017722Y008154D01*
X017646Y008338D01*
X017505Y008478D01*
X017321Y008554D01*
X017122Y008554D01*
X016939Y008478D01*
X016798Y008338D01*
X016722Y008154D01*
X016646Y008338D01*
X016505Y008478D01*
X016321Y008554D01*
X016122Y008554D01*
X015939Y008478D01*
X015798Y008338D01*
X015722Y008154D01*
X015646Y008338D01*
X015505Y008478D01*
X015321Y008554D01*
X015122Y008554D01*
X014939Y008630D01*
X014798Y008771D01*
X014722Y008955D01*
X014646Y008771D01*
X014505Y008630D01*
X014321Y008554D01*
X014122Y008554D01*
X013939Y008630D01*
X013798Y008771D01*
X013722Y008955D01*
X013646Y008771D01*
X013505Y008630D01*
X013321Y008554D01*
X013122Y008554D01*
X012939Y008630D01*
X012798Y008771D01*
X012722Y008955D01*
X012646Y008771D01*
X012505Y008630D01*
X012321Y008554D01*
X012122Y008554D01*
X011939Y008630D01*
X011798Y008771D01*
X011722Y008955D01*
X011646Y008771D01*
X011505Y008630D01*
X011321Y008554D01*
X011122Y008554D01*
X010939Y008630D01*
X010798Y008771D01*
X010722Y008955D01*
X010646Y008771D01*
X010505Y008630D01*
X010321Y008554D01*
X010122Y008554D01*
X009939Y008630D01*
X009798Y008771D01*
X009722Y008955D01*
X009646Y008771D01*
X009505Y008630D01*
X009321Y008554D01*
X009122Y008554D01*
X008939Y008630D01*
X008798Y008771D01*
X008722Y008955D01*
X008646Y008771D01*
X008505Y008630D01*
X008321Y008554D01*
X008122Y008554D01*
X007939Y008630D01*
X007798Y008771D01*
X007722Y008955D01*
X007646Y008771D01*
X007505Y008630D01*
X007321Y008554D01*
X007122Y008554D01*
X006939Y008630D01*
X006798Y008771D01*
X006722Y008955D01*
X006646Y008771D01*
X006505Y008630D01*
X006321Y008554D01*
X006122Y008554D01*
X005939Y008630D01*
X005798Y008771D01*
X005722Y008955D01*
X005646Y008771D01*
X005505Y008630D01*
X005321Y008554D01*
X005122Y008554D01*
X004939Y008630D01*
X004798Y008771D01*
X004722Y008955D01*
X004646Y008771D01*
X004505Y008630D01*
X004321Y008554D01*
X004122Y008554D01*
X003939Y008630D01*
X003798Y008771D01*
X003722Y008955D01*
X003646Y008771D01*
X003505Y008630D01*
X003321Y008554D01*
X003122Y008554D01*
X002939Y008630D01*
X002798Y008771D01*
X002722Y008955D01*
X002646Y008771D01*
X002505Y008630D01*
X002321Y008554D01*
X002122Y008554D01*
X001939Y008630D01*
X001798Y008771D01*
X001722Y008955D01*
X001646Y008771D01*
X001505Y008630D01*
X001321Y008554D01*
X001122Y008554D01*
X000939Y008630D01*
X000798Y008771D01*
X000722Y008955D01*
X000722Y009154D01*
X000798Y009338D01*
X000939Y009478D01*
X001122Y009554D01*
X001321Y009554D01*
X001505Y009478D01*
X001646Y009338D01*
X001722Y009154D01*
X001722Y008955D01*
X001722Y009154D01*
X001798Y009338D01*
X001939Y009478D01*
X002122Y009554D01*
X002321Y009554D01*
X002505Y009478D01*
X002646Y009338D01*
X002722Y009154D01*
X002722Y008955D01*
X002722Y009154D01*
X002798Y009338D01*
X002939Y009478D01*
X003122Y009554D01*
X003321Y009554D01*
X003505Y009478D01*
X003646Y009338D01*
X003722Y009154D01*
X003722Y008955D01*
X003722Y009154D01*
X003798Y009338D01*
X003939Y009478D01*
X004122Y009554D01*
X004321Y009554D01*
X004505Y009478D01*
X004646Y009338D01*
X004722Y009154D01*
X004722Y008955D01*
X004722Y009154D01*
X004798Y009338D01*
X004939Y009478D01*
X005122Y009554D01*
X005321Y009554D01*
X005505Y009478D01*
X005646Y009338D01*
X005722Y009154D01*
X005722Y008955D01*
X005722Y009154D01*
X005798Y009338D01*
X005939Y009478D01*
X006122Y009554D01*
X006321Y009554D01*
X006505Y009478D01*
X006646Y009338D01*
X006722Y009154D01*
X006722Y008955D01*
X006722Y009154D01*
X006798Y009338D01*
X006939Y009478D01*
X007122Y009554D01*
X007321Y009554D01*
X007505Y009478D01*
X007646Y009338D01*
X007722Y009154D01*
X007722Y008955D01*
X007722Y009154D01*
X007798Y009338D01*
X007939Y009478D01*
X008122Y009554D01*
X008321Y009554D01*
X008505Y009478D01*
X008646Y009338D01*
X008722Y009154D01*
X008722Y008955D01*
X008722Y009154D01*
X008798Y009338D01*
X008939Y009478D01*
X009122Y009554D01*
X009321Y009554D01*
X009505Y009478D01*
X009646Y009338D01*
X009722Y009154D01*
X009722Y008955D01*
X009722Y009154D01*
X009798Y009338D01*
X009939Y009478D01*
X010122Y009554D01*
X010321Y009554D01*
X010505Y009478D01*
X010646Y009338D01*
X010722Y009154D01*
X010722Y008955D01*
X010722Y009154D01*
X010798Y009338D01*
X010939Y009478D01*
X011122Y009554D01*
X011321Y009554D01*
X011505Y009478D01*
X011646Y009338D01*
X011722Y009154D01*
X011722Y008955D01*
X011722Y009154D01*
X011798Y009338D01*
X011939Y009478D01*
X012122Y009554D01*
X012321Y009554D01*
X012505Y009478D01*
X012646Y009338D01*
X012722Y009154D01*
X012722Y008955D01*
X012722Y009154D01*
X012798Y009338D01*
X012939Y009478D01*
X013122Y009554D01*
X013321Y009554D01*
X013505Y009478D01*
X013646Y009338D01*
X013722Y009154D01*
X013722Y008955D01*
X013722Y009154D01*
X013798Y009338D01*
X013939Y009478D01*
X014122Y009554D01*
X014321Y009554D01*
X014505Y009478D01*
X014646Y009338D01*
X014722Y009154D01*
X014722Y008955D01*
X014722Y009154D01*
X014798Y009338D01*
X014939Y009478D01*
X015122Y009554D01*
X015321Y009554D01*
X015505Y009478D01*
X015646Y009338D01*
X015722Y009154D01*
X015722Y008955D01*
X015798Y008771D01*
X015939Y008630D01*
X016122Y008554D01*
X016321Y008554D01*
X016505Y008630D01*
X016646Y008771D01*
X016722Y008955D01*
X016722Y009154D01*
X016722Y008955D01*
X016798Y008771D01*
X016939Y008630D01*
X017122Y008554D01*
X017321Y008554D01*
X017505Y008630D01*
X017646Y008771D01*
X017722Y008955D01*
X017722Y009154D01*
X017722Y008955D01*
X017798Y008771D01*
X017939Y008630D01*
X018122Y008554D01*
X018321Y008554D01*
X018505Y008630D01*
X018646Y008771D01*
X018722Y008955D01*
X018722Y009154D01*
X018722Y008955D01*
X018798Y008771D01*
X018939Y008630D01*
X019122Y008554D01*
X019321Y008554D01*
X019505Y008630D01*
X019646Y008771D01*
X019722Y008955D01*
X019722Y009154D01*
X019722Y008955D01*
X019798Y008771D01*
X019939Y008630D01*
X020122Y008554D01*
X020321Y008554D01*
X020505Y008630D01*
X020646Y008771D01*
X020722Y008955D01*
X020722Y009154D01*
X020646Y009338D01*
X020505Y009478D01*
X020321Y009554D01*
X020122Y009554D01*
X019939Y009478D01*
X019798Y009338D01*
X019722Y009154D01*
X019646Y009338D01*
X019505Y009478D01*
X019321Y009554D01*
X019122Y009554D01*
X018939Y009478D01*
X018798Y009338D01*
X018722Y009154D01*
X018646Y009338D01*
X018505Y009478D01*
X018321Y009554D01*
X018122Y009554D01*
X017939Y009478D01*
X017798Y009338D01*
X017722Y009154D01*
X017646Y009338D01*
X017505Y009478D01*
X017321Y009554D01*
X017122Y009554D01*
X016939Y009478D01*
X016798Y009338D01*
X016722Y009154D01*
X016646Y009338D01*
X016505Y009478D01*
X016321Y009554D01*
X016122Y009554D01*
X015939Y009630D01*
X015798Y009771D01*
X015722Y009955D01*
X015646Y009771D01*
X015505Y009630D01*
X015321Y009554D01*
X015122Y009554D01*
X014939Y009630D01*
X014798Y009771D01*
X014722Y009955D01*
X014646Y009771D01*
X014505Y009630D01*
X014321Y009554D01*
X014122Y009554D01*
X013939Y009630D01*
X013798Y009771D01*
X013722Y009955D01*
X013646Y009771D01*
X013505Y009630D01*
X013321Y009554D01*
X013122Y009554D01*
X012939Y009630D01*
X012798Y009771D01*
X012722Y009955D01*
X012646Y009771D01*
X012505Y009630D01*
X012321Y009554D01*
X012122Y009554D01*
X011939Y009630D01*
X011798Y009771D01*
X011722Y009955D01*
X011646Y009771D01*
X011505Y009630D01*
X011321Y009554D01*
X011122Y009554D01*
X010939Y009630D01*
X010798Y009771D01*
X010722Y009955D01*
X010646Y009771D01*
X010505Y009630D01*
X010321Y009554D01*
X010122Y009554D01*
X009939Y009630D01*
X009798Y009771D01*
X009722Y009955D01*
X009646Y009771D01*
X009505Y009630D01*
X009321Y009554D01*
X009122Y009554D01*
X008939Y009630D01*
X008798Y009771D01*
X008722Y009955D01*
X008646Y009771D01*
X008505Y009630D01*
X008321Y009554D01*
X008122Y009554D01*
X007939Y009630D01*
X007798Y009771D01*
X007722Y009955D01*
X007646Y009771D01*
X007505Y009630D01*
X007321Y009554D01*
X007122Y009554D01*
X006939Y009630D01*
X006798Y009771D01*
X006722Y009955D01*
X006646Y009771D01*
X006505Y009630D01*
X006321Y009554D01*
X006122Y009554D01*
X005939Y009630D01*
X005798Y009771D01*
X005722Y009955D01*
X005646Y009771D01*
X005505Y009630D01*
X005321Y009554D01*
X005122Y009554D01*
X004939Y009630D01*
X004798Y009771D01*
X004722Y009955D01*
X004646Y009771D01*
X004505Y009630D01*
X004321Y009554D01*
X004122Y009554D01*
X003939Y009630D01*
X003798Y009771D01*
X003722Y009955D01*
X003646Y009771D01*
X003505Y009630D01*
X003321Y009554D01*
X003122Y009554D01*
X002939Y009630D01*
X002798Y009771D01*
X002722Y009955D01*
X002646Y009771D01*
X002505Y009630D01*
X002321Y009554D01*
X002122Y009554D01*
X001939Y009630D01*
X001798Y009771D01*
X001722Y009955D01*
X001646Y009771D01*
X001505Y009630D01*
X001321Y009554D01*
X001122Y009554D01*
X000939Y009630D01*
X000798Y009771D01*
X000722Y009955D01*
X000722Y010154D01*
X000798Y010338D01*
X000939Y010478D01*
X001122Y010554D01*
X001321Y010554D01*
X001505Y010478D01*
X001646Y010338D01*
X001722Y010154D01*
X001722Y009955D01*
X001722Y010154D01*
X001798Y010338D01*
X001939Y010478D01*
X002122Y010554D01*
X002321Y010554D01*
X002505Y010478D01*
X002646Y010338D01*
X002722Y010154D01*
X002722Y009955D01*
X002722Y010154D01*
X002798Y010338D01*
X002939Y010478D01*
X003122Y010554D01*
X003321Y010554D01*
X003505Y010478D01*
X003646Y010338D01*
X003722Y010154D01*
X003722Y009955D01*
X003722Y010154D01*
X003798Y010338D01*
X003939Y010478D01*
X004122Y010554D01*
X004321Y010554D01*
X004505Y010478D01*
X004646Y010338D01*
X004722Y010154D01*
X004722Y009955D01*
X004722Y010154D01*
X004798Y010338D01*
X004939Y010478D01*
X005122Y010554D01*
X005321Y010554D01*
X005505Y010478D01*
X005646Y010338D01*
X005722Y010154D01*
X005722Y009955D01*
X005722Y010154D01*
X005798Y010338D01*
X005939Y010478D01*
X006122Y010554D01*
X006321Y010554D01*
X006505Y010478D01*
X006646Y010338D01*
X006722Y010154D01*
X006722Y009955D01*
X006722Y010154D01*
X006798Y010338D01*
X006939Y010478D01*
X007122Y010554D01*
X007321Y010554D01*
X007505Y010478D01*
X007646Y010338D01*
X007722Y010154D01*
X007722Y009955D01*
X007722Y010154D01*
X007798Y010338D01*
X007939Y010478D01*
X008122Y010554D01*
X008321Y010554D01*
X008505Y010478D01*
X008646Y010338D01*
X008722Y010154D01*
X008722Y009955D01*
X008722Y010154D01*
X008798Y010338D01*
X008939Y010478D01*
X009122Y010554D01*
X009321Y010554D01*
X009505Y010478D01*
X009646Y010338D01*
X009722Y010154D01*
X009722Y009955D01*
X009722Y010154D01*
X009798Y010338D01*
X009939Y010478D01*
X010122Y010554D01*
X010321Y010554D01*
X010505Y010478D01*
X010646Y010338D01*
X010722Y010154D01*
X010722Y009955D01*
X010722Y010154D01*
X010798Y010338D01*
X010939Y010478D01*
X011122Y010554D01*
X011321Y010554D01*
X011505Y010478D01*
X011646Y010338D01*
X011722Y010154D01*
X011722Y009955D01*
X011722Y010154D01*
X011798Y010338D01*
X011939Y010478D01*
X012122Y010554D01*
X012321Y010554D01*
X012505Y010478D01*
X012646Y010338D01*
X012722Y010154D01*
X012722Y009955D01*
X012722Y010154D01*
X012798Y010338D01*
X012939Y010478D01*
X013122Y010554D01*
X013321Y010554D01*
X013505Y010478D01*
X013646Y010338D01*
X013722Y010154D01*
X013722Y009955D01*
X013722Y010154D01*
X013798Y010338D01*
X013939Y010478D01*
X014122Y010554D01*
X014321Y010554D01*
X014505Y010478D01*
X014646Y010338D01*
X014722Y010154D01*
X014722Y009955D01*
X014722Y010154D01*
X014798Y010338D01*
X014939Y010478D01*
X015122Y010554D01*
X015321Y010554D01*
X015505Y010478D01*
X015646Y010338D01*
X015722Y010154D01*
X015722Y009955D01*
X015722Y010154D01*
X015798Y010338D01*
X015939Y010478D01*
X016122Y010554D01*
X016321Y010554D01*
X016505Y010478D01*
X016646Y010338D01*
X016722Y010154D01*
X016722Y009955D01*
X016798Y009771D01*
X016939Y009630D01*
X017122Y009554D01*
X017321Y009554D01*
X017505Y009630D01*
X017646Y009771D01*
X017722Y009955D01*
X017722Y010154D01*
X017722Y009955D01*
X017798Y009771D01*
X017939Y009630D01*
X018122Y009554D01*
X018321Y009554D01*
X018505Y009630D01*
X018646Y009771D01*
X018722Y009955D01*
X018722Y010154D01*
X018722Y009955D01*
X018798Y009771D01*
X018939Y009630D01*
X019122Y009554D01*
X019321Y009554D01*
X019505Y009630D01*
X019646Y009771D01*
X019722Y009955D01*
X019722Y010154D01*
X019722Y009955D01*
X019798Y009771D01*
X019939Y009630D01*
X020122Y009554D01*
X020321Y009554D01*
X020505Y009630D01*
X020646Y009771D01*
X020722Y009955D01*
X020722Y010154D01*
X020646Y010338D01*
X020505Y010478D01*
X020321Y010554D01*
X020122Y010554D01*
X019939Y010478D01*
X019798Y010338D01*
X019722Y010154D01*
X019646Y010338D01*
X019505Y010478D01*
X019321Y010554D01*
X019122Y010554D01*
X018939Y010478D01*
X018798Y010338D01*
X018722Y010154D01*
X018646Y010338D01*
X018505Y010478D01*
X018321Y010554D01*
X018122Y010554D01*
X017939Y010478D01*
X017798Y010338D01*
X017722Y010154D01*
X017646Y010338D01*
X017505Y010478D01*
X017321Y010554D01*
X017122Y010554D01*
X016939Y010630D01*
X016798Y010771D01*
X016722Y010955D01*
X016646Y010771D01*
X016505Y010630D01*
X016321Y010554D01*
X016122Y010554D01*
X015939Y010630D01*
X015798Y010771D01*
X015722Y010955D01*
X015646Y010771D01*
X015505Y010630D01*
X015321Y010554D01*
X015122Y010554D01*
X014939Y010630D01*
X014798Y010771D01*
X014722Y010955D01*
X014646Y010771D01*
X014505Y010630D01*
X014321Y010554D01*
X014122Y010554D01*
X013939Y010630D01*
X013798Y010771D01*
X013722Y010955D01*
X013646Y010771D01*
X013505Y010630D01*
X013321Y010554D01*
X013122Y010554D01*
X012939Y010630D01*
X012798Y010771D01*
X012722Y010955D01*
X012646Y010771D01*
X012505Y010630D01*
X012321Y010554D01*
X012122Y010554D01*
X011939Y010630D01*
X011798Y010771D01*
X011722Y010955D01*
X011646Y010771D01*
X011505Y010630D01*
X011321Y010554D01*
X011122Y010554D01*
X010939Y010630D01*
X010798Y010771D01*
X010722Y010955D01*
X010646Y010771D01*
X010505Y010630D01*
X010321Y010554D01*
X010122Y010554D01*
X009939Y010630D01*
X009798Y010771D01*
X009722Y010955D01*
X009646Y010771D01*
X009505Y010630D01*
X009321Y010554D01*
X009122Y010554D01*
X008939Y010630D01*
X008798Y010771D01*
X008722Y010955D01*
X008646Y010771D01*
X008505Y010630D01*
X008321Y010554D01*
X008122Y010554D01*
X007939Y010630D01*
X007798Y010771D01*
X007722Y010955D01*
X007646Y010771D01*
X007505Y010630D01*
X007321Y010554D01*
X007122Y010554D01*
X006939Y010630D01*
X006798Y010771D01*
X006722Y010955D01*
X006646Y010771D01*
X006505Y010630D01*
X006321Y010554D01*
X006122Y010554D01*
X005939Y010630D01*
X005798Y010771D01*
X005722Y010955D01*
X005646Y010771D01*
X005505Y010630D01*
X005321Y010554D01*
X005122Y010554D01*
X004939Y010630D01*
X004798Y010771D01*
X004722Y010955D01*
X004646Y010771D01*
X004505Y010630D01*
X004321Y010554D01*
X004122Y010554D01*
X003939Y010630D01*
X003798Y010771D01*
X003722Y010955D01*
X003646Y010771D01*
X003505Y010630D01*
X003321Y010554D01*
X003122Y010554D01*
X002939Y010630D01*
X002798Y010771D01*
X002722Y010955D01*
X002646Y010771D01*
X002505Y010630D01*
X002321Y010554D01*
X002122Y010554D01*
X001939Y010630D01*
X001798Y010771D01*
X001722Y010955D01*
X001646Y010771D01*
X001505Y010630D01*
X001321Y010554D01*
X001122Y010554D01*
X000939Y010630D01*
X000798Y010771D01*
X000722Y010955D01*
X000722Y011154D01*
X000798Y011338D01*
X000939Y011478D01*
X001122Y011554D01*
X001321Y011554D01*
X001505Y011478D01*
X001646Y011338D01*
X001722Y011154D01*
X001722Y010955D01*
X001722Y011154D01*
X001798Y011338D01*
X001939Y011478D01*
X002122Y011554D01*
X002321Y011554D01*
X002505Y011478D01*
X002646Y011338D01*
X002722Y011154D01*
X002722Y010955D01*
X002722Y011154D01*
X002798Y011338D01*
X002939Y011478D01*
X003122Y011554D01*
X003321Y011554D01*
X003505Y011478D01*
X003646Y011338D01*
X003722Y011154D01*
X003722Y010955D01*
X003722Y011154D01*
X003798Y011338D01*
X003939Y011478D01*
X004122Y011554D01*
X004321Y011554D01*
X004505Y011478D01*
X004646Y011338D01*
X004722Y011154D01*
X004722Y010955D01*
X004722Y011154D01*
X004798Y011338D01*
X004939Y011478D01*
X005122Y011554D01*
X005321Y011554D01*
X005505Y011478D01*
X005646Y011338D01*
X005722Y011154D01*
X005722Y010955D01*
X005722Y011154D01*
X005798Y011338D01*
X005939Y011478D01*
X006122Y011554D01*
X006321Y011554D01*
X006505Y011478D01*
X006646Y011338D01*
X006722Y011154D01*
X006722Y010955D01*
X006722Y011154D01*
X006798Y011338D01*
X006939Y011478D01*
X007122Y011554D01*
X007321Y011554D01*
X007505Y011478D01*
X007646Y011338D01*
X007722Y011154D01*
X007722Y010955D01*
X007722Y011154D01*
X007798Y011338D01*
X007939Y011478D01*
X008122Y011554D01*
X008321Y011554D01*
X008505Y011478D01*
X008646Y011338D01*
X008722Y011154D01*
X008722Y010955D01*
X008722Y011154D01*
X008798Y011338D01*
X008939Y011478D01*
X009122Y011554D01*
X009321Y011554D01*
X009505Y011478D01*
X009646Y011338D01*
X009722Y011154D01*
X009722Y010955D01*
X009722Y011154D01*
X009798Y011338D01*
X009939Y011478D01*
X010122Y011554D01*
X010321Y011554D01*
X010505Y011478D01*
X010646Y011338D01*
X010722Y011154D01*
X010722Y010955D01*
X010722Y011154D01*
X010798Y011338D01*
X010939Y011478D01*
X011122Y011554D01*
X011321Y011554D01*
X011505Y011478D01*
X011646Y011338D01*
X011722Y011154D01*
X011722Y010955D01*
X011722Y011154D01*
X011798Y011338D01*
X011939Y011478D01*
X012122Y011554D01*
X012321Y011554D01*
X012505Y011478D01*
X012646Y011338D01*
X012722Y011154D01*
X012722Y010955D01*
X012722Y011154D01*
X012798Y011338D01*
X012939Y011478D01*
X013122Y011554D01*
X013321Y011554D01*
X013505Y011478D01*
X013646Y011338D01*
X013722Y011154D01*
X013722Y010955D01*
X013722Y011154D01*
X013798Y011338D01*
X013939Y011478D01*
X014122Y011554D01*
X014321Y011554D01*
X014505Y011478D01*
X014646Y011338D01*
X014722Y011154D01*
X014722Y010955D01*
X014722Y011154D01*
X014798Y011338D01*
X014939Y011478D01*
X015122Y011554D01*
X015321Y011554D01*
X015505Y011478D01*
X015646Y011338D01*
X015722Y011154D01*
X015722Y010955D01*
X015722Y011154D01*
X015798Y011338D01*
X015939Y011478D01*
X016122Y011554D01*
X016321Y011554D01*
X016505Y011478D01*
X016646Y011338D01*
X016722Y011154D01*
X016722Y010955D01*
X016722Y011154D01*
X016798Y011338D01*
X016939Y011478D01*
X017122Y011554D01*
X017321Y011554D01*
X017505Y011478D01*
X017646Y011338D01*
X017722Y011154D01*
X017722Y010955D01*
X017798Y010771D01*
X017939Y010630D01*
X018122Y010554D01*
X018321Y010554D01*
X018505Y010630D01*
X018646Y010771D01*
X018722Y010955D01*
X018722Y011154D01*
X018722Y010955D01*
X018798Y010771D01*
X018939Y010630D01*
X019122Y010554D01*
X019321Y010554D01*
X019505Y010630D01*
X019646Y010771D01*
X019722Y010955D01*
X019722Y011154D01*
X019722Y010955D01*
X019798Y010771D01*
X019939Y010630D01*
X020122Y010554D01*
X020321Y010554D01*
X020505Y010630D01*
X020646Y010771D01*
X020722Y010955D01*
X020722Y011154D01*
X020646Y011338D01*
X020505Y011478D01*
X020321Y011554D01*
X020122Y011554D01*
X019939Y011478D01*
X019798Y011338D01*
X019722Y011154D01*
X019646Y011338D01*
X019505Y011478D01*
X019321Y011554D01*
X019122Y011554D01*
X018939Y011478D01*
X018798Y011338D01*
X018722Y011154D01*
X018646Y011338D01*
X018505Y011478D01*
X018321Y011554D01*
X018122Y011554D01*
X017939Y011630D01*
X017798Y011771D01*
X017722Y011955D01*
X017646Y011771D01*
X017505Y011630D01*
X017321Y011554D01*
X017122Y011554D01*
X016939Y011630D01*
X016798Y011771D01*
X016722Y011955D01*
X016646Y011771D01*
X016505Y011630D01*
X016321Y011554D01*
X016122Y011554D01*
X015939Y011630D01*
X015798Y011771D01*
X015722Y011955D01*
X015646Y011771D01*
X015505Y011630D01*
X015321Y011554D01*
X015122Y011554D01*
X014939Y011630D01*
X014798Y011771D01*
X014722Y011955D01*
X014646Y011771D01*
X014505Y011630D01*
X014321Y011554D01*
X014122Y011554D01*
X013939Y011630D01*
X013798Y011771D01*
X013722Y011955D01*
X013646Y011771D01*
X013505Y011630D01*
X013321Y011554D01*
X013122Y011554D01*
X012939Y011630D01*
X012798Y011771D01*
X012722Y011955D01*
X012646Y011771D01*
X012505Y011630D01*
X012321Y011554D01*
X012122Y011554D01*
X011939Y011630D01*
X011798Y011771D01*
X011722Y011955D01*
X011646Y011771D01*
X011505Y011630D01*
X011321Y011554D01*
X011122Y011554D01*
X010939Y011630D01*
X010798Y011771D01*
X010722Y011955D01*
X010646Y011771D01*
X010505Y011630D01*
X010321Y011554D01*
X010122Y011554D01*
X009939Y011630D01*
X009798Y011771D01*
X009722Y011955D01*
X009646Y011771D01*
X009505Y011630D01*
X009321Y011554D01*
X009122Y011554D01*
X008939Y011630D01*
X008798Y011771D01*
X008722Y011955D01*
X008646Y011771D01*
X008505Y011630D01*
X008321Y011554D01*
X008122Y011554D01*
X007939Y011630D01*
X007798Y011771D01*
X007722Y011955D01*
X007646Y011771D01*
X007505Y011630D01*
X007321Y011554D01*
X007122Y011554D01*
X006939Y011630D01*
X006798Y011771D01*
X006722Y011955D01*
X006646Y011771D01*
X006505Y011630D01*
X006321Y011554D01*
X006122Y011554D01*
X005939Y011630D01*
X005798Y011771D01*
X005722Y011955D01*
X005646Y011771D01*
X005505Y011630D01*
X005321Y011554D01*
X005122Y011554D01*
X004939Y011630D01*
X004798Y011771D01*
X004722Y011955D01*
X004646Y011771D01*
X004505Y011630D01*
X004321Y011554D01*
X004122Y011554D01*
X003939Y011630D01*
X003798Y011771D01*
X003722Y011955D01*
X003646Y011771D01*
X003505Y011630D01*
X003321Y011554D01*
X003122Y011554D01*
X002939Y011630D01*
X002798Y011771D01*
X002722Y011955D01*
X002646Y011771D01*
X002505Y011630D01*
X002321Y011554D01*
X002122Y011554D01*
X001939Y011630D01*
X001798Y011771D01*
X001722Y011955D01*
X001646Y011771D01*
X001505Y011630D01*
X001321Y011554D01*
X001122Y011554D01*
X000939Y011630D01*
X000798Y011771D01*
X000722Y011955D01*
X000722Y012154D01*
X000798Y012338D01*
X000939Y012478D01*
X001122Y012554D01*
X001321Y012554D01*
X001505Y012478D01*
X001646Y012338D01*
X001722Y012154D01*
X001722Y011955D01*
X001722Y012154D01*
X001798Y012338D01*
X001939Y012478D01*
X002122Y012554D01*
X002321Y012554D01*
X002505Y012478D01*
X002646Y012338D01*
X002722Y012154D01*
X002722Y011955D01*
X002722Y012154D01*
X002798Y012338D01*
X002939Y012478D01*
X003122Y012554D01*
X003321Y012554D01*
X003505Y012478D01*
X003646Y012338D01*
X003722Y012154D01*
X003722Y011955D01*
X003722Y012154D01*
X003798Y012338D01*
X003939Y012478D01*
X004122Y012554D01*
X004321Y012554D01*
X004505Y012478D01*
X004646Y012338D01*
X004722Y012154D01*
X004722Y011955D01*
X004722Y012154D01*
X004798Y012338D01*
X004939Y012478D01*
X005122Y012554D01*
X005321Y012554D01*
X005505Y012478D01*
X005646Y012338D01*
X005722Y012154D01*
X005722Y011955D01*
X005722Y012154D01*
X005798Y012338D01*
X005939Y012478D01*
X006122Y012554D01*
X006321Y012554D01*
X006505Y012478D01*
X006646Y012338D01*
X006722Y012154D01*
X006722Y011955D01*
X006722Y012154D01*
X006798Y012338D01*
X006939Y012478D01*
X007122Y012554D01*
X007321Y012554D01*
X007505Y012478D01*
X007646Y012338D01*
X007722Y012154D01*
X007722Y011955D01*
X007722Y012154D01*
X007798Y012338D01*
X007939Y012478D01*
X008122Y012554D01*
X008321Y012554D01*
X008505Y012478D01*
X008646Y012338D01*
X008722Y012154D01*
X008722Y011955D01*
X008722Y012154D01*
X008798Y012338D01*
X008939Y012478D01*
X009122Y012554D01*
X009321Y012554D01*
X009505Y012478D01*
X009646Y012338D01*
X009722Y012154D01*
X009722Y011955D01*
X009722Y012154D01*
X009798Y012338D01*
X009939Y012478D01*
X010122Y012554D01*
X010321Y012554D01*
X010505Y012478D01*
X010646Y012338D01*
X010722Y012154D01*
X010722Y011955D01*
X010722Y012154D01*
X010798Y012338D01*
X010939Y012478D01*
X011122Y012554D01*
X011321Y012554D01*
X011505Y012478D01*
X011646Y012338D01*
X011722Y012154D01*
X011722Y011955D01*
X011722Y012154D01*
X011798Y012338D01*
X011939Y012478D01*
X012122Y012554D01*
X012321Y012554D01*
X012505Y012478D01*
X012646Y012338D01*
X012722Y012154D01*
X012722Y011955D01*
X012722Y012154D01*
X012798Y012338D01*
X012939Y012478D01*
X013122Y012554D01*
X013321Y012554D01*
X013505Y012478D01*
X013646Y012338D01*
X013722Y012154D01*
X013722Y011955D01*
X013722Y012154D01*
X013798Y012338D01*
X013939Y012478D01*
X014122Y012554D01*
X014321Y012554D01*
X014505Y012478D01*
X014646Y012338D01*
X014722Y012154D01*
X014722Y011955D01*
X014722Y012154D01*
X014798Y012338D01*
X014939Y012478D01*
X015122Y012554D01*
X015321Y012554D01*
X015505Y012478D01*
X015646Y012338D01*
X015722Y012154D01*
X015722Y011955D01*
X015722Y012154D01*
X015798Y012338D01*
X015939Y012478D01*
X016122Y012554D01*
X016321Y012554D01*
X016505Y012478D01*
X016646Y012338D01*
X016722Y012154D01*
X016722Y011955D01*
X016722Y012154D01*
X016798Y012338D01*
X016939Y012478D01*
X017122Y012554D01*
X017321Y012554D01*
X017505Y012478D01*
X017646Y012338D01*
X017722Y012154D01*
X017722Y011955D01*
X017722Y012154D01*
X017798Y012338D01*
X017939Y012478D01*
X018122Y012554D01*
X018321Y012554D01*
X018505Y012478D01*
X018646Y012338D01*
X018722Y012154D01*
X018722Y011955D01*
X018798Y011771D01*
X018939Y011630D01*
X019122Y011554D01*
X019321Y011554D01*
X019505Y011630D01*
X019646Y011771D01*
X019722Y011955D01*
X019722Y012154D01*
X019722Y011955D01*
X019798Y011771D01*
X019939Y011630D01*
X020122Y011554D01*
X020321Y011554D01*
X020505Y011630D01*
X020646Y011771D01*
X020722Y011955D01*
X020722Y012154D01*
X020646Y012338D01*
X020505Y012478D01*
X020321Y012554D01*
X020122Y012554D01*
X019939Y012478D01*
X019798Y012338D01*
X019722Y012154D01*
X019646Y012338D01*
X019505Y012478D01*
X019321Y012554D01*
X019122Y012554D01*
X018939Y012630D01*
X018798Y012771D01*
X018722Y012955D01*
X018646Y012771D01*
X018505Y012630D01*
X018321Y012554D01*
X018122Y012554D01*
X017939Y012630D01*
X017798Y012771D01*
X017722Y012955D01*
X017646Y012771D01*
X017505Y012630D01*
X017321Y012554D01*
X017122Y012554D01*
X016939Y012630D01*
X016798Y012771D01*
X016722Y012955D01*
X016646Y012771D01*
X016505Y012630D01*
X016321Y012554D01*
X016122Y012554D01*
X015939Y012630D01*
X015798Y012771D01*
X015722Y012955D01*
X015646Y012771D01*
X015505Y012630D01*
X015321Y012554D01*
X015122Y012554D01*
X014939Y012630D01*
X014798Y012771D01*
X014722Y012955D01*
X014646Y012771D01*
X014505Y012630D01*
X014321Y012554D01*
X014122Y012554D01*
X013939Y012630D01*
X013798Y012771D01*
X013722Y012955D01*
X013646Y012771D01*
X013505Y012630D01*
X013321Y012554D01*
X013122Y012554D01*
X012939Y012630D01*
X012798Y012771D01*
X012722Y012955D01*
X012646Y012771D01*
X012505Y012630D01*
X012321Y012554D01*
X012122Y012554D01*
X011939Y012630D01*
X011798Y012771D01*
X011722Y012955D01*
X011646Y012771D01*
X011505Y012630D01*
X011321Y012554D01*
X011122Y012554D01*
X010939Y012630D01*
X010798Y012771D01*
X010722Y012955D01*
X010646Y012771D01*
X010505Y012630D01*
X010321Y012554D01*
X010122Y012554D01*
X009939Y012630D01*
X009798Y012771D01*
X009722Y012955D01*
X009646Y012771D01*
X009505Y012630D01*
X009321Y012554D01*
X009122Y012554D01*
X008939Y012630D01*
X008798Y012771D01*
X008722Y012955D01*
X008646Y012771D01*
X008505Y012630D01*
X008321Y012554D01*
X008122Y012554D01*
X007939Y012630D01*
X007798Y012771D01*
X007722Y012955D01*
X007646Y012771D01*
X007505Y012630D01*
X007321Y012554D01*
X007122Y012554D01*
X006939Y012630D01*
X006798Y012771D01*
X006722Y012955D01*
X006646Y012771D01*
X006505Y012630D01*
X006321Y012554D01*
X006122Y012554D01*
X005939Y012630D01*
X005798Y012771D01*
X005722Y012955D01*
X005646Y012771D01*
X005505Y012630D01*
X005321Y012554D01*
X005122Y012554D01*
X004939Y012630D01*
X004798Y012771D01*
X004722Y012955D01*
X004646Y012771D01*
X004505Y012630D01*
X004321Y012554D01*
X004122Y012554D01*
X003939Y012630D01*
X003798Y012771D01*
X003722Y012955D01*
X003646Y012771D01*
X003505Y012630D01*
X003321Y012554D01*
X003122Y012554D01*
X002939Y012630D01*
X002798Y012771D01*
X002722Y012955D01*
X002646Y012771D01*
X002505Y012630D01*
X002321Y012554D01*
X002122Y012554D01*
X001939Y012630D01*
X001798Y012771D01*
X001722Y012955D01*
X001646Y012771D01*
X001505Y012630D01*
X001321Y012554D01*
X001122Y012554D01*
X000939Y012630D01*
X000798Y012771D01*
X000722Y012955D01*
X000722Y013154D01*
X000798Y013338D01*
X000939Y013478D01*
X001122Y013554D01*
X001321Y013554D01*
X001505Y013478D01*
X001646Y013338D01*
X001722Y013154D01*
X001722Y012955D01*
X001722Y013154D01*
X001798Y013338D01*
X001939Y013478D01*
X002122Y013554D01*
X002321Y013554D01*
X002505Y013478D01*
X002646Y013338D01*
X002722Y013154D01*
X002722Y012955D01*
X002722Y013154D01*
X002798Y013338D01*
X002939Y013478D01*
X003122Y013554D01*
X003321Y013554D01*
X003505Y013478D01*
X003646Y013338D01*
X003722Y013154D01*
X003722Y012955D01*
X003722Y013154D01*
X003798Y013338D01*
X003939Y013478D01*
X004122Y013554D01*
X004321Y013554D01*
X004505Y013478D01*
X004646Y013338D01*
X004722Y013154D01*
X004722Y012955D01*
X004722Y013154D01*
X004798Y013338D01*
X004939Y013478D01*
X005122Y013554D01*
X005321Y013554D01*
X005505Y013478D01*
X005646Y013338D01*
X005722Y013154D01*
X005722Y012955D01*
X005722Y013154D01*
X005798Y013338D01*
X005939Y013478D01*
X006122Y013554D01*
X006321Y013554D01*
X006505Y013478D01*
X006646Y013338D01*
X006722Y013154D01*
X006722Y012955D01*
X006722Y013154D01*
X006798Y013338D01*
X006939Y013478D01*
X007122Y013554D01*
X007321Y013554D01*
X007505Y013478D01*
X007646Y013338D01*
X007722Y013154D01*
X007722Y012955D01*
X007722Y013154D01*
X007798Y013338D01*
X007939Y013478D01*
X008122Y013554D01*
X008321Y013554D01*
X008505Y013478D01*
X008646Y013338D01*
X008722Y013154D01*
X008722Y012955D01*
X008722Y013154D01*
X008798Y013338D01*
X008939Y013478D01*
X009122Y013554D01*
X009321Y013554D01*
X009505Y013478D01*
X009646Y013338D01*
X009722Y013154D01*
X009722Y012955D01*
X009722Y013154D01*
X009798Y013338D01*
X009939Y013478D01*
X010122Y013554D01*
X010321Y013554D01*
X010505Y013478D01*
X010646Y013338D01*
X010722Y013154D01*
X010722Y012955D01*
X010722Y013154D01*
X010798Y013338D01*
X010939Y013478D01*
X011122Y013554D01*
X011321Y013554D01*
X011505Y013478D01*
X011646Y013338D01*
X011722Y013154D01*
X011722Y012955D01*
X011722Y013154D01*
X011798Y013338D01*
X011939Y013478D01*
X012122Y013554D01*
X012321Y013554D01*
X012505Y013478D01*
X012646Y013338D01*
X012722Y013154D01*
X012722Y012955D01*
X012722Y013154D01*
X012798Y013338D01*
X012939Y013478D01*
X013122Y013554D01*
X013321Y013554D01*
X013505Y013478D01*
X013646Y013338D01*
X013722Y013154D01*
X013722Y012955D01*
X013722Y013154D01*
X013798Y013338D01*
X013939Y013478D01*
X014122Y013554D01*
X014321Y013554D01*
X014505Y013478D01*
X014646Y013338D01*
X014722Y013154D01*
X014722Y012955D01*
X014722Y013154D01*
X014798Y013338D01*
X014939Y013478D01*
X015122Y013554D01*
X015321Y013554D01*
X015505Y013478D01*
X015646Y013338D01*
X015722Y013154D01*
X015722Y012955D01*
X015722Y013154D01*
X015798Y013338D01*
X015939Y013478D01*
X016122Y013554D01*
X016321Y013554D01*
X016505Y013478D01*
X016646Y013338D01*
X016722Y013154D01*
X016722Y012955D01*
X016722Y013154D01*
X016798Y013338D01*
X016939Y013478D01*
X017122Y013554D01*
X017321Y013554D01*
X017505Y013478D01*
X017646Y013338D01*
X017722Y013154D01*
X017722Y012955D01*
X017722Y013154D01*
X017798Y013338D01*
X017939Y013478D01*
X018122Y013554D01*
X018321Y013554D01*
X018505Y013478D01*
X018646Y013338D01*
X018722Y013154D01*
X018722Y012955D01*
X018722Y013154D01*
X018798Y013338D01*
X018939Y013478D01*
X019122Y013554D01*
X019321Y013554D01*
X019505Y013478D01*
X019646Y013338D01*
X019722Y013154D01*
X019722Y012955D01*
X019798Y012771D01*
X019939Y012630D01*
X020122Y012554D01*
X020321Y012554D01*
X020505Y012630D01*
X020646Y012771D01*
X020722Y012955D01*
X020722Y013154D01*
X020646Y013338D01*
X020505Y013478D01*
X020321Y013554D01*
X020122Y013554D01*
X019939Y013630D01*
X019875Y013694D01*
X019569Y013694D01*
X019505Y013630D01*
X019321Y013554D01*
X019122Y013554D01*
X018939Y013630D01*
X018875Y013694D01*
X018569Y013694D01*
X018505Y013630D01*
X018321Y013554D01*
X018122Y013554D01*
X017939Y013630D01*
X017875Y013694D01*
X017569Y013694D01*
X017505Y013630D01*
X017321Y013554D01*
X017122Y013554D01*
X016939Y013630D01*
X016875Y013694D01*
X016569Y013694D01*
X016505Y013630D01*
X016321Y013554D01*
X016122Y013554D01*
X015939Y013630D01*
X015875Y013694D01*
X015569Y013694D01*
X015505Y013630D01*
X015321Y013554D01*
X015122Y013554D01*
X014939Y013630D01*
X014875Y013694D01*
X014569Y013694D01*
X014505Y013630D01*
X014321Y013554D01*
X014122Y013554D01*
X013939Y013630D01*
X013875Y013694D01*
X013569Y013694D01*
X013505Y013630D01*
X013321Y013554D01*
X013122Y013554D01*
X012939Y013630D01*
X012875Y013694D01*
X012569Y013694D01*
X012505Y013630D01*
X012321Y013554D01*
X012122Y013554D01*
X011939Y013630D01*
X011875Y013694D01*
X011569Y013694D01*
X011505Y013630D01*
X011321Y013554D01*
X011122Y013554D01*
X010939Y013630D01*
X010875Y013694D01*
X010569Y013694D01*
X010505Y013630D01*
X010321Y013554D01*
X010122Y013554D01*
X009939Y013630D01*
X009875Y013694D01*
X009569Y013694D01*
X009505Y013630D01*
X009321Y013554D01*
X009122Y013554D01*
X008939Y013630D01*
X008875Y013694D01*
X008569Y013694D01*
X008505Y013630D01*
X008321Y013554D01*
X008122Y013554D01*
X007939Y013630D01*
X007875Y013694D01*
X007569Y013694D01*
X007505Y013630D01*
X007321Y013554D01*
X007122Y013554D01*
X006939Y013630D01*
X006875Y013694D01*
X006569Y013694D01*
X006505Y013630D01*
X006321Y013554D01*
X006122Y013554D01*
X005939Y013630D01*
X005875Y013694D01*
X005569Y013694D01*
X005505Y013630D01*
X005321Y013554D01*
X005122Y013554D01*
X004939Y013630D01*
X004875Y013694D01*
X004569Y013694D01*
X004505Y013630D01*
X004321Y013554D01*
X004122Y013554D01*
X003939Y013630D01*
X003875Y013694D01*
X003569Y013694D01*
X003505Y013630D01*
X003321Y013554D01*
X003122Y013554D01*
X002939Y013630D01*
X002875Y013694D01*
X002722Y013694D01*
X002722Y013671D01*
X002605Y013554D01*
X001839Y013554D01*
X001722Y013671D01*
X001722Y013694D01*
X001569Y013694D01*
X001505Y013630D01*
X001321Y013554D01*
X001122Y013554D01*
X000939Y013630D01*
X000798Y013771D01*
X000722Y013955D01*
X000722Y014154D01*
X000798Y014338D01*
X000939Y014478D01*
X001122Y014554D01*
X001321Y014554D01*
X001505Y014478D01*
X001562Y014421D01*
X001562Y015104D01*
X001489Y015104D01*
X001372Y015221D01*
X001372Y015887D01*
X001489Y016004D01*
X001562Y016004D01*
X001562Y016604D01*
X001489Y016604D01*
X001372Y016721D01*
X001372Y017304D01*
X000482Y017304D01*
X000482Y001578D01*
X000503Y001475D01*
X000595Y001258D01*
X000739Y001071D01*
X000649Y001189D02*
X001039Y001189D01*
X000975Y001252D02*
X001110Y001117D01*
X001286Y001044D01*
X001362Y001044D01*
X001362Y001504D01*
X001402Y001504D01*
X001402Y001544D01*
X001862Y001544D01*
X001862Y001620D01*
X001789Y001796D01*
X001654Y001931D01*
X001477Y002004D01*
X001402Y002004D01*
X001402Y001545D01*
X001362Y001545D01*
X001362Y002004D01*
X001286Y002004D01*
X001110Y001931D01*
X000975Y001796D01*
X000902Y001620D01*
X000902Y001544D01*
X001361Y001544D01*
X001361Y001504D01*
X000902Y001504D01*
X000902Y001429D01*
X000975Y001252D01*
X000936Y001347D02*
X000557Y001347D01*
X000497Y001506D02*
X001361Y001506D01*
X001402Y001504D02*
X001402Y001044D01*
X001477Y001044D01*
X001654Y001117D01*
X001789Y001252D01*
X001862Y001429D01*
X001862Y001504D01*
X001402Y001504D01*
X001402Y001506D02*
X002662Y001506D01*
X002678Y001664D02*
X001843Y001664D01*
X001762Y001823D02*
X002753Y001823D01*
X002842Y001981D02*
X001533Y001981D01*
X001402Y001981D02*
X001362Y001981D01*
X001231Y001981D02*
X000482Y001981D01*
X000482Y001823D02*
X001001Y001823D01*
X000920Y001664D02*
X000482Y001664D01*
X000482Y002140D02*
X002842Y002140D01*
X002842Y002298D02*
X000482Y002298D01*
X000482Y002457D02*
X002842Y002457D01*
X002842Y002615D02*
X000482Y002615D01*
X000482Y002774D02*
X002842Y002774D01*
X002842Y002932D02*
X000482Y002932D01*
X000482Y003091D02*
X002842Y003091D01*
X002842Y003250D02*
X000482Y003250D01*
X000482Y003408D02*
X002842Y003408D01*
X002842Y003567D02*
X000482Y003567D01*
X000482Y003725D02*
X001062Y003725D01*
X001110Y003677D02*
X001286Y003604D01*
X001362Y003604D01*
X001362Y004064D01*
X001402Y004064D01*
X001402Y004104D01*
X001862Y004104D01*
X001862Y004180D01*
X001789Y004356D01*
X001654Y004491D01*
X001477Y004564D01*
X001402Y004564D01*
X001402Y004105D01*
X001362Y004105D01*
X001362Y004564D01*
X001286Y004564D01*
X001110Y004491D01*
X000975Y004356D01*
X000902Y004180D01*
X000902Y004104D01*
X001361Y004104D01*
X001361Y004064D01*
X000902Y004064D01*
X000902Y003989D01*
X000975Y003812D01*
X001110Y003677D01*
X001362Y003725D02*
X001402Y003725D01*
X001402Y003604D02*
X001477Y003604D01*
X001654Y003677D01*
X001789Y003812D01*
X001862Y003989D01*
X001862Y004064D01*
X001402Y004064D01*
X001402Y003604D01*
X001402Y003884D02*
X001362Y003884D01*
X001362Y004042D02*
X001402Y004042D01*
X001402Y004201D02*
X001362Y004201D01*
X001362Y004359D02*
X001402Y004359D01*
X001402Y004518D02*
X001362Y004518D01*
X001317Y004574D02*
X001494Y004647D01*
X001629Y004782D01*
X001702Y004959D01*
X001702Y005034D01*
X001242Y005034D01*
X001242Y005074D01*
X001702Y005074D01*
X001702Y005150D01*
X001629Y005326D01*
X001494Y005461D01*
X001317Y005534D01*
X001242Y005534D01*
X001242Y005075D01*
X001202Y005075D01*
X001202Y005534D01*
X001126Y005534D01*
X000950Y005461D01*
X000815Y005326D01*
X000742Y005150D01*
X000742Y005074D01*
X001201Y005074D01*
X001201Y005034D01*
X000742Y005034D01*
X000742Y004959D01*
X000815Y004782D01*
X000950Y004647D01*
X001126Y004574D01*
X001202Y004574D01*
X001202Y005034D01*
X001242Y005034D01*
X001242Y004574D01*
X001317Y004574D01*
X001242Y004676D02*
X001202Y004676D01*
X001202Y004835D02*
X001242Y004835D01*
X001242Y004994D02*
X001202Y004994D01*
X001202Y005152D02*
X001242Y005152D01*
X001242Y005311D02*
X001202Y005311D01*
X001202Y005469D02*
X001242Y005469D01*
X001474Y005469D02*
X001782Y005469D01*
X001742Y005429D02*
X001742Y005074D01*
X002201Y005074D01*
X002201Y005034D01*
X001742Y005034D01*
X001742Y004680D01*
X001847Y004574D01*
X002202Y004574D01*
X002202Y005034D01*
X002242Y005034D01*
X002242Y005074D01*
X002702Y005074D01*
X002702Y005429D01*
X002596Y005534D01*
X002242Y005534D01*
X002242Y005075D01*
X002202Y005075D01*
X002202Y005534D01*
X001847Y005534D01*
X001742Y005429D01*
X001742Y005311D02*
X001635Y005311D01*
X001701Y005152D02*
X001742Y005152D01*
X001742Y004994D02*
X001702Y004994D01*
X001742Y004835D02*
X001650Y004835D01*
X001745Y004676D02*
X001523Y004676D01*
X001589Y004518D02*
X002902Y004518D01*
X002921Y004676D02*
X002698Y004676D01*
X002702Y004680D02*
X002702Y005034D01*
X002242Y005034D01*
X002242Y004574D01*
X002596Y004574D01*
X002702Y004680D01*
X002702Y004835D02*
X002793Y004835D01*
X002742Y004994D02*
X002702Y004994D01*
X002702Y005152D02*
X002743Y005152D01*
X002702Y005311D02*
X002808Y005311D01*
X002661Y005469D02*
X002969Y005469D01*
X002945Y005628D02*
X002498Y005628D01*
X002652Y005786D02*
X002792Y005786D01*
X002726Y005945D02*
X002718Y005945D01*
X002722Y006103D02*
X002722Y006103D01*
X002677Y006262D02*
X002767Y006262D01*
X002881Y006420D02*
X002563Y006420D01*
X002381Y006579D02*
X003063Y006579D01*
X002831Y006738D02*
X002612Y006738D01*
X002697Y006896D02*
X002746Y006896D01*
X002722Y007055D02*
X002722Y007055D01*
X002697Y007213D02*
X002746Y007213D01*
X002832Y007372D02*
X002611Y007372D01*
X002379Y007530D02*
X003064Y007530D01*
X002880Y007689D02*
X002563Y007689D01*
X002677Y007847D02*
X002766Y007847D01*
X002722Y008006D02*
X002722Y008006D01*
X002717Y008164D02*
X002726Y008164D01*
X002792Y008323D02*
X002652Y008323D01*
X002497Y008481D02*
X002946Y008481D01*
X002929Y008640D02*
X002515Y008640D01*
X002657Y008799D02*
X002786Y008799D01*
X002722Y008957D02*
X002722Y008957D01*
X002722Y009116D02*
X002722Y009116D01*
X002672Y009274D02*
X002772Y009274D01*
X002893Y009433D02*
X002550Y009433D01*
X002410Y009591D02*
X003033Y009591D01*
X002819Y009750D02*
X002624Y009750D01*
X002702Y009908D02*
X002741Y009908D01*
X002722Y010067D02*
X002722Y010067D01*
X002692Y010225D02*
X002751Y010225D01*
X002844Y010384D02*
X002599Y010384D01*
X002350Y010543D02*
X003094Y010543D01*
X003350Y010543D02*
X004094Y010543D01*
X004350Y010543D02*
X005094Y010543D01*
X005350Y010543D02*
X006094Y010543D01*
X006350Y010543D02*
X007094Y010543D01*
X007350Y010543D02*
X008094Y010543D01*
X008350Y010543D02*
X009094Y010543D01*
X009350Y010543D02*
X010094Y010543D01*
X010350Y010543D02*
X011094Y010543D01*
X011350Y010543D02*
X012094Y010543D01*
X012350Y010543D02*
X013094Y010543D01*
X013350Y010543D02*
X014094Y010543D01*
X014350Y010543D02*
X015094Y010543D01*
X014868Y010701D02*
X014576Y010701D01*
X014682Y010860D02*
X014761Y010860D01*
X014722Y011018D02*
X014722Y011018D01*
X014712Y011177D02*
X014731Y011177D01*
X014797Y011335D02*
X014647Y011335D01*
X014467Y011494D02*
X014976Y011494D01*
X014917Y011652D02*
X014527Y011652D01*
X014662Y011811D02*
X014781Y011811D01*
X014722Y011969D02*
X014722Y011969D01*
X014722Y012128D02*
X014722Y012128D01*
X014667Y012287D02*
X014777Y012287D01*
X014905Y012445D02*
X014538Y012445D01*
X014440Y012604D02*
X015003Y012604D01*
X014807Y012762D02*
X014637Y012762D01*
X014708Y012921D02*
X014736Y012921D01*
X014722Y013079D02*
X014722Y013079D01*
X014687Y013238D02*
X014757Y013238D01*
X014857Y013396D02*
X014587Y013396D01*
X014322Y013555D02*
X015121Y013555D01*
X015322Y013555D02*
X016121Y013555D01*
X016322Y013555D02*
X017121Y013555D01*
X017322Y013555D02*
X018121Y013555D01*
X018322Y013555D02*
X019121Y013555D01*
X019322Y013555D02*
X020121Y013555D01*
X020322Y013555D02*
X021121Y013555D01*
X021322Y013555D02*
X022121Y013555D01*
X022322Y013555D02*
X022812Y013555D01*
X022812Y013396D02*
X022587Y013396D01*
X022687Y013238D02*
X022812Y013238D01*
X022812Y013079D02*
X022722Y013079D01*
X022708Y012921D02*
X022812Y012921D01*
X022812Y012762D02*
X022637Y012762D01*
X022812Y012604D02*
X022440Y012604D01*
X022538Y012445D02*
X022812Y012445D01*
X022812Y012287D02*
X022667Y012287D01*
X022722Y012128D02*
X022812Y012128D01*
X022812Y011969D02*
X022722Y011969D01*
X022662Y011811D02*
X022812Y011811D01*
X022812Y011652D02*
X022527Y011652D01*
X022467Y011494D02*
X022812Y011494D01*
X022812Y011335D02*
X022647Y011335D01*
X022712Y011177D02*
X022812Y011177D01*
X022812Y011018D02*
X022722Y011018D01*
X022682Y010860D02*
X022812Y010860D01*
X022812Y010701D02*
X022576Y010701D01*
X022350Y010543D02*
X022812Y010543D01*
X022812Y010384D02*
X022599Y010384D01*
X022692Y010225D02*
X022812Y010225D01*
X022812Y010067D02*
X022722Y010067D01*
X022702Y009908D02*
X022812Y009908D01*
X022812Y009750D02*
X022624Y009750D01*
X022812Y009591D02*
X022410Y009591D01*
X022550Y009433D02*
X022812Y009433D01*
X022812Y009274D02*
X022672Y009274D01*
X022722Y009116D02*
X022812Y009116D01*
X022812Y008957D02*
X022722Y008957D01*
X022657Y008799D02*
X022812Y008799D01*
X022812Y008640D02*
X022515Y008640D01*
X022497Y008481D02*
X022812Y008481D01*
X022812Y008323D02*
X022652Y008323D01*
X022717Y008164D02*
X022812Y008164D01*
X022812Y008006D02*
X022722Y008006D01*
X022677Y007847D02*
X022812Y007847D01*
X022812Y007689D02*
X022563Y007689D01*
X022379Y007530D02*
X022812Y007530D01*
X022812Y007372D02*
X022611Y007372D01*
X022697Y007213D02*
X022812Y007213D01*
X022812Y007055D02*
X022722Y007055D01*
X022697Y006896D02*
X022812Y006896D01*
X022812Y006738D02*
X022612Y006738D01*
X022812Y006579D02*
X022381Y006579D01*
X022563Y006420D02*
X022812Y006420D01*
X022812Y006262D02*
X022677Y006262D01*
X022722Y006103D02*
X022812Y006103D01*
X022812Y005945D02*
X022718Y005945D01*
X022652Y005786D02*
X022812Y005786D01*
X022812Y005628D02*
X022498Y005628D01*
X022474Y005469D02*
X022812Y005469D01*
X022812Y005311D02*
X022635Y005311D01*
X022701Y005152D02*
X022812Y005152D01*
X022812Y004994D02*
X022702Y004994D01*
X022650Y004835D02*
X022812Y004835D01*
X022812Y004676D02*
X022523Y004676D01*
X022242Y005152D02*
X022202Y005152D01*
X022202Y005311D02*
X022242Y005311D01*
X022242Y005469D02*
X022202Y005469D01*
X021969Y005469D02*
X021474Y005469D01*
X021498Y005628D02*
X021945Y005628D01*
X021792Y005786D02*
X021652Y005786D01*
X021718Y005945D02*
X021726Y005945D01*
X021722Y006103D02*
X021722Y006103D01*
X021677Y006262D02*
X021767Y006262D01*
X021881Y006420D02*
X021563Y006420D01*
X021381Y006579D02*
X022063Y006579D01*
X021831Y006738D02*
X021612Y006738D01*
X021697Y006896D02*
X021746Y006896D01*
X021722Y007055D02*
X021722Y007055D01*
X021697Y007213D02*
X021746Y007213D01*
X021832Y007372D02*
X021611Y007372D01*
X021379Y007530D02*
X022064Y007530D01*
X021880Y007689D02*
X021563Y007689D01*
X021677Y007847D02*
X021766Y007847D01*
X021722Y008006D02*
X021722Y008006D01*
X021717Y008164D02*
X021726Y008164D01*
X021792Y008323D02*
X021652Y008323D01*
X021497Y008481D02*
X021946Y008481D01*
X021929Y008640D02*
X021515Y008640D01*
X021657Y008799D02*
X021786Y008799D01*
X021722Y008957D02*
X021722Y008957D01*
X021722Y009116D02*
X021722Y009116D01*
X021672Y009274D02*
X021772Y009274D01*
X021893Y009433D02*
X021550Y009433D01*
X021410Y009591D02*
X022033Y009591D01*
X021819Y009750D02*
X021624Y009750D01*
X021702Y009908D02*
X021741Y009908D01*
X021722Y010067D02*
X021722Y010067D01*
X021692Y010225D02*
X021751Y010225D01*
X021844Y010384D02*
X021599Y010384D01*
X021350Y010543D02*
X022094Y010543D01*
X021868Y010701D02*
X021576Y010701D01*
X021682Y010860D02*
X021761Y010860D01*
X021722Y011018D02*
X021722Y011018D01*
X021712Y011177D02*
X021731Y011177D01*
X021797Y011335D02*
X021647Y011335D01*
X021467Y011494D02*
X021976Y011494D01*
X021917Y011652D02*
X021527Y011652D01*
X021662Y011811D02*
X021781Y011811D01*
X021722Y011969D02*
X021722Y011969D01*
X021722Y012128D02*
X021722Y012128D01*
X021667Y012287D02*
X021777Y012287D01*
X021905Y012445D02*
X021538Y012445D01*
X021440Y012604D02*
X022003Y012604D01*
X021807Y012762D02*
X021637Y012762D01*
X021708Y012921D02*
X021736Y012921D01*
X021722Y013079D02*
X021722Y013079D01*
X021687Y013238D02*
X021757Y013238D01*
X021857Y013396D02*
X021587Y013396D01*
X020857Y013396D02*
X020587Y013396D01*
X020687Y013238D02*
X020757Y013238D01*
X020722Y013079D02*
X020722Y013079D01*
X020708Y012921D02*
X020736Y012921D01*
X020807Y012762D02*
X020637Y012762D01*
X020440Y012604D02*
X021003Y012604D01*
X020905Y012445D02*
X020538Y012445D01*
X020667Y012287D02*
X020777Y012287D01*
X020722Y012128D02*
X020722Y012128D01*
X020722Y011969D02*
X020722Y011969D01*
X020781Y011811D02*
X020662Y011811D01*
X020527Y011652D02*
X020917Y011652D01*
X020976Y011494D02*
X020467Y011494D01*
X020647Y011335D02*
X020797Y011335D01*
X020731Y011177D02*
X020712Y011177D01*
X020722Y011018D02*
X020722Y011018D01*
X020682Y010860D02*
X020761Y010860D01*
X020868Y010701D02*
X020576Y010701D01*
X020350Y010543D02*
X021094Y010543D01*
X020844Y010384D02*
X020599Y010384D01*
X020692Y010225D02*
X020751Y010225D01*
X020722Y010067D02*
X020722Y010067D01*
X020702Y009908D02*
X020741Y009908D01*
X020819Y009750D02*
X020624Y009750D01*
X020410Y009591D02*
X021033Y009591D01*
X020893Y009433D02*
X020550Y009433D01*
X020672Y009274D02*
X020772Y009274D01*
X020722Y009116D02*
X020722Y009116D01*
X020722Y008957D02*
X020722Y008957D01*
X020657Y008799D02*
X020786Y008799D01*
X020929Y008640D02*
X020515Y008640D01*
X020497Y008481D02*
X020946Y008481D01*
X020792Y008323D02*
X020652Y008323D01*
X020717Y008164D02*
X020726Y008164D01*
X020722Y008006D02*
X020722Y008006D01*
X020766Y007847D02*
X020677Y007847D01*
X020563Y007689D02*
X020880Y007689D01*
X021064Y007530D02*
X020379Y007530D01*
X020611Y007372D02*
X020832Y007372D01*
X020746Y007213D02*
X020697Y007213D01*
X020722Y007055D02*
X020722Y007055D01*
X020697Y006896D02*
X020746Y006896D01*
X020831Y006738D02*
X020612Y006738D01*
X020381Y006579D02*
X021063Y006579D01*
X020881Y006420D02*
X020563Y006420D01*
X020677Y006262D02*
X020767Y006262D01*
X020722Y006103D02*
X020722Y006103D01*
X020718Y005945D02*
X020726Y005945D01*
X020792Y005786D02*
X020652Y005786D01*
X020498Y005628D02*
X020945Y005628D01*
X020969Y005469D02*
X020474Y005469D01*
X020635Y005311D02*
X020808Y005311D01*
X020743Y005152D02*
X020701Y005152D01*
X020702Y004994D02*
X020742Y004994D01*
X020793Y004835D02*
X020650Y004835D01*
X020523Y004676D02*
X020921Y004676D01*
X021202Y005152D02*
X021242Y005152D01*
X021242Y005311D02*
X021202Y005311D01*
X021202Y005469D02*
X021242Y005469D01*
X021635Y005311D02*
X021808Y005311D01*
X021743Y005152D02*
X021701Y005152D01*
X021702Y004994D02*
X021742Y004994D01*
X021793Y004835D02*
X021650Y004835D01*
X021523Y004676D02*
X021921Y004676D01*
X022039Y003944D02*
X023243Y003944D01*
X023376Y003999D01*
X023462Y004085D01*
X023462Y002662D01*
X022501Y001702D01*
X022462Y001606D01*
X022462Y001554D01*
X022453Y001439D01*
X022381Y001218D01*
X022245Y001031D01*
X022058Y000895D01*
X021837Y000823D01*
X021722Y000814D01*
X021694Y000814D01*
X021670Y000814D01*
X011928Y000814D01*
X011959Y000846D01*
X012002Y000949D01*
X012002Y001129D01*
X012005Y001130D01*
X012146Y001271D01*
X012222Y001455D01*
X012222Y001654D01*
X012146Y001838D01*
X012082Y001901D01*
X012082Y003207D01*
X012146Y003271D01*
X012222Y003455D01*
X012222Y003654D01*
X012146Y003838D01*
X012082Y003901D01*
X012082Y003944D01*
X012433Y003944D01*
X012315Y003826D01*
X012242Y003650D01*
X012242Y003574D01*
X012701Y003574D01*
X012701Y003534D01*
X012242Y003534D01*
X012242Y003459D01*
X012315Y003282D01*
X012450Y003147D01*
X012626Y003074D01*
X012702Y003074D01*
X012702Y003534D01*
X012742Y003534D01*
X012742Y003574D01*
X013202Y003574D01*
X013202Y003650D01*
X013129Y003826D01*
X013010Y003944D01*
X013433Y003944D01*
X013315Y003826D01*
X013242Y003650D01*
X013242Y003574D01*
X013701Y003574D01*
X013701Y003534D01*
X013242Y003534D01*
X013242Y003459D01*
X013315Y003282D01*
X013450Y003147D01*
X013626Y003074D01*
X013702Y003074D01*
X013702Y003534D01*
X013742Y003534D01*
X013742Y003574D01*
X014202Y003574D01*
X014202Y003650D01*
X014129Y003826D01*
X014010Y003944D01*
X014405Y003944D01*
X014298Y003838D01*
X014222Y003654D01*
X014222Y003455D01*
X014298Y003271D01*
X014402Y003167D01*
X014402Y001941D01*
X014298Y001838D01*
X014222Y001654D01*
X014222Y001455D01*
X014298Y001271D01*
X014439Y001130D01*
X014622Y001054D01*
X014821Y001054D01*
X015005Y001130D01*
X015146Y001271D01*
X015222Y001455D01*
X015222Y001654D01*
X015146Y001838D01*
X015042Y001941D01*
X015042Y003167D01*
X015146Y003271D01*
X015222Y003455D01*
X015222Y003654D01*
X015146Y003838D01*
X015039Y003944D01*
X016405Y003944D01*
X016298Y003838D01*
X016222Y003654D01*
X016222Y003455D01*
X016298Y003271D01*
X016402Y003167D01*
X016402Y001941D01*
X016298Y001838D01*
X016222Y001654D01*
X016222Y001455D01*
X016298Y001271D01*
X016439Y001130D01*
X016622Y001054D01*
X016821Y001054D01*
X017005Y001130D01*
X017146Y001271D01*
X017222Y001455D01*
X017298Y001271D01*
X017439Y001130D01*
X017622Y001054D01*
X017821Y001054D01*
X018005Y001130D01*
X018146Y001271D01*
X018222Y001455D01*
X018298Y001271D01*
X018439Y001130D01*
X018622Y001054D01*
X018821Y001054D01*
X019005Y001130D01*
X019146Y001271D01*
X019222Y001455D01*
X019298Y001271D01*
X019439Y001130D01*
X019622Y001054D01*
X019821Y001054D01*
X020005Y001130D01*
X020146Y001271D01*
X020222Y001455D01*
X020298Y001271D01*
X020439Y001130D01*
X020622Y001054D01*
X020821Y001054D01*
X021005Y001130D01*
X021146Y001271D01*
X021222Y001455D01*
X021298Y001271D01*
X021439Y001130D01*
X021622Y001054D01*
X021821Y001054D01*
X022005Y001130D01*
X022146Y001271D01*
X022222Y001455D01*
X022222Y001654D01*
X022146Y001838D01*
X022042Y001941D01*
X022042Y003167D01*
X022146Y003271D01*
X022222Y003455D01*
X022222Y003654D01*
X022146Y003838D01*
X022039Y003944D01*
X022099Y003884D02*
X023462Y003884D01*
X023462Y004042D02*
X023419Y004042D01*
X023462Y003725D02*
X022192Y003725D01*
X022222Y003567D02*
X023462Y003567D01*
X023462Y003408D02*
X022202Y003408D01*
X022124Y003250D02*
X023462Y003250D01*
X023462Y003091D02*
X022042Y003091D01*
X022042Y002932D02*
X023462Y002932D01*
X023462Y002774D02*
X022042Y002774D01*
X022042Y002615D02*
X023415Y002615D01*
X023257Y002457D02*
X022042Y002457D01*
X022042Y002298D02*
X023098Y002298D01*
X022939Y002140D02*
X022042Y002140D01*
X022042Y001981D02*
X022781Y001981D01*
X022622Y001823D02*
X022152Y001823D01*
X022217Y001664D02*
X022486Y001664D01*
X022458Y001506D02*
X022222Y001506D01*
X022177Y001347D02*
X022423Y001347D01*
X022359Y001189D02*
X022063Y001189D01*
X022243Y001030D02*
X012002Y001030D01*
X011970Y000871D02*
X021985Y000871D01*
X021380Y001189D02*
X021063Y001189D01*
X021177Y001347D02*
X021266Y001347D01*
X021222Y001455D02*
X021222Y001654D01*
X021298Y001838D01*
X021402Y001941D01*
X021402Y003167D01*
X021298Y003271D01*
X021222Y003455D01*
X021222Y003654D01*
X021298Y003838D01*
X021405Y003944D01*
X021039Y003944D01*
X021146Y003838D01*
X021222Y003654D01*
X021222Y003455D01*
X021146Y003271D01*
X021042Y003167D01*
X021042Y001941D01*
X021146Y001838D01*
X021222Y001654D01*
X021222Y001455D01*
X021222Y001506D02*
X021222Y001506D01*
X021217Y001664D02*
X021226Y001664D01*
X021292Y001823D02*
X021152Y001823D01*
X021042Y001981D02*
X021402Y001981D01*
X021402Y002140D02*
X021042Y002140D01*
X021042Y002298D02*
X021402Y002298D01*
X021402Y002457D02*
X021042Y002457D01*
X021042Y002615D02*
X021402Y002615D01*
X021402Y002774D02*
X021042Y002774D01*
X021042Y002932D02*
X021402Y002932D01*
X021402Y003091D02*
X021042Y003091D01*
X021124Y003250D02*
X021319Y003250D01*
X021241Y003408D02*
X021202Y003408D01*
X021222Y003567D02*
X021222Y003567D01*
X021192Y003725D02*
X021251Y003725D01*
X021344Y003884D02*
X021099Y003884D01*
X020405Y003944D02*
X020298Y003838D01*
X020222Y003654D01*
X020222Y003455D01*
X020298Y003271D01*
X020402Y003167D01*
X020402Y001941D01*
X020298Y001838D01*
X020222Y001654D01*
X020222Y001455D01*
X020222Y001654D01*
X020146Y001838D01*
X020042Y001941D01*
X020042Y003167D01*
X020146Y003271D01*
X020222Y003455D01*
X020222Y003654D01*
X020146Y003838D01*
X020039Y003944D01*
X020405Y003944D01*
X020344Y003884D02*
X020099Y003884D01*
X020192Y003725D02*
X020251Y003725D01*
X020222Y003567D02*
X020222Y003567D01*
X020202Y003408D02*
X020241Y003408D01*
X020319Y003250D02*
X020124Y003250D01*
X020042Y003091D02*
X020402Y003091D01*
X020402Y002932D02*
X020042Y002932D01*
X020042Y002774D02*
X020402Y002774D01*
X020402Y002615D02*
X020042Y002615D01*
X020042Y002457D02*
X020402Y002457D01*
X020402Y002298D02*
X020042Y002298D01*
X020042Y002140D02*
X020402Y002140D01*
X020402Y001981D02*
X020042Y001981D01*
X020152Y001823D02*
X020292Y001823D01*
X020226Y001664D02*
X020217Y001664D01*
X020222Y001506D02*
X020222Y001506D01*
X020266Y001347D02*
X020177Y001347D01*
X020063Y001189D02*
X020380Y001189D01*
X019380Y001189D02*
X019063Y001189D01*
X019177Y001347D02*
X019266Y001347D01*
X019222Y001455D02*
X019222Y001654D01*
X019298Y001838D01*
X019402Y001941D01*
X019402Y003167D01*
X019298Y003271D01*
X019222Y003455D01*
X019222Y003654D01*
X019298Y003838D01*
X019405Y003944D01*
X019039Y003944D01*
X019146Y003838D01*
X019222Y003654D01*
X019222Y003455D01*
X019146Y003271D01*
X019042Y003167D01*
X019042Y001941D01*
X019146Y001838D01*
X019222Y001654D01*
X019222Y001455D01*
X019222Y001506D02*
X019222Y001506D01*
X019217Y001664D02*
X019226Y001664D01*
X019292Y001823D02*
X019152Y001823D01*
X019042Y001981D02*
X019402Y001981D01*
X019402Y002140D02*
X019042Y002140D01*
X019042Y002298D02*
X019402Y002298D01*
X019402Y002457D02*
X019042Y002457D01*
X019042Y002615D02*
X019402Y002615D01*
X019402Y002774D02*
X019042Y002774D01*
X019042Y002932D02*
X019402Y002932D01*
X019402Y003091D02*
X019042Y003091D01*
X019124Y003250D02*
X019319Y003250D01*
X019241Y003408D02*
X019202Y003408D01*
X019222Y003567D02*
X019222Y003567D01*
X019192Y003725D02*
X019251Y003725D01*
X019344Y003884D02*
X019099Y003884D01*
X018405Y003944D02*
X018298Y003838D01*
X018222Y003654D01*
X018222Y003455D01*
X018298Y003271D01*
X018402Y003167D01*
X018402Y001941D01*
X018298Y001838D01*
X018222Y001654D01*
X018222Y001455D01*
X018222Y001654D01*
X018146Y001838D01*
X018042Y001941D01*
X018042Y003167D01*
X018146Y003271D01*
X018222Y003455D01*
X018222Y003654D01*
X018146Y003838D01*
X018039Y003944D01*
X018405Y003944D01*
X018344Y003884D02*
X018099Y003884D01*
X018192Y003725D02*
X018251Y003725D01*
X018222Y003567D02*
X018222Y003567D01*
X018202Y003408D02*
X018241Y003408D01*
X018319Y003250D02*
X018124Y003250D01*
X018042Y003091D02*
X018402Y003091D01*
X018402Y002932D02*
X018042Y002932D01*
X018042Y002774D02*
X018402Y002774D01*
X018402Y002615D02*
X018042Y002615D01*
X018042Y002457D02*
X018402Y002457D01*
X018402Y002298D02*
X018042Y002298D01*
X018042Y002140D02*
X018402Y002140D01*
X018402Y001981D02*
X018042Y001981D01*
X018152Y001823D02*
X018292Y001823D01*
X018226Y001664D02*
X018217Y001664D01*
X018222Y001506D02*
X018222Y001506D01*
X018266Y001347D02*
X018177Y001347D01*
X018063Y001189D02*
X018380Y001189D01*
X017380Y001189D02*
X017063Y001189D01*
X017177Y001347D02*
X017266Y001347D01*
X017222Y001455D02*
X017222Y001654D01*
X017298Y001838D01*
X017402Y001941D01*
X017402Y003167D01*
X017298Y003271D01*
X017222Y003455D01*
X017222Y003654D01*
X017298Y003838D01*
X017405Y003944D01*
X017039Y003944D01*
X017146Y003838D01*
X017222Y003654D01*
X017222Y003455D01*
X017146Y003271D01*
X017042Y003167D01*
X017042Y001941D01*
X017146Y001838D01*
X017222Y001654D01*
X017222Y001455D01*
X017222Y001506D02*
X017222Y001506D01*
X017217Y001664D02*
X017226Y001664D01*
X017292Y001823D02*
X017152Y001823D01*
X017042Y001981D02*
X017402Y001981D01*
X017402Y002140D02*
X017042Y002140D01*
X017042Y002298D02*
X017402Y002298D01*
X017402Y002457D02*
X017042Y002457D01*
X017042Y002615D02*
X017402Y002615D01*
X017402Y002774D02*
X017042Y002774D01*
X017042Y002932D02*
X017402Y002932D01*
X017402Y003091D02*
X017042Y003091D01*
X017124Y003250D02*
X017319Y003250D01*
X017241Y003408D02*
X017202Y003408D01*
X017222Y003567D02*
X017222Y003567D01*
X017192Y003725D02*
X017251Y003725D01*
X017344Y003884D02*
X017099Y003884D01*
X016344Y003884D02*
X015099Y003884D01*
X015192Y003725D02*
X016251Y003725D01*
X016222Y003567D02*
X015222Y003567D01*
X015202Y003408D02*
X016241Y003408D01*
X016319Y003250D02*
X015124Y003250D01*
X015042Y003091D02*
X016402Y003091D01*
X016402Y002932D02*
X015042Y002932D01*
X015042Y002774D02*
X016402Y002774D01*
X016402Y002615D02*
X015042Y002615D01*
X015042Y002457D02*
X016402Y002457D01*
X016402Y002298D02*
X015042Y002298D01*
X015042Y002140D02*
X016402Y002140D01*
X016402Y001981D02*
X015042Y001981D01*
X015152Y001823D02*
X016292Y001823D01*
X016226Y001664D02*
X015217Y001664D01*
X015222Y001506D02*
X016222Y001506D01*
X016266Y001347D02*
X015177Y001347D01*
X015063Y001189D02*
X016380Y001189D01*
X014380Y001189D02*
X014035Y001189D01*
X013994Y001147D02*
X014129Y001282D01*
X014202Y001459D01*
X014202Y001534D01*
X013742Y001534D01*
X013742Y001574D01*
X014202Y001574D01*
X014202Y001650D01*
X014129Y001826D01*
X013994Y001961D01*
X013817Y002034D01*
X013742Y002034D01*
X013742Y001575D01*
X013702Y001575D01*
X013702Y002034D01*
X013626Y002034D01*
X013450Y001961D01*
X013315Y001826D01*
X013242Y001650D01*
X013242Y001574D01*
X013701Y001574D01*
X013701Y001534D01*
X013242Y001534D01*
X013242Y001459D01*
X013315Y001282D01*
X013450Y001147D01*
X013626Y001074D01*
X013702Y001074D01*
X013702Y001534D01*
X013742Y001534D01*
X013742Y001074D01*
X013817Y001074D01*
X013994Y001147D01*
X013742Y001189D02*
X013702Y001189D01*
X013702Y001347D02*
X013742Y001347D01*
X013742Y001506D02*
X013702Y001506D01*
X013702Y001664D02*
X013742Y001664D01*
X013742Y001823D02*
X013702Y001823D01*
X013702Y001981D02*
X013742Y001981D01*
X013945Y001981D02*
X014402Y001981D01*
X014402Y002140D02*
X012082Y002140D01*
X012082Y002298D02*
X014402Y002298D01*
X014402Y002457D02*
X012082Y002457D01*
X012082Y002615D02*
X014402Y002615D01*
X014402Y002774D02*
X012082Y002774D01*
X012082Y002932D02*
X014402Y002932D01*
X014402Y003091D02*
X013857Y003091D01*
X013817Y003074D02*
X013994Y003147D01*
X014129Y003282D01*
X014202Y003459D01*
X014202Y003534D01*
X013742Y003534D01*
X013742Y003074D01*
X013817Y003074D01*
X013742Y003091D02*
X013702Y003091D01*
X013586Y003091D02*
X012857Y003091D01*
X012817Y003074D02*
X012994Y003147D01*
X013129Y003282D01*
X013202Y003459D01*
X013202Y003534D01*
X012742Y003534D01*
X012742Y003074D01*
X012817Y003074D01*
X012742Y003091D02*
X012702Y003091D01*
X012586Y003091D02*
X012082Y003091D01*
X012124Y003250D02*
X012348Y003250D01*
X012263Y003408D02*
X012202Y003408D01*
X012222Y003567D02*
X012701Y003567D01*
X012742Y003567D02*
X013701Y003567D01*
X013742Y003567D02*
X014222Y003567D01*
X014241Y003408D02*
X014181Y003408D01*
X014096Y003250D02*
X014319Y003250D01*
X014251Y003725D02*
X014170Y003725D01*
X014071Y003884D02*
X014344Y003884D01*
X013742Y003408D02*
X013702Y003408D01*
X013702Y003250D02*
X013742Y003250D01*
X013348Y003250D02*
X013096Y003250D01*
X013181Y003408D02*
X013263Y003408D01*
X013273Y003725D02*
X013170Y003725D01*
X013071Y003884D02*
X013372Y003884D01*
X012742Y003408D02*
X012702Y003408D01*
X012702Y003250D02*
X012742Y003250D01*
X012273Y003725D02*
X012192Y003725D01*
X012099Y003884D02*
X012372Y003884D01*
X011573Y004518D02*
X009711Y004518D01*
X009869Y004359D02*
X011438Y004359D01*
X011372Y004201D02*
X010007Y004201D01*
X010042Y004042D02*
X010593Y004042D01*
X010850Y004042D02*
X011362Y004042D01*
X011344Y003884D02*
X011099Y003884D01*
X011192Y003725D02*
X011251Y003725D01*
X011222Y003567D02*
X011222Y003567D01*
X011222Y003455D02*
X011146Y003271D01*
X011042Y003167D01*
X011042Y001941D01*
X011146Y001838D01*
X011222Y001654D01*
X011222Y001455D01*
X011222Y001654D01*
X011298Y001838D01*
X011362Y001901D01*
X011362Y003207D01*
X011298Y003271D01*
X011222Y003455D01*
X011241Y003408D02*
X011202Y003408D01*
X011124Y003250D02*
X011319Y003250D01*
X011362Y003091D02*
X011042Y003091D01*
X011042Y002932D02*
X011362Y002932D01*
X011362Y002774D02*
X011042Y002774D01*
X011042Y002615D02*
X011362Y002615D01*
X011362Y002457D02*
X011042Y002457D01*
X011042Y002298D02*
X011362Y002298D01*
X011362Y002140D02*
X011042Y002140D01*
X011042Y001981D02*
X011362Y001981D01*
X011292Y001823D02*
X011152Y001823D01*
X011217Y001664D02*
X011226Y001664D01*
X011222Y001506D02*
X011222Y001506D01*
X011222Y001455D02*
X011146Y001271D01*
X011059Y001184D01*
X011385Y001184D01*
X011298Y001271D01*
X011222Y001455D01*
X011266Y001347D02*
X011177Y001347D01*
X011063Y001189D02*
X011380Y001189D01*
X011622Y000904D02*
X011722Y001004D01*
X011722Y001554D01*
X012082Y001981D02*
X012498Y001981D01*
X012450Y001961D02*
X012315Y001826D01*
X012242Y001650D01*
X012242Y001574D01*
X012701Y001574D01*
X012701Y001534D01*
X012242Y001534D01*
X012242Y001459D01*
X012315Y001282D01*
X012450Y001147D01*
X012626Y001074D01*
X012702Y001074D01*
X012702Y001534D01*
X012742Y001534D01*
X012742Y001574D01*
X013202Y001574D01*
X013202Y001650D01*
X013129Y001826D01*
X012994Y001961D01*
X012817Y002034D01*
X012742Y002034D01*
X012742Y001575D01*
X012702Y001575D01*
X012702Y002034D01*
X012626Y002034D01*
X012450Y001961D01*
X012313Y001823D02*
X012152Y001823D01*
X012217Y001664D02*
X012248Y001664D01*
X012242Y001506D02*
X012222Y001506D01*
X012177Y001347D02*
X012288Y001347D01*
X012409Y001189D02*
X012063Y001189D01*
X011622Y000904D02*
X008872Y000904D01*
X008722Y001054D01*
X008722Y001304D01*
X009172Y001347D02*
X009266Y001347D01*
X009222Y001506D02*
X009172Y001506D01*
X009145Y001664D02*
X009226Y001664D01*
X009292Y001823D02*
X009152Y001823D01*
X009152Y001981D02*
X009402Y001981D01*
X009402Y002140D02*
X008767Y002140D01*
X008722Y002104D02*
X008722Y002904D01*
X008677Y002457D02*
X008767Y002457D01*
X008767Y002298D02*
X008677Y002298D01*
X008676Y002140D02*
X007672Y002140D01*
X007672Y002298D02*
X008292Y002298D01*
X008320Y002457D02*
X007652Y002457D01*
X007582Y002615D02*
X009402Y002615D01*
X009402Y002457D02*
X009124Y002457D01*
X009152Y002298D02*
X009402Y002298D01*
X009402Y002774D02*
X007582Y002774D01*
X007582Y002932D02*
X009402Y002932D01*
X009402Y003091D02*
X007675Y003091D01*
X007722Y003250D02*
X009319Y003250D01*
X009241Y003408D02*
X007720Y003408D01*
X007654Y003567D02*
X009222Y003567D01*
X009251Y003725D02*
X007508Y003725D01*
X006936Y003725D02*
X005508Y003725D01*
X005654Y003567D02*
X006789Y003567D01*
X006724Y003408D02*
X005720Y003408D01*
X005722Y003250D02*
X006722Y003250D01*
X006769Y003091D02*
X005675Y003091D01*
X005582Y002932D02*
X006862Y002932D01*
X006862Y002774D02*
X005582Y002774D01*
X005582Y002615D02*
X006862Y002615D01*
X006791Y002457D02*
X006652Y002457D01*
X006672Y002298D02*
X006772Y002298D01*
X006772Y002140D02*
X006672Y002140D01*
X006762Y001981D02*
X006772Y001981D01*
X007672Y001981D02*
X008292Y001981D01*
X008292Y001823D02*
X007672Y001823D01*
X007645Y001664D02*
X008299Y001664D01*
X008272Y001506D02*
X007672Y001506D01*
X007672Y001347D02*
X008272Y001347D01*
X008272Y001189D02*
X007672Y001189D01*
X009172Y001189D02*
X009380Y001189D01*
X010059Y001184D02*
X010146Y001271D01*
X010222Y001455D01*
X010222Y001654D01*
X010222Y001455D01*
X010298Y001271D01*
X010385Y001184D01*
X010059Y001184D01*
X010063Y001189D02*
X010380Y001189D01*
X010266Y001347D02*
X010177Y001347D01*
X010222Y001506D02*
X010222Y001506D01*
X010222Y001654D02*
X010146Y001838D01*
X010042Y001941D01*
X010042Y003167D01*
X010146Y003271D01*
X010222Y003455D01*
X010298Y003271D01*
X010402Y003167D01*
X010402Y001941D01*
X010298Y001838D01*
X010222Y001654D01*
X010226Y001664D02*
X010217Y001664D01*
X010152Y001823D02*
X010292Y001823D01*
X010402Y001981D02*
X010042Y001981D01*
X010042Y002140D02*
X010402Y002140D01*
X010402Y002298D02*
X010042Y002298D01*
X010042Y002457D02*
X010402Y002457D01*
X010402Y002615D02*
X010042Y002615D01*
X010042Y002774D02*
X010402Y002774D01*
X010402Y002932D02*
X010042Y002932D01*
X010042Y003091D02*
X010402Y003091D01*
X010319Y003250D02*
X010124Y003250D01*
X010202Y003408D02*
X010241Y003408D01*
X010222Y003567D02*
X010222Y003567D01*
X010192Y003725D02*
X010251Y003725D01*
X010344Y003884D02*
X010099Y003884D01*
X010126Y004574D02*
X009950Y004647D01*
X009815Y004782D01*
X009742Y004959D01*
X009742Y005034D01*
X010201Y005034D01*
X010201Y005074D01*
X009742Y005074D01*
X009742Y005150D01*
X009815Y005326D01*
X009950Y005461D01*
X010126Y005534D01*
X010202Y005534D01*
X010202Y005075D01*
X010242Y005075D01*
X010242Y005534D01*
X010317Y005534D01*
X010494Y005461D01*
X010629Y005326D01*
X010702Y005150D01*
X010702Y005074D01*
X010242Y005074D01*
X010242Y005034D01*
X010702Y005034D01*
X010702Y004959D01*
X010629Y004782D01*
X010494Y004647D01*
X010317Y004574D01*
X010242Y004574D01*
X010242Y005034D01*
X010202Y005034D01*
X010202Y004574D01*
X010126Y004574D01*
X010202Y004676D02*
X010242Y004676D01*
X010242Y004835D02*
X010202Y004835D01*
X010202Y004994D02*
X010242Y004994D01*
X010242Y005152D02*
X010202Y005152D01*
X010202Y005311D02*
X010242Y005311D01*
X010242Y005469D02*
X010202Y005469D01*
X009969Y005469D02*
X009474Y005469D01*
X009498Y005628D02*
X009945Y005628D01*
X009792Y005786D02*
X009652Y005786D01*
X009718Y005945D02*
X009726Y005945D01*
X009722Y006103D02*
X009722Y006103D01*
X009677Y006262D02*
X009767Y006262D01*
X009881Y006420D02*
X009563Y006420D01*
X009381Y006579D02*
X010063Y006579D01*
X009831Y006738D02*
X009612Y006738D01*
X009697Y006896D02*
X009746Y006896D01*
X009722Y007055D02*
X009722Y007055D01*
X009697Y007213D02*
X009746Y007213D01*
X009832Y007372D02*
X009611Y007372D01*
X009379Y007530D02*
X010064Y007530D01*
X009880Y007689D02*
X009563Y007689D01*
X009677Y007847D02*
X009766Y007847D01*
X009722Y008006D02*
X009722Y008006D01*
X009717Y008164D02*
X009726Y008164D01*
X009792Y008323D02*
X009652Y008323D01*
X009497Y008481D02*
X009946Y008481D01*
X009929Y008640D02*
X009515Y008640D01*
X009657Y008799D02*
X009786Y008799D01*
X009722Y008957D02*
X009722Y008957D01*
X009722Y009116D02*
X009722Y009116D01*
X009672Y009274D02*
X009772Y009274D01*
X009893Y009433D02*
X009550Y009433D01*
X009410Y009591D02*
X010033Y009591D01*
X009819Y009750D02*
X009624Y009750D01*
X009702Y009908D02*
X009741Y009908D01*
X009722Y010067D02*
X009722Y010067D01*
X009692Y010225D02*
X009751Y010225D01*
X009844Y010384D02*
X009599Y010384D01*
X009576Y010701D02*
X009868Y010701D01*
X009761Y010860D02*
X009682Y010860D01*
X009722Y011018D02*
X009722Y011018D01*
X009712Y011177D02*
X009731Y011177D01*
X009797Y011335D02*
X009647Y011335D01*
X009467Y011494D02*
X009976Y011494D01*
X009917Y011652D02*
X009527Y011652D01*
X009662Y011811D02*
X009781Y011811D01*
X009722Y011969D02*
X009722Y011969D01*
X009722Y012128D02*
X009722Y012128D01*
X009667Y012287D02*
X009777Y012287D01*
X009905Y012445D02*
X009538Y012445D01*
X009440Y012604D02*
X010003Y012604D01*
X009807Y012762D02*
X009637Y012762D01*
X009708Y012921D02*
X009736Y012921D01*
X009722Y013079D02*
X009722Y013079D01*
X009687Y013238D02*
X009757Y013238D01*
X009857Y013396D02*
X009587Y013396D01*
X009322Y013555D02*
X010121Y013555D01*
X010322Y013555D02*
X011121Y013555D01*
X011322Y013555D02*
X012121Y013555D01*
X012322Y013555D02*
X013121Y013555D01*
X013322Y013555D02*
X014121Y013555D01*
X013857Y013396D02*
X013587Y013396D01*
X013687Y013238D02*
X013757Y013238D01*
X013722Y013079D02*
X013722Y013079D01*
X013708Y012921D02*
X013736Y012921D01*
X013807Y012762D02*
X013637Y012762D01*
X013440Y012604D02*
X014003Y012604D01*
X013905Y012445D02*
X013538Y012445D01*
X013667Y012287D02*
X013777Y012287D01*
X013722Y012128D02*
X013722Y012128D01*
X013722Y011969D02*
X013722Y011969D01*
X013781Y011811D02*
X013662Y011811D01*
X013527Y011652D02*
X013917Y011652D01*
X013976Y011494D02*
X013467Y011494D01*
X013647Y011335D02*
X013797Y011335D01*
X013731Y011177D02*
X013712Y011177D01*
X013722Y011018D02*
X013722Y011018D01*
X013682Y010860D02*
X013761Y010860D01*
X013868Y010701D02*
X013576Y010701D01*
X013599Y010384D02*
X013844Y010384D01*
X013751Y010225D02*
X013692Y010225D01*
X013722Y010067D02*
X013722Y010067D01*
X013702Y009908D02*
X013741Y009908D01*
X013819Y009750D02*
X013624Y009750D01*
X013410Y009591D02*
X014033Y009591D01*
X013893Y009433D02*
X013550Y009433D01*
X013672Y009274D02*
X013772Y009274D01*
X013722Y009116D02*
X013722Y009116D01*
X013722Y008957D02*
X013722Y008957D01*
X013657Y008799D02*
X013786Y008799D01*
X013929Y008640D02*
X013515Y008640D01*
X013497Y008481D02*
X013946Y008481D01*
X013792Y008323D02*
X013652Y008323D01*
X013717Y008164D02*
X013726Y008164D01*
X013722Y008006D02*
X013722Y008006D01*
X013766Y007847D02*
X013677Y007847D01*
X013563Y007689D02*
X013880Y007689D01*
X014064Y007530D02*
X013379Y007530D01*
X013611Y007372D02*
X013832Y007372D01*
X013746Y007213D02*
X013697Y007213D01*
X013722Y007055D02*
X013722Y007055D01*
X013697Y006896D02*
X013746Y006896D01*
X013831Y006738D02*
X013612Y006738D01*
X013381Y006579D02*
X014063Y006579D01*
X013881Y006420D02*
X013563Y006420D01*
X013677Y006262D02*
X013767Y006262D01*
X013722Y006103D02*
X013722Y006103D01*
X013718Y005945D02*
X013726Y005945D01*
X013792Y005786D02*
X013652Y005786D01*
X013498Y005628D02*
X013945Y005628D01*
X013969Y005469D02*
X013474Y005469D01*
X013635Y005311D02*
X013808Y005311D01*
X013743Y005152D02*
X013701Y005152D01*
X013702Y004994D02*
X013742Y004994D01*
X013793Y004835D02*
X013650Y004835D01*
X013523Y004676D02*
X013921Y004676D01*
X014202Y005152D02*
X014242Y005152D01*
X014242Y005311D02*
X014202Y005311D01*
X014202Y005469D02*
X014242Y005469D01*
X014474Y005469D02*
X014969Y005469D01*
X014945Y005628D02*
X014498Y005628D01*
X014652Y005786D02*
X014792Y005786D01*
X014726Y005945D02*
X014718Y005945D01*
X014722Y006103D02*
X014722Y006103D01*
X014677Y006262D02*
X014767Y006262D01*
X014881Y006420D02*
X014563Y006420D01*
X014381Y006579D02*
X015063Y006579D01*
X014831Y006738D02*
X014612Y006738D01*
X014697Y006896D02*
X014746Y006896D01*
X014722Y007055D02*
X014722Y007055D01*
X014697Y007213D02*
X014746Y007213D01*
X014832Y007372D02*
X014611Y007372D01*
X014379Y007530D02*
X015064Y007530D01*
X014880Y007689D02*
X014563Y007689D01*
X014677Y007847D02*
X014766Y007847D01*
X014722Y008006D02*
X014722Y008006D01*
X014717Y008164D02*
X014726Y008164D01*
X014792Y008323D02*
X014652Y008323D01*
X014497Y008481D02*
X014946Y008481D01*
X014929Y008640D02*
X014515Y008640D01*
X014657Y008799D02*
X014786Y008799D01*
X014722Y008957D02*
X014722Y008957D01*
X014722Y009116D02*
X014722Y009116D01*
X014672Y009274D02*
X014772Y009274D01*
X014893Y009433D02*
X014550Y009433D01*
X014410Y009591D02*
X015033Y009591D01*
X014819Y009750D02*
X014624Y009750D01*
X014702Y009908D02*
X014741Y009908D01*
X014722Y010067D02*
X014722Y010067D01*
X014692Y010225D02*
X014751Y010225D01*
X014844Y010384D02*
X014599Y010384D01*
X015350Y010543D02*
X016094Y010543D01*
X016350Y010543D02*
X017094Y010543D01*
X017350Y010543D02*
X018094Y010543D01*
X018350Y010543D02*
X019094Y010543D01*
X019350Y010543D02*
X020094Y010543D01*
X019868Y010701D02*
X019576Y010701D01*
X019682Y010860D02*
X019761Y010860D01*
X019722Y011018D02*
X019722Y011018D01*
X019712Y011177D02*
X019731Y011177D01*
X019797Y011335D02*
X019647Y011335D01*
X019467Y011494D02*
X019976Y011494D01*
X019917Y011652D02*
X019527Y011652D01*
X019662Y011811D02*
X019781Y011811D01*
X019722Y011969D02*
X019722Y011969D01*
X019722Y012128D02*
X019722Y012128D01*
X019667Y012287D02*
X019777Y012287D01*
X019905Y012445D02*
X019538Y012445D01*
X019440Y012604D02*
X020003Y012604D01*
X019807Y012762D02*
X019637Y012762D01*
X019708Y012921D02*
X019736Y012921D01*
X019722Y013079D02*
X019722Y013079D01*
X019687Y013238D02*
X019757Y013238D01*
X019857Y013396D02*
X019587Y013396D01*
X018857Y013396D02*
X018587Y013396D01*
X018687Y013238D02*
X018757Y013238D01*
X018722Y013079D02*
X018722Y013079D01*
X018708Y012921D02*
X018736Y012921D01*
X018807Y012762D02*
X018637Y012762D01*
X018440Y012604D02*
X019003Y012604D01*
X018905Y012445D02*
X018538Y012445D01*
X018667Y012287D02*
X018777Y012287D01*
X018722Y012128D02*
X018722Y012128D01*
X018722Y011969D02*
X018722Y011969D01*
X018781Y011811D02*
X018662Y011811D01*
X018527Y011652D02*
X018917Y011652D01*
X018976Y011494D02*
X018467Y011494D01*
X018647Y011335D02*
X018797Y011335D01*
X018731Y011177D02*
X018712Y011177D01*
X018722Y011018D02*
X018722Y011018D01*
X018682Y010860D02*
X018761Y010860D01*
X018868Y010701D02*
X018576Y010701D01*
X018599Y010384D02*
X018844Y010384D01*
X018751Y010225D02*
X018692Y010225D01*
X018722Y010067D02*
X018722Y010067D01*
X018702Y009908D02*
X018741Y009908D01*
X018819Y009750D02*
X018624Y009750D01*
X018410Y009591D02*
X019033Y009591D01*
X018893Y009433D02*
X018550Y009433D01*
X018672Y009274D02*
X018772Y009274D01*
X018722Y009116D02*
X018722Y009116D01*
X018722Y008957D02*
X018722Y008957D01*
X018657Y008799D02*
X018786Y008799D01*
X018929Y008640D02*
X018515Y008640D01*
X018497Y008481D02*
X018946Y008481D01*
X018792Y008323D02*
X018652Y008323D01*
X018717Y008164D02*
X018726Y008164D01*
X018722Y008006D02*
X018722Y008006D01*
X018766Y007847D02*
X018677Y007847D01*
X018563Y007689D02*
X018880Y007689D01*
X019064Y007530D02*
X018379Y007530D01*
X018611Y007372D02*
X018832Y007372D01*
X018746Y007213D02*
X018697Y007213D01*
X018722Y007055D02*
X018722Y007055D01*
X018697Y006896D02*
X018746Y006896D01*
X018831Y006738D02*
X018612Y006738D01*
X018381Y006579D02*
X019063Y006579D01*
X018881Y006420D02*
X018563Y006420D01*
X018677Y006262D02*
X018767Y006262D01*
X018722Y006103D02*
X018722Y006103D01*
X018718Y005945D02*
X018726Y005945D01*
X018792Y005786D02*
X018652Y005786D01*
X018498Y005628D02*
X018945Y005628D01*
X018969Y005469D02*
X018474Y005469D01*
X018635Y005311D02*
X018808Y005311D01*
X018743Y005152D02*
X018701Y005152D01*
X018702Y004994D02*
X018742Y004994D01*
X018793Y004835D02*
X018650Y004835D01*
X018523Y004676D02*
X018921Y004676D01*
X019202Y005152D02*
X019242Y005152D01*
X019242Y005311D02*
X019202Y005311D01*
X019202Y005469D02*
X019242Y005469D01*
X019474Y005469D02*
X019969Y005469D01*
X019945Y005628D02*
X019498Y005628D01*
X019652Y005786D02*
X019792Y005786D01*
X019726Y005945D02*
X019718Y005945D01*
X019722Y006103D02*
X019722Y006103D01*
X019677Y006262D02*
X019767Y006262D01*
X019881Y006420D02*
X019563Y006420D01*
X019381Y006579D02*
X020063Y006579D01*
X019831Y006738D02*
X019612Y006738D01*
X019697Y006896D02*
X019746Y006896D01*
X019722Y007055D02*
X019722Y007055D01*
X019697Y007213D02*
X019746Y007213D01*
X019832Y007372D02*
X019611Y007372D01*
X019379Y007530D02*
X020064Y007530D01*
X019880Y007689D02*
X019563Y007689D01*
X019677Y007847D02*
X019766Y007847D01*
X019722Y008006D02*
X019722Y008006D01*
X019717Y008164D02*
X019726Y008164D01*
X019792Y008323D02*
X019652Y008323D01*
X019497Y008481D02*
X019946Y008481D01*
X019929Y008640D02*
X019515Y008640D01*
X019657Y008799D02*
X019786Y008799D01*
X019722Y008957D02*
X019722Y008957D01*
X019722Y009116D02*
X019722Y009116D01*
X019672Y009274D02*
X019772Y009274D01*
X019893Y009433D02*
X019550Y009433D01*
X019410Y009591D02*
X020033Y009591D01*
X019819Y009750D02*
X019624Y009750D01*
X019702Y009908D02*
X019741Y009908D01*
X019722Y010067D02*
X019722Y010067D01*
X019692Y010225D02*
X019751Y010225D01*
X019844Y010384D02*
X019599Y010384D01*
X017844Y010384D02*
X017599Y010384D01*
X017692Y010225D02*
X017751Y010225D01*
X017722Y010067D02*
X017722Y010067D01*
X017702Y009908D02*
X017741Y009908D01*
X017819Y009750D02*
X017624Y009750D01*
X017410Y009591D02*
X018033Y009591D01*
X017893Y009433D02*
X017550Y009433D01*
X017672Y009274D02*
X017772Y009274D01*
X017722Y009116D02*
X017722Y009116D01*
X017722Y008957D02*
X017722Y008957D01*
X017657Y008799D02*
X017786Y008799D01*
X017929Y008640D02*
X017515Y008640D01*
X017497Y008481D02*
X017946Y008481D01*
X017792Y008323D02*
X017652Y008323D01*
X017717Y008164D02*
X017726Y008164D01*
X017722Y008006D02*
X017722Y008006D01*
X017766Y007847D02*
X017677Y007847D01*
X017563Y007689D02*
X017880Y007689D01*
X018064Y007530D02*
X017379Y007530D01*
X017611Y007372D02*
X017832Y007372D01*
X017746Y007213D02*
X017697Y007213D01*
X017722Y007055D02*
X017722Y007055D01*
X017697Y006896D02*
X017746Y006896D01*
X017831Y006738D02*
X017612Y006738D01*
X017381Y006579D02*
X018063Y006579D01*
X017881Y006420D02*
X017563Y006420D01*
X017677Y006262D02*
X017767Y006262D01*
X017722Y006103D02*
X017722Y006103D01*
X017718Y005945D02*
X017726Y005945D01*
X017792Y005786D02*
X017652Y005786D01*
X017498Y005628D02*
X017945Y005628D01*
X017969Y005469D02*
X017474Y005469D01*
X017635Y005311D02*
X017808Y005311D01*
X017743Y005152D02*
X017701Y005152D01*
X017702Y004994D02*
X017742Y004994D01*
X017793Y004835D02*
X017650Y004835D01*
X017523Y004676D02*
X017921Y004676D01*
X018202Y005152D02*
X018242Y005152D01*
X018242Y005311D02*
X018202Y005311D01*
X018202Y005469D02*
X018242Y005469D01*
X017242Y005469D02*
X017202Y005469D01*
X017202Y005311D02*
X017242Y005311D01*
X017242Y005152D02*
X017202Y005152D01*
X016969Y005469D02*
X016474Y005469D01*
X016498Y005628D02*
X016945Y005628D01*
X016792Y005786D02*
X016652Y005786D01*
X016718Y005945D02*
X016726Y005945D01*
X016722Y006103D02*
X016722Y006103D01*
X016677Y006262D02*
X016767Y006262D01*
X016881Y006420D02*
X016563Y006420D01*
X016381Y006579D02*
X017063Y006579D01*
X016831Y006738D02*
X016612Y006738D01*
X016697Y006896D02*
X016746Y006896D01*
X016722Y007055D02*
X016722Y007055D01*
X016697Y007213D02*
X016746Y007213D01*
X016832Y007372D02*
X016611Y007372D01*
X016379Y007530D02*
X017064Y007530D01*
X016880Y007689D02*
X016563Y007689D01*
X016677Y007847D02*
X016766Y007847D01*
X016722Y008006D02*
X016722Y008006D01*
X016717Y008164D02*
X016726Y008164D01*
X016792Y008323D02*
X016652Y008323D01*
X016497Y008481D02*
X016946Y008481D01*
X016929Y008640D02*
X016515Y008640D01*
X016657Y008799D02*
X016786Y008799D01*
X016722Y008957D02*
X016722Y008957D01*
X016722Y009116D02*
X016722Y009116D01*
X016672Y009274D02*
X016772Y009274D01*
X016893Y009433D02*
X016550Y009433D01*
X016410Y009591D02*
X017033Y009591D01*
X016819Y009750D02*
X016624Y009750D01*
X016702Y009908D02*
X016741Y009908D01*
X016722Y010067D02*
X016722Y010067D01*
X016692Y010225D02*
X016751Y010225D01*
X016844Y010384D02*
X016599Y010384D01*
X016576Y010701D02*
X016868Y010701D01*
X016761Y010860D02*
X016682Y010860D01*
X016722Y011018D02*
X016722Y011018D01*
X016712Y011177D02*
X016731Y011177D01*
X016797Y011335D02*
X016647Y011335D01*
X016467Y011494D02*
X016976Y011494D01*
X016917Y011652D02*
X016527Y011652D01*
X016662Y011811D02*
X016781Y011811D01*
X016722Y011969D02*
X016722Y011969D01*
X016722Y012128D02*
X016722Y012128D01*
X016667Y012287D02*
X016777Y012287D01*
X016905Y012445D02*
X016538Y012445D01*
X016440Y012604D02*
X017003Y012604D01*
X016807Y012762D02*
X016637Y012762D01*
X016708Y012921D02*
X016736Y012921D01*
X016722Y013079D02*
X016722Y013079D01*
X016687Y013238D02*
X016757Y013238D01*
X016857Y013396D02*
X016587Y013396D01*
X015857Y013396D02*
X015587Y013396D01*
X015687Y013238D02*
X015757Y013238D01*
X015722Y013079D02*
X015722Y013079D01*
X015708Y012921D02*
X015736Y012921D01*
X015807Y012762D02*
X015637Y012762D01*
X015440Y012604D02*
X016003Y012604D01*
X015905Y012445D02*
X015538Y012445D01*
X015667Y012287D02*
X015777Y012287D01*
X015722Y012128D02*
X015722Y012128D01*
X015722Y011969D02*
X015722Y011969D01*
X015781Y011811D02*
X015662Y011811D01*
X015527Y011652D02*
X015917Y011652D01*
X015976Y011494D02*
X015467Y011494D01*
X015647Y011335D02*
X015797Y011335D01*
X015731Y011177D02*
X015712Y011177D01*
X015722Y011018D02*
X015722Y011018D01*
X015682Y010860D02*
X015761Y010860D01*
X015868Y010701D02*
X015576Y010701D01*
X015599Y010384D02*
X015844Y010384D01*
X015751Y010225D02*
X015692Y010225D01*
X015722Y010067D02*
X015722Y010067D01*
X015702Y009908D02*
X015741Y009908D01*
X015819Y009750D02*
X015624Y009750D01*
X015410Y009591D02*
X016033Y009591D01*
X015893Y009433D02*
X015550Y009433D01*
X015672Y009274D02*
X015772Y009274D01*
X015722Y009116D02*
X015722Y009116D01*
X015722Y008957D02*
X015722Y008957D01*
X015657Y008799D02*
X015786Y008799D01*
X015929Y008640D02*
X015515Y008640D01*
X015497Y008481D02*
X015946Y008481D01*
X015792Y008323D02*
X015652Y008323D01*
X015717Y008164D02*
X015726Y008164D01*
X015722Y008006D02*
X015722Y008006D01*
X015766Y007847D02*
X015677Y007847D01*
X015563Y007689D02*
X015880Y007689D01*
X016064Y007530D02*
X015379Y007530D01*
X015611Y007372D02*
X015832Y007372D01*
X015746Y007213D02*
X015697Y007213D01*
X015722Y007055D02*
X015722Y007055D01*
X015697Y006896D02*
X015746Y006896D01*
X015831Y006738D02*
X015612Y006738D01*
X015381Y006579D02*
X016063Y006579D01*
X015881Y006420D02*
X015563Y006420D01*
X015677Y006262D02*
X015767Y006262D01*
X015722Y006103D02*
X015722Y006103D01*
X015718Y005945D02*
X015726Y005945D01*
X015792Y005786D02*
X015652Y005786D01*
X015498Y005628D02*
X015945Y005628D01*
X015969Y005469D02*
X015474Y005469D01*
X015635Y005311D02*
X015808Y005311D01*
X015743Y005152D02*
X015701Y005152D01*
X015702Y004994D02*
X015742Y004994D01*
X015793Y004835D02*
X015650Y004835D01*
X015523Y004676D02*
X015921Y004676D01*
X016202Y005152D02*
X016242Y005152D01*
X016242Y005311D02*
X016202Y005311D01*
X016202Y005469D02*
X016242Y005469D01*
X016635Y005311D02*
X016808Y005311D01*
X016743Y005152D02*
X016701Y005152D01*
X016702Y004994D02*
X016742Y004994D01*
X016793Y004835D02*
X016650Y004835D01*
X016523Y004676D02*
X016921Y004676D01*
X015242Y005152D02*
X015202Y005152D01*
X015202Y005311D02*
X015242Y005311D01*
X015242Y005469D02*
X015202Y005469D01*
X014808Y005311D02*
X014635Y005311D01*
X014701Y005152D02*
X014743Y005152D01*
X014742Y004994D02*
X014702Y004994D01*
X014650Y004835D02*
X014793Y004835D01*
X014921Y004676D02*
X014523Y004676D01*
X013242Y005152D02*
X013202Y005152D01*
X013202Y005311D02*
X013242Y005311D01*
X013242Y005469D02*
X013202Y005469D01*
X012969Y005469D02*
X012474Y005469D01*
X012498Y005628D02*
X012945Y005628D01*
X012792Y005786D02*
X012652Y005786D01*
X012718Y005945D02*
X012726Y005945D01*
X012722Y006103D02*
X012722Y006103D01*
X012677Y006262D02*
X012767Y006262D01*
X012881Y006420D02*
X012563Y006420D01*
X012381Y006579D02*
X013063Y006579D01*
X012831Y006738D02*
X012612Y006738D01*
X012697Y006896D02*
X012746Y006896D01*
X012722Y007055D02*
X012722Y007055D01*
X012697Y007213D02*
X012746Y007213D01*
X012832Y007372D02*
X012611Y007372D01*
X012379Y007530D02*
X013064Y007530D01*
X012880Y007689D02*
X012563Y007689D01*
X012677Y007847D02*
X012766Y007847D01*
X012722Y008006D02*
X012722Y008006D01*
X012717Y008164D02*
X012726Y008164D01*
X012792Y008323D02*
X012652Y008323D01*
X012497Y008481D02*
X012946Y008481D01*
X012929Y008640D02*
X012515Y008640D01*
X012657Y008799D02*
X012786Y008799D01*
X012722Y008957D02*
X012722Y008957D01*
X012722Y009116D02*
X012722Y009116D01*
X012672Y009274D02*
X012772Y009274D01*
X012893Y009433D02*
X012550Y009433D01*
X012410Y009591D02*
X013033Y009591D01*
X012819Y009750D02*
X012624Y009750D01*
X012702Y009908D02*
X012741Y009908D01*
X012722Y010067D02*
X012722Y010067D01*
X012692Y010225D02*
X012751Y010225D01*
X012844Y010384D02*
X012599Y010384D01*
X012576Y010701D02*
X012868Y010701D01*
X012761Y010860D02*
X012682Y010860D01*
X012722Y011018D02*
X012722Y011018D01*
X012712Y011177D02*
X012731Y011177D01*
X012797Y011335D02*
X012647Y011335D01*
X012467Y011494D02*
X012976Y011494D01*
X012917Y011652D02*
X012527Y011652D01*
X012662Y011811D02*
X012781Y011811D01*
X012722Y011969D02*
X012722Y011969D01*
X012722Y012128D02*
X012722Y012128D01*
X012667Y012287D02*
X012777Y012287D01*
X012905Y012445D02*
X012538Y012445D01*
X012440Y012604D02*
X013003Y012604D01*
X012807Y012762D02*
X012637Y012762D01*
X012708Y012921D02*
X012736Y012921D01*
X012722Y013079D02*
X012722Y013079D01*
X012687Y013238D02*
X012757Y013238D01*
X012857Y013396D02*
X012587Y013396D01*
X011857Y013396D02*
X011587Y013396D01*
X011687Y013238D02*
X011757Y013238D01*
X011722Y013079D02*
X011722Y013079D01*
X011708Y012921D02*
X011736Y012921D01*
X011807Y012762D02*
X011637Y012762D01*
X011440Y012604D02*
X012003Y012604D01*
X011905Y012445D02*
X011538Y012445D01*
X011667Y012287D02*
X011777Y012287D01*
X011722Y012128D02*
X011722Y012128D01*
X011722Y011969D02*
X011722Y011969D01*
X011781Y011811D02*
X011662Y011811D01*
X011527Y011652D02*
X011917Y011652D01*
X011976Y011494D02*
X011467Y011494D01*
X011647Y011335D02*
X011797Y011335D01*
X011731Y011177D02*
X011712Y011177D01*
X011722Y011018D02*
X011722Y011018D01*
X011682Y010860D02*
X011761Y010860D01*
X011868Y010701D02*
X011576Y010701D01*
X011599Y010384D02*
X011844Y010384D01*
X011751Y010225D02*
X011692Y010225D01*
X011722Y010067D02*
X011722Y010067D01*
X011702Y009908D02*
X011741Y009908D01*
X011819Y009750D02*
X011624Y009750D01*
X011410Y009591D02*
X012033Y009591D01*
X011893Y009433D02*
X011550Y009433D01*
X011672Y009274D02*
X011772Y009274D01*
X011722Y009116D02*
X011722Y009116D01*
X011722Y008957D02*
X011722Y008957D01*
X011657Y008799D02*
X011786Y008799D01*
X011929Y008640D02*
X011515Y008640D01*
X011497Y008481D02*
X011946Y008481D01*
X011792Y008323D02*
X011652Y008323D01*
X011717Y008164D02*
X011726Y008164D01*
X011722Y008006D02*
X011722Y008006D01*
X011766Y007847D02*
X011677Y007847D01*
X011563Y007689D02*
X011880Y007689D01*
X012064Y007530D02*
X011379Y007530D01*
X011611Y007372D02*
X011832Y007372D01*
X011746Y007213D02*
X011697Y007213D01*
X011722Y007055D02*
X011722Y007055D01*
X011697Y006896D02*
X011746Y006896D01*
X011831Y006738D02*
X011612Y006738D01*
X011381Y006579D02*
X012063Y006579D01*
X011881Y006420D02*
X011563Y006420D01*
X011677Y006262D02*
X011767Y006262D01*
X011722Y006103D02*
X011722Y006103D01*
X011718Y005945D02*
X011726Y005945D01*
X011792Y005786D02*
X011652Y005786D01*
X011498Y005628D02*
X011945Y005628D01*
X011969Y005469D02*
X011474Y005469D01*
X011494Y005461D02*
X011317Y005534D01*
X011242Y005534D01*
X011242Y005075D01*
X011202Y005075D01*
X011202Y005534D01*
X011126Y005534D01*
X010950Y005461D01*
X010815Y005326D01*
X010742Y005150D01*
X010742Y005074D01*
X011201Y005074D01*
X011201Y005034D01*
X010742Y005034D01*
X010742Y004959D01*
X010815Y004782D01*
X010950Y004647D01*
X011126Y004574D01*
X011202Y004574D01*
X011202Y005034D01*
X011242Y005034D01*
X011242Y005074D01*
X011702Y005074D01*
X011702Y005150D01*
X011629Y005326D01*
X011494Y005461D01*
X011635Y005311D02*
X011808Y005311D01*
X011743Y005152D02*
X011701Y005152D01*
X011702Y005034D02*
X011242Y005034D01*
X011242Y004574D01*
X011317Y004574D01*
X011494Y004647D01*
X011629Y004782D01*
X011702Y004959D01*
X011702Y005034D01*
X011702Y004994D02*
X011742Y004994D01*
X011793Y004835D02*
X011650Y004835D01*
X011523Y004676D02*
X011921Y004676D01*
X012202Y005152D02*
X012242Y005152D01*
X012242Y005311D02*
X012202Y005311D01*
X012202Y005469D02*
X012242Y005469D01*
X012635Y005311D02*
X012808Y005311D01*
X012743Y005152D02*
X012701Y005152D01*
X012702Y004994D02*
X012742Y004994D01*
X012793Y004835D02*
X012650Y004835D01*
X012523Y004676D02*
X012921Y004676D01*
X011242Y004676D02*
X011202Y004676D01*
X011202Y004835D02*
X011242Y004835D01*
X011242Y004994D02*
X011202Y004994D01*
X011202Y005152D02*
X011242Y005152D01*
X011242Y005311D02*
X011202Y005311D01*
X011202Y005469D02*
X011242Y005469D01*
X010969Y005469D02*
X010474Y005469D01*
X010498Y005628D02*
X010945Y005628D01*
X010792Y005786D02*
X010652Y005786D01*
X010718Y005945D02*
X010726Y005945D01*
X010722Y006103D02*
X010722Y006103D01*
X010677Y006262D02*
X010767Y006262D01*
X010881Y006420D02*
X010563Y006420D01*
X010381Y006579D02*
X011063Y006579D01*
X010831Y006738D02*
X010612Y006738D01*
X010697Y006896D02*
X010746Y006896D01*
X010722Y007055D02*
X010722Y007055D01*
X010697Y007213D02*
X010746Y007213D01*
X010832Y007372D02*
X010611Y007372D01*
X010379Y007530D02*
X011064Y007530D01*
X010880Y007689D02*
X010563Y007689D01*
X010677Y007847D02*
X010766Y007847D01*
X010722Y008006D02*
X010722Y008006D01*
X010717Y008164D02*
X010726Y008164D01*
X010792Y008323D02*
X010652Y008323D01*
X010497Y008481D02*
X010946Y008481D01*
X010929Y008640D02*
X010515Y008640D01*
X010657Y008799D02*
X010786Y008799D01*
X010722Y008957D02*
X010722Y008957D01*
X010722Y009116D02*
X010722Y009116D01*
X010672Y009274D02*
X010772Y009274D01*
X010893Y009433D02*
X010550Y009433D01*
X010410Y009591D02*
X011033Y009591D01*
X010819Y009750D02*
X010624Y009750D01*
X010702Y009908D02*
X010741Y009908D01*
X010722Y010067D02*
X010722Y010067D01*
X010692Y010225D02*
X010751Y010225D01*
X010844Y010384D02*
X010599Y010384D01*
X010576Y010701D02*
X010868Y010701D01*
X010761Y010860D02*
X010682Y010860D01*
X010722Y011018D02*
X010722Y011018D01*
X010712Y011177D02*
X010731Y011177D01*
X010797Y011335D02*
X010647Y011335D01*
X010467Y011494D02*
X010976Y011494D01*
X010917Y011652D02*
X010527Y011652D01*
X010662Y011811D02*
X010781Y011811D01*
X010722Y011969D02*
X010722Y011969D01*
X010722Y012128D02*
X010722Y012128D01*
X010667Y012287D02*
X010777Y012287D01*
X010905Y012445D02*
X010538Y012445D01*
X010440Y012604D02*
X011003Y012604D01*
X010807Y012762D02*
X010637Y012762D01*
X010708Y012921D02*
X010736Y012921D01*
X010722Y013079D02*
X010722Y013079D01*
X010687Y013238D02*
X010757Y013238D01*
X010857Y013396D02*
X010587Y013396D01*
X010569Y014414D02*
X010505Y014478D01*
X010321Y014554D01*
X010122Y014554D01*
X009939Y014478D01*
X009875Y014414D01*
X009569Y014414D01*
X009505Y014478D01*
X009321Y014554D01*
X009122Y014554D01*
X008939Y014478D01*
X008875Y014414D01*
X008569Y014414D01*
X008505Y014478D01*
X008321Y014554D01*
X008122Y014554D01*
X007939Y014478D01*
X007875Y014414D01*
X007569Y014414D01*
X007505Y014478D01*
X007321Y014554D01*
X007122Y014554D01*
X006939Y014478D01*
X006875Y014414D01*
X006569Y014414D01*
X006505Y014478D01*
X006321Y014554D01*
X006122Y014554D01*
X005939Y014478D01*
X005875Y014414D01*
X005569Y014414D01*
X005505Y014478D01*
X005321Y014554D01*
X005122Y014554D01*
X004939Y014478D01*
X004875Y014414D01*
X004569Y014414D01*
X004505Y014478D01*
X004321Y014554D01*
X004122Y014554D01*
X003939Y014478D01*
X003875Y014414D01*
X003569Y014414D01*
X003505Y014478D01*
X003321Y014554D01*
X003122Y014554D01*
X002939Y014478D01*
X002875Y014414D01*
X002722Y014414D01*
X002722Y014437D01*
X002605Y014554D01*
X002082Y014554D01*
X002082Y015104D01*
X002155Y015104D01*
X002222Y015171D01*
X002289Y015104D01*
X002955Y015104D01*
X003072Y015221D01*
X003072Y015294D01*
X003372Y015294D01*
X003372Y015221D01*
X003489Y015104D01*
X004155Y015104D01*
X004222Y015171D01*
X004289Y015104D01*
X004955Y015104D01*
X005072Y015221D01*
X005072Y015637D01*
X005729Y016294D01*
X014114Y016294D01*
X014434Y015974D01*
X014298Y015838D01*
X014222Y015654D01*
X014222Y015455D01*
X014298Y015271D01*
X014439Y015130D01*
X014622Y015054D01*
X014821Y015054D01*
X015005Y015130D01*
X015146Y015271D01*
X015222Y015455D01*
X015298Y015271D01*
X015439Y015130D01*
X015622Y015054D01*
X015821Y015054D01*
X016005Y015130D01*
X016146Y015271D01*
X016222Y015455D01*
X016298Y015271D01*
X016439Y015130D01*
X016622Y015054D01*
X016821Y015054D01*
X017005Y015130D01*
X017146Y015271D01*
X017222Y015455D01*
X017298Y015271D01*
X017439Y015130D01*
X017622Y015054D01*
X017821Y015054D01*
X018005Y015130D01*
X018146Y015271D01*
X018222Y015455D01*
X018298Y015271D01*
X018439Y015130D01*
X018622Y015054D01*
X018821Y015054D01*
X019005Y015130D01*
X019146Y015271D01*
X019222Y015455D01*
X019298Y015271D01*
X019439Y015130D01*
X019622Y015054D01*
X019821Y015054D01*
X020005Y015130D01*
X020146Y015271D01*
X020222Y015455D01*
X020298Y015271D01*
X020439Y015130D01*
X020622Y015054D01*
X020821Y015054D01*
X021005Y015130D01*
X021146Y015271D01*
X021222Y015455D01*
X021222Y015654D01*
X021146Y015838D01*
X021005Y015978D01*
X020821Y016054D01*
X020622Y016054D01*
X020439Y015978D01*
X020298Y015838D01*
X020222Y015654D01*
X020222Y015455D01*
X020222Y015654D01*
X020146Y015838D01*
X020005Y015978D01*
X019821Y016054D01*
X019622Y016054D01*
X019439Y015978D01*
X019298Y015838D01*
X019222Y015654D01*
X019222Y015455D01*
X019222Y015654D01*
X019146Y015838D01*
X019005Y015978D01*
X018821Y016054D01*
X018622Y016054D01*
X018439Y015978D01*
X018298Y015838D01*
X018222Y015654D01*
X018222Y015455D01*
X018222Y015654D01*
X018146Y015838D01*
X018005Y015978D01*
X017821Y016054D01*
X017622Y016054D01*
X017439Y015978D01*
X017298Y015838D01*
X017222Y015654D01*
X017222Y015455D01*
X017222Y015654D01*
X017146Y015838D01*
X017005Y015978D01*
X016821Y016054D01*
X016622Y016054D01*
X016439Y015978D01*
X016298Y015838D01*
X016222Y015654D01*
X016222Y015455D01*
X016222Y015654D01*
X016146Y015838D01*
X016005Y015978D01*
X015982Y015988D01*
X015982Y016253D01*
X015982Y016356D01*
X015942Y016452D01*
X015192Y017202D01*
X015119Y017275D01*
X015023Y017314D01*
X005072Y017314D01*
X005072Y017387D01*
X004955Y017504D01*
X004289Y017504D01*
X004222Y017437D01*
X004155Y017504D01*
X004100Y017504D01*
X004425Y017861D01*
X004459Y017896D01*
X004462Y017902D01*
X004466Y017907D01*
X004483Y017953D01*
X004502Y017999D01*
X004502Y018006D01*
X004504Y018012D01*
X004502Y018061D01*
X004502Y018129D01*
X004505Y018130D01*
X004646Y018271D01*
X004722Y018455D01*
X004722Y018654D01*
X004647Y018834D01*
X005130Y019317D01*
X005209Y019396D01*
X005252Y019499D01*
X005252Y019554D01*
X005355Y019554D01*
X005472Y019671D01*
X005472Y020337D01*
X005390Y020418D01*
X005452Y020480D01*
X005452Y020759D01*
X005067Y020759D01*
X005067Y020849D01*
X005452Y020849D01*
X005452Y021129D01*
X005346Y021234D01*
X005067Y021234D01*
X005067Y020850D01*
X004977Y020850D01*
X004977Y021234D01*
X004697Y021234D01*
X004592Y021129D01*
X004592Y020849D01*
X004976Y020849D01*
X004976Y020759D01*
X004592Y020759D01*
X004592Y020480D01*
X004653Y020418D01*
X004572Y020337D01*
X004572Y019671D01*
X004632Y019611D01*
X004043Y019021D01*
X003939Y018978D01*
X003798Y018838D01*
X003722Y018654D01*
X003722Y018455D01*
X003798Y018271D01*
X003925Y018144D01*
X003598Y017784D01*
X002322Y017784D01*
X002322Y018076D01*
X002494Y018147D01*
X002629Y018282D01*
X002702Y018459D01*
X002702Y018534D01*
X002322Y018534D01*
X002322Y018574D01*
X002702Y018574D01*
X002702Y018650D01*
X002629Y018826D01*
X002494Y018961D01*
X002322Y019032D01*
X002322Y021294D01*
X021722Y021294D01*
X021837Y021285D01*
X022058Y021214D01*
X022245Y021078D01*
X022381Y020890D01*
X022453Y020670D01*
X022462Y020554D01*
X022462Y020513D01*
X022462Y020503D01*
X022462Y016503D01*
X022501Y016407D01*
X022574Y016334D01*
X023462Y015447D01*
X023462Y014094D01*
X023439Y014150D01*
X023267Y014321D01*
X023043Y014414D01*
X022993Y014414D01*
X022922Y014414D01*
X022922Y014414D01*
X022850Y014414D01*
X022569Y014414D01*
X022505Y014478D01*
X022321Y014554D01*
X022122Y014554D01*
X021939Y014478D01*
X021875Y014414D01*
X021569Y014414D01*
X021505Y014478D01*
X021321Y014554D01*
X021122Y014554D01*
X020939Y014478D01*
X020875Y014414D01*
X020569Y014414D01*
X020505Y014478D01*
X020321Y014554D01*
X020122Y014554D01*
X019939Y014478D01*
X019875Y014414D01*
X019569Y014414D01*
X019505Y014478D01*
X019321Y014554D01*
X019122Y014554D01*
X018939Y014478D01*
X018875Y014414D01*
X018569Y014414D01*
X018505Y014478D01*
X018321Y014554D01*
X018122Y014554D01*
X017939Y014478D01*
X017875Y014414D01*
X017569Y014414D01*
X017505Y014478D01*
X017321Y014554D01*
X017122Y014554D01*
X016939Y014478D01*
X016875Y014414D01*
X016569Y014414D01*
X016505Y014478D01*
X016321Y014554D01*
X016122Y014554D01*
X015939Y014478D01*
X015875Y014414D01*
X015569Y014414D01*
X015505Y014478D01*
X015321Y014554D01*
X015122Y014554D01*
X014939Y014478D01*
X014875Y014414D01*
X014569Y014414D01*
X014505Y014478D01*
X014321Y014554D01*
X014122Y014554D01*
X013939Y014478D01*
X013875Y014414D01*
X013569Y014414D01*
X013505Y014478D01*
X013321Y014554D01*
X013122Y014554D01*
X012939Y014478D01*
X012875Y014414D01*
X012569Y014414D01*
X012505Y014478D01*
X012321Y014554D01*
X012122Y014554D01*
X011939Y014478D01*
X011875Y014414D01*
X011569Y014414D01*
X011505Y014478D01*
X011321Y014554D01*
X011122Y014554D01*
X010939Y014478D01*
X010875Y014414D01*
X010569Y014414D01*
X010437Y014506D02*
X011006Y014506D01*
X011437Y014506D02*
X012006Y014506D01*
X012437Y014506D02*
X013006Y014506D01*
X013437Y014506D02*
X014006Y014506D01*
X014437Y014506D02*
X015006Y014506D01*
X015437Y014506D02*
X016006Y014506D01*
X016437Y014506D02*
X017006Y014506D01*
X017437Y014506D02*
X018006Y014506D01*
X018437Y014506D02*
X019006Y014506D01*
X019437Y014506D02*
X020006Y014506D01*
X020437Y014506D02*
X021006Y014506D01*
X021437Y014506D02*
X022006Y014506D01*
X022437Y014506D02*
X023462Y014506D01*
X023462Y014348D02*
X023204Y014348D01*
X023267Y014321D02*
X023267Y014321D01*
X023400Y014189D02*
X023462Y014189D01*
X023439Y014150D02*
X023439Y014150D01*
X023043Y014414D02*
X023043Y014414D01*
X022993Y014414D02*
X022993Y014414D01*
X023462Y014665D02*
X002082Y014665D01*
X002082Y014823D02*
X023462Y014823D01*
X023462Y014982D02*
X002082Y014982D01*
X002191Y015140D02*
X002253Y015140D01*
X001562Y014982D02*
X000482Y014982D01*
X000482Y015140D02*
X001453Y015140D01*
X001372Y015299D02*
X000482Y015299D01*
X000482Y015457D02*
X001372Y015457D01*
X001372Y015616D02*
X000482Y015616D01*
X000482Y015774D02*
X001372Y015774D01*
X001418Y015933D02*
X000482Y015933D01*
X000482Y016092D02*
X001562Y016092D01*
X001562Y016250D02*
X000482Y016250D01*
X000482Y016409D02*
X001562Y016409D01*
X001562Y016567D02*
X000482Y016567D01*
X000482Y016726D02*
X001372Y016726D01*
X001372Y016884D02*
X000482Y016884D01*
X000482Y017043D02*
X001372Y017043D01*
X001272Y017104D02*
X001072Y017104D01*
X001022Y017154D01*
X001272Y017104D01*
X001372Y017201D02*
X000482Y017201D01*
X000972Y017254D02*
X001622Y017904D01*
X002322Y017904D01*
X002322Y017804D01*
X001722Y017804D01*
X001472Y017554D01*
X001372Y017554D01*
X001372Y017254D01*
X000972Y017254D01*
X001077Y017360D02*
X001372Y017360D01*
X001372Y017518D02*
X001236Y017518D01*
X001394Y017677D02*
X001594Y017677D01*
X001553Y017836D02*
X002322Y017836D01*
X003644Y017836D01*
X003789Y017994D02*
X002322Y017994D01*
X002499Y018153D02*
X002945Y018153D01*
X002950Y018147D02*
X003126Y018074D01*
X003202Y018074D01*
X003202Y018534D01*
X003242Y018534D01*
X003242Y018574D01*
X003702Y018574D01*
X003702Y018650D01*
X003629Y018826D01*
X003494Y018961D01*
X003317Y019034D01*
X003242Y019034D01*
X003242Y018575D01*
X003202Y018575D01*
X003202Y019034D01*
X003126Y019034D01*
X002950Y018961D01*
X002815Y018826D01*
X002742Y018650D01*
X002742Y018574D01*
X003201Y018574D01*
X003201Y018534D01*
X002742Y018534D01*
X002742Y018459D01*
X002815Y018282D01*
X002950Y018147D01*
X002803Y018311D02*
X002641Y018311D01*
X002702Y018470D02*
X002742Y018470D01*
X002742Y018628D02*
X002702Y018628D01*
X002645Y018787D02*
X002799Y018787D01*
X002934Y018945D02*
X002509Y018945D01*
X002322Y019104D02*
X004125Y019104D01*
X004284Y019262D02*
X002322Y019262D01*
X002322Y019421D02*
X004442Y019421D01*
X004601Y019580D02*
X002322Y019580D01*
X002322Y019738D02*
X004572Y019738D01*
X004572Y019897D02*
X002322Y019897D01*
X002322Y020055D02*
X004572Y020055D01*
X004572Y020214D02*
X002322Y020214D01*
X002322Y020372D02*
X004607Y020372D01*
X004592Y020531D02*
X002322Y020531D01*
X002322Y020689D02*
X004592Y020689D01*
X004592Y021006D02*
X002322Y021006D01*
X002322Y020848D02*
X004976Y020848D01*
X005067Y020848D02*
X005708Y020848D01*
X005698Y020838D02*
X005622Y020654D01*
X005622Y020455D01*
X005698Y020271D01*
X005839Y020130D01*
X006022Y020054D01*
X006221Y020054D01*
X006405Y020130D01*
X006546Y020271D01*
X006622Y020455D01*
X006622Y020654D01*
X006546Y020838D01*
X006405Y020978D01*
X006221Y021054D01*
X006022Y021054D01*
X005839Y020978D01*
X005698Y020838D01*
X005636Y020689D02*
X005452Y020689D01*
X005452Y020531D02*
X005622Y020531D01*
X005656Y020372D02*
X005437Y020372D01*
X005472Y020214D02*
X005755Y020214D01*
X006020Y020055D02*
X005472Y020055D01*
X005472Y019897D02*
X012842Y019897D01*
X012842Y020054D02*
X012842Y019499D01*
X012884Y019396D01*
X012963Y019317D01*
X013066Y019274D01*
X013177Y019274D01*
X018772Y019274D01*
X018772Y018621D01*
X018839Y018554D01*
X018772Y018487D01*
X018772Y018100D01*
X018506Y017834D01*
X015838Y017834D01*
X015523Y018149D01*
X015646Y018271D01*
X015722Y018455D01*
X015798Y018271D01*
X015939Y018130D01*
X016122Y018054D01*
X016321Y018054D01*
X016505Y018130D01*
X016646Y018271D01*
X016722Y018455D01*
X016722Y018654D01*
X016646Y018838D01*
X016505Y018978D01*
X016321Y019054D01*
X016122Y019054D01*
X015939Y018978D01*
X015798Y018838D01*
X015722Y018654D01*
X015722Y018455D01*
X015722Y018654D01*
X015646Y018838D01*
X015505Y018978D01*
X015321Y019054D01*
X015122Y019054D01*
X014939Y018978D01*
X014798Y018838D01*
X014722Y018654D01*
X014722Y018455D01*
X014798Y018271D01*
X014939Y018130D01*
X014942Y018129D01*
X014942Y018110D01*
X014942Y017999D01*
X014984Y017896D01*
X015484Y017396D01*
X015563Y017317D01*
X015666Y017274D01*
X018566Y017274D01*
X018677Y017274D01*
X018780Y017317D01*
X019168Y017704D01*
X019555Y017704D01*
X019672Y017821D01*
X019672Y018487D01*
X019605Y018554D01*
X019672Y018621D01*
X019672Y019287D01*
X019555Y019404D01*
X019483Y019404D01*
X019459Y019463D01*
X019209Y019713D01*
X019130Y019792D01*
X019027Y019834D01*
X013402Y019834D01*
X013402Y020054D01*
X013505Y020054D01*
X013622Y020171D01*
X013622Y020937D01*
X013505Y021054D01*
X012739Y021054D01*
X012622Y020937D01*
X012622Y020171D01*
X012739Y020054D01*
X012842Y020054D01*
X012738Y020055D02*
X012223Y020055D01*
X012221Y020054D02*
X012405Y020130D01*
X012546Y020271D01*
X012622Y020455D01*
X012622Y020654D01*
X012546Y020838D01*
X012405Y020978D01*
X012221Y021054D01*
X012022Y021054D01*
X011839Y020978D01*
X011698Y020838D01*
X011622Y020654D01*
X011622Y020455D01*
X011698Y020271D01*
X011839Y020130D01*
X012022Y020054D01*
X012221Y020054D01*
X012020Y020055D02*
X011223Y020055D01*
X011221Y020054D02*
X011405Y020130D01*
X011546Y020271D01*
X011622Y020455D01*
X011622Y020654D01*
X011546Y020838D01*
X011405Y020978D01*
X011221Y021054D01*
X011022Y021054D01*
X010839Y020978D01*
X010698Y020838D01*
X010622Y020654D01*
X010622Y020455D01*
X010698Y020271D01*
X010839Y020130D01*
X011022Y020054D01*
X011221Y020054D01*
X011020Y020055D02*
X010223Y020055D01*
X010221Y020054D02*
X010405Y020130D01*
X010546Y020271D01*
X010622Y020455D01*
X010622Y020654D01*
X010546Y020838D01*
X010405Y020978D01*
X010221Y021054D01*
X010022Y021054D01*
X009839Y020978D01*
X009698Y020838D01*
X009622Y020654D01*
X009622Y020455D01*
X009698Y020271D01*
X009839Y020130D01*
X010022Y020054D01*
X010221Y020054D01*
X010020Y020055D02*
X009223Y020055D01*
X009221Y020054D02*
X009405Y020130D01*
X009546Y020271D01*
X009622Y020455D01*
X009622Y020654D01*
X009546Y020838D01*
X009405Y020978D01*
X009221Y021054D01*
X009022Y021054D01*
X008839Y020978D01*
X008698Y020838D01*
X008622Y020654D01*
X008622Y020455D01*
X008698Y020271D01*
X008839Y020130D01*
X009022Y020054D01*
X009221Y020054D01*
X009020Y020055D02*
X008223Y020055D01*
X008221Y020054D02*
X008405Y020130D01*
X008546Y020271D01*
X008622Y020455D01*
X008622Y020654D01*
X008546Y020838D01*
X008405Y020978D01*
X008221Y021054D01*
X008022Y021054D01*
X007839Y020978D01*
X007698Y020838D01*
X007622Y020654D01*
X007622Y020455D01*
X007698Y020271D01*
X007839Y020130D01*
X008022Y020054D01*
X008221Y020054D01*
X008020Y020055D02*
X006223Y020055D01*
X006488Y020214D02*
X006784Y020214D01*
X006850Y020147D02*
X007026Y020074D01*
X007102Y020074D01*
X007102Y020534D01*
X007142Y020534D01*
X007142Y020574D01*
X007602Y020574D01*
X007602Y020650D01*
X007529Y020826D01*
X007394Y020961D01*
X007217Y021034D01*
X007142Y021034D01*
X007142Y020575D01*
X007102Y020575D01*
X007102Y021034D01*
X007026Y021034D01*
X006850Y020961D01*
X006715Y020826D01*
X006642Y020650D01*
X006642Y020574D01*
X007101Y020574D01*
X007101Y020534D01*
X006642Y020534D01*
X006642Y020459D01*
X006715Y020282D01*
X006850Y020147D01*
X007102Y020214D02*
X007142Y020214D01*
X007142Y020074D02*
X007217Y020074D01*
X007394Y020147D01*
X007529Y020282D01*
X007602Y020459D01*
X007602Y020534D01*
X007142Y020534D01*
X007142Y020074D01*
X007142Y020372D02*
X007102Y020372D01*
X007102Y020531D02*
X007142Y020531D01*
X007142Y020689D02*
X007102Y020689D01*
X007102Y020848D02*
X007142Y020848D01*
X007142Y021006D02*
X007102Y021006D01*
X006959Y021006D02*
X006337Y021006D01*
X006535Y020848D02*
X006736Y020848D01*
X006658Y020689D02*
X006607Y020689D01*
X006622Y020531D02*
X006642Y020531D01*
X006678Y020372D02*
X006587Y020372D01*
X005907Y021006D02*
X005452Y021006D01*
X005416Y021165D02*
X022125Y021165D01*
X022105Y021054D02*
X021339Y021054D01*
X021222Y020937D01*
X021222Y020171D01*
X021339Y020054D01*
X021442Y020054D01*
X021442Y019920D01*
X021276Y019754D01*
X020889Y019754D01*
X020772Y019637D01*
X020772Y018971D01*
X020853Y018890D01*
X020792Y018829D01*
X020792Y018549D01*
X021176Y018549D01*
X021176Y018459D01*
X020792Y018459D01*
X020792Y018180D01*
X020897Y018074D01*
X021177Y018074D01*
X021177Y018459D01*
X021267Y018459D01*
X021267Y018549D01*
X021652Y018549D01*
X021652Y018829D01*
X021590Y018890D01*
X021672Y018971D01*
X021672Y019358D01*
X021880Y019567D01*
X021959Y019646D01*
X022002Y019749D01*
X022002Y020054D01*
X022105Y020054D01*
X022222Y020171D01*
X022222Y020937D01*
X022105Y021054D01*
X022152Y021006D02*
X022297Y021006D01*
X022222Y020848D02*
X022395Y020848D01*
X022446Y020689D02*
X022222Y020689D01*
X022222Y020531D02*
X022462Y020531D01*
X022462Y020372D02*
X022222Y020372D01*
X022222Y020214D02*
X022462Y020214D01*
X022462Y020055D02*
X022105Y020055D01*
X022002Y019897D02*
X022462Y019897D01*
X022462Y019738D02*
X021997Y019738D01*
X021893Y019580D02*
X022462Y019580D01*
X022462Y019421D02*
X021734Y019421D01*
X021672Y019262D02*
X022462Y019262D01*
X022462Y019104D02*
X021672Y019104D01*
X021646Y018945D02*
X022462Y018945D01*
X022462Y018787D02*
X021652Y018787D01*
X021652Y018628D02*
X022462Y018628D01*
X022462Y018470D02*
X021267Y018470D01*
X021267Y018459D02*
X021652Y018459D01*
X021652Y018180D01*
X021546Y018074D01*
X021267Y018074D01*
X021267Y018459D01*
X021176Y018470D02*
X019672Y018470D01*
X019672Y018628D02*
X020792Y018628D01*
X020792Y018787D02*
X019672Y018787D01*
X019672Y018945D02*
X020798Y018945D01*
X020772Y019104D02*
X019672Y019104D01*
X019672Y019262D02*
X020772Y019262D01*
X020772Y019421D02*
X019476Y019421D01*
X019342Y019580D02*
X020772Y019580D01*
X020873Y019738D02*
X019184Y019738D01*
X018972Y019554D02*
X013122Y019554D01*
X013122Y020554D01*
X013622Y020531D02*
X014222Y020531D01*
X014222Y020455D02*
X014298Y020271D01*
X014439Y020130D01*
X014622Y020054D01*
X014821Y020054D01*
X015005Y020130D01*
X015146Y020271D01*
X015222Y020455D01*
X015298Y020271D01*
X015439Y020130D01*
X015622Y020054D01*
X015821Y020054D01*
X016005Y020130D01*
X016146Y020271D01*
X016222Y020455D01*
X016298Y020271D01*
X016439Y020130D01*
X016622Y020054D01*
X016821Y020054D01*
X017005Y020130D01*
X017146Y020271D01*
X017222Y020455D01*
X017298Y020271D01*
X017439Y020130D01*
X017622Y020054D01*
X017821Y020054D01*
X018005Y020130D01*
X018146Y020271D01*
X018222Y020455D01*
X018298Y020271D01*
X018439Y020130D01*
X018622Y020054D01*
X018821Y020054D01*
X019005Y020130D01*
X019146Y020271D01*
X019222Y020455D01*
X019298Y020271D01*
X019439Y020130D01*
X019622Y020054D01*
X019821Y020054D01*
X020005Y020130D01*
X020146Y020271D01*
X020222Y020455D01*
X020298Y020271D01*
X020439Y020130D01*
X020622Y020054D01*
X020821Y020054D01*
X021005Y020130D01*
X021146Y020271D01*
X021222Y020455D01*
X021222Y020654D01*
X021146Y020838D01*
X021005Y020978D01*
X020821Y021054D01*
X020622Y021054D01*
X020439Y020978D01*
X020298Y020838D01*
X020222Y020654D01*
X020222Y020455D01*
X020222Y020654D01*
X020146Y020838D01*
X020005Y020978D01*
X019821Y021054D01*
X019622Y021054D01*
X019439Y020978D01*
X019298Y020838D01*
X019222Y020654D01*
X019222Y020455D01*
X019222Y020654D01*
X019146Y020838D01*
X019005Y020978D01*
X018821Y021054D01*
X018622Y021054D01*
X018439Y020978D01*
X018298Y020838D01*
X018222Y020654D01*
X018222Y020455D01*
X018222Y020654D01*
X018146Y020838D01*
X018005Y020978D01*
X017821Y021054D01*
X017622Y021054D01*
X017439Y020978D01*
X017298Y020838D01*
X017222Y020654D01*
X017222Y020455D01*
X017222Y020654D01*
X017146Y020838D01*
X017005Y020978D01*
X016821Y021054D01*
X016622Y021054D01*
X016439Y020978D01*
X016298Y020838D01*
X016222Y020654D01*
X016222Y020455D01*
X016222Y020654D01*
X016146Y020838D01*
X016005Y020978D01*
X015821Y021054D01*
X015622Y021054D01*
X015439Y020978D01*
X015298Y020838D01*
X015222Y020654D01*
X015222Y020455D01*
X015222Y020654D01*
X015146Y020838D01*
X015005Y020978D01*
X014821Y021054D01*
X014622Y021054D01*
X014439Y020978D01*
X014298Y020838D01*
X014222Y020654D01*
X014222Y020455D01*
X014256Y020372D02*
X013622Y020372D01*
X013622Y020214D02*
X014355Y020214D01*
X014620Y020055D02*
X013505Y020055D01*
X013402Y019897D02*
X021418Y019897D01*
X021338Y020055D02*
X020823Y020055D01*
X020620Y020055D02*
X019823Y020055D01*
X019620Y020055D02*
X018823Y020055D01*
X018620Y020055D02*
X017823Y020055D01*
X017620Y020055D02*
X016823Y020055D01*
X016620Y020055D02*
X015823Y020055D01*
X015620Y020055D02*
X014823Y020055D01*
X015088Y020214D02*
X015355Y020214D01*
X015256Y020372D02*
X015187Y020372D01*
X015222Y020531D02*
X015222Y020531D01*
X015207Y020689D02*
X015236Y020689D01*
X015308Y020848D02*
X015135Y020848D01*
X014937Y021006D02*
X015507Y021006D01*
X015937Y021006D02*
X016507Y021006D01*
X016308Y020848D02*
X016135Y020848D01*
X016207Y020689D02*
X016236Y020689D01*
X016222Y020531D02*
X016222Y020531D01*
X016187Y020372D02*
X016256Y020372D01*
X016355Y020214D02*
X016088Y020214D01*
X016937Y021006D02*
X017507Y021006D01*
X017308Y020848D02*
X017135Y020848D01*
X017207Y020689D02*
X017236Y020689D01*
X017222Y020531D02*
X017222Y020531D01*
X017187Y020372D02*
X017256Y020372D01*
X017355Y020214D02*
X017088Y020214D01*
X018088Y020214D02*
X018355Y020214D01*
X018256Y020372D02*
X018187Y020372D01*
X018222Y020531D02*
X018222Y020531D01*
X018207Y020689D02*
X018236Y020689D01*
X018308Y020848D02*
X018135Y020848D01*
X017937Y021006D02*
X018507Y021006D01*
X018937Y021006D02*
X019507Y021006D01*
X019308Y020848D02*
X019135Y020848D01*
X019207Y020689D02*
X019236Y020689D01*
X019222Y020531D02*
X019222Y020531D01*
X019187Y020372D02*
X019256Y020372D01*
X019355Y020214D02*
X019088Y020214D01*
X018972Y019554D02*
X019222Y019304D01*
X019222Y018954D01*
X018772Y018945D02*
X017509Y018945D01*
X017494Y018961D02*
X017317Y019034D01*
X017242Y019034D01*
X017242Y018575D01*
X017202Y018575D01*
X017202Y019034D01*
X017126Y019034D01*
X016950Y018961D01*
X016815Y018826D01*
X016742Y018650D01*
X016742Y018574D01*
X017201Y018574D01*
X017201Y018534D01*
X016742Y018534D01*
X016742Y018459D01*
X016815Y018282D01*
X016950Y018147D01*
X017126Y018074D01*
X017202Y018074D01*
X017202Y018534D01*
X017242Y018534D01*
X017242Y018574D01*
X017702Y018574D01*
X017702Y018650D01*
X017629Y018826D01*
X017494Y018961D01*
X017645Y018787D02*
X018772Y018787D01*
X018772Y018628D02*
X017702Y018628D01*
X017702Y018534D02*
X017242Y018534D01*
X017242Y018074D01*
X017317Y018074D01*
X017494Y018147D01*
X017629Y018282D01*
X017702Y018459D01*
X017702Y018534D01*
X017702Y018470D02*
X018772Y018470D01*
X018772Y018311D02*
X017641Y018311D01*
X017499Y018153D02*
X018772Y018153D01*
X018666Y017994D02*
X015678Y017994D01*
X015527Y018153D02*
X015916Y018153D01*
X015781Y018311D02*
X015662Y018311D01*
X015722Y018470D02*
X015722Y018470D01*
X015722Y018628D02*
X015722Y018628D01*
X015667Y018787D02*
X015777Y018787D01*
X015906Y018945D02*
X015538Y018945D01*
X015222Y018554D02*
X015222Y018054D01*
X015722Y017554D01*
X018622Y017554D01*
X019222Y018154D01*
X019672Y018153D02*
X020819Y018153D01*
X020792Y018311D02*
X019672Y018311D01*
X019672Y017994D02*
X022462Y017994D01*
X022462Y017836D02*
X019672Y017836D01*
X019140Y017677D02*
X022462Y017677D01*
X022462Y017518D02*
X018982Y017518D01*
X018823Y017360D02*
X022462Y017360D01*
X022462Y017201D02*
X015192Y017201D01*
X015351Y017043D02*
X022462Y017043D01*
X022462Y016884D02*
X015509Y016884D01*
X015668Y016726D02*
X022462Y016726D01*
X022462Y016567D02*
X015826Y016567D01*
X015960Y016409D02*
X022501Y016409D01*
X022658Y016250D02*
X015982Y016250D01*
X015982Y016092D02*
X022817Y016092D01*
X022975Y015933D02*
X022222Y015933D01*
X022222Y015937D02*
X022105Y016054D01*
X021339Y016054D01*
X021222Y015937D01*
X021222Y015171D01*
X021339Y015054D01*
X022105Y015054D01*
X022222Y015171D01*
X022222Y015937D01*
X022222Y015774D02*
X023134Y015774D01*
X023292Y015616D02*
X022222Y015616D01*
X022222Y015457D02*
X023451Y015457D01*
X023462Y015299D02*
X022222Y015299D01*
X022191Y015140D02*
X023462Y015140D01*
X021253Y015140D02*
X021015Y015140D01*
X021157Y015299D02*
X021222Y015299D01*
X021222Y015457D02*
X021222Y015457D01*
X021222Y015616D02*
X021222Y015616D01*
X021222Y015774D02*
X021172Y015774D01*
X021222Y015933D02*
X021050Y015933D01*
X020393Y015933D02*
X020050Y015933D01*
X020172Y015774D02*
X020272Y015774D01*
X020222Y015616D02*
X020222Y015616D01*
X020222Y015457D02*
X020222Y015457D01*
X020157Y015299D02*
X020286Y015299D01*
X020429Y015140D02*
X020015Y015140D01*
X019429Y015140D02*
X019015Y015140D01*
X019157Y015299D02*
X019286Y015299D01*
X019222Y015457D02*
X019222Y015457D01*
X019222Y015616D02*
X019222Y015616D01*
X019172Y015774D02*
X019272Y015774D01*
X019393Y015933D02*
X019050Y015933D01*
X018393Y015933D02*
X018050Y015933D01*
X018172Y015774D02*
X018272Y015774D01*
X018222Y015616D02*
X018222Y015616D01*
X018222Y015457D02*
X018222Y015457D01*
X018157Y015299D02*
X018286Y015299D01*
X018429Y015140D02*
X018015Y015140D01*
X017429Y015140D02*
X017015Y015140D01*
X017157Y015299D02*
X017286Y015299D01*
X017222Y015457D02*
X017222Y015457D01*
X017222Y015616D02*
X017222Y015616D01*
X017172Y015774D02*
X017272Y015774D01*
X017393Y015933D02*
X017050Y015933D01*
X016393Y015933D02*
X016050Y015933D01*
X016172Y015774D02*
X016272Y015774D01*
X016222Y015616D02*
X016222Y015616D01*
X016222Y015457D02*
X016222Y015457D01*
X016157Y015299D02*
X016286Y015299D01*
X016429Y015140D02*
X016015Y015140D01*
X015429Y015140D02*
X015015Y015140D01*
X015157Y015299D02*
X015286Y015299D01*
X015222Y015455D02*
X015222Y015654D01*
X015298Y015838D01*
X015439Y015978D01*
X015462Y015988D01*
X015462Y016197D01*
X014864Y016794D01*
X014322Y016794D01*
X014369Y016775D01*
X014442Y016702D01*
X014942Y016202D01*
X014982Y016106D01*
X014982Y016003D01*
X014982Y015988D01*
X015005Y015978D01*
X015146Y015838D01*
X015222Y015654D01*
X015222Y015455D01*
X015222Y015457D02*
X015222Y015457D01*
X015222Y015616D02*
X015222Y015616D01*
X015172Y015774D02*
X015272Y015774D01*
X015393Y015933D02*
X015050Y015933D01*
X014982Y016092D02*
X015462Y016092D01*
X015408Y016250D02*
X014894Y016250D01*
X014735Y016409D02*
X015250Y016409D01*
X015091Y016567D02*
X014576Y016567D01*
X014418Y016726D02*
X014933Y016726D01*
X015520Y017360D02*
X005072Y017360D01*
X004401Y017836D02*
X015045Y017836D01*
X014944Y017994D02*
X004500Y017994D01*
X004527Y018153D02*
X013916Y018153D01*
X013939Y018130D02*
X014122Y018054D01*
X014321Y018054D01*
X014505Y018130D01*
X014646Y018271D01*
X014722Y018455D01*
X014722Y018654D01*
X014646Y018838D01*
X014505Y018978D01*
X014321Y019054D01*
X014122Y019054D01*
X013939Y018978D01*
X013798Y018838D01*
X013722Y018654D01*
X013722Y018455D01*
X013798Y018271D01*
X013939Y018130D01*
X013781Y018311D02*
X004662Y018311D01*
X004722Y018470D02*
X013722Y018470D01*
X013722Y018628D02*
X004722Y018628D01*
X004667Y018787D02*
X013777Y018787D01*
X013906Y018945D02*
X004759Y018945D01*
X004917Y019104D02*
X018772Y019104D01*
X018772Y019262D02*
X005076Y019262D01*
X005219Y019421D02*
X012874Y019421D01*
X012842Y019580D02*
X005380Y019580D01*
X005472Y019738D02*
X012842Y019738D01*
X012622Y020214D02*
X012488Y020214D01*
X012587Y020372D02*
X012622Y020372D01*
X012622Y020531D02*
X012622Y020531D01*
X012607Y020689D02*
X012622Y020689D01*
X012622Y020848D02*
X012535Y020848D01*
X012691Y021006D02*
X012337Y021006D01*
X011907Y021006D02*
X011337Y021006D01*
X011535Y020848D02*
X011708Y020848D01*
X011636Y020689D02*
X011607Y020689D01*
X011622Y020531D02*
X011622Y020531D01*
X011587Y020372D02*
X011656Y020372D01*
X011755Y020214D02*
X011488Y020214D01*
X010755Y020214D02*
X010488Y020214D01*
X010587Y020372D02*
X010656Y020372D01*
X010622Y020531D02*
X010622Y020531D01*
X010607Y020689D02*
X010636Y020689D01*
X010708Y020848D02*
X010535Y020848D01*
X010337Y021006D02*
X010907Y021006D01*
X009907Y021006D02*
X009337Y021006D01*
X009535Y020848D02*
X009708Y020848D01*
X009636Y020689D02*
X009607Y020689D01*
X009622Y020531D02*
X009622Y020531D01*
X009587Y020372D02*
X009656Y020372D01*
X009755Y020214D02*
X009488Y020214D01*
X008755Y020214D02*
X008488Y020214D01*
X008587Y020372D02*
X008656Y020372D01*
X008622Y020531D02*
X008622Y020531D01*
X008607Y020689D02*
X008636Y020689D01*
X008708Y020848D02*
X008535Y020848D01*
X008337Y021006D02*
X008907Y021006D01*
X007907Y021006D02*
X007285Y021006D01*
X007507Y020848D02*
X007708Y020848D01*
X007636Y020689D02*
X007585Y020689D01*
X007602Y020531D02*
X007622Y020531D01*
X007656Y020372D02*
X007566Y020372D01*
X007460Y020214D02*
X007755Y020214D01*
X005022Y020004D02*
X004972Y019954D01*
X004972Y019554D01*
X004222Y018804D01*
X004222Y018554D01*
X004222Y018054D01*
X003722Y017504D01*
X001822Y017504D01*
X001822Y017054D01*
X003202Y018153D02*
X003242Y018153D01*
X003242Y018074D02*
X003317Y018074D01*
X003494Y018147D01*
X003629Y018282D01*
X003702Y018459D01*
X003702Y018534D01*
X003242Y018534D01*
X003242Y018074D01*
X003242Y018311D02*
X003202Y018311D01*
X003202Y018470D02*
X003242Y018470D01*
X003242Y018628D02*
X003202Y018628D01*
X003202Y018787D02*
X003242Y018787D01*
X003242Y018945D02*
X003202Y018945D01*
X003509Y018945D02*
X003906Y018945D01*
X003777Y018787D02*
X003645Y018787D01*
X003702Y018628D02*
X003722Y018628D01*
X003722Y018470D02*
X003702Y018470D01*
X003641Y018311D02*
X003781Y018311D01*
X003916Y018153D02*
X003499Y018153D01*
X004113Y017518D02*
X015362Y017518D01*
X015203Y017677D02*
X004257Y017677D01*
X005685Y016250D02*
X014158Y016250D01*
X014317Y016092D02*
X005527Y016092D01*
X005368Y015933D02*
X005793Y015933D01*
X005839Y015978D02*
X005698Y015838D01*
X005622Y015654D01*
X005622Y015455D01*
X005698Y015271D01*
X005839Y015130D01*
X006022Y015054D01*
X006221Y015054D01*
X006405Y015130D01*
X006546Y015271D01*
X006622Y015455D01*
X006622Y015654D01*
X006546Y015838D01*
X006405Y015978D01*
X006221Y016054D01*
X006022Y016054D01*
X005839Y015978D01*
X005672Y015774D02*
X005210Y015774D01*
X005072Y015616D02*
X005622Y015616D01*
X005622Y015457D02*
X005072Y015457D01*
X005072Y015299D02*
X005686Y015299D01*
X005829Y015140D02*
X004991Y015140D01*
X005006Y014506D02*
X004437Y014506D01*
X004006Y014506D02*
X003437Y014506D01*
X003006Y014506D02*
X002653Y014506D01*
X002991Y015140D02*
X003453Y015140D01*
X004191Y015140D02*
X004253Y015140D01*
X005437Y014506D02*
X006006Y014506D01*
X006437Y014506D02*
X007006Y014506D01*
X007437Y014506D02*
X008006Y014506D01*
X008437Y014506D02*
X009006Y014506D01*
X009437Y014506D02*
X010006Y014506D01*
X010022Y015054D02*
X009839Y015130D01*
X009698Y015271D01*
X009622Y015455D01*
X009546Y015271D01*
X009405Y015130D01*
X009221Y015054D01*
X009022Y015054D01*
X008839Y015130D01*
X008698Y015271D01*
X008622Y015455D01*
X008546Y015271D01*
X008405Y015130D01*
X008221Y015054D01*
X008022Y015054D01*
X007839Y015130D01*
X007698Y015271D01*
X007622Y015455D01*
X007622Y015654D01*
X007698Y015838D01*
X007839Y015978D01*
X008022Y016054D01*
X008221Y016054D01*
X008405Y015978D01*
X008546Y015838D01*
X008622Y015654D01*
X008622Y015455D01*
X008622Y015654D01*
X008698Y015838D01*
X008839Y015978D01*
X009022Y016054D01*
X009221Y016054D01*
X009405Y015978D01*
X009546Y015838D01*
X009622Y015654D01*
X009622Y015455D01*
X009622Y015654D01*
X009698Y015838D01*
X009839Y015978D01*
X010022Y016054D01*
X010221Y016054D01*
X010405Y015978D01*
X010546Y015838D01*
X010622Y015654D01*
X010622Y015455D01*
X010546Y015271D01*
X010405Y015130D01*
X010221Y015054D01*
X010022Y015054D01*
X009829Y015140D02*
X009415Y015140D01*
X009557Y015299D02*
X009686Y015299D01*
X009622Y015457D02*
X009622Y015457D01*
X009622Y015616D02*
X009622Y015616D01*
X009572Y015774D02*
X009672Y015774D01*
X009793Y015933D02*
X009450Y015933D01*
X008793Y015933D02*
X008450Y015933D01*
X008572Y015774D02*
X008672Y015774D01*
X008622Y015616D02*
X008622Y015616D01*
X008622Y015457D02*
X008622Y015457D01*
X008557Y015299D02*
X008686Y015299D01*
X008829Y015140D02*
X008415Y015140D01*
X007829Y015140D02*
X007376Y015140D01*
X007394Y015147D02*
X007529Y015282D01*
X007602Y015459D01*
X007602Y015534D01*
X007142Y015534D01*
X007142Y015574D01*
X007602Y015574D01*
X007602Y015650D01*
X007529Y015826D01*
X007394Y015961D01*
X007217Y016034D01*
X007142Y016034D01*
X007142Y015575D01*
X007102Y015575D01*
X007102Y016034D01*
X007026Y016034D01*
X006850Y015961D01*
X006715Y015826D01*
X006642Y015650D01*
X006642Y015574D01*
X007101Y015574D01*
X007101Y015534D01*
X006642Y015534D01*
X006642Y015459D01*
X006715Y015282D01*
X006850Y015147D01*
X007026Y015074D01*
X007102Y015074D01*
X007102Y015534D01*
X007142Y015534D01*
X007142Y015074D01*
X007217Y015074D01*
X007394Y015147D01*
X007535Y015299D02*
X007686Y015299D01*
X007622Y015457D02*
X007601Y015457D01*
X007602Y015616D02*
X007622Y015616D01*
X007672Y015774D02*
X007550Y015774D01*
X007422Y015933D02*
X007793Y015933D01*
X007142Y015933D02*
X007102Y015933D01*
X007102Y015774D02*
X007142Y015774D01*
X007142Y015616D02*
X007102Y015616D01*
X007102Y015457D02*
X007142Y015457D01*
X007142Y015299D02*
X007102Y015299D01*
X007102Y015140D02*
X007142Y015140D01*
X006867Y015140D02*
X006415Y015140D01*
X006557Y015299D02*
X006708Y015299D01*
X006642Y015457D02*
X006622Y015457D01*
X006622Y015616D02*
X006642Y015616D01*
X006693Y015774D02*
X006572Y015774D01*
X006450Y015933D02*
X006822Y015933D01*
X007121Y013555D02*
X006322Y013555D01*
X006121Y013555D02*
X005322Y013555D01*
X005121Y013555D02*
X004322Y013555D01*
X004121Y013555D02*
X003322Y013555D01*
X003121Y013555D02*
X002605Y013555D01*
X002587Y013396D02*
X002857Y013396D01*
X002757Y013238D02*
X002687Y013238D01*
X002722Y013079D02*
X002722Y013079D01*
X002708Y012921D02*
X002736Y012921D01*
X002807Y012762D02*
X002637Y012762D01*
X002440Y012604D02*
X003003Y012604D01*
X002905Y012445D02*
X002538Y012445D01*
X002667Y012287D02*
X002777Y012287D01*
X002722Y012128D02*
X002722Y012128D01*
X002722Y011969D02*
X002722Y011969D01*
X002781Y011811D02*
X002662Y011811D01*
X002527Y011652D02*
X002917Y011652D01*
X002976Y011494D02*
X002467Y011494D01*
X002647Y011335D02*
X002797Y011335D01*
X002731Y011177D02*
X002712Y011177D01*
X002722Y011018D02*
X002722Y011018D01*
X002682Y010860D02*
X002761Y010860D01*
X002868Y010701D02*
X002576Y010701D01*
X002094Y010543D02*
X001350Y010543D01*
X001094Y010543D02*
X000482Y010543D01*
X000482Y010701D02*
X000868Y010701D01*
X000761Y010860D02*
X000482Y010860D01*
X000482Y011018D02*
X000722Y011018D01*
X000731Y011177D02*
X000482Y011177D01*
X000482Y011335D02*
X000797Y011335D01*
X000976Y011494D02*
X000482Y011494D01*
X000482Y011652D02*
X000917Y011652D01*
X000781Y011811D02*
X000482Y011811D01*
X000482Y011969D02*
X000722Y011969D01*
X000722Y012128D02*
X000482Y012128D01*
X000482Y012287D02*
X000777Y012287D01*
X000905Y012445D02*
X000482Y012445D01*
X000482Y012604D02*
X001003Y012604D01*
X000807Y012762D02*
X000482Y012762D01*
X000482Y012921D02*
X000736Y012921D01*
X000722Y013079D02*
X000482Y013079D01*
X000482Y013238D02*
X000757Y013238D01*
X000857Y013396D02*
X000482Y013396D01*
X000482Y013555D02*
X001121Y013555D01*
X001322Y013555D02*
X001838Y013555D01*
X001857Y013396D02*
X001587Y013396D01*
X001687Y013238D02*
X001757Y013238D01*
X001722Y013079D02*
X001722Y013079D01*
X001708Y012921D02*
X001736Y012921D01*
X001807Y012762D02*
X001637Y012762D01*
X001440Y012604D02*
X002003Y012604D01*
X001905Y012445D02*
X001538Y012445D01*
X001667Y012287D02*
X001777Y012287D01*
X001722Y012128D02*
X001722Y012128D01*
X001722Y011969D02*
X001722Y011969D01*
X001781Y011811D02*
X001662Y011811D01*
X001527Y011652D02*
X001917Y011652D01*
X001976Y011494D02*
X001467Y011494D01*
X001647Y011335D02*
X001797Y011335D01*
X001731Y011177D02*
X001712Y011177D01*
X001722Y011018D02*
X001722Y011018D01*
X001682Y010860D02*
X001761Y010860D01*
X001868Y010701D02*
X001576Y010701D01*
X001599Y010384D02*
X001844Y010384D01*
X001751Y010225D02*
X001692Y010225D01*
X001722Y010067D02*
X001722Y010067D01*
X001702Y009908D02*
X001741Y009908D01*
X001819Y009750D02*
X001624Y009750D01*
X001410Y009591D02*
X002033Y009591D01*
X001893Y009433D02*
X001550Y009433D01*
X001672Y009274D02*
X001772Y009274D01*
X001722Y009116D02*
X001722Y009116D01*
X001722Y008957D02*
X001722Y008957D01*
X001657Y008799D02*
X001786Y008799D01*
X001929Y008640D02*
X001515Y008640D01*
X001497Y008481D02*
X001946Y008481D01*
X001792Y008323D02*
X001652Y008323D01*
X001717Y008164D02*
X001726Y008164D01*
X001722Y008006D02*
X001722Y008006D01*
X001766Y007847D02*
X001677Y007847D01*
X001563Y007689D02*
X001880Y007689D01*
X002064Y007530D02*
X001379Y007530D01*
X001611Y007372D02*
X001832Y007372D01*
X001746Y007213D02*
X001697Y007213D01*
X001722Y007055D02*
X001722Y007055D01*
X001697Y006896D02*
X001746Y006896D01*
X001831Y006738D02*
X001612Y006738D01*
X001381Y006579D02*
X002063Y006579D01*
X001881Y006420D02*
X001563Y006420D01*
X001677Y006262D02*
X001767Y006262D01*
X001722Y006103D02*
X001722Y006103D01*
X001718Y005945D02*
X001726Y005945D01*
X001792Y005786D02*
X001652Y005786D01*
X001498Y005628D02*
X001945Y005628D01*
X002202Y005469D02*
X002242Y005469D01*
X002242Y005311D02*
X002202Y005311D01*
X002202Y005152D02*
X002242Y005152D01*
X002242Y004994D02*
X002202Y004994D01*
X002202Y004835D02*
X002242Y004835D01*
X002242Y004676D02*
X002202Y004676D01*
X001785Y004359D02*
X002734Y004359D01*
X002669Y004201D02*
X001853Y004201D01*
X001862Y004042D02*
X002662Y004042D01*
X002704Y003884D02*
X001818Y003884D01*
X001701Y003725D02*
X002814Y003725D01*
X003482Y003567D02*
X004789Y003567D01*
X004724Y003408D02*
X003482Y003408D01*
X003482Y003250D02*
X004722Y003250D01*
X004769Y003091D02*
X003482Y003091D01*
X003482Y002932D02*
X004862Y002932D01*
X004862Y002774D02*
X003482Y002774D01*
X003482Y002615D02*
X004862Y002615D01*
X004791Y002457D02*
X004652Y002457D01*
X004672Y002298D02*
X004772Y002298D01*
X004772Y002140D02*
X004672Y002140D01*
X004762Y001981D02*
X004772Y001981D01*
X005672Y001981D02*
X005772Y001981D01*
X005772Y001823D02*
X005672Y001823D01*
X005645Y001664D02*
X005799Y001664D01*
X005772Y001506D02*
X005672Y001506D01*
X005672Y001347D02*
X005772Y001347D01*
X005772Y001189D02*
X005672Y001189D01*
X005672Y002140D02*
X005772Y002140D01*
X005772Y002298D02*
X005672Y002298D01*
X005652Y002457D02*
X005791Y002457D01*
X004936Y003725D02*
X003510Y003725D01*
X003620Y003884D02*
X009344Y003884D01*
X009523Y004676D02*
X009921Y004676D01*
X009793Y004835D02*
X009650Y004835D01*
X009702Y004994D02*
X009742Y004994D01*
X009743Y005152D02*
X009701Y005152D01*
X009635Y005311D02*
X009808Y005311D01*
X009242Y005311D02*
X009202Y005311D01*
X009202Y005469D02*
X009242Y005469D01*
X008969Y005469D02*
X008474Y005469D01*
X008498Y005628D02*
X008945Y005628D01*
X008792Y005786D02*
X008652Y005786D01*
X008718Y005945D02*
X008726Y005945D01*
X008722Y006103D02*
X008722Y006103D01*
X008677Y006262D02*
X008767Y006262D01*
X008881Y006420D02*
X008563Y006420D01*
X008381Y006579D02*
X009063Y006579D01*
X008831Y006738D02*
X008612Y006738D01*
X008697Y006896D02*
X008746Y006896D01*
X008722Y007055D02*
X008722Y007055D01*
X008697Y007213D02*
X008746Y007213D01*
X008832Y007372D02*
X008611Y007372D01*
X008379Y007530D02*
X009064Y007530D01*
X008880Y007689D02*
X008563Y007689D01*
X008677Y007847D02*
X008766Y007847D01*
X008722Y008006D02*
X008722Y008006D01*
X008717Y008164D02*
X008726Y008164D01*
X008792Y008323D02*
X008652Y008323D01*
X008497Y008481D02*
X008946Y008481D01*
X008929Y008640D02*
X008515Y008640D01*
X008657Y008799D02*
X008786Y008799D01*
X008722Y008957D02*
X008722Y008957D01*
X008722Y009116D02*
X008722Y009116D01*
X008672Y009274D02*
X008772Y009274D01*
X008893Y009433D02*
X008550Y009433D01*
X008410Y009591D02*
X009033Y009591D01*
X008819Y009750D02*
X008624Y009750D01*
X008702Y009908D02*
X008741Y009908D01*
X008722Y010067D02*
X008722Y010067D01*
X008692Y010225D02*
X008751Y010225D01*
X008844Y010384D02*
X008599Y010384D01*
X008576Y010701D02*
X008868Y010701D01*
X008761Y010860D02*
X008682Y010860D01*
X008722Y011018D02*
X008722Y011018D01*
X008712Y011177D02*
X008731Y011177D01*
X008797Y011335D02*
X008647Y011335D01*
X008467Y011494D02*
X008976Y011494D01*
X008917Y011652D02*
X008527Y011652D01*
X008662Y011811D02*
X008781Y011811D01*
X008722Y011969D02*
X008722Y011969D01*
X008722Y012128D02*
X008722Y012128D01*
X008667Y012287D02*
X008777Y012287D01*
X008905Y012445D02*
X008538Y012445D01*
X008440Y012604D02*
X009003Y012604D01*
X008807Y012762D02*
X008637Y012762D01*
X008708Y012921D02*
X008736Y012921D01*
X008722Y013079D02*
X008722Y013079D01*
X008687Y013238D02*
X008757Y013238D01*
X008857Y013396D02*
X008587Y013396D01*
X008322Y013555D02*
X009121Y013555D01*
X008121Y013555D02*
X007322Y013555D01*
X007587Y013396D02*
X007857Y013396D01*
X007757Y013238D02*
X007687Y013238D01*
X007722Y013079D02*
X007722Y013079D01*
X007708Y012921D02*
X007736Y012921D01*
X007807Y012762D02*
X007637Y012762D01*
X007440Y012604D02*
X008003Y012604D01*
X007905Y012445D02*
X007538Y012445D01*
X007667Y012287D02*
X007777Y012287D01*
X007722Y012128D02*
X007722Y012128D01*
X007722Y011969D02*
X007722Y011969D01*
X007781Y011811D02*
X007662Y011811D01*
X007527Y011652D02*
X007917Y011652D01*
X007976Y011494D02*
X007467Y011494D01*
X007647Y011335D02*
X007797Y011335D01*
X007731Y011177D02*
X007712Y011177D01*
X007722Y011018D02*
X007722Y011018D01*
X007682Y010860D02*
X007761Y010860D01*
X007868Y010701D02*
X007576Y010701D01*
X007599Y010384D02*
X007844Y010384D01*
X007751Y010225D02*
X007692Y010225D01*
X007722Y010067D02*
X007722Y010067D01*
X007702Y009908D02*
X007741Y009908D01*
X007819Y009750D02*
X007624Y009750D01*
X007410Y009591D02*
X008033Y009591D01*
X007893Y009433D02*
X007550Y009433D01*
X007672Y009274D02*
X007772Y009274D01*
X007722Y009116D02*
X007722Y009116D01*
X007722Y008957D02*
X007722Y008957D01*
X007657Y008799D02*
X007786Y008799D01*
X007929Y008640D02*
X007515Y008640D01*
X007497Y008481D02*
X007946Y008481D01*
X007792Y008323D02*
X007652Y008323D01*
X007717Y008164D02*
X007726Y008164D01*
X007722Y008006D02*
X007722Y008006D01*
X007766Y007847D02*
X007677Y007847D01*
X007563Y007689D02*
X007880Y007689D01*
X008064Y007530D02*
X007379Y007530D01*
X007611Y007372D02*
X007832Y007372D01*
X007746Y007213D02*
X007697Y007213D01*
X007722Y007055D02*
X007722Y007055D01*
X007697Y006896D02*
X007746Y006896D01*
X007831Y006738D02*
X007612Y006738D01*
X007381Y006579D02*
X008063Y006579D01*
X007881Y006420D02*
X007563Y006420D01*
X007677Y006262D02*
X007767Y006262D01*
X007722Y006103D02*
X007722Y006103D01*
X007718Y005945D02*
X007726Y005945D01*
X007792Y005786D02*
X007652Y005786D01*
X007498Y005628D02*
X007945Y005628D01*
X007969Y005469D02*
X007474Y005469D01*
X007635Y005311D02*
X007808Y005311D01*
X007743Y005152D02*
X007701Y005152D01*
X007702Y004994D02*
X007742Y004994D01*
X007793Y004835D02*
X007650Y004835D01*
X007523Y004676D02*
X007921Y004676D01*
X008202Y005152D02*
X008242Y005152D01*
X008242Y005311D02*
X008202Y005311D01*
X008202Y005469D02*
X008242Y005469D01*
X008635Y005311D02*
X008808Y005311D01*
X008743Y005152D02*
X008701Y005152D01*
X008702Y004994D02*
X008742Y004994D01*
X008793Y004835D02*
X008650Y004835D01*
X008523Y004676D02*
X008921Y004676D01*
X009202Y005152D02*
X009242Y005152D01*
X010523Y004676D02*
X010921Y004676D01*
X010793Y004835D02*
X010650Y004835D01*
X010702Y004994D02*
X010742Y004994D01*
X010743Y005152D02*
X010701Y005152D01*
X010635Y005311D02*
X010808Y005311D01*
X007242Y005311D02*
X007202Y005311D01*
X007202Y005469D02*
X007242Y005469D01*
X006969Y005469D02*
X006474Y005469D01*
X006498Y005628D02*
X006945Y005628D01*
X006792Y005786D02*
X006652Y005786D01*
X006718Y005945D02*
X006726Y005945D01*
X006722Y006103D02*
X006722Y006103D01*
X006677Y006262D02*
X006767Y006262D01*
X006881Y006420D02*
X006563Y006420D01*
X006381Y006579D02*
X007063Y006579D01*
X006831Y006738D02*
X006612Y006738D01*
X006697Y006896D02*
X006746Y006896D01*
X006722Y007055D02*
X006722Y007055D01*
X006697Y007213D02*
X006746Y007213D01*
X006832Y007372D02*
X006611Y007372D01*
X006379Y007530D02*
X007064Y007530D01*
X006880Y007689D02*
X006563Y007689D01*
X006677Y007847D02*
X006766Y007847D01*
X006722Y008006D02*
X006722Y008006D01*
X006717Y008164D02*
X006726Y008164D01*
X006792Y008323D02*
X006652Y008323D01*
X006497Y008481D02*
X006946Y008481D01*
X006929Y008640D02*
X006515Y008640D01*
X006657Y008799D02*
X006786Y008799D01*
X006722Y008957D02*
X006722Y008957D01*
X006722Y009116D02*
X006722Y009116D01*
X006672Y009274D02*
X006772Y009274D01*
X006893Y009433D02*
X006550Y009433D01*
X006410Y009591D02*
X007033Y009591D01*
X006819Y009750D02*
X006624Y009750D01*
X006702Y009908D02*
X006741Y009908D01*
X006722Y010067D02*
X006722Y010067D01*
X006692Y010225D02*
X006751Y010225D01*
X006844Y010384D02*
X006599Y010384D01*
X006576Y010701D02*
X006868Y010701D01*
X006761Y010860D02*
X006682Y010860D01*
X006722Y011018D02*
X006722Y011018D01*
X006712Y011177D02*
X006731Y011177D01*
X006797Y011335D02*
X006647Y011335D01*
X006467Y011494D02*
X006976Y011494D01*
X006917Y011652D02*
X006527Y011652D01*
X006662Y011811D02*
X006781Y011811D01*
X006722Y011969D02*
X006722Y011969D01*
X006722Y012128D02*
X006722Y012128D01*
X006667Y012287D02*
X006777Y012287D01*
X006905Y012445D02*
X006538Y012445D01*
X006440Y012604D02*
X007003Y012604D01*
X006807Y012762D02*
X006637Y012762D01*
X006708Y012921D02*
X006736Y012921D01*
X006722Y013079D02*
X006722Y013079D01*
X006687Y013238D02*
X006757Y013238D01*
X006857Y013396D02*
X006587Y013396D01*
X005857Y013396D02*
X005587Y013396D01*
X005687Y013238D02*
X005757Y013238D01*
X005722Y013079D02*
X005722Y013079D01*
X005708Y012921D02*
X005736Y012921D01*
X005807Y012762D02*
X005637Y012762D01*
X005440Y012604D02*
X006003Y012604D01*
X005905Y012445D02*
X005538Y012445D01*
X005667Y012287D02*
X005777Y012287D01*
X005722Y012128D02*
X005722Y012128D01*
X005722Y011969D02*
X005722Y011969D01*
X005781Y011811D02*
X005662Y011811D01*
X005527Y011652D02*
X005917Y011652D01*
X005976Y011494D02*
X005467Y011494D01*
X005647Y011335D02*
X005797Y011335D01*
X005731Y011177D02*
X005712Y011177D01*
X005722Y011018D02*
X005722Y011018D01*
X005682Y010860D02*
X005761Y010860D01*
X005868Y010701D02*
X005576Y010701D01*
X005599Y010384D02*
X005844Y010384D01*
X005751Y010225D02*
X005692Y010225D01*
X005722Y010067D02*
X005722Y010067D01*
X005702Y009908D02*
X005741Y009908D01*
X005819Y009750D02*
X005624Y009750D01*
X005410Y009591D02*
X006033Y009591D01*
X005893Y009433D02*
X005550Y009433D01*
X005672Y009274D02*
X005772Y009274D01*
X005722Y009116D02*
X005722Y009116D01*
X005722Y008957D02*
X005722Y008957D01*
X005657Y008799D02*
X005786Y008799D01*
X005929Y008640D02*
X005515Y008640D01*
X005497Y008481D02*
X005946Y008481D01*
X005792Y008323D02*
X005652Y008323D01*
X005717Y008164D02*
X005726Y008164D01*
X005722Y008006D02*
X005722Y008006D01*
X005766Y007847D02*
X005677Y007847D01*
X005563Y007689D02*
X005880Y007689D01*
X006064Y007530D02*
X005379Y007530D01*
X005611Y007372D02*
X005832Y007372D01*
X005746Y007213D02*
X005697Y007213D01*
X005722Y007055D02*
X005722Y007055D01*
X005697Y006896D02*
X005746Y006896D01*
X005831Y006738D02*
X005612Y006738D01*
X005381Y006579D02*
X006063Y006579D01*
X005881Y006420D02*
X005563Y006420D01*
X005677Y006262D02*
X005767Y006262D01*
X005722Y006103D02*
X005722Y006103D01*
X005718Y005945D02*
X005726Y005945D01*
X005792Y005786D02*
X005652Y005786D01*
X005498Y005628D02*
X005945Y005628D01*
X005969Y005469D02*
X005474Y005469D01*
X005635Y005311D02*
X005808Y005311D01*
X005743Y005152D02*
X005701Y005152D01*
X005702Y004994D02*
X005742Y004994D01*
X005793Y004835D02*
X005650Y004835D01*
X005523Y004676D02*
X005921Y004676D01*
X006202Y005152D02*
X006242Y005152D01*
X006242Y005311D02*
X006202Y005311D01*
X006202Y005469D02*
X006242Y005469D01*
X006635Y005311D02*
X006808Y005311D01*
X006743Y005152D02*
X006701Y005152D01*
X006702Y004994D02*
X006742Y004994D01*
X006793Y004835D02*
X006650Y004835D01*
X006523Y004676D02*
X006921Y004676D01*
X007202Y005152D02*
X007242Y005152D01*
X005242Y005152D02*
X005202Y005152D01*
X005202Y005311D02*
X005242Y005311D01*
X005242Y005469D02*
X005202Y005469D01*
X004969Y005469D02*
X004474Y005469D01*
X004498Y005628D02*
X004945Y005628D01*
X004792Y005786D02*
X004652Y005786D01*
X004718Y005945D02*
X004726Y005945D01*
X004722Y006103D02*
X004722Y006103D01*
X004677Y006262D02*
X004767Y006262D01*
X004881Y006420D02*
X004563Y006420D01*
X004381Y006579D02*
X005063Y006579D01*
X004831Y006738D02*
X004612Y006738D01*
X004697Y006896D02*
X004746Y006896D01*
X004722Y007055D02*
X004722Y007055D01*
X004697Y007213D02*
X004746Y007213D01*
X004832Y007372D02*
X004611Y007372D01*
X004379Y007530D02*
X005064Y007530D01*
X004880Y007689D02*
X004563Y007689D01*
X004677Y007847D02*
X004766Y007847D01*
X004722Y008006D02*
X004722Y008006D01*
X004717Y008164D02*
X004726Y008164D01*
X004792Y008323D02*
X004652Y008323D01*
X004497Y008481D02*
X004946Y008481D01*
X004929Y008640D02*
X004515Y008640D01*
X004657Y008799D02*
X004786Y008799D01*
X004722Y008957D02*
X004722Y008957D01*
X004722Y009116D02*
X004722Y009116D01*
X004672Y009274D02*
X004772Y009274D01*
X004893Y009433D02*
X004550Y009433D01*
X004410Y009591D02*
X005033Y009591D01*
X004819Y009750D02*
X004624Y009750D01*
X004702Y009908D02*
X004741Y009908D01*
X004722Y010067D02*
X004722Y010067D01*
X004692Y010225D02*
X004751Y010225D01*
X004844Y010384D02*
X004599Y010384D01*
X004576Y010701D02*
X004868Y010701D01*
X004761Y010860D02*
X004682Y010860D01*
X004722Y011018D02*
X004722Y011018D01*
X004712Y011177D02*
X004731Y011177D01*
X004797Y011335D02*
X004647Y011335D01*
X004467Y011494D02*
X004976Y011494D01*
X004917Y011652D02*
X004527Y011652D01*
X004662Y011811D02*
X004781Y011811D01*
X004722Y011969D02*
X004722Y011969D01*
X004722Y012128D02*
X004722Y012128D01*
X004667Y012287D02*
X004777Y012287D01*
X004905Y012445D02*
X004538Y012445D01*
X004440Y012604D02*
X005003Y012604D01*
X004807Y012762D02*
X004637Y012762D01*
X004708Y012921D02*
X004736Y012921D01*
X004722Y013079D02*
X004722Y013079D01*
X004687Y013238D02*
X004757Y013238D01*
X004857Y013396D02*
X004587Y013396D01*
X003857Y013396D02*
X003587Y013396D01*
X003687Y013238D02*
X003757Y013238D01*
X003722Y013079D02*
X003722Y013079D01*
X003708Y012921D02*
X003736Y012921D01*
X003807Y012762D02*
X003637Y012762D01*
X003440Y012604D02*
X004003Y012604D01*
X003905Y012445D02*
X003538Y012445D01*
X003667Y012287D02*
X003777Y012287D01*
X003722Y012128D02*
X003722Y012128D01*
X003722Y011969D02*
X003722Y011969D01*
X003781Y011811D02*
X003662Y011811D01*
X003527Y011652D02*
X003917Y011652D01*
X003976Y011494D02*
X003467Y011494D01*
X003647Y011335D02*
X003797Y011335D01*
X003731Y011177D02*
X003712Y011177D01*
X003722Y011018D02*
X003722Y011018D01*
X003682Y010860D02*
X003761Y010860D01*
X003868Y010701D02*
X003576Y010701D01*
X003599Y010384D02*
X003844Y010384D01*
X003751Y010225D02*
X003692Y010225D01*
X003722Y010067D02*
X003722Y010067D01*
X003702Y009908D02*
X003741Y009908D01*
X003819Y009750D02*
X003624Y009750D01*
X003410Y009591D02*
X004033Y009591D01*
X003893Y009433D02*
X003550Y009433D01*
X003672Y009274D02*
X003772Y009274D01*
X003722Y009116D02*
X003722Y009116D01*
X003722Y008957D02*
X003722Y008957D01*
X003657Y008799D02*
X003786Y008799D01*
X003929Y008640D02*
X003515Y008640D01*
X003497Y008481D02*
X003946Y008481D01*
X003792Y008323D02*
X003652Y008323D01*
X003717Y008164D02*
X003726Y008164D01*
X003722Y008006D02*
X003722Y008006D01*
X003766Y007847D02*
X003677Y007847D01*
X003563Y007689D02*
X003880Y007689D01*
X004064Y007530D02*
X003379Y007530D01*
X003611Y007372D02*
X003832Y007372D01*
X003746Y007213D02*
X003697Y007213D01*
X003722Y007055D02*
X003722Y007055D01*
X003697Y006896D02*
X003746Y006896D01*
X003831Y006738D02*
X003612Y006738D01*
X003381Y006579D02*
X004063Y006579D01*
X003881Y006420D02*
X003563Y006420D01*
X003677Y006262D02*
X003767Y006262D01*
X003722Y006103D02*
X003722Y006103D01*
X003718Y005945D02*
X003726Y005945D01*
X003792Y005786D02*
X003652Y005786D01*
X003498Y005628D02*
X003945Y005628D01*
X003969Y005469D02*
X003474Y005469D01*
X003635Y005311D02*
X003808Y005311D01*
X003743Y005152D02*
X003701Y005152D01*
X003702Y004994D02*
X003742Y004994D01*
X003793Y004835D02*
X003650Y004835D01*
X003523Y004676D02*
X003921Y004676D01*
X004202Y005152D02*
X004242Y005152D01*
X004242Y005311D02*
X004202Y005311D01*
X004202Y005469D02*
X004242Y005469D01*
X004635Y005311D02*
X004808Y005311D01*
X004743Y005152D02*
X004701Y005152D01*
X004702Y004994D02*
X004742Y004994D01*
X004793Y004835D02*
X004650Y004835D01*
X004523Y004676D02*
X004921Y004676D01*
X003242Y005152D02*
X003202Y005152D01*
X003202Y005311D02*
X003242Y005311D01*
X003242Y005469D02*
X003202Y005469D01*
X001174Y004518D02*
X000482Y004518D01*
X000482Y004676D02*
X000921Y004676D01*
X000793Y004835D02*
X000482Y004835D01*
X000482Y004994D02*
X000742Y004994D01*
X000743Y005152D02*
X000482Y005152D01*
X000482Y005311D02*
X000808Y005311D01*
X000969Y005469D02*
X000482Y005469D01*
X000482Y005628D02*
X000945Y005628D01*
X000792Y005786D02*
X000482Y005786D01*
X000482Y005945D02*
X000726Y005945D01*
X000722Y006103D02*
X000482Y006103D01*
X000482Y006262D02*
X000767Y006262D01*
X000881Y006420D02*
X000482Y006420D01*
X000482Y006579D02*
X001063Y006579D01*
X000831Y006738D02*
X000482Y006738D01*
X000482Y006896D02*
X000746Y006896D01*
X000722Y007055D02*
X000482Y007055D01*
X000482Y007213D02*
X000746Y007213D01*
X000832Y007372D02*
X000482Y007372D01*
X000482Y007530D02*
X001064Y007530D01*
X000880Y007689D02*
X000482Y007689D01*
X000482Y007847D02*
X000766Y007847D01*
X000722Y008006D02*
X000482Y008006D01*
X000482Y008164D02*
X000726Y008164D01*
X000792Y008323D02*
X000482Y008323D01*
X000482Y008481D02*
X000946Y008481D01*
X000929Y008640D02*
X000482Y008640D01*
X000482Y008799D02*
X000786Y008799D01*
X000722Y008957D02*
X000482Y008957D01*
X000482Y009116D02*
X000722Y009116D01*
X000772Y009274D02*
X000482Y009274D01*
X000482Y009433D02*
X000893Y009433D01*
X001033Y009591D02*
X000482Y009591D01*
X000482Y009750D02*
X000819Y009750D01*
X000741Y009908D02*
X000482Y009908D01*
X000482Y010067D02*
X000722Y010067D01*
X000751Y010225D02*
X000482Y010225D01*
X000482Y010384D02*
X000844Y010384D01*
X000856Y013713D02*
X000482Y013713D01*
X000482Y013872D02*
X000756Y013872D01*
X000722Y014031D02*
X000482Y014031D01*
X000482Y014189D02*
X000736Y014189D01*
X000808Y014348D02*
X000482Y014348D01*
X000482Y014506D02*
X001006Y014506D01*
X001437Y014506D02*
X001562Y014506D01*
X001562Y014665D02*
X000482Y014665D01*
X000482Y014823D02*
X001562Y014823D01*
X002322Y021165D02*
X004628Y021165D01*
X004977Y021165D02*
X005067Y021165D01*
X005067Y021006D02*
X004977Y021006D01*
X010450Y015933D02*
X010793Y015933D01*
X010839Y015978D02*
X010698Y015838D01*
X010622Y015654D01*
X010622Y015455D01*
X010698Y015271D01*
X010839Y015130D01*
X011022Y015054D01*
X011221Y015054D01*
X011405Y015130D01*
X011546Y015271D01*
X011622Y015455D01*
X011622Y015654D01*
X011622Y015455D01*
X011698Y015271D01*
X011839Y015130D01*
X012022Y015054D01*
X012221Y015054D01*
X012405Y015130D01*
X012546Y015271D01*
X012622Y015455D01*
X012622Y015654D01*
X012546Y015838D01*
X012405Y015978D01*
X012221Y016054D01*
X012022Y016054D01*
X011839Y015978D01*
X011698Y015838D01*
X011622Y015654D01*
X011546Y015838D01*
X011405Y015978D01*
X011221Y016054D01*
X011022Y016054D01*
X010839Y015978D01*
X010672Y015774D02*
X010572Y015774D01*
X010622Y015616D02*
X010622Y015616D01*
X010622Y015457D02*
X010622Y015457D01*
X010557Y015299D02*
X010686Y015299D01*
X010829Y015140D02*
X010415Y015140D01*
X011415Y015140D02*
X011829Y015140D01*
X011686Y015299D02*
X011557Y015299D01*
X011622Y015457D02*
X011622Y015457D01*
X011622Y015616D02*
X011622Y015616D01*
X011572Y015774D02*
X011672Y015774D01*
X011793Y015933D02*
X011450Y015933D01*
X012450Y015933D02*
X012622Y015933D01*
X012622Y015937D02*
X012622Y015171D01*
X012739Y015054D01*
X013505Y015054D01*
X013622Y015171D01*
X013622Y015937D01*
X013505Y016054D01*
X012739Y016054D01*
X012622Y015937D01*
X012622Y015774D02*
X012572Y015774D01*
X012622Y015616D02*
X012622Y015616D01*
X012622Y015457D02*
X012622Y015457D01*
X012622Y015299D02*
X012557Y015299D01*
X012653Y015140D02*
X012415Y015140D01*
X013591Y015140D02*
X014429Y015140D01*
X014286Y015299D02*
X013622Y015299D01*
X013622Y015457D02*
X014222Y015457D01*
X014222Y015616D02*
X013622Y015616D01*
X013622Y015774D02*
X014272Y015774D01*
X014393Y015933D02*
X013622Y015933D01*
X015836Y017836D02*
X018507Y017836D01*
X017242Y018153D02*
X017202Y018153D01*
X017202Y018311D02*
X017242Y018311D01*
X017242Y018470D02*
X017202Y018470D01*
X017202Y018628D02*
X017242Y018628D01*
X017242Y018787D02*
X017202Y018787D01*
X017202Y018945D02*
X017242Y018945D01*
X016934Y018945D02*
X016538Y018945D01*
X016667Y018787D02*
X016799Y018787D01*
X016742Y018628D02*
X016722Y018628D01*
X016722Y018470D02*
X016742Y018470D01*
X016803Y018311D02*
X016662Y018311D01*
X016527Y018153D02*
X016945Y018153D01*
X014916Y018153D02*
X014527Y018153D01*
X014662Y018311D02*
X014781Y018311D01*
X014722Y018470D02*
X014722Y018470D01*
X014722Y018628D02*
X014722Y018628D01*
X014667Y018787D02*
X014777Y018787D01*
X014906Y018945D02*
X014538Y018945D01*
X014236Y020689D02*
X013622Y020689D01*
X013622Y020848D02*
X014308Y020848D01*
X014507Y021006D02*
X013552Y021006D01*
X019937Y021006D02*
X020507Y021006D01*
X020308Y020848D02*
X020135Y020848D01*
X020207Y020689D02*
X020236Y020689D01*
X020222Y020531D02*
X020222Y020531D01*
X020187Y020372D02*
X020256Y020372D01*
X020355Y020214D02*
X020088Y020214D01*
X021088Y020214D02*
X021222Y020214D01*
X021222Y020372D02*
X021187Y020372D01*
X021222Y020531D02*
X021222Y020531D01*
X021207Y020689D02*
X021222Y020689D01*
X021222Y020848D02*
X021135Y020848D01*
X021291Y021006D02*
X020937Y021006D01*
X021722Y020554D02*
X021722Y019804D01*
X021222Y019304D01*
X021177Y018311D02*
X021267Y018311D01*
X021267Y018153D02*
X021177Y018153D01*
X021625Y018153D02*
X022462Y018153D01*
X022462Y018311D02*
X021652Y018311D01*
X017857Y013396D02*
X017587Y013396D01*
X017687Y013238D02*
X017757Y013238D01*
X017722Y013079D02*
X017722Y013079D01*
X017708Y012921D02*
X017736Y012921D01*
X017807Y012762D02*
X017637Y012762D01*
X017440Y012604D02*
X018003Y012604D01*
X017905Y012445D02*
X017538Y012445D01*
X017667Y012287D02*
X017777Y012287D01*
X017722Y012128D02*
X017722Y012128D01*
X017722Y011969D02*
X017722Y011969D01*
X017781Y011811D02*
X017662Y011811D01*
X017527Y011652D02*
X017917Y011652D01*
X017976Y011494D02*
X017467Y011494D01*
X017647Y011335D02*
X017797Y011335D01*
X017731Y011177D02*
X017712Y011177D01*
X017722Y011018D02*
X017722Y011018D01*
X017682Y010860D02*
X017761Y010860D01*
X017868Y010701D02*
X017576Y010701D01*
X019635Y005311D02*
X019808Y005311D01*
X019743Y005152D02*
X019701Y005152D01*
X019702Y004994D02*
X019742Y004994D01*
X019793Y004835D02*
X019650Y004835D01*
X019523Y004676D02*
X019921Y004676D01*
X020202Y005152D02*
X020242Y005152D01*
X020242Y005311D02*
X020202Y005311D01*
X020202Y005469D02*
X020242Y005469D01*
X014292Y001823D02*
X014130Y001823D01*
X014196Y001664D02*
X014226Y001664D01*
X014222Y001506D02*
X014202Y001506D01*
X014155Y001347D02*
X014266Y001347D01*
X013409Y001189D02*
X013035Y001189D01*
X012994Y001147D02*
X013129Y001282D01*
X013202Y001459D01*
X013202Y001534D01*
X012742Y001534D01*
X012742Y001074D01*
X012817Y001074D01*
X012994Y001147D01*
X012742Y001189D02*
X012702Y001189D01*
X012702Y001347D02*
X012742Y001347D01*
X012742Y001506D02*
X012702Y001506D01*
X012702Y001664D02*
X012742Y001664D01*
X012742Y001823D02*
X012702Y001823D01*
X012702Y001981D02*
X012742Y001981D01*
X012945Y001981D02*
X013498Y001981D01*
X013313Y001823D02*
X013130Y001823D01*
X013196Y001664D02*
X013248Y001664D01*
X013242Y001506D02*
X013202Y001506D01*
X013155Y001347D02*
X013288Y001347D01*
X003872Y000871D02*
X001059Y000871D01*
X001362Y001189D02*
X001402Y001189D01*
X001402Y001347D02*
X001362Y001347D01*
X001362Y001664D02*
X001402Y001664D01*
X001402Y001823D02*
X001362Y001823D01*
X001828Y001347D02*
X002694Y001347D01*
X002790Y001189D02*
X001725Y001189D01*
X003275Y001030D02*
X003772Y001030D01*
X003772Y001189D02*
X003533Y001189D01*
X003629Y001347D02*
X003772Y001347D01*
X003772Y001506D02*
X003662Y001506D01*
X003645Y001664D02*
X003799Y001664D01*
X003772Y001823D02*
X003570Y001823D01*
X003482Y001981D02*
X003772Y001981D01*
X003772Y002140D02*
X003482Y002140D01*
X003482Y002298D02*
X003772Y002298D01*
X003791Y002457D02*
X003482Y002457D01*
X000945Y003884D02*
X000482Y003884D01*
X000482Y004042D02*
X000902Y004042D01*
X000910Y004201D02*
X000482Y004201D01*
X000482Y004359D02*
X000978Y004359D01*
D18*
X005022Y020804D02*
X005026Y021059D01*
M02*
