G75*
G70*
%OFA0B0*%
%FSLAX24Y24*%
%IPPOS*%
%LPD*%
%AMOC8*
5,1,8,0,0,1.08239X$1,22.5*
%
%ADD10C,0.0080*%
%ADD11C,0.0220*%
%ADD12C,0.0240*%
%ADD13C,0.0050*%
%ADD14R,0.0200X0.0450*%
%ADD15R,0.0200X0.0100*%
%ADD16C,0.0070*%
%ADD17R,0.0200X0.0300*%
%ADD18R,0.0200X0.3100*%
%ADD19R,0.0200X0.2300*%
%ADD20R,0.0200X0.3300*%
%ADD21C,0.0160*%
%ADD22R,0.0200X0.0500*%
D10*
X005452Y003054D02*
X005702Y002804D01*
X006202Y002804D01*
X006452Y003054D01*
X006452Y003554D01*
X006202Y003804D01*
X005702Y003804D01*
X005452Y003554D01*
X005452Y003054D01*
X005381Y003944D02*
X005311Y004014D01*
X005311Y004295D01*
X005381Y004365D01*
X005591Y004365D01*
X005591Y003944D01*
X005381Y003944D01*
X005771Y003944D02*
X006051Y003944D01*
X006051Y004365D01*
X005771Y004365D01*
X005911Y004154D02*
X006051Y004154D01*
X006231Y004154D02*
X006301Y004084D01*
X006512Y004084D01*
X006512Y003944D02*
X006512Y004365D01*
X006301Y004365D01*
X006231Y004295D01*
X006231Y004154D01*
X006371Y004084D02*
X006231Y003944D01*
X007311Y003944D02*
X007311Y004365D01*
X007591Y004365D02*
X007311Y003944D01*
X007591Y003944D02*
X007591Y004365D01*
X007771Y004295D02*
X007771Y004154D01*
X007841Y004084D01*
X008051Y004084D01*
X008051Y003944D02*
X008051Y004365D01*
X007841Y004365D01*
X007771Y004295D01*
X007911Y004084D02*
X007771Y003944D01*
X007702Y003804D02*
X008202Y003804D01*
X008452Y003554D01*
X008452Y003054D01*
X008202Y002804D01*
X007702Y002804D01*
X007452Y003054D01*
X007452Y003554D01*
X007702Y003804D01*
X008231Y004014D02*
X008301Y003944D01*
X008442Y003944D01*
X008512Y004014D01*
X008512Y004295D01*
X008442Y004365D01*
X008301Y004365D01*
X008231Y004295D01*
X008231Y004154D02*
X008371Y004154D01*
X008231Y004154D02*
X008231Y004014D01*
X009202Y003804D02*
X009202Y003304D01*
X009452Y003054D01*
X009952Y003054D01*
X010202Y003304D01*
X010452Y003054D01*
X010952Y003054D01*
X011202Y003304D01*
X011452Y003054D01*
X011952Y003054D01*
X012202Y003304D01*
X012452Y003054D01*
X012952Y003054D01*
X013202Y003304D01*
X013452Y003054D01*
X013952Y003054D01*
X014202Y003304D01*
X014452Y003054D01*
X014952Y003054D01*
X015202Y003304D01*
X015202Y003804D01*
X014952Y004054D01*
X014452Y004054D01*
X014202Y003804D01*
X013952Y004054D01*
X013452Y004054D01*
X013202Y003804D01*
X012952Y004054D01*
X012452Y004054D01*
X012202Y003804D01*
X011952Y004054D01*
X011452Y004054D01*
X011202Y003804D01*
X010952Y004054D01*
X010452Y004054D01*
X010202Y003804D01*
X009952Y004054D01*
X009452Y004054D01*
X009202Y003804D01*
X009452Y002054D02*
X009202Y001804D01*
X009202Y001304D01*
X009452Y001054D01*
X009952Y001054D01*
X010202Y001304D01*
X010452Y001054D01*
X010952Y001054D01*
X011202Y001304D01*
X011452Y001054D01*
X011952Y001054D01*
X012202Y001304D01*
X012452Y001054D01*
X012952Y001054D01*
X013202Y001304D01*
X013452Y001054D01*
X013952Y001054D01*
X014202Y001304D01*
X014452Y001054D01*
X014952Y001054D01*
X015202Y001304D01*
X015202Y001804D01*
X014952Y002054D01*
X014452Y002054D01*
X014202Y001804D01*
X013952Y002054D01*
X013452Y002054D01*
X013202Y001804D01*
X012952Y002054D01*
X012452Y002054D01*
X012202Y001804D01*
X011952Y002054D01*
X011452Y002054D01*
X011202Y001804D01*
X010952Y002054D01*
X010452Y002054D01*
X010202Y001804D01*
X009952Y002054D01*
X009452Y002054D01*
X016202Y001804D02*
X016202Y001304D01*
X016452Y001054D01*
X016952Y001054D01*
X017202Y001304D01*
X017452Y001054D01*
X017952Y001054D01*
X018202Y001304D01*
X018452Y001054D01*
X018952Y001054D01*
X019202Y001304D01*
X019452Y001054D01*
X019952Y001054D01*
X020202Y001304D01*
X020452Y001054D01*
X020952Y001054D01*
X021202Y001304D01*
X021452Y001054D01*
X021952Y001054D01*
X022202Y001304D01*
X022202Y001804D01*
X021952Y002054D01*
X021452Y002054D01*
X021202Y001804D01*
X020952Y002054D01*
X020452Y002054D01*
X020202Y001804D01*
X019952Y002054D01*
X019452Y002054D01*
X019202Y001804D01*
X018952Y002054D01*
X018452Y002054D01*
X018202Y001804D01*
X017952Y002054D01*
X017452Y002054D01*
X017202Y001804D01*
X016952Y002054D01*
X016452Y002054D01*
X016202Y001804D01*
X016452Y003054D02*
X016952Y003054D01*
X017202Y003304D01*
X017452Y003054D01*
X017952Y003054D01*
X018202Y003304D01*
X018452Y003054D01*
X018952Y003054D01*
X019202Y003304D01*
X019452Y003054D01*
X019952Y003054D01*
X020202Y003304D01*
X020452Y003054D01*
X020952Y003054D01*
X021202Y003304D01*
X021452Y003054D01*
X021952Y003054D01*
X022202Y003304D01*
X022202Y003804D01*
X021952Y004054D01*
X021452Y004054D01*
X021202Y003804D01*
X020952Y004054D01*
X020452Y004054D01*
X020202Y003804D01*
X019952Y004054D01*
X019452Y004054D01*
X019202Y003804D01*
X018952Y004054D01*
X018452Y004054D01*
X018202Y003804D01*
X017952Y004054D01*
X017452Y004054D01*
X017202Y003804D01*
X016952Y004054D01*
X016452Y004054D01*
X016202Y003804D01*
X016202Y003304D01*
X016452Y003054D01*
X022972Y004544D02*
X022972Y004684D01*
X023042Y004755D01*
X023182Y004755D01*
X023182Y004614D01*
X023322Y004474D02*
X023042Y004474D01*
X022972Y004544D01*
X023322Y004474D02*
X023392Y004544D01*
X023392Y004684D01*
X023322Y004755D01*
X023392Y004935D02*
X022972Y004935D01*
X022972Y005215D02*
X023392Y005215D01*
X023392Y005395D02*
X023392Y005605D01*
X023322Y005675D01*
X023042Y005675D01*
X022972Y005605D01*
X022972Y005395D01*
X023392Y005395D01*
X022972Y005215D02*
X023392Y004935D01*
X022452Y013554D02*
X021452Y013554D01*
X021702Y013804D01*
X021952Y013554D01*
X021702Y013804D02*
X021702Y014304D01*
X021952Y014554D01*
X003952Y014554D01*
X004452Y014554D01*
X004702Y014304D01*
X004702Y013804D01*
X004452Y013554D01*
X003952Y013554D01*
X003702Y013804D01*
X003702Y014304D01*
X003452Y014554D01*
X002952Y014554D01*
X002702Y014304D01*
X002702Y013804D01*
X002452Y013554D01*
X001952Y013554D01*
X001702Y013804D01*
X001702Y014304D01*
X001452Y014554D01*
X000952Y014554D01*
X000702Y014304D01*
X000702Y013804D01*
X000952Y013554D01*
X001202Y013554D01*
X001452Y013554D01*
X001702Y013804D01*
X001702Y014304D02*
X001952Y014554D01*
X002452Y014554D01*
X002702Y014304D01*
X002702Y013804D02*
X002952Y013554D01*
X003452Y013554D01*
X003702Y013804D01*
X003702Y014304D02*
X003952Y014554D01*
X001202Y014554D01*
X001202Y013554D02*
X020952Y013554D01*
X021452Y013554D01*
X021202Y013554D02*
X020952Y013554D01*
X020702Y013804D01*
X020702Y014304D01*
X020452Y014554D01*
X019952Y014554D01*
X019702Y014304D01*
X019702Y013804D01*
X019452Y013554D01*
X018952Y013554D01*
X018702Y013804D01*
X018702Y014304D01*
X018452Y014554D01*
X017952Y014554D01*
X017702Y014304D01*
X017702Y013804D01*
X017452Y013554D01*
X016952Y013554D01*
X016702Y013804D01*
X016702Y014304D01*
X016452Y014554D01*
X015952Y014554D01*
X015702Y014304D01*
X015702Y013804D01*
X015452Y013554D01*
X014952Y013554D01*
X014702Y013804D01*
X014702Y014304D01*
X014452Y014554D01*
X013952Y014554D01*
X013702Y014304D01*
X013702Y013804D01*
X013452Y013554D01*
X012952Y013554D01*
X012702Y013804D01*
X012702Y014304D01*
X012452Y014554D01*
X011952Y014554D01*
X011702Y014304D01*
X011702Y013804D01*
X011452Y013554D01*
X010952Y013554D01*
X010702Y013804D01*
X010702Y014304D01*
X010452Y014554D01*
X009952Y014554D01*
X009702Y014304D01*
X009702Y013804D01*
X009452Y013554D01*
X008952Y013554D01*
X008702Y013804D01*
X008702Y014304D01*
X008452Y014554D01*
X007952Y014554D01*
X007702Y014304D01*
X007702Y013804D01*
X007452Y013554D01*
X006952Y013554D01*
X006702Y013804D01*
X006702Y014304D01*
X006452Y014554D01*
X005952Y014554D01*
X005702Y014304D01*
X005702Y013804D01*
X005452Y013554D01*
X004952Y013554D01*
X004702Y013804D01*
X004702Y014304D02*
X004952Y014554D01*
X005452Y014554D01*
X005702Y014304D01*
X005702Y013804D02*
X005952Y013554D01*
X006452Y013554D01*
X006702Y013804D01*
X006702Y014304D02*
X006952Y014554D01*
X007452Y014554D01*
X007702Y014304D01*
X007702Y013804D02*
X007952Y013554D01*
X008452Y013554D01*
X008702Y013804D01*
X008702Y014304D02*
X008952Y014554D01*
X009452Y014554D01*
X009702Y014304D01*
X009702Y013804D02*
X009952Y013554D01*
X010452Y013554D01*
X010702Y013804D01*
X010702Y014304D02*
X010952Y014554D01*
X011452Y014554D01*
X011702Y014304D01*
X011702Y013804D02*
X011952Y013554D01*
X012452Y013554D01*
X012702Y013804D01*
X012702Y014304D02*
X012952Y014554D01*
X013452Y014554D01*
X013702Y014304D01*
X013702Y013804D02*
X013952Y013554D01*
X014452Y013554D01*
X014702Y013804D01*
X014702Y014304D02*
X014952Y014554D01*
X015452Y014554D01*
X015702Y014304D01*
X015702Y013804D02*
X015952Y013554D01*
X016452Y013554D01*
X016702Y013804D01*
X016702Y014304D02*
X016952Y014554D01*
X017452Y014554D01*
X017702Y014304D01*
X017702Y013804D02*
X017952Y013554D01*
X018452Y013554D01*
X018702Y013804D01*
X018702Y014304D02*
X018952Y014554D01*
X019452Y014554D01*
X019702Y014304D01*
X019702Y013804D02*
X019952Y013554D01*
X020452Y013554D01*
X020702Y013804D01*
X020702Y014304D02*
X020952Y014554D01*
X021452Y014554D01*
X021702Y014304D01*
X021952Y014554D02*
X022452Y014554D01*
X022702Y014304D01*
X022702Y013804D01*
X022452Y013554D01*
X022882Y013784D02*
X022952Y013714D01*
X022882Y013784D02*
X022882Y013924D01*
X022952Y013995D01*
X023092Y013995D01*
X023162Y013924D01*
X023162Y013854D01*
X023092Y013714D01*
X023302Y013714D01*
X023302Y013995D01*
X023302Y014175D02*
X023022Y014175D01*
X022882Y014315D01*
X023022Y014455D01*
X023302Y014455D01*
X022202Y015304D02*
X022202Y015804D01*
X021952Y016054D01*
X021452Y016054D01*
X021202Y015804D01*
X020952Y016054D01*
X020452Y016054D01*
X020202Y015804D01*
X019952Y016054D01*
X019452Y016054D01*
X019202Y015804D01*
X018952Y016054D01*
X018452Y016054D01*
X018202Y015804D01*
X017952Y016054D01*
X017452Y016054D01*
X017202Y015804D01*
X016952Y016054D01*
X016452Y016054D01*
X016202Y015804D01*
X015952Y016054D01*
X015452Y016054D01*
X015202Y015804D01*
X014952Y016054D01*
X014452Y016054D01*
X014202Y015804D01*
X013952Y016054D01*
X013452Y016054D02*
X013202Y015804D01*
X012952Y016054D01*
X012452Y016054D01*
X012202Y015804D01*
X011952Y016054D01*
X011452Y016054D01*
X011202Y015804D01*
X010952Y016054D01*
X010452Y016054D01*
X010202Y015804D01*
X009952Y016054D01*
X009452Y016054D01*
X009202Y015804D01*
X008952Y016054D01*
X008452Y016054D01*
X008202Y015804D01*
X007952Y016054D01*
X007452Y016054D01*
X007202Y015804D01*
X006952Y016054D01*
X006452Y016054D01*
X006202Y015804D01*
X006202Y015304D01*
X006452Y015054D01*
X006952Y015054D01*
X007202Y015304D01*
X007452Y015054D01*
X007952Y015054D01*
X008202Y015304D01*
X008452Y015054D01*
X008952Y015054D01*
X009202Y015304D01*
X009452Y015054D01*
X009952Y015054D01*
X010202Y015304D01*
X010452Y015054D01*
X010952Y015054D01*
X011202Y015304D01*
X011452Y015054D01*
X011952Y015054D01*
X012202Y015304D01*
X012452Y015054D01*
X012952Y015054D01*
X013202Y015304D01*
X013452Y015054D01*
X013952Y015054D02*
X014202Y015304D01*
X014452Y015054D01*
X014952Y015054D02*
X015202Y015304D01*
X015452Y015054D01*
X015952Y015054D01*
X016202Y015304D01*
X016452Y015054D01*
X016952Y015054D01*
X017202Y015304D01*
X017452Y015054D01*
X017952Y015054D01*
X018202Y015304D01*
X018452Y015054D01*
X018952Y015054D01*
X019202Y015304D01*
X019452Y015054D01*
X019952Y015054D01*
X020202Y015304D01*
X020452Y015054D01*
X020952Y015054D01*
X021202Y015304D01*
X021452Y015054D01*
X021952Y015054D01*
X022202Y015304D01*
X021952Y014554D02*
X021202Y014554D01*
X021952Y014554D02*
X004452Y014554D01*
X005852Y020054D02*
X006352Y020054D01*
X006602Y020304D01*
X006852Y020054D01*
X007352Y020054D01*
X007602Y020304D01*
X007852Y020054D01*
X008352Y020054D01*
X008602Y020304D01*
X008852Y020054D01*
X009352Y020054D01*
X009602Y020304D01*
X009852Y020054D01*
X010352Y020054D01*
X010602Y020304D01*
X010852Y020054D01*
X011352Y020054D01*
X011602Y020304D01*
X011852Y020054D01*
X012352Y020054D01*
X012602Y020304D01*
X012852Y020054D01*
X013352Y020054D01*
X013602Y020304D01*
X013602Y020804D01*
X013352Y021054D01*
X012852Y021054D01*
X012602Y020804D01*
X012352Y021054D01*
X011852Y021054D01*
X011602Y020804D01*
X011352Y021054D01*
X010852Y021054D01*
X010602Y020804D01*
X010352Y021054D01*
X009852Y021054D01*
X009602Y020804D01*
X009352Y021054D01*
X008852Y021054D01*
X008602Y020804D01*
X008352Y021054D01*
X007852Y021054D01*
X007602Y020804D01*
X007352Y021054D01*
X006852Y021054D01*
X006602Y020804D01*
X006352Y021054D01*
X005852Y021054D01*
X005602Y020804D01*
X005602Y020304D01*
X005852Y020054D01*
X014202Y020304D02*
X014452Y020054D01*
X014952Y020054D01*
X015202Y020304D01*
X015452Y020054D01*
X015952Y020054D01*
X016202Y020304D01*
X016452Y020054D01*
X016952Y020054D01*
X017202Y020304D01*
X017452Y020054D01*
X017952Y020054D01*
X018202Y020304D01*
X018452Y020054D01*
X018952Y020054D01*
X019202Y020304D01*
X019452Y020054D01*
X019952Y020054D01*
X020202Y020304D01*
X020452Y020054D01*
X020952Y020054D01*
X021202Y020304D01*
X021452Y020054D01*
X021952Y020054D01*
X022202Y020304D01*
X022202Y020804D01*
X021952Y021054D01*
X021452Y021054D01*
X021202Y020804D01*
X020952Y021054D01*
X020452Y021054D01*
X020202Y020804D01*
X019952Y021054D01*
X019452Y021054D01*
X019202Y020804D01*
X018952Y021054D01*
X018452Y021054D01*
X018202Y020804D01*
X017952Y021054D01*
X017452Y021054D01*
X017202Y020804D01*
X016952Y021054D01*
X016452Y021054D01*
X016202Y020804D01*
X015952Y021054D01*
X015452Y021054D01*
X015202Y020804D01*
X014952Y021054D01*
X014452Y021054D01*
X014202Y020804D01*
X014202Y020304D01*
D11*
X022702Y004624D02*
X000702Y004624D01*
X000702Y005484D02*
X022702Y005484D01*
D12*
X022702Y005454D02*
X022702Y004654D01*
X021702Y004654D02*
X021702Y005454D01*
X020702Y005454D02*
X020702Y004654D01*
X019702Y004654D02*
X019702Y005454D01*
X018702Y005454D02*
X018702Y004654D01*
X017702Y004654D02*
X017702Y005454D01*
X016702Y005454D02*
X016702Y004654D01*
X015702Y004654D02*
X015702Y005454D01*
X014702Y005454D02*
X014702Y004654D01*
X013702Y004654D02*
X013702Y005454D01*
X012702Y005454D02*
X012702Y004654D01*
X011702Y004654D02*
X011702Y005454D01*
X010702Y005454D02*
X010702Y004654D01*
X009702Y004654D02*
X009702Y005454D01*
X008702Y005454D02*
X008702Y004654D01*
X007702Y004654D02*
X007702Y005454D01*
X006702Y005454D02*
X006702Y004654D01*
X005702Y004654D02*
X005702Y005454D01*
X004702Y005454D02*
X004702Y004654D01*
X003702Y004654D02*
X003702Y005454D01*
X002702Y005454D02*
X002702Y004654D01*
X001702Y004654D02*
X001702Y005454D01*
X000702Y005454D02*
X000702Y004654D01*
D13*
X009307Y002500D02*
X009487Y002500D01*
X009397Y002500D02*
X009397Y002229D01*
X009602Y002274D02*
X009647Y002229D01*
X009737Y002229D01*
X009782Y002274D01*
X009737Y002364D02*
X009647Y002364D01*
X009602Y002319D01*
X009602Y002274D01*
X009737Y002364D02*
X009782Y002409D01*
X009782Y002454D01*
X009737Y002500D01*
X009647Y002500D01*
X009602Y002454D01*
X009896Y002454D02*
X009896Y002364D01*
X009941Y002319D01*
X010077Y002319D01*
X010077Y002229D02*
X010077Y002500D01*
X009941Y002500D01*
X009896Y002454D01*
X009987Y002319D02*
X009896Y002229D01*
X010307Y002624D02*
X010352Y002579D01*
X010442Y002579D01*
X010487Y002624D01*
X010602Y002669D02*
X010602Y002850D01*
X010487Y002804D02*
X010442Y002850D01*
X010352Y002850D01*
X010307Y002804D01*
X010307Y002759D01*
X010352Y002714D01*
X010307Y002669D01*
X010307Y002624D01*
X010352Y002714D02*
X010397Y002714D01*
X010602Y002669D02*
X010692Y002579D01*
X010782Y002669D01*
X010782Y002850D01*
X010896Y002804D02*
X010896Y002759D01*
X010941Y002714D01*
X010896Y002669D01*
X010896Y002624D01*
X010941Y002579D01*
X011032Y002579D01*
X011077Y002624D01*
X010987Y002714D02*
X010941Y002714D01*
X010896Y002804D02*
X010941Y002850D01*
X011032Y002850D01*
X011077Y002804D01*
X011452Y002500D02*
X011452Y002319D01*
X011542Y002229D01*
X011632Y002319D01*
X011632Y002500D01*
X011746Y002500D02*
X011927Y002500D01*
X011927Y002364D01*
X011837Y002409D01*
X011791Y002409D01*
X011746Y002364D01*
X011746Y002274D01*
X011791Y002229D01*
X011882Y002229D01*
X011927Y002274D01*
X012307Y002624D02*
X012307Y002804D01*
X012352Y002850D01*
X012487Y002850D01*
X012487Y002579D01*
X012352Y002579D01*
X012307Y002624D01*
X012602Y002579D02*
X012602Y002850D01*
X012782Y002850D02*
X012602Y002579D01*
X012782Y002579D02*
X012782Y002850D01*
X012896Y002804D02*
X012941Y002850D01*
X013032Y002850D01*
X013077Y002804D01*
X013077Y002624D01*
X013032Y002579D01*
X012941Y002579D01*
X012896Y002624D01*
X012896Y002714D01*
X012987Y002714D01*
X013307Y002454D02*
X013307Y002274D01*
X013352Y002229D01*
X013487Y002229D01*
X013487Y002500D01*
X013352Y002500D01*
X013307Y002454D01*
X013602Y002500D02*
X013602Y002229D01*
X013782Y002500D01*
X013782Y002229D01*
X013896Y002274D02*
X013896Y002364D01*
X013987Y002364D01*
X014077Y002274D02*
X014032Y002229D01*
X013941Y002229D01*
X013896Y002274D01*
X013896Y002454D02*
X013941Y002500D01*
X014032Y002500D01*
X014077Y002454D01*
X014077Y002274D01*
X014355Y002579D02*
X014355Y002850D01*
X014536Y002850D02*
X014355Y002579D01*
X014536Y002579D02*
X014536Y002850D01*
X014642Y002850D02*
X014732Y002850D01*
X014687Y002850D02*
X014687Y002579D01*
X014732Y002579D02*
X014642Y002579D01*
X014846Y002669D02*
X014846Y002850D01*
X015027Y002850D02*
X015027Y002669D01*
X014937Y002579D01*
X014846Y002669D01*
X011077Y016229D02*
X010941Y016229D01*
X010896Y016274D01*
X010896Y016454D01*
X010941Y016500D01*
X011077Y016500D01*
X011077Y016229D01*
X011352Y016579D02*
X011442Y016579D01*
X011487Y016624D01*
X011307Y016804D01*
X011307Y016624D01*
X011352Y016579D01*
X011487Y016624D02*
X011487Y016804D01*
X011442Y016850D01*
X011352Y016850D01*
X011307Y016804D01*
X011692Y016850D02*
X011782Y016759D01*
X011896Y016804D02*
X011941Y016850D01*
X012077Y016850D01*
X012077Y016579D01*
X011941Y016579D01*
X011896Y016624D01*
X011896Y016804D01*
X011692Y016850D02*
X011692Y016579D01*
X011782Y016579D02*
X011602Y016579D01*
X010782Y016409D02*
X010692Y016500D01*
X010692Y016229D01*
X010782Y016229D02*
X010602Y016229D01*
X010487Y016229D02*
X010307Y016229D01*
X010397Y016229D02*
X010397Y016500D01*
X010487Y016409D01*
X010077Y016579D02*
X010077Y016850D01*
X009941Y016850D01*
X009896Y016804D01*
X009896Y016624D01*
X009941Y016579D01*
X010077Y016579D01*
X009782Y016579D02*
X009602Y016579D01*
X009692Y016579D02*
X009692Y016850D01*
X009782Y016759D01*
X009487Y016804D02*
X009442Y016850D01*
X009352Y016850D01*
X009307Y016804D01*
X009307Y016759D01*
X009487Y016579D01*
X009307Y016579D01*
X009077Y016500D02*
X009077Y016229D01*
X008941Y016229D01*
X008896Y016274D01*
X008896Y016454D01*
X008941Y016500D01*
X009077Y016500D01*
X008782Y016409D02*
X008692Y016500D01*
X008692Y016229D01*
X008782Y016229D02*
X008602Y016229D01*
X008487Y016274D02*
X008442Y016229D01*
X008352Y016229D01*
X008307Y016274D01*
X008307Y016319D01*
X008352Y016364D01*
X008397Y016364D01*
X008352Y016364D02*
X008307Y016409D01*
X008307Y016454D01*
X008352Y016500D01*
X008442Y016500D01*
X008487Y016454D01*
X008077Y016624D02*
X008077Y016804D01*
X008032Y016850D01*
X007941Y016850D01*
X007896Y016804D01*
X007896Y016714D02*
X007987Y016714D01*
X007896Y016714D02*
X007896Y016624D01*
X007941Y016579D01*
X008032Y016579D01*
X008077Y016624D01*
X007782Y016579D02*
X007782Y016850D01*
X007602Y016579D01*
X007602Y016850D01*
X007487Y016850D02*
X007352Y016850D01*
X007307Y016804D01*
X007307Y016624D01*
X007352Y016579D01*
X007487Y016579D01*
X007487Y016850D01*
X006977Y016500D02*
X006841Y016500D01*
X006796Y016454D01*
X006796Y016364D01*
X006841Y016319D01*
X006977Y016319D01*
X006977Y016229D02*
X006977Y016500D01*
X006887Y016319D02*
X006796Y016229D01*
X006682Y016229D02*
X006682Y016500D01*
X006502Y016500D01*
X006387Y016500D02*
X006387Y016229D01*
X006502Y016229D02*
X006682Y016229D01*
X006682Y016364D02*
X006592Y016364D01*
X006387Y016364D02*
X006297Y016364D01*
X006387Y016500D02*
X006207Y016500D01*
X006596Y016629D02*
X006596Y016809D01*
X006687Y016900D01*
X006777Y016809D01*
X006777Y016629D01*
X006777Y016764D02*
X006596Y016764D01*
D14*
X007702Y016279D03*
X009702Y016279D03*
X011702Y016279D03*
X011702Y002829D03*
X012702Y002279D03*
X013702Y002829D03*
X014702Y002279D03*
X010702Y002279D03*
X009702Y002829D03*
D15*
X009702Y002104D03*
X010702Y003004D03*
X011702Y002104D03*
X012702Y003004D03*
X013702Y002104D03*
X014702Y003004D03*
X016702Y002104D03*
X017702Y003004D03*
X018702Y002104D03*
X019702Y003004D03*
X020702Y002104D03*
X021702Y003004D03*
X020702Y016104D03*
X018702Y016104D03*
X016702Y016104D03*
X014702Y016104D03*
X013702Y017004D03*
X012702Y016104D03*
X011702Y017004D03*
X010702Y016104D03*
X009702Y017004D03*
X008702Y016104D03*
X007702Y017004D03*
X006702Y017004D03*
X006702Y016104D03*
D16*
X012269Y016311D02*
X012269Y016598D01*
X012341Y016670D01*
X012485Y016670D01*
X012556Y016598D01*
X012556Y016526D01*
X012485Y016454D01*
X012269Y016454D01*
X012269Y016311D02*
X012341Y016239D01*
X012485Y016239D01*
X012556Y016311D01*
X012730Y016311D02*
X012730Y016598D01*
X012801Y016670D01*
X013017Y016670D01*
X013017Y016239D01*
X012801Y016239D01*
X012730Y016311D01*
X013269Y016511D02*
X013341Y016439D01*
X013485Y016439D01*
X013556Y016511D01*
X013556Y016583D01*
X013485Y016654D01*
X013341Y016654D01*
X013269Y016583D01*
X013269Y016511D01*
X013341Y016654D02*
X013269Y016726D01*
X013269Y016798D01*
X013341Y016870D01*
X013485Y016870D01*
X013556Y016798D01*
X013556Y016726D01*
X013485Y016654D01*
X013730Y016511D02*
X013730Y016798D01*
X013801Y016870D01*
X014017Y016870D01*
X014017Y016439D01*
X013801Y016439D01*
X013730Y016511D01*
X014319Y016598D02*
X014606Y016311D01*
X014606Y016239D01*
X014780Y016311D02*
X014780Y016598D01*
X014851Y016670D01*
X015067Y016670D01*
X015067Y016239D01*
X014851Y016239D01*
X014780Y016311D01*
X014606Y016670D02*
X014319Y016670D01*
X014319Y016598D01*
X015319Y016583D02*
X015319Y016511D01*
X015391Y016439D01*
X015535Y016439D01*
X015606Y016511D01*
X015606Y016654D01*
X015391Y016654D01*
X015319Y016583D01*
X015463Y016798D02*
X015319Y016870D01*
X015463Y016798D02*
X015606Y016654D01*
X015780Y016511D02*
X015780Y016798D01*
X015851Y016870D01*
X016067Y016870D01*
X016067Y016439D01*
X015851Y016439D01*
X015780Y016511D01*
X016319Y016454D02*
X016319Y016311D01*
X016391Y016239D01*
X016535Y016239D01*
X016606Y016311D01*
X016606Y016454D02*
X016463Y016526D01*
X016391Y016526D01*
X016319Y016454D01*
X016319Y016670D02*
X016606Y016670D01*
X016606Y016454D01*
X016780Y016311D02*
X016780Y016598D01*
X016851Y016670D01*
X017067Y016670D01*
X017067Y016239D01*
X016851Y016239D01*
X016780Y016311D01*
X017319Y016654D02*
X017606Y016654D01*
X017391Y016870D01*
X017391Y016439D01*
X017780Y016511D02*
X017780Y016798D01*
X017851Y016870D01*
X018067Y016870D01*
X018067Y016439D01*
X017851Y016439D01*
X017780Y016511D01*
X018319Y016526D02*
X018391Y016454D01*
X018319Y016383D01*
X018319Y016311D01*
X018391Y016239D01*
X018535Y016239D01*
X018606Y016311D01*
X018780Y016311D02*
X018780Y016598D01*
X018851Y016670D01*
X019067Y016670D01*
X019067Y016239D01*
X018851Y016239D01*
X018780Y016311D01*
X018606Y016598D02*
X018535Y016670D01*
X018391Y016670D01*
X018319Y016598D01*
X018319Y016526D01*
X018391Y016454D02*
X018463Y016454D01*
X019319Y016439D02*
X019606Y016439D01*
X019319Y016726D01*
X019319Y016798D01*
X019391Y016870D01*
X019535Y016870D01*
X019606Y016798D01*
X019780Y016798D02*
X019780Y016511D01*
X019851Y016439D01*
X020067Y016439D01*
X020067Y016870D01*
X019851Y016870D01*
X019780Y016798D01*
X020319Y016239D02*
X020606Y016239D01*
X020463Y016239D02*
X020463Y016670D01*
X020606Y016526D01*
X020780Y016598D02*
X020780Y016311D01*
X020851Y016239D01*
X021067Y016239D01*
X021067Y016670D01*
X020851Y016670D01*
X020780Y016598D01*
X021319Y016511D02*
X021391Y016439D01*
X021535Y016439D01*
X021606Y016511D01*
X021319Y016798D01*
X021319Y016511D01*
X021319Y016798D02*
X021391Y016870D01*
X021535Y016870D01*
X021606Y016798D01*
X021606Y016511D01*
X021780Y016511D02*
X021780Y016798D01*
X021851Y016870D01*
X022067Y016870D01*
X022067Y016439D01*
X021851Y016439D01*
X021780Y016511D01*
X021923Y002870D02*
X021780Y002726D01*
X021780Y002439D01*
X021606Y002511D02*
X021535Y002439D01*
X021391Y002439D01*
X021319Y002511D01*
X021319Y002654D01*
X021391Y002726D01*
X021463Y002726D01*
X021606Y002654D01*
X021606Y002870D01*
X021319Y002870D01*
X021067Y002526D02*
X020923Y002670D01*
X020780Y002526D01*
X020780Y002239D01*
X020780Y002454D02*
X021067Y002454D01*
X021067Y002526D02*
X021067Y002239D01*
X020606Y002454D02*
X020319Y002454D01*
X020391Y002239D02*
X020391Y002670D01*
X020606Y002454D01*
X020067Y002439D02*
X020067Y002726D01*
X019923Y002870D01*
X019780Y002726D01*
X019780Y002439D01*
X019606Y002511D02*
X019535Y002439D01*
X019391Y002439D01*
X019319Y002511D01*
X019319Y002583D01*
X019391Y002654D01*
X019463Y002654D01*
X019391Y002654D02*
X019319Y002726D01*
X019319Y002798D01*
X019391Y002870D01*
X019535Y002870D01*
X019606Y002798D01*
X019780Y002654D02*
X020067Y002654D01*
X019067Y002526D02*
X019067Y002239D01*
X019067Y002454D02*
X018780Y002454D01*
X018780Y002526D02*
X018780Y002239D01*
X018606Y002239D02*
X018319Y002526D01*
X018319Y002598D01*
X018391Y002670D01*
X018535Y002670D01*
X018606Y002598D01*
X018780Y002526D02*
X018923Y002670D01*
X019067Y002526D01*
X018606Y002239D02*
X018319Y002239D01*
X018067Y002439D02*
X018067Y002726D01*
X017923Y002870D01*
X017780Y002726D01*
X017780Y002439D01*
X017606Y002439D02*
X017319Y002439D01*
X017463Y002439D02*
X017463Y002870D01*
X017606Y002726D01*
X017780Y002654D02*
X018067Y002654D01*
X017067Y002526D02*
X017067Y002239D01*
X017067Y002454D02*
X016780Y002454D01*
X016780Y002526D02*
X016780Y002239D01*
X016606Y002311D02*
X016319Y002598D01*
X016319Y002311D01*
X016391Y002239D01*
X016535Y002239D01*
X016606Y002311D01*
X016606Y002598D01*
X016535Y002670D01*
X016391Y002670D01*
X016319Y002598D01*
X016780Y002526D02*
X016923Y002670D01*
X017067Y002526D01*
X021780Y002654D02*
X022067Y002654D01*
X022067Y002726D02*
X021923Y002870D01*
X022067Y002726D02*
X022067Y002439D01*
D17*
X021702Y002204D03*
X020702Y002904D03*
X019702Y002204D03*
X018702Y002904D03*
X017702Y002204D03*
X016702Y002904D03*
X017702Y016204D03*
X019702Y016204D03*
X021702Y016204D03*
X015702Y016204D03*
X013702Y016204D03*
X012702Y016904D03*
D18*
X015702Y018504D03*
X017702Y018504D03*
X019702Y018504D03*
X021702Y018504D03*
D19*
X013102Y018904D03*
X012102Y018904D03*
X011102Y018904D03*
X010102Y018904D03*
X009102Y018904D03*
X008102Y018904D03*
X007102Y018904D03*
X006102Y018904D03*
D20*
X014702Y018404D03*
X016702Y018404D03*
X018702Y018404D03*
X020702Y018404D03*
D21*
X016202Y016054D02*
X016202Y015904D01*
X016102Y016004D01*
X016202Y016054D02*
X015352Y016054D01*
X015202Y015904D01*
X015202Y015204D01*
X015302Y015104D01*
X015352Y015054D02*
X014452Y015054D01*
X014052Y015054D01*
X014202Y015204D01*
X014302Y015104D01*
X014202Y015204D02*
X014202Y015304D01*
X014202Y015804D01*
X014202Y015904D01*
X014102Y016004D01*
X014202Y015904D02*
X014352Y016054D01*
X014452Y016054D01*
X015352Y016054D01*
X015202Y015904D02*
X015102Y016004D01*
X014352Y016054D02*
X013952Y016054D01*
X013452Y016054D01*
X013352Y016054D01*
X013202Y015904D01*
X013202Y015804D01*
X013202Y015304D01*
X013202Y015204D01*
X013302Y015104D01*
X013202Y015054D02*
X013452Y015054D01*
X013952Y015054D01*
X014052Y015054D01*
X013202Y015054D02*
X013202Y015204D01*
X013202Y015904D02*
X013202Y016054D01*
X013352Y016054D01*
X013722Y017034D02*
X013082Y017784D01*
X012722Y017034D02*
X012082Y017784D01*
X011722Y017034D02*
X011082Y017784D01*
X010722Y017034D02*
X010082Y017784D01*
X009722Y017034D02*
X009082Y017784D01*
X008722Y017034D02*
X008082Y017784D01*
X007722Y017034D02*
X007082Y017784D01*
X006722Y017034D02*
X006082Y017784D01*
X015052Y015054D02*
X015202Y015204D01*
X015352Y015054D02*
X015052Y015054D01*
X015352Y015054D02*
X016052Y015054D01*
X016202Y015204D01*
X016202Y015054D01*
X016052Y015054D01*
X016202Y015204D02*
X016202Y015904D01*
D22*
X010702Y016804D03*
X008702Y016804D03*
M02*
