G75*
G70*
%OFA0B0*%
%FSLAX24Y24*%
%IPPOS*%
%LPD*%
%AMOC8*
5,1,8,0,0,1.08239X$1,22.5*
%
%ADD10C,0.0000*%
%ADD11C,0.0600*%
%ADD12R,0.0600X0.0600*%
%ADD13R,0.0394X0.0433*%
%ADD14R,0.0300X0.0600*%
%ADD15C,0.0740*%
%ADD16R,0.0433X0.0394*%
%ADD17C,0.0240*%
%ADD18C,0.0320*%
%ADD19C,0.0120*%
%ADD20C,0.0160*%
D10*
X001202Y000554D02*
X021702Y000554D01*
X021762Y000556D01*
X021823Y000561D01*
X021882Y000570D01*
X021941Y000583D01*
X022000Y000599D01*
X022057Y000619D01*
X022112Y000642D01*
X022167Y000669D01*
X022219Y000698D01*
X022270Y000731D01*
X022319Y000767D01*
X022365Y000805D01*
X022409Y000847D01*
X022451Y000891D01*
X022489Y000937D01*
X022525Y000986D01*
X022558Y001037D01*
X022587Y001089D01*
X022614Y001144D01*
X022637Y001199D01*
X022657Y001256D01*
X022673Y001315D01*
X022686Y001374D01*
X022695Y001433D01*
X022700Y001494D01*
X022702Y001554D01*
X023702Y002554D01*
X023702Y015554D01*
X022702Y016554D01*
X022702Y020554D01*
X022700Y020614D01*
X022695Y020675D01*
X022686Y020734D01*
X022673Y020793D01*
X022657Y020852D01*
X022637Y020909D01*
X022614Y020964D01*
X022587Y021019D01*
X022558Y021071D01*
X022525Y021122D01*
X022489Y021171D01*
X022451Y021217D01*
X022409Y021261D01*
X022365Y021303D01*
X022319Y021341D01*
X022270Y021377D01*
X022219Y021410D01*
X022167Y021439D01*
X022112Y021466D01*
X022057Y021489D01*
X022000Y021509D01*
X021941Y021525D01*
X021882Y021538D01*
X021823Y021547D01*
X021762Y021552D01*
X021702Y021554D01*
X001202Y021554D01*
X001201Y021555D02*
X001136Y021544D01*
X001072Y021529D01*
X001009Y021511D01*
X000946Y021489D01*
X000885Y021464D01*
X000826Y021435D01*
X000768Y021403D01*
X000712Y021368D01*
X000659Y021330D01*
X000607Y021289D01*
X000558Y021245D01*
X000511Y021198D01*
X000467Y021149D01*
X000426Y021097D01*
X000388Y021044D01*
X000353Y020988D01*
X000321Y020930D01*
X000292Y020871D01*
X000267Y020810D01*
X000245Y020747D01*
X000227Y020684D01*
X000212Y020620D01*
X000201Y020555D01*
X000202Y020554D02*
X000202Y001554D01*
X000201Y001554D02*
X000212Y001489D01*
X000227Y001425D01*
X000245Y001362D01*
X000267Y001299D01*
X000292Y001238D01*
X000321Y001179D01*
X000353Y001121D01*
X000388Y001065D01*
X000426Y001012D01*
X000467Y000960D01*
X000511Y000911D01*
X000558Y000864D01*
X000607Y000820D01*
X000659Y000779D01*
X000712Y000741D01*
X000768Y000706D01*
X000826Y000674D01*
X000885Y000645D01*
X000946Y000620D01*
X001009Y000598D01*
X001072Y000580D01*
X001136Y000565D01*
X001201Y000554D01*
D11*
X005702Y003304D03*
X007702Y003304D03*
X009702Y003554D03*
X010702Y003554D03*
X011702Y003554D03*
X012702Y003554D03*
X013702Y003554D03*
X014702Y003554D03*
X016702Y003554D03*
X017702Y003554D03*
X018702Y003554D03*
X019702Y003554D03*
X020702Y003554D03*
X021702Y003554D03*
X021702Y001554D03*
X020702Y001554D03*
X019702Y001554D03*
X018702Y001554D03*
X017702Y001554D03*
X016702Y001554D03*
X014702Y001554D03*
X013702Y001554D03*
X012702Y001554D03*
X011702Y001554D03*
X010702Y001554D03*
X009702Y001554D03*
X010202Y006054D03*
X011202Y006054D03*
X012202Y006054D03*
X013202Y006054D03*
X013202Y007054D03*
X012202Y007054D03*
X011202Y007054D03*
X010202Y007054D03*
X009202Y007054D03*
X009202Y006054D03*
X008202Y006054D03*
X008202Y007054D03*
X008202Y008054D03*
X009202Y008054D03*
X010202Y008054D03*
X011202Y008054D03*
X012202Y008054D03*
X013202Y008054D03*
X013202Y009054D03*
X012202Y009054D03*
X011202Y009054D03*
X010202Y009054D03*
X009202Y009054D03*
X008202Y009054D03*
X008202Y010054D03*
X009202Y010054D03*
X010202Y010054D03*
X011202Y010054D03*
X012202Y010054D03*
X013202Y010054D03*
X013202Y011054D03*
X012202Y011054D03*
X011202Y011054D03*
X010202Y011054D03*
X009202Y011054D03*
X008202Y011054D03*
X008202Y012054D03*
X009202Y012054D03*
X010202Y012054D03*
X011202Y012054D03*
X012202Y012054D03*
X013202Y012054D03*
X014202Y012054D03*
X015202Y012054D03*
X016202Y012054D03*
X017202Y012054D03*
X018202Y012054D03*
X019202Y012054D03*
X020202Y012054D03*
X021202Y012054D03*
X022202Y012054D03*
X022202Y011054D03*
X022202Y010054D03*
X021202Y010054D03*
X021202Y011054D03*
X020202Y011054D03*
X020202Y010054D03*
X019202Y010054D03*
X019202Y011054D03*
X018202Y011054D03*
X018202Y010054D03*
X017202Y010054D03*
X017202Y011054D03*
X016202Y011054D03*
X016202Y010054D03*
X015202Y010054D03*
X015202Y011054D03*
X014202Y011054D03*
X014202Y010054D03*
X014202Y009054D03*
X015202Y009054D03*
X016202Y009054D03*
X017202Y009054D03*
X018202Y009054D03*
X019202Y009054D03*
X020202Y009054D03*
X020202Y008054D03*
X019202Y008054D03*
X018202Y008054D03*
X017202Y008054D03*
X016202Y008054D03*
X015202Y008054D03*
X014202Y008054D03*
X014202Y007054D03*
X015202Y007054D03*
X016202Y007054D03*
X017202Y007054D03*
X018202Y007054D03*
X019202Y007054D03*
X020202Y007054D03*
X020202Y006054D03*
X019202Y006054D03*
X018202Y006054D03*
X017202Y006054D03*
X016202Y006054D03*
X015202Y006054D03*
X014202Y006054D03*
X021202Y006054D03*
X022202Y006054D03*
X022202Y007054D03*
X021202Y007054D03*
X021202Y008054D03*
X022202Y008054D03*
X022202Y009054D03*
X021202Y009054D03*
X021202Y013054D03*
X022202Y013054D03*
X020202Y013054D03*
X019202Y013054D03*
X018202Y013054D03*
X017202Y013054D03*
X016202Y013054D03*
X015202Y013054D03*
X014202Y013054D03*
X013202Y013054D03*
X012202Y013054D03*
X011202Y013054D03*
X010202Y013054D03*
X009202Y013054D03*
X008202Y013054D03*
X007202Y013054D03*
X006202Y013054D03*
X005202Y013054D03*
X004202Y013054D03*
X003202Y013054D03*
X002202Y013054D03*
X002202Y012054D03*
X003202Y012054D03*
X004202Y012054D03*
X005202Y012054D03*
X006202Y012054D03*
X007202Y012054D03*
X007202Y011054D03*
X007202Y010054D03*
X006202Y010054D03*
X006202Y011054D03*
X005202Y011054D03*
X005202Y010054D03*
X004202Y010054D03*
X004202Y011054D03*
X003202Y011054D03*
X003202Y010054D03*
X002202Y010054D03*
X002202Y011054D03*
X001202Y011054D03*
X001202Y010054D03*
X001202Y009054D03*
X001202Y008054D03*
X002202Y008054D03*
X003202Y008054D03*
X004202Y008054D03*
X005202Y008054D03*
X006202Y008054D03*
X007202Y008054D03*
X007202Y009054D03*
X006202Y009054D03*
X005202Y009054D03*
X004202Y009054D03*
X003202Y009054D03*
X002202Y009054D03*
X002202Y007054D03*
X003202Y007054D03*
X004202Y007054D03*
X005202Y007054D03*
X006202Y007054D03*
X007202Y007054D03*
X007202Y006054D03*
X006202Y006054D03*
X005202Y006054D03*
X004202Y006054D03*
X003202Y006054D03*
X002202Y006054D03*
X001202Y006054D03*
X001202Y007054D03*
X001202Y012054D03*
X001202Y013054D03*
X002202Y018304D03*
X003202Y018304D03*
X004202Y018304D03*
X006102Y020554D03*
X007102Y020554D03*
X008102Y020554D03*
X009102Y020554D03*
X010102Y020554D03*
X011102Y020554D03*
X012102Y020554D03*
X014202Y018304D03*
X015202Y018304D03*
X016202Y018304D03*
X017202Y018304D03*
X017702Y020554D03*
X018702Y020554D03*
X019702Y020554D03*
X020702Y020554D03*
X016702Y020554D03*
X015702Y020554D03*
X014702Y020554D03*
X014702Y015554D03*
X015702Y015554D03*
X016702Y015554D03*
X017702Y015554D03*
X018702Y015554D03*
X019702Y015554D03*
X020702Y015554D03*
X012702Y015554D03*
X011702Y015554D03*
X010702Y015554D03*
X009702Y015554D03*
X008702Y015554D03*
X007702Y015554D03*
X006702Y015554D03*
X001202Y020354D03*
D12*
X001202Y018304D03*
X013102Y020554D03*
X013702Y015554D03*
X021702Y015554D03*
X021702Y020554D03*
D13*
X021202Y019239D03*
X021202Y018570D03*
X005002Y020070D03*
X005002Y020739D03*
X015702Y002889D03*
X015702Y002220D03*
X008702Y002139D03*
X008702Y001470D03*
X007702Y001470D03*
X007702Y002139D03*
X006702Y002139D03*
X006702Y001470D03*
X005702Y001470D03*
X005702Y002139D03*
X004702Y002139D03*
X004702Y001470D03*
X003702Y001470D03*
X003702Y002139D03*
D14*
X002502Y001804D03*
X001002Y001804D03*
X001002Y003804D03*
X002502Y003804D03*
D15*
X002202Y005054D03*
X003202Y005054D03*
X004202Y005054D03*
X005202Y005054D03*
X006202Y005054D03*
X007202Y005054D03*
X008202Y005054D03*
X009202Y005054D03*
X010202Y005054D03*
X011202Y005054D03*
X012202Y005054D03*
X013202Y005054D03*
X014202Y005054D03*
X015202Y005054D03*
X016202Y005054D03*
X017202Y005054D03*
X018202Y005054D03*
X019202Y005054D03*
X020202Y005054D03*
X021202Y005054D03*
X022202Y005054D03*
X022202Y014054D03*
X021202Y014054D03*
X020202Y014054D03*
X019202Y014054D03*
X018202Y014054D03*
X017202Y014054D03*
X016202Y014054D03*
X015202Y014054D03*
X014202Y014054D03*
X013202Y014054D03*
X012202Y014054D03*
X011202Y014054D03*
X010202Y014054D03*
X009202Y014054D03*
X008202Y014054D03*
X007202Y014054D03*
X006202Y014054D03*
X005202Y014054D03*
X004202Y014054D03*
X003202Y014054D03*
X002202Y014054D03*
X001202Y014054D03*
X001202Y005054D03*
D16*
X002117Y015554D03*
X002786Y015554D03*
X002786Y016554D03*
X002117Y016554D03*
X004117Y016554D03*
X004786Y016554D03*
X004786Y015554D03*
X004117Y015554D03*
X013567Y019554D03*
X014236Y019554D03*
D17*
X014702Y003554D02*
X014702Y001554D01*
X016702Y001554D02*
X016702Y003554D01*
X017702Y003554D02*
X017702Y001554D01*
X018702Y001554D02*
X018702Y003554D01*
X019702Y003554D02*
X019702Y001554D01*
X020702Y001554D02*
X020702Y003554D01*
X021702Y003554D02*
X021702Y001554D01*
X010702Y001554D02*
X010702Y003554D01*
X009702Y003554D02*
X009702Y001554D01*
X009702Y003554D01*
D18*
X011702Y003554D02*
X011702Y004054D01*
X011704Y004084D01*
X011709Y004114D01*
X011718Y004143D01*
X011731Y004170D01*
X011746Y004196D01*
X011765Y004220D01*
X011786Y004241D01*
X011810Y004260D01*
X011836Y004275D01*
X011863Y004288D01*
X011892Y004297D01*
X011922Y004302D01*
X011952Y004304D01*
X015702Y004304D01*
X023152Y004304D01*
X023152Y013804D01*
X023150Y013834D01*
X023145Y013864D01*
X023136Y013893D01*
X023123Y013920D01*
X023108Y013946D01*
X023089Y013970D01*
X023068Y013991D01*
X023044Y014010D01*
X023018Y014025D01*
X022991Y014038D01*
X022962Y014047D01*
X022932Y014052D01*
X022902Y014054D01*
X022202Y014054D01*
X021202Y014054D01*
X020202Y014054D01*
X019202Y014054D01*
X018202Y014054D01*
X017202Y014054D01*
X016202Y014054D01*
X015202Y014054D01*
X014202Y014054D01*
X013202Y014054D01*
X012202Y014054D01*
X011202Y014054D01*
X010202Y014054D01*
X009202Y014054D01*
X008202Y014054D01*
X007202Y014054D01*
X006202Y014054D01*
X005202Y014054D01*
X004202Y014054D01*
X003202Y014054D01*
X002202Y014054D01*
X001202Y014054D01*
X001702Y014054D01*
X011702Y003554D02*
X011702Y001554D01*
D19*
X001702Y014054D02*
X001802Y014154D01*
X002786Y015554D02*
X004117Y015554D01*
X004786Y015554D02*
X005202Y015554D01*
X005952Y017054D01*
X014202Y017054D01*
X014702Y016554D01*
X014702Y015554D01*
X015702Y015554D02*
X015702Y017054D01*
X015202Y017554D01*
X005702Y017554D01*
X005202Y016554D01*
X004786Y016554D01*
X004117Y016554D02*
X002786Y016554D01*
D20*
X002922Y001030D02*
X000773Y001030D01*
X000719Y001071D02*
X000905Y000928D01*
X001123Y000836D01*
X001226Y000814D01*
X003050Y000814D01*
X003043Y000817D01*
X003015Y000845D01*
X002983Y000870D01*
X002975Y000884D01*
X002964Y000896D01*
X002949Y000933D01*
X002929Y000968D01*
X002928Y000984D01*
X002922Y000999D01*
X002922Y001039D01*
X002917Y001079D01*
X002922Y001094D01*
X002922Y002031D01*
X002916Y002063D01*
X002922Y002086D01*
X002922Y002110D01*
X002934Y002140D01*
X002852Y002140D01*
X002852Y002187D02*
X002782Y002257D01*
X002782Y003351D01*
X002852Y003421D01*
X002852Y003775D01*
X003076Y004024D01*
X009336Y004024D01*
X009400Y003960D01*
X009278Y003838D01*
X009202Y003654D01*
X009202Y003455D01*
X009278Y003271D01*
X009382Y003167D01*
X009382Y001941D01*
X009278Y001838D01*
X009202Y001654D01*
X009202Y001455D01*
X009278Y001271D01*
X009415Y001134D01*
X009062Y001134D01*
X009098Y001170D01*
X009098Y001769D01*
X009049Y001818D01*
X009078Y001848D01*
X009078Y002120D01*
X008720Y002120D01*
X008720Y002157D01*
X009078Y002157D01*
X009078Y002430D01*
X008973Y002535D01*
X008720Y002535D01*
X008720Y002158D01*
X008683Y002158D01*
X008683Y002535D01*
X008430Y002535D01*
X008325Y002430D01*
X008325Y002157D01*
X008683Y002157D01*
X008683Y002120D01*
X008325Y002120D01*
X008325Y001848D01*
X008354Y001818D01*
X008305Y001769D01*
X008305Y001750D01*
X008098Y001750D01*
X008098Y001769D01*
X008063Y001804D01*
X008098Y001840D01*
X008098Y002438D01*
X007982Y002555D01*
X007982Y002879D01*
X007985Y002880D01*
X008125Y003021D01*
X008202Y003205D01*
X008202Y003404D01*
X008125Y003588D01*
X007985Y003728D01*
X007801Y003804D01*
X007602Y003804D01*
X007418Y003728D01*
X007278Y003588D01*
X007202Y003404D01*
X007202Y003205D01*
X007278Y003021D01*
X007418Y002880D01*
X007422Y002879D01*
X007422Y002555D01*
X007305Y002438D01*
X007305Y001840D01*
X007340Y001804D01*
X007305Y001769D01*
X007305Y001170D01*
X007341Y001134D01*
X007062Y001134D01*
X007098Y001170D01*
X007098Y001769D01*
X007049Y001818D01*
X007078Y001848D01*
X007078Y002120D01*
X006720Y002120D01*
X006720Y002157D01*
X007078Y002157D01*
X007078Y002430D01*
X006973Y002535D01*
X006720Y002535D01*
X006720Y002158D01*
X006683Y002158D01*
X006683Y002535D01*
X006430Y002535D01*
X006325Y002430D01*
X006325Y002157D01*
X006683Y002157D01*
X006683Y002120D01*
X006325Y002120D01*
X006325Y001848D01*
X006354Y001818D01*
X006305Y001769D01*
X006305Y001750D01*
X006098Y001750D01*
X006098Y001769D01*
X006063Y001804D01*
X006098Y001840D01*
X006098Y002438D01*
X005982Y002555D01*
X005982Y002879D01*
X005985Y002880D01*
X006125Y003021D01*
X006202Y003205D01*
X006202Y003404D01*
X006125Y003588D01*
X005985Y003728D01*
X005801Y003804D01*
X005602Y003804D01*
X005418Y003728D01*
X005278Y003588D01*
X005202Y003404D01*
X005202Y003205D01*
X005278Y003021D01*
X005418Y002880D01*
X005422Y002879D01*
X005422Y002555D01*
X005305Y002438D01*
X005305Y001840D01*
X005340Y001804D01*
X005305Y001769D01*
X005305Y001170D01*
X005341Y001134D01*
X005062Y001134D01*
X005098Y001170D01*
X005098Y001769D01*
X005049Y001818D01*
X005078Y001848D01*
X005078Y002120D01*
X004720Y002120D01*
X004720Y002157D01*
X005078Y002157D01*
X005078Y002430D01*
X004973Y002535D01*
X004720Y002535D01*
X004720Y002158D01*
X004683Y002158D01*
X004683Y002535D01*
X004430Y002535D01*
X004325Y002430D01*
X004325Y002157D01*
X004683Y002157D01*
X004683Y002120D01*
X004325Y002120D01*
X004325Y001848D01*
X004354Y001818D01*
X004305Y001769D01*
X004305Y001750D01*
X004098Y001750D01*
X004098Y001769D01*
X004063Y001804D01*
X004098Y001840D01*
X004098Y002438D01*
X003981Y002555D01*
X003422Y002555D01*
X003305Y002438D01*
X003305Y002356D01*
X003178Y002334D01*
X003146Y002334D01*
X003124Y002325D01*
X003100Y002321D01*
X003073Y002304D01*
X003043Y002292D01*
X003026Y002275D01*
X003006Y002262D01*
X002987Y002236D01*
X002964Y002213D01*
X002955Y002191D01*
X002941Y002171D01*
X002934Y002140D01*
X002852Y002187D02*
X002852Y001421D01*
X002734Y001304D01*
X002269Y001304D01*
X002152Y001421D01*
X002152Y002187D01*
X002222Y002257D01*
X002222Y003351D01*
X002152Y003421D01*
X002152Y004187D01*
X002269Y004304D01*
X002575Y004304D01*
X002711Y004456D01*
X002714Y004463D01*
X002748Y004497D01*
X002781Y004533D01*
X002788Y004536D01*
X002793Y004542D01*
X002838Y004560D01*
X002881Y004581D01*
X002889Y004581D01*
X002896Y004584D01*
X002899Y004584D01*
X002890Y004588D01*
X002735Y004743D01*
X002702Y004824D01*
X002668Y004743D01*
X002513Y004588D01*
X002311Y004504D01*
X002222Y004504D01*
X002222Y005034D01*
X002222Y005074D01*
X002652Y005074D01*
X003181Y005074D01*
X003181Y005034D01*
X002652Y005034D01*
X002222Y005034D01*
X002181Y005034D01*
X001652Y005034D01*
X001222Y005034D01*
X001222Y005074D01*
X001652Y005074D01*
X002181Y005074D01*
X002181Y005034D01*
X002181Y004504D01*
X002092Y004504D01*
X001890Y004588D01*
X001735Y004743D01*
X001702Y004824D01*
X001668Y004743D01*
X001513Y004588D01*
X001311Y004504D01*
X001222Y004504D01*
X001222Y005034D01*
X001181Y005034D01*
X000652Y005034D01*
X000652Y004945D01*
X000735Y004743D01*
X000890Y004588D01*
X001092Y004504D01*
X001181Y004504D01*
X001181Y005034D01*
X001181Y005074D01*
X000652Y005074D01*
X000652Y005164D01*
X000735Y005366D01*
X000890Y005521D01*
X001037Y005581D01*
X000918Y005630D01*
X000778Y005771D01*
X000702Y005955D01*
X000702Y006154D01*
X000778Y006338D01*
X000918Y006478D01*
X001102Y006554D01*
X001301Y006554D01*
X001485Y006478D01*
X001625Y006338D01*
X001702Y006154D01*
X001702Y005955D01*
X001778Y005771D01*
X001918Y005630D01*
X002037Y005581D01*
X001890Y005521D01*
X001735Y005366D01*
X001702Y005284D01*
X001668Y005366D01*
X001513Y005521D01*
X001366Y005581D01*
X001485Y005630D01*
X001625Y005771D01*
X001702Y005955D01*
X001702Y006154D01*
X001778Y006338D01*
X001918Y006478D01*
X002102Y006554D01*
X002301Y006554D01*
X002485Y006478D01*
X002625Y006338D01*
X002702Y006154D01*
X002702Y005955D01*
X002778Y005771D01*
X002918Y005630D01*
X003037Y005581D01*
X002890Y005521D01*
X002735Y005366D01*
X002702Y005284D01*
X002668Y005366D01*
X002513Y005521D01*
X002366Y005581D01*
X002485Y005630D01*
X002625Y005771D01*
X002702Y005955D01*
X002702Y006154D01*
X002778Y006338D01*
X002918Y006478D01*
X003102Y006554D01*
X003301Y006554D01*
X003485Y006478D01*
X003625Y006338D01*
X003702Y006154D01*
X003702Y005955D01*
X003778Y005771D01*
X003918Y005630D01*
X004037Y005581D01*
X003890Y005521D01*
X003735Y005366D01*
X003702Y005284D01*
X003668Y005366D01*
X003513Y005521D01*
X003366Y005581D01*
X003485Y005630D01*
X003625Y005771D01*
X003702Y005955D01*
X003702Y006154D01*
X003778Y006338D01*
X003918Y006478D01*
X004102Y006554D01*
X004301Y006554D01*
X004485Y006478D01*
X004625Y006338D01*
X004702Y006154D01*
X004702Y005955D01*
X004778Y005771D01*
X004918Y005630D01*
X005037Y005581D01*
X004890Y005521D01*
X004735Y005366D01*
X004702Y005284D01*
X004668Y005366D01*
X004513Y005521D01*
X004366Y005581D01*
X004485Y005630D01*
X004625Y005771D01*
X004702Y005955D01*
X004702Y006154D01*
X004778Y006338D01*
X004918Y006478D01*
X005102Y006554D01*
X005301Y006554D01*
X005485Y006478D01*
X005625Y006338D01*
X005702Y006154D01*
X005702Y005955D01*
X005778Y005771D01*
X005918Y005630D01*
X006037Y005581D01*
X005890Y005521D01*
X005735Y005366D01*
X005702Y005284D01*
X005668Y005366D01*
X005513Y005521D01*
X005366Y005581D01*
X005485Y005630D01*
X005625Y005771D01*
X005702Y005955D01*
X005702Y006154D01*
X005778Y006338D01*
X005918Y006478D01*
X006102Y006554D01*
X006301Y006554D01*
X006485Y006478D01*
X006625Y006338D01*
X006702Y006154D01*
X006702Y005955D01*
X006778Y005771D01*
X006918Y005630D01*
X007037Y005581D01*
X006890Y005521D01*
X006735Y005366D01*
X006702Y005284D01*
X006668Y005366D01*
X006513Y005521D01*
X006366Y005581D01*
X006485Y005630D01*
X006625Y005771D01*
X006702Y005955D01*
X006702Y006154D01*
X006778Y006338D01*
X006918Y006478D01*
X007102Y006554D01*
X007301Y006554D01*
X007485Y006478D01*
X007625Y006338D01*
X007702Y006154D01*
X007702Y005955D01*
X007778Y005771D01*
X007918Y005630D01*
X008037Y005581D01*
X007890Y005521D01*
X007735Y005366D01*
X007702Y005284D01*
X007668Y005366D01*
X007513Y005521D01*
X007366Y005581D01*
X007485Y005630D01*
X007625Y005771D01*
X007702Y005955D01*
X007702Y006154D01*
X007778Y006338D01*
X007918Y006478D01*
X008102Y006554D01*
X008301Y006554D01*
X008485Y006478D01*
X008625Y006338D01*
X008702Y006154D01*
X008702Y005955D01*
X008778Y005771D01*
X008918Y005630D01*
X009037Y005581D01*
X008890Y005521D01*
X008735Y005366D01*
X008702Y005284D01*
X008668Y005366D01*
X008513Y005521D01*
X008366Y005581D01*
X008485Y005630D01*
X008625Y005771D01*
X008702Y005955D01*
X008702Y006154D01*
X008778Y006338D01*
X008918Y006478D01*
X009102Y006554D01*
X009301Y006554D01*
X009485Y006478D01*
X009625Y006338D01*
X009702Y006154D01*
X009702Y005955D01*
X009778Y005771D01*
X009918Y005630D01*
X010037Y005581D01*
X009890Y005521D01*
X009735Y005366D01*
X009702Y005284D01*
X009668Y005366D01*
X009513Y005521D01*
X009366Y005581D01*
X009485Y005630D01*
X009625Y005771D01*
X009702Y005955D01*
X009702Y006154D01*
X009778Y006338D01*
X009918Y006478D01*
X010102Y006554D01*
X010301Y006554D01*
X010485Y006478D01*
X010625Y006338D01*
X010702Y006154D01*
X010702Y005955D01*
X010778Y005771D01*
X010918Y005630D01*
X011037Y005581D01*
X010890Y005521D01*
X010735Y005366D01*
X010702Y005284D01*
X010668Y005366D01*
X010513Y005521D01*
X010366Y005581D01*
X010485Y005630D01*
X010625Y005771D01*
X010702Y005955D01*
X010702Y006154D01*
X010778Y006338D01*
X010918Y006478D01*
X011102Y006554D01*
X011301Y006554D01*
X011485Y006478D01*
X011625Y006338D01*
X011702Y006154D01*
X011702Y005955D01*
X011778Y005771D01*
X011918Y005630D01*
X012037Y005581D01*
X011890Y005521D01*
X011735Y005366D01*
X011702Y005284D01*
X011668Y005366D01*
X011513Y005521D01*
X011366Y005581D01*
X011485Y005630D01*
X011625Y005771D01*
X011702Y005955D01*
X011702Y006154D01*
X011778Y006338D01*
X011918Y006478D01*
X012102Y006554D01*
X012301Y006554D01*
X012485Y006478D01*
X012625Y006338D01*
X012702Y006154D01*
X012702Y005955D01*
X012778Y005771D01*
X012918Y005630D01*
X013037Y005581D01*
X012890Y005521D01*
X012735Y005366D01*
X012702Y005284D01*
X012668Y005366D01*
X012513Y005521D01*
X012366Y005581D01*
X012485Y005630D01*
X012625Y005771D01*
X012702Y005955D01*
X012702Y006154D01*
X012778Y006338D01*
X012918Y006478D01*
X013102Y006554D01*
X013301Y006554D01*
X013485Y006478D01*
X013625Y006338D01*
X013702Y006154D01*
X013702Y005955D01*
X013778Y005771D01*
X013918Y005630D01*
X014037Y005581D01*
X013890Y005521D01*
X013735Y005366D01*
X013702Y005284D01*
X013668Y005366D01*
X013513Y005521D01*
X013366Y005581D01*
X013485Y005630D01*
X013625Y005771D01*
X013702Y005955D01*
X013702Y006154D01*
X013778Y006338D01*
X013918Y006478D01*
X014102Y006554D01*
X014301Y006554D01*
X014485Y006478D01*
X014625Y006338D01*
X014702Y006154D01*
X014702Y005955D01*
X014778Y005771D01*
X014918Y005630D01*
X015037Y005581D01*
X014890Y005521D01*
X014735Y005366D01*
X014702Y005284D01*
X014668Y005366D01*
X014513Y005521D01*
X014366Y005581D01*
X014485Y005630D01*
X014625Y005771D01*
X014702Y005955D01*
X014702Y006154D01*
X014778Y006338D01*
X014918Y006478D01*
X015102Y006554D01*
X015301Y006554D01*
X015485Y006478D01*
X015625Y006338D01*
X015702Y006154D01*
X015702Y005955D01*
X015778Y005771D01*
X015918Y005630D01*
X016037Y005581D01*
X015890Y005521D01*
X015735Y005366D01*
X015702Y005284D01*
X015668Y005366D01*
X015513Y005521D01*
X015366Y005581D01*
X015485Y005630D01*
X015625Y005771D01*
X015702Y005955D01*
X015702Y006154D01*
X015778Y006338D01*
X015918Y006478D01*
X016102Y006554D01*
X016301Y006554D01*
X016485Y006478D01*
X016625Y006338D01*
X016702Y006154D01*
X016702Y005955D01*
X016778Y005771D01*
X016918Y005630D01*
X017037Y005581D01*
X016890Y005521D01*
X016735Y005366D01*
X016702Y005284D01*
X016668Y005366D01*
X016513Y005521D01*
X016366Y005581D01*
X016485Y005630D01*
X016625Y005771D01*
X016702Y005955D01*
X016702Y006154D01*
X016778Y006338D01*
X016918Y006478D01*
X017102Y006554D01*
X017301Y006554D01*
X017485Y006478D01*
X017625Y006338D01*
X017702Y006154D01*
X017702Y005955D01*
X017778Y005771D01*
X017918Y005630D01*
X018037Y005581D01*
X017890Y005521D01*
X017735Y005366D01*
X017702Y005284D01*
X017668Y005366D01*
X017513Y005521D01*
X017366Y005581D01*
X017485Y005630D01*
X017625Y005771D01*
X017702Y005955D01*
X017702Y006154D01*
X017778Y006338D01*
X017918Y006478D01*
X018102Y006554D01*
X018301Y006554D01*
X018485Y006478D01*
X018625Y006338D01*
X018702Y006154D01*
X018702Y005955D01*
X018778Y005771D01*
X018918Y005630D01*
X019037Y005581D01*
X018890Y005521D01*
X018735Y005366D01*
X018702Y005284D01*
X018668Y005366D01*
X018513Y005521D01*
X018366Y005581D01*
X018485Y005630D01*
X018625Y005771D01*
X018702Y005955D01*
X018702Y006154D01*
X018778Y006338D01*
X018918Y006478D01*
X019102Y006554D01*
X019301Y006554D01*
X019485Y006478D01*
X019625Y006338D01*
X019702Y006154D01*
X019702Y005955D01*
X019778Y005771D01*
X019918Y005630D01*
X020037Y005581D01*
X019890Y005521D01*
X019735Y005366D01*
X019702Y005284D01*
X019668Y005366D01*
X019513Y005521D01*
X019366Y005581D01*
X019485Y005630D01*
X019625Y005771D01*
X019702Y005955D01*
X019702Y006154D01*
X019778Y006338D01*
X019918Y006478D01*
X020102Y006554D01*
X020301Y006554D01*
X020485Y006478D01*
X020625Y006338D01*
X020702Y006154D01*
X020702Y005955D01*
X020778Y005771D01*
X020918Y005630D01*
X021037Y005581D01*
X020890Y005521D01*
X020735Y005366D01*
X020702Y005284D01*
X020668Y005366D01*
X020513Y005521D01*
X020366Y005581D01*
X020485Y005630D01*
X020625Y005771D01*
X020702Y005955D01*
X020702Y006154D01*
X020778Y006338D01*
X020918Y006478D01*
X021102Y006554D01*
X021301Y006554D01*
X021485Y006478D01*
X021625Y006338D01*
X021702Y006154D01*
X021702Y005955D01*
X021778Y005771D01*
X021918Y005630D01*
X022037Y005581D01*
X021890Y005521D01*
X021735Y005366D01*
X021702Y005284D01*
X021668Y005366D01*
X021513Y005521D01*
X021366Y005581D01*
X021485Y005630D01*
X021625Y005771D01*
X021702Y005955D01*
X021702Y006154D01*
X021778Y006338D01*
X021918Y006478D01*
X022102Y006554D01*
X022301Y006554D01*
X022485Y006478D01*
X022625Y006338D01*
X022702Y006154D01*
X022702Y005955D01*
X022625Y005771D01*
X022485Y005630D01*
X022366Y005581D01*
X022513Y005521D01*
X022668Y005366D01*
X022752Y005164D01*
X022752Y005074D01*
X022222Y005074D01*
X022222Y005034D01*
X022752Y005034D01*
X022752Y004945D01*
X022668Y004743D01*
X022589Y004664D01*
X022792Y004664D01*
X022792Y013694D01*
X022648Y013694D01*
X022524Y013571D01*
X022392Y013516D01*
X022485Y013478D01*
X022625Y013338D01*
X022702Y013154D01*
X022702Y012955D01*
X022625Y012771D01*
X022485Y012630D01*
X022301Y012554D01*
X022102Y012554D01*
X021918Y012478D01*
X021778Y012338D01*
X021702Y012154D01*
X021702Y011955D01*
X021778Y011771D01*
X021918Y011630D01*
X022102Y011554D01*
X021918Y011478D01*
X021778Y011338D01*
X021702Y011154D01*
X021702Y010955D01*
X021778Y010771D01*
X021918Y010630D01*
X022102Y010554D01*
X021918Y010478D01*
X021778Y010338D01*
X021702Y010154D01*
X021702Y009955D01*
X021778Y009771D01*
X021918Y009630D01*
X022102Y009554D01*
X021918Y009478D01*
X021778Y009338D01*
X021702Y009154D01*
X021702Y008955D01*
X021778Y008771D01*
X021918Y008630D01*
X022102Y008554D01*
X021918Y008478D01*
X021778Y008338D01*
X021702Y008154D01*
X021702Y007955D01*
X021778Y007771D01*
X021918Y007630D01*
X022102Y007554D01*
X021918Y007478D01*
X021778Y007338D01*
X021702Y007154D01*
X021702Y006955D01*
X021778Y006771D01*
X021918Y006630D01*
X022102Y006554D01*
X022301Y006554D01*
X022485Y006630D01*
X022625Y006771D01*
X022702Y006955D01*
X022702Y007154D01*
X022625Y007338D01*
X022485Y007478D01*
X022301Y007554D01*
X022102Y007554D01*
X022301Y007554D01*
X022485Y007630D01*
X022625Y007771D01*
X022702Y007955D01*
X022702Y008154D01*
X022625Y008338D01*
X022485Y008478D01*
X022301Y008554D01*
X022102Y008554D01*
X022301Y008554D01*
X022485Y008630D01*
X022625Y008771D01*
X022702Y008955D01*
X022702Y009154D01*
X022625Y009338D01*
X022485Y009478D01*
X022301Y009554D01*
X022102Y009554D01*
X022301Y009554D01*
X022485Y009630D01*
X022625Y009771D01*
X022702Y009955D01*
X022702Y010154D01*
X022625Y010338D01*
X022485Y010478D01*
X022301Y010554D01*
X022102Y010554D01*
X022301Y010554D01*
X022485Y010630D01*
X022625Y010771D01*
X022702Y010955D01*
X022702Y011154D01*
X022625Y011338D01*
X022485Y011478D01*
X022301Y011554D01*
X022102Y011554D01*
X022301Y011554D01*
X022485Y011630D01*
X022625Y011771D01*
X022702Y011955D01*
X022702Y012154D01*
X022625Y012338D01*
X022485Y012478D01*
X022301Y012554D01*
X022102Y012554D01*
X021918Y012630D01*
X021778Y012771D01*
X021702Y012955D01*
X021702Y013154D01*
X021778Y013338D01*
X021918Y013478D01*
X022011Y013516D01*
X021879Y013571D01*
X021755Y013694D01*
X021648Y013694D01*
X021524Y013571D01*
X021392Y013516D01*
X021485Y013478D01*
X021625Y013338D01*
X021702Y013154D01*
X021702Y012955D01*
X021625Y012771D01*
X021485Y012630D01*
X021301Y012554D01*
X021102Y012554D01*
X020918Y012478D01*
X020778Y012338D01*
X020702Y012154D01*
X020702Y011955D01*
X020778Y011771D01*
X020918Y011630D01*
X021102Y011554D01*
X020918Y011478D01*
X020778Y011338D01*
X020702Y011154D01*
X020702Y010955D01*
X020778Y010771D01*
X020918Y010630D01*
X021102Y010554D01*
X020918Y010478D01*
X020778Y010338D01*
X020702Y010154D01*
X020702Y009955D01*
X020778Y009771D01*
X020918Y009630D01*
X021102Y009554D01*
X020918Y009478D01*
X020778Y009338D01*
X020702Y009154D01*
X020702Y008955D01*
X020778Y008771D01*
X020918Y008630D01*
X021102Y008554D01*
X020918Y008478D01*
X020778Y008338D01*
X020702Y008154D01*
X020702Y007955D01*
X020778Y007771D01*
X020918Y007630D01*
X021102Y007554D01*
X020918Y007478D01*
X020778Y007338D01*
X020702Y007154D01*
X020702Y006955D01*
X020778Y006771D01*
X020918Y006630D01*
X021102Y006554D01*
X021301Y006554D01*
X021485Y006630D01*
X021625Y006771D01*
X021702Y006955D01*
X021702Y007154D01*
X021625Y007338D01*
X021485Y007478D01*
X021301Y007554D01*
X021102Y007554D01*
X021301Y007554D01*
X021485Y007630D01*
X021625Y007771D01*
X021702Y007955D01*
X021702Y008154D01*
X021625Y008338D01*
X021485Y008478D01*
X021301Y008554D01*
X021102Y008554D01*
X021301Y008554D01*
X021485Y008630D01*
X021625Y008771D01*
X021702Y008955D01*
X021702Y009154D01*
X021625Y009338D01*
X021485Y009478D01*
X021301Y009554D01*
X021102Y009554D01*
X021301Y009554D01*
X021485Y009630D01*
X021625Y009771D01*
X021702Y009955D01*
X021702Y010154D01*
X021625Y010338D01*
X021485Y010478D01*
X021301Y010554D01*
X021102Y010554D01*
X021301Y010554D01*
X021485Y010630D01*
X021625Y010771D01*
X021702Y010955D01*
X021702Y011154D01*
X021625Y011338D01*
X021485Y011478D01*
X021301Y011554D01*
X021102Y011554D01*
X021301Y011554D01*
X021485Y011630D01*
X021625Y011771D01*
X021702Y011955D01*
X021702Y012154D01*
X021625Y012338D01*
X021485Y012478D01*
X021301Y012554D01*
X021102Y012554D01*
X020918Y012630D01*
X020778Y012771D01*
X020702Y012955D01*
X020702Y013154D01*
X020778Y013338D01*
X020918Y013478D01*
X021011Y013516D01*
X020879Y013571D01*
X020755Y013694D01*
X020648Y013694D01*
X020524Y013571D01*
X020392Y013516D01*
X020485Y013478D01*
X020625Y013338D01*
X020702Y013154D01*
X020702Y012955D01*
X020625Y012771D01*
X020485Y012630D01*
X020301Y012554D01*
X020102Y012554D01*
X019918Y012478D01*
X019778Y012338D01*
X019702Y012154D01*
X019702Y011955D01*
X019778Y011771D01*
X019918Y011630D01*
X020102Y011554D01*
X019918Y011478D01*
X019778Y011338D01*
X019702Y011154D01*
X019702Y010955D01*
X019778Y010771D01*
X019918Y010630D01*
X020102Y010554D01*
X019918Y010478D01*
X019778Y010338D01*
X019702Y010154D01*
X019702Y009955D01*
X019778Y009771D01*
X019918Y009630D01*
X020102Y009554D01*
X019918Y009478D01*
X019778Y009338D01*
X019702Y009154D01*
X019702Y008955D01*
X019778Y008771D01*
X019918Y008630D01*
X020102Y008554D01*
X019918Y008478D01*
X019778Y008338D01*
X019702Y008154D01*
X019702Y007955D01*
X019778Y007771D01*
X019918Y007630D01*
X020102Y007554D01*
X019918Y007478D01*
X019778Y007338D01*
X019702Y007154D01*
X019702Y006955D01*
X019778Y006771D01*
X019918Y006630D01*
X020102Y006554D01*
X020301Y006554D01*
X020485Y006630D01*
X020625Y006771D01*
X020702Y006955D01*
X020702Y007154D01*
X020625Y007338D01*
X020485Y007478D01*
X020301Y007554D01*
X020102Y007554D01*
X020301Y007554D01*
X020485Y007630D01*
X020625Y007771D01*
X020702Y007955D01*
X020702Y008154D01*
X020625Y008338D01*
X020485Y008478D01*
X020301Y008554D01*
X020102Y008554D01*
X020301Y008554D01*
X020485Y008630D01*
X020625Y008771D01*
X020702Y008955D01*
X020702Y009154D01*
X020625Y009338D01*
X020485Y009478D01*
X020301Y009554D01*
X020102Y009554D01*
X020301Y009554D01*
X020485Y009630D01*
X020625Y009771D01*
X020702Y009955D01*
X020702Y010154D01*
X020625Y010338D01*
X020485Y010478D01*
X020301Y010554D01*
X020102Y010554D01*
X020301Y010554D01*
X020485Y010630D01*
X020625Y010771D01*
X020702Y010955D01*
X020702Y011154D01*
X020625Y011338D01*
X020485Y011478D01*
X020301Y011554D01*
X020102Y011554D01*
X020301Y011554D01*
X020485Y011630D01*
X020625Y011771D01*
X020702Y011955D01*
X020702Y012154D01*
X020625Y012338D01*
X020485Y012478D01*
X020301Y012554D01*
X020102Y012554D01*
X019918Y012630D01*
X019778Y012771D01*
X019702Y012955D01*
X019702Y013154D01*
X019778Y013338D01*
X019918Y013478D01*
X020011Y013516D01*
X019879Y013571D01*
X019755Y013694D01*
X019648Y013694D01*
X019524Y013571D01*
X019392Y013516D01*
X019485Y013478D01*
X019625Y013338D01*
X019702Y013154D01*
X019702Y012955D01*
X019625Y012771D01*
X019485Y012630D01*
X019301Y012554D01*
X019102Y012554D01*
X018918Y012478D01*
X018778Y012338D01*
X018702Y012154D01*
X018702Y011955D01*
X018778Y011771D01*
X018918Y011630D01*
X019102Y011554D01*
X018918Y011478D01*
X018778Y011338D01*
X018702Y011154D01*
X018702Y010955D01*
X018778Y010771D01*
X018918Y010630D01*
X019102Y010554D01*
X018918Y010478D01*
X018778Y010338D01*
X018702Y010154D01*
X018702Y009955D01*
X018778Y009771D01*
X018918Y009630D01*
X019102Y009554D01*
X018918Y009478D01*
X018778Y009338D01*
X018702Y009154D01*
X018702Y008955D01*
X018778Y008771D01*
X018918Y008630D01*
X019102Y008554D01*
X018918Y008478D01*
X018778Y008338D01*
X018702Y008154D01*
X018702Y007955D01*
X018778Y007771D01*
X018918Y007630D01*
X019102Y007554D01*
X018918Y007478D01*
X018778Y007338D01*
X018702Y007154D01*
X018702Y006955D01*
X018778Y006771D01*
X018918Y006630D01*
X019102Y006554D01*
X019301Y006554D01*
X019485Y006630D01*
X019625Y006771D01*
X019702Y006955D01*
X019702Y007154D01*
X019625Y007338D01*
X019485Y007478D01*
X019301Y007554D01*
X019102Y007554D01*
X019301Y007554D01*
X019485Y007630D01*
X019625Y007771D01*
X019702Y007955D01*
X019702Y008154D01*
X019625Y008338D01*
X019485Y008478D01*
X019301Y008554D01*
X019102Y008554D01*
X019301Y008554D01*
X019485Y008630D01*
X019625Y008771D01*
X019702Y008955D01*
X019702Y009154D01*
X019625Y009338D01*
X019485Y009478D01*
X019301Y009554D01*
X019102Y009554D01*
X019301Y009554D01*
X019485Y009630D01*
X019625Y009771D01*
X019702Y009955D01*
X019702Y010154D01*
X019625Y010338D01*
X019485Y010478D01*
X019301Y010554D01*
X019102Y010554D01*
X019301Y010554D01*
X019485Y010630D01*
X019625Y010771D01*
X019702Y010955D01*
X019702Y011154D01*
X019625Y011338D01*
X019485Y011478D01*
X019301Y011554D01*
X019102Y011554D01*
X019301Y011554D01*
X019485Y011630D01*
X019625Y011771D01*
X019702Y011955D01*
X019702Y012154D01*
X019625Y012338D01*
X019485Y012478D01*
X019301Y012554D01*
X019102Y012554D01*
X018918Y012630D01*
X018778Y012771D01*
X018702Y012955D01*
X018702Y013154D01*
X018778Y013338D01*
X018918Y013478D01*
X019011Y013516D01*
X018879Y013571D01*
X018755Y013694D01*
X018648Y013694D01*
X018524Y013571D01*
X018392Y013516D01*
X018485Y013478D01*
X018625Y013338D01*
X018702Y013154D01*
X018702Y012955D01*
X018625Y012771D01*
X018485Y012630D01*
X018301Y012554D01*
X018102Y012554D01*
X017918Y012478D01*
X017778Y012338D01*
X017702Y012154D01*
X017702Y011955D01*
X017778Y011771D01*
X017918Y011630D01*
X018102Y011554D01*
X017918Y011478D01*
X017778Y011338D01*
X017702Y011154D01*
X017702Y010955D01*
X017778Y010771D01*
X017918Y010630D01*
X018102Y010554D01*
X017918Y010478D01*
X017778Y010338D01*
X017702Y010154D01*
X017702Y009955D01*
X017778Y009771D01*
X017918Y009630D01*
X018102Y009554D01*
X017918Y009478D01*
X017778Y009338D01*
X017702Y009154D01*
X017702Y008955D01*
X017778Y008771D01*
X017918Y008630D01*
X018102Y008554D01*
X017918Y008478D01*
X017778Y008338D01*
X017702Y008154D01*
X017702Y007955D01*
X017778Y007771D01*
X017918Y007630D01*
X018102Y007554D01*
X017918Y007478D01*
X017778Y007338D01*
X017702Y007154D01*
X017702Y006955D01*
X017778Y006771D01*
X017918Y006630D01*
X018102Y006554D01*
X018301Y006554D01*
X018485Y006630D01*
X018625Y006771D01*
X018702Y006955D01*
X018702Y007154D01*
X018625Y007338D01*
X018485Y007478D01*
X018301Y007554D01*
X018102Y007554D01*
X018301Y007554D01*
X018485Y007630D01*
X018625Y007771D01*
X018702Y007955D01*
X018702Y008154D01*
X018625Y008338D01*
X018485Y008478D01*
X018301Y008554D01*
X018102Y008554D01*
X018301Y008554D01*
X018485Y008630D01*
X018625Y008771D01*
X018702Y008955D01*
X018702Y009154D01*
X018625Y009338D01*
X018485Y009478D01*
X018301Y009554D01*
X018102Y009554D01*
X018301Y009554D01*
X018485Y009630D01*
X018625Y009771D01*
X018702Y009955D01*
X018702Y010154D01*
X018625Y010338D01*
X018485Y010478D01*
X018301Y010554D01*
X018102Y010554D01*
X018301Y010554D01*
X018485Y010630D01*
X018625Y010771D01*
X018702Y010955D01*
X018702Y011154D01*
X018625Y011338D01*
X018485Y011478D01*
X018301Y011554D01*
X018102Y011554D01*
X018301Y011554D01*
X018485Y011630D01*
X018625Y011771D01*
X018702Y011955D01*
X018702Y012154D01*
X018625Y012338D01*
X018485Y012478D01*
X018301Y012554D01*
X018102Y012554D01*
X017918Y012630D01*
X017778Y012771D01*
X017702Y012955D01*
X017702Y013154D01*
X017778Y013338D01*
X017918Y013478D01*
X018011Y013516D01*
X017879Y013571D01*
X017755Y013694D01*
X017648Y013694D01*
X017524Y013571D01*
X017392Y013516D01*
X017485Y013478D01*
X017625Y013338D01*
X017702Y013154D01*
X017702Y012955D01*
X017625Y012771D01*
X017485Y012630D01*
X017301Y012554D01*
X017102Y012554D01*
X016918Y012478D01*
X016778Y012338D01*
X016702Y012154D01*
X016702Y011955D01*
X016778Y011771D01*
X016918Y011630D01*
X017102Y011554D01*
X016918Y011478D01*
X016778Y011338D01*
X016702Y011154D01*
X016702Y010955D01*
X016778Y010771D01*
X016918Y010630D01*
X017102Y010554D01*
X016918Y010478D01*
X016778Y010338D01*
X016702Y010154D01*
X016702Y009955D01*
X016778Y009771D01*
X016918Y009630D01*
X017102Y009554D01*
X016918Y009478D01*
X016778Y009338D01*
X016702Y009154D01*
X016702Y008955D01*
X016778Y008771D01*
X016918Y008630D01*
X017102Y008554D01*
X016918Y008478D01*
X016778Y008338D01*
X016702Y008154D01*
X016702Y007955D01*
X016778Y007771D01*
X016918Y007630D01*
X017102Y007554D01*
X016918Y007478D01*
X016778Y007338D01*
X016702Y007154D01*
X016702Y006955D01*
X016778Y006771D01*
X016918Y006630D01*
X017102Y006554D01*
X017301Y006554D01*
X017485Y006630D01*
X017625Y006771D01*
X017702Y006955D01*
X017702Y007154D01*
X017625Y007338D01*
X017485Y007478D01*
X017301Y007554D01*
X017102Y007554D01*
X017301Y007554D01*
X017485Y007630D01*
X017625Y007771D01*
X017702Y007955D01*
X017702Y008154D01*
X017625Y008338D01*
X017485Y008478D01*
X017301Y008554D01*
X017102Y008554D01*
X017301Y008554D01*
X017485Y008630D01*
X017625Y008771D01*
X017702Y008955D01*
X017702Y009154D01*
X017625Y009338D01*
X017485Y009478D01*
X017301Y009554D01*
X017102Y009554D01*
X017301Y009554D01*
X017485Y009630D01*
X017625Y009771D01*
X017702Y009955D01*
X017702Y010154D01*
X017625Y010338D01*
X017485Y010478D01*
X017301Y010554D01*
X017102Y010554D01*
X017301Y010554D01*
X017485Y010630D01*
X017625Y010771D01*
X017702Y010955D01*
X017702Y011154D01*
X017625Y011338D01*
X017485Y011478D01*
X017301Y011554D01*
X017102Y011554D01*
X017301Y011554D01*
X017485Y011630D01*
X017625Y011771D01*
X017702Y011955D01*
X017702Y012154D01*
X017625Y012338D01*
X017485Y012478D01*
X017301Y012554D01*
X017102Y012554D01*
X016918Y012630D01*
X016778Y012771D01*
X016702Y012955D01*
X016702Y013154D01*
X016778Y013338D01*
X016918Y013478D01*
X017011Y013516D01*
X016879Y013571D01*
X016755Y013694D01*
X016648Y013694D01*
X016524Y013571D01*
X016392Y013516D01*
X016485Y013478D01*
X016625Y013338D01*
X016702Y013154D01*
X016702Y012955D01*
X016625Y012771D01*
X016485Y012630D01*
X016301Y012554D01*
X016102Y012554D01*
X015918Y012478D01*
X015778Y012338D01*
X015702Y012154D01*
X015702Y011955D01*
X015778Y011771D01*
X015918Y011630D01*
X016102Y011554D01*
X015918Y011478D01*
X015778Y011338D01*
X015702Y011154D01*
X015702Y010955D01*
X015778Y010771D01*
X015918Y010630D01*
X016102Y010554D01*
X015918Y010478D01*
X015778Y010338D01*
X015702Y010154D01*
X015702Y009955D01*
X015778Y009771D01*
X015918Y009630D01*
X016102Y009554D01*
X015918Y009478D01*
X015778Y009338D01*
X015702Y009154D01*
X015702Y008955D01*
X015778Y008771D01*
X015918Y008630D01*
X016102Y008554D01*
X015918Y008478D01*
X015778Y008338D01*
X015702Y008154D01*
X015702Y007955D01*
X015778Y007771D01*
X015918Y007630D01*
X016102Y007554D01*
X015918Y007478D01*
X015778Y007338D01*
X015702Y007154D01*
X015702Y006955D01*
X015778Y006771D01*
X015918Y006630D01*
X016102Y006554D01*
X016301Y006554D01*
X016485Y006630D01*
X016625Y006771D01*
X016702Y006955D01*
X016702Y007154D01*
X016625Y007338D01*
X016485Y007478D01*
X016301Y007554D01*
X016102Y007554D01*
X016301Y007554D01*
X016485Y007630D01*
X016625Y007771D01*
X016702Y007955D01*
X016702Y008154D01*
X016625Y008338D01*
X016485Y008478D01*
X016301Y008554D01*
X016102Y008554D01*
X016301Y008554D01*
X016485Y008630D01*
X016625Y008771D01*
X016702Y008955D01*
X016702Y009154D01*
X016625Y009338D01*
X016485Y009478D01*
X016301Y009554D01*
X016102Y009554D01*
X016301Y009554D01*
X016485Y009630D01*
X016625Y009771D01*
X016702Y009955D01*
X016702Y010154D01*
X016625Y010338D01*
X016485Y010478D01*
X016301Y010554D01*
X016102Y010554D01*
X016301Y010554D01*
X016485Y010630D01*
X016625Y010771D01*
X016702Y010955D01*
X016702Y011154D01*
X016625Y011338D01*
X016485Y011478D01*
X016301Y011554D01*
X016102Y011554D01*
X016301Y011554D01*
X016485Y011630D01*
X016625Y011771D01*
X016702Y011955D01*
X016702Y012154D01*
X016625Y012338D01*
X016485Y012478D01*
X016301Y012554D01*
X016102Y012554D01*
X015918Y012630D01*
X015778Y012771D01*
X015702Y012955D01*
X015702Y013154D01*
X015778Y013338D01*
X015918Y013478D01*
X016011Y013516D01*
X015879Y013571D01*
X015755Y013694D01*
X015648Y013694D01*
X015524Y013571D01*
X015392Y013516D01*
X015485Y013478D01*
X015625Y013338D01*
X015702Y013154D01*
X015702Y012955D01*
X015625Y012771D01*
X015485Y012630D01*
X015301Y012554D01*
X015102Y012554D01*
X014918Y012478D01*
X014778Y012338D01*
X014702Y012154D01*
X014702Y011955D01*
X014778Y011771D01*
X014918Y011630D01*
X015102Y011554D01*
X014918Y011478D01*
X014778Y011338D01*
X014702Y011154D01*
X014702Y010955D01*
X014778Y010771D01*
X014918Y010630D01*
X015102Y010554D01*
X014918Y010478D01*
X014778Y010338D01*
X014702Y010154D01*
X014702Y009955D01*
X014778Y009771D01*
X014918Y009630D01*
X015102Y009554D01*
X014918Y009478D01*
X014778Y009338D01*
X014702Y009154D01*
X014702Y008955D01*
X014778Y008771D01*
X014918Y008630D01*
X015102Y008554D01*
X014918Y008478D01*
X014778Y008338D01*
X014702Y008154D01*
X014702Y007955D01*
X014778Y007771D01*
X014918Y007630D01*
X015102Y007554D01*
X014918Y007478D01*
X014778Y007338D01*
X014702Y007154D01*
X014702Y006955D01*
X014778Y006771D01*
X014918Y006630D01*
X015102Y006554D01*
X015301Y006554D01*
X015485Y006630D01*
X015625Y006771D01*
X015702Y006955D01*
X015702Y007154D01*
X015625Y007338D01*
X015485Y007478D01*
X015301Y007554D01*
X015102Y007554D01*
X015301Y007554D01*
X015485Y007630D01*
X015625Y007771D01*
X015702Y007955D01*
X015702Y008154D01*
X015625Y008338D01*
X015485Y008478D01*
X015301Y008554D01*
X015102Y008554D01*
X015301Y008554D01*
X015485Y008630D01*
X015625Y008771D01*
X015702Y008955D01*
X015702Y009154D01*
X015625Y009338D01*
X015485Y009478D01*
X015301Y009554D01*
X015102Y009554D01*
X015301Y009554D01*
X015485Y009630D01*
X015625Y009771D01*
X015702Y009955D01*
X015702Y010154D01*
X015625Y010338D01*
X015485Y010478D01*
X015301Y010554D01*
X015102Y010554D01*
X015301Y010554D01*
X015485Y010630D01*
X015625Y010771D01*
X015702Y010955D01*
X015702Y011154D01*
X015625Y011338D01*
X015485Y011478D01*
X015301Y011554D01*
X015102Y011554D01*
X015301Y011554D01*
X015485Y011630D01*
X015625Y011771D01*
X015702Y011955D01*
X015702Y012154D01*
X015625Y012338D01*
X015485Y012478D01*
X015301Y012554D01*
X015102Y012554D01*
X014918Y012630D01*
X014778Y012771D01*
X014702Y012955D01*
X014702Y013154D01*
X014778Y013338D01*
X014918Y013478D01*
X015011Y013516D01*
X014879Y013571D01*
X014755Y013694D01*
X014648Y013694D01*
X014524Y013571D01*
X014392Y013516D01*
X014485Y013478D01*
X014625Y013338D01*
X014702Y013154D01*
X014702Y012955D01*
X014625Y012771D01*
X014485Y012630D01*
X014301Y012554D01*
X014102Y012554D01*
X013918Y012478D01*
X013778Y012338D01*
X013702Y012154D01*
X013702Y011955D01*
X013778Y011771D01*
X013918Y011630D01*
X014102Y011554D01*
X013918Y011478D01*
X013778Y011338D01*
X013702Y011154D01*
X013702Y010955D01*
X013778Y010771D01*
X013918Y010630D01*
X014102Y010554D01*
X013918Y010478D01*
X013778Y010338D01*
X013702Y010154D01*
X013702Y009955D01*
X013778Y009771D01*
X013918Y009630D01*
X014102Y009554D01*
X013918Y009478D01*
X013778Y009338D01*
X013702Y009154D01*
X013702Y008955D01*
X013778Y008771D01*
X013918Y008630D01*
X014102Y008554D01*
X013918Y008478D01*
X013778Y008338D01*
X013702Y008154D01*
X013702Y007955D01*
X013778Y007771D01*
X013918Y007630D01*
X014102Y007554D01*
X013918Y007478D01*
X013778Y007338D01*
X013702Y007154D01*
X013702Y006955D01*
X013778Y006771D01*
X013918Y006630D01*
X014102Y006554D01*
X014301Y006554D01*
X014485Y006630D01*
X014625Y006771D01*
X014702Y006955D01*
X014702Y007154D01*
X014625Y007338D01*
X014485Y007478D01*
X014301Y007554D01*
X014102Y007554D01*
X014301Y007554D01*
X014485Y007630D01*
X014625Y007771D01*
X014702Y007955D01*
X014702Y008154D01*
X014625Y008338D01*
X014485Y008478D01*
X014301Y008554D01*
X014102Y008554D01*
X014301Y008554D01*
X014485Y008630D01*
X014625Y008771D01*
X014702Y008955D01*
X014702Y009154D01*
X014625Y009338D01*
X014485Y009478D01*
X014301Y009554D01*
X014102Y009554D01*
X014301Y009554D01*
X014485Y009630D01*
X014625Y009771D01*
X014702Y009955D01*
X014702Y010154D01*
X014625Y010338D01*
X014485Y010478D01*
X014301Y010554D01*
X014102Y010554D01*
X014301Y010554D01*
X014485Y010630D01*
X014625Y010771D01*
X014702Y010955D01*
X014702Y011154D01*
X014625Y011338D01*
X014485Y011478D01*
X014301Y011554D01*
X014102Y011554D01*
X014301Y011554D01*
X014485Y011630D01*
X014625Y011771D01*
X014702Y011955D01*
X014702Y012154D01*
X014625Y012338D01*
X014485Y012478D01*
X014301Y012554D01*
X014102Y012554D01*
X013918Y012630D01*
X013778Y012771D01*
X013702Y012955D01*
X013702Y013154D01*
X013778Y013338D01*
X013918Y013478D01*
X014011Y013516D01*
X013879Y013571D01*
X013755Y013694D01*
X013648Y013694D01*
X013524Y013571D01*
X013392Y013516D01*
X013485Y013478D01*
X013625Y013338D01*
X013702Y013154D01*
X013702Y012955D01*
X013625Y012771D01*
X013485Y012630D01*
X013301Y012554D01*
X013102Y012554D01*
X012918Y012478D01*
X012778Y012338D01*
X012702Y012154D01*
X012702Y011955D01*
X012778Y011771D01*
X012918Y011630D01*
X013102Y011554D01*
X012918Y011478D01*
X012778Y011338D01*
X012702Y011154D01*
X012702Y010955D01*
X012778Y010771D01*
X012918Y010630D01*
X013102Y010554D01*
X012918Y010478D01*
X012778Y010338D01*
X012702Y010154D01*
X012702Y009955D01*
X012778Y009771D01*
X012918Y009630D01*
X013102Y009554D01*
X012918Y009478D01*
X012778Y009338D01*
X012702Y009154D01*
X012702Y008955D01*
X012778Y008771D01*
X012918Y008630D01*
X013102Y008554D01*
X012918Y008478D01*
X012778Y008338D01*
X012702Y008154D01*
X012702Y007955D01*
X012778Y007771D01*
X012918Y007630D01*
X013102Y007554D01*
X012918Y007478D01*
X012778Y007338D01*
X012702Y007154D01*
X012702Y006955D01*
X012778Y006771D01*
X012918Y006630D01*
X013102Y006554D01*
X013301Y006554D01*
X013485Y006630D01*
X013625Y006771D01*
X013702Y006955D01*
X013702Y007154D01*
X013625Y007338D01*
X013485Y007478D01*
X013301Y007554D01*
X013102Y007554D01*
X013301Y007554D01*
X013485Y007630D01*
X013625Y007771D01*
X013702Y007955D01*
X013702Y008154D01*
X013625Y008338D01*
X013485Y008478D01*
X013301Y008554D01*
X013102Y008554D01*
X013301Y008554D01*
X013485Y008630D01*
X013625Y008771D01*
X013702Y008955D01*
X013702Y009154D01*
X013625Y009338D01*
X013485Y009478D01*
X013301Y009554D01*
X013102Y009554D01*
X013301Y009554D01*
X013485Y009630D01*
X013625Y009771D01*
X013702Y009955D01*
X013702Y010154D01*
X013625Y010338D01*
X013485Y010478D01*
X013301Y010554D01*
X013102Y010554D01*
X013301Y010554D01*
X013485Y010630D01*
X013625Y010771D01*
X013702Y010955D01*
X013702Y011154D01*
X013625Y011338D01*
X013485Y011478D01*
X013301Y011554D01*
X013102Y011554D01*
X013301Y011554D01*
X013485Y011630D01*
X013625Y011771D01*
X013702Y011955D01*
X013702Y012154D01*
X013625Y012338D01*
X013485Y012478D01*
X013301Y012554D01*
X013102Y012554D01*
X012918Y012630D01*
X012778Y012771D01*
X012702Y012955D01*
X012702Y013154D01*
X012778Y013338D01*
X012918Y013478D01*
X013011Y013516D01*
X012879Y013571D01*
X012755Y013694D01*
X012648Y013694D01*
X012524Y013571D01*
X012392Y013516D01*
X012485Y013478D01*
X012625Y013338D01*
X012702Y013154D01*
X012702Y012955D01*
X012625Y012771D01*
X012485Y012630D01*
X012301Y012554D01*
X012102Y012554D01*
X011918Y012478D01*
X011778Y012338D01*
X011702Y012154D01*
X011702Y011955D01*
X011778Y011771D01*
X011918Y011630D01*
X012102Y011554D01*
X011918Y011478D01*
X011778Y011338D01*
X011702Y011154D01*
X011702Y010955D01*
X011778Y010771D01*
X011918Y010630D01*
X012102Y010554D01*
X011918Y010478D01*
X011778Y010338D01*
X011702Y010154D01*
X011702Y009955D01*
X011778Y009771D01*
X011918Y009630D01*
X012102Y009554D01*
X011918Y009478D01*
X011778Y009338D01*
X011702Y009154D01*
X011702Y008955D01*
X011778Y008771D01*
X011918Y008630D01*
X012102Y008554D01*
X011918Y008478D01*
X011778Y008338D01*
X011702Y008154D01*
X011702Y007955D01*
X011778Y007771D01*
X011918Y007630D01*
X012102Y007554D01*
X011918Y007478D01*
X011778Y007338D01*
X011702Y007154D01*
X011702Y006955D01*
X011778Y006771D01*
X011918Y006630D01*
X012102Y006554D01*
X012301Y006554D01*
X012485Y006630D01*
X012625Y006771D01*
X012702Y006955D01*
X012702Y007154D01*
X012625Y007338D01*
X012485Y007478D01*
X012301Y007554D01*
X012102Y007554D01*
X012301Y007554D01*
X012485Y007630D01*
X012625Y007771D01*
X012702Y007955D01*
X012702Y008154D01*
X012625Y008338D01*
X012485Y008478D01*
X012301Y008554D01*
X012102Y008554D01*
X012301Y008554D01*
X012485Y008630D01*
X012625Y008771D01*
X012702Y008955D01*
X012702Y009154D01*
X012625Y009338D01*
X012485Y009478D01*
X012301Y009554D01*
X012102Y009554D01*
X012301Y009554D01*
X012485Y009630D01*
X012625Y009771D01*
X012702Y009955D01*
X012702Y010154D01*
X012625Y010338D01*
X012485Y010478D01*
X012301Y010554D01*
X012102Y010554D01*
X012301Y010554D01*
X012485Y010630D01*
X012625Y010771D01*
X012702Y010955D01*
X012702Y011154D01*
X012625Y011338D01*
X012485Y011478D01*
X012301Y011554D01*
X012102Y011554D01*
X012301Y011554D01*
X012485Y011630D01*
X012625Y011771D01*
X012702Y011955D01*
X012702Y012154D01*
X012625Y012338D01*
X012485Y012478D01*
X012301Y012554D01*
X012102Y012554D01*
X011918Y012630D01*
X011778Y012771D01*
X011702Y012955D01*
X011702Y013154D01*
X011778Y013338D01*
X011918Y013478D01*
X012011Y013516D01*
X011879Y013571D01*
X011755Y013694D01*
X011648Y013694D01*
X011524Y013571D01*
X011392Y013516D01*
X011485Y013478D01*
X011625Y013338D01*
X011702Y013154D01*
X011702Y012955D01*
X011625Y012771D01*
X011485Y012630D01*
X011301Y012554D01*
X011102Y012554D01*
X010918Y012478D01*
X010778Y012338D01*
X010702Y012154D01*
X010702Y011955D01*
X010778Y011771D01*
X010918Y011630D01*
X011102Y011554D01*
X010918Y011478D01*
X010778Y011338D01*
X010702Y011154D01*
X010702Y010955D01*
X010778Y010771D01*
X010918Y010630D01*
X011102Y010554D01*
X010918Y010478D01*
X010778Y010338D01*
X010702Y010154D01*
X010702Y009955D01*
X010778Y009771D01*
X010918Y009630D01*
X011102Y009554D01*
X010918Y009478D01*
X010778Y009338D01*
X010702Y009154D01*
X010702Y008955D01*
X010778Y008771D01*
X010918Y008630D01*
X011102Y008554D01*
X010918Y008478D01*
X010778Y008338D01*
X010702Y008154D01*
X010702Y007955D01*
X010778Y007771D01*
X010918Y007630D01*
X011102Y007554D01*
X010918Y007478D01*
X010778Y007338D01*
X010702Y007154D01*
X010702Y006955D01*
X010778Y006771D01*
X010918Y006630D01*
X011102Y006554D01*
X011301Y006554D01*
X011485Y006630D01*
X011625Y006771D01*
X011702Y006955D01*
X011702Y007154D01*
X011625Y007338D01*
X011485Y007478D01*
X011301Y007554D01*
X011102Y007554D01*
X011301Y007554D01*
X011485Y007630D01*
X011625Y007771D01*
X011702Y007955D01*
X011702Y008154D01*
X011625Y008338D01*
X011485Y008478D01*
X011301Y008554D01*
X011102Y008554D01*
X011301Y008554D01*
X011485Y008630D01*
X011625Y008771D01*
X011702Y008955D01*
X011702Y009154D01*
X011625Y009338D01*
X011485Y009478D01*
X011301Y009554D01*
X011102Y009554D01*
X011301Y009554D01*
X011485Y009630D01*
X011625Y009771D01*
X011702Y009955D01*
X011702Y010154D01*
X011625Y010338D01*
X011485Y010478D01*
X011301Y010554D01*
X011102Y010554D01*
X011301Y010554D01*
X011485Y010630D01*
X011625Y010771D01*
X011702Y010955D01*
X011702Y011154D01*
X011625Y011338D01*
X011485Y011478D01*
X011301Y011554D01*
X011102Y011554D01*
X011301Y011554D01*
X011485Y011630D01*
X011625Y011771D01*
X011702Y011955D01*
X011702Y012154D01*
X011625Y012338D01*
X011485Y012478D01*
X011301Y012554D01*
X011102Y012554D01*
X010918Y012630D01*
X010778Y012771D01*
X010702Y012955D01*
X010702Y013154D01*
X010778Y013338D01*
X010918Y013478D01*
X011011Y013516D01*
X010879Y013571D01*
X010755Y013694D01*
X010648Y013694D01*
X010524Y013571D01*
X010392Y013516D01*
X010485Y013478D01*
X010625Y013338D01*
X010702Y013154D01*
X010702Y012955D01*
X010625Y012771D01*
X010485Y012630D01*
X010301Y012554D01*
X010102Y012554D01*
X009918Y012478D01*
X009778Y012338D01*
X009702Y012154D01*
X009702Y011955D01*
X009778Y011771D01*
X009918Y011630D01*
X010102Y011554D01*
X009918Y011478D01*
X009778Y011338D01*
X009702Y011154D01*
X009702Y010955D01*
X009778Y010771D01*
X009918Y010630D01*
X010102Y010554D01*
X009918Y010478D01*
X009778Y010338D01*
X009702Y010154D01*
X009702Y009955D01*
X009778Y009771D01*
X009918Y009630D01*
X010102Y009554D01*
X009918Y009478D01*
X009778Y009338D01*
X009702Y009154D01*
X009702Y008955D01*
X009778Y008771D01*
X009918Y008630D01*
X010102Y008554D01*
X009918Y008478D01*
X009778Y008338D01*
X009702Y008154D01*
X009702Y007955D01*
X009778Y007771D01*
X009918Y007630D01*
X010102Y007554D01*
X009918Y007478D01*
X009778Y007338D01*
X009702Y007154D01*
X009702Y006955D01*
X009778Y006771D01*
X009918Y006630D01*
X010102Y006554D01*
X010301Y006554D01*
X010485Y006630D01*
X010625Y006771D01*
X010702Y006955D01*
X010702Y007154D01*
X010625Y007338D01*
X010485Y007478D01*
X010301Y007554D01*
X010102Y007554D01*
X010301Y007554D01*
X010485Y007630D01*
X010625Y007771D01*
X010702Y007955D01*
X010702Y008154D01*
X010625Y008338D01*
X010485Y008478D01*
X010301Y008554D01*
X010102Y008554D01*
X010301Y008554D01*
X010485Y008630D01*
X010625Y008771D01*
X010702Y008955D01*
X010702Y009154D01*
X010625Y009338D01*
X010485Y009478D01*
X010301Y009554D01*
X010102Y009554D01*
X010301Y009554D01*
X010485Y009630D01*
X010625Y009771D01*
X010702Y009955D01*
X010702Y010154D01*
X010625Y010338D01*
X010485Y010478D01*
X010301Y010554D01*
X010102Y010554D01*
X010301Y010554D01*
X010485Y010630D01*
X010625Y010771D01*
X010702Y010955D01*
X010702Y011154D01*
X010625Y011338D01*
X010485Y011478D01*
X010301Y011554D01*
X010102Y011554D01*
X010301Y011554D01*
X010485Y011630D01*
X010625Y011771D01*
X010702Y011955D01*
X010702Y012154D01*
X010625Y012338D01*
X010485Y012478D01*
X010301Y012554D01*
X010102Y012554D01*
X009918Y012630D01*
X009778Y012771D01*
X009702Y012955D01*
X009702Y013154D01*
X009778Y013338D01*
X009918Y013478D01*
X010011Y013516D01*
X009879Y013571D01*
X009755Y013694D01*
X009648Y013694D01*
X009524Y013571D01*
X009392Y013516D01*
X009485Y013478D01*
X009625Y013338D01*
X009702Y013154D01*
X009702Y012955D01*
X009625Y012771D01*
X009485Y012630D01*
X009301Y012554D01*
X009102Y012554D01*
X008918Y012478D01*
X008778Y012338D01*
X008702Y012154D01*
X008702Y011955D01*
X008778Y011771D01*
X008918Y011630D01*
X009102Y011554D01*
X008918Y011478D01*
X008778Y011338D01*
X008702Y011154D01*
X008702Y010955D01*
X008778Y010771D01*
X008918Y010630D01*
X009102Y010554D01*
X008918Y010478D01*
X008778Y010338D01*
X008702Y010154D01*
X008702Y009955D01*
X008778Y009771D01*
X008918Y009630D01*
X009102Y009554D01*
X008918Y009478D01*
X008778Y009338D01*
X008702Y009154D01*
X008702Y008955D01*
X008778Y008771D01*
X008918Y008630D01*
X009102Y008554D01*
X008918Y008478D01*
X008778Y008338D01*
X008702Y008154D01*
X008702Y007955D01*
X008778Y007771D01*
X008918Y007630D01*
X009102Y007554D01*
X008918Y007478D01*
X008778Y007338D01*
X008702Y007154D01*
X008702Y006955D01*
X008778Y006771D01*
X008918Y006630D01*
X009102Y006554D01*
X009301Y006554D01*
X009485Y006630D01*
X009625Y006771D01*
X009702Y006955D01*
X009702Y007154D01*
X009625Y007338D01*
X009485Y007478D01*
X009301Y007554D01*
X009102Y007554D01*
X009301Y007554D01*
X009485Y007630D01*
X009625Y007771D01*
X009702Y007955D01*
X009702Y008154D01*
X009625Y008338D01*
X009485Y008478D01*
X009301Y008554D01*
X009102Y008554D01*
X009301Y008554D01*
X009485Y008630D01*
X009625Y008771D01*
X009702Y008955D01*
X009702Y009154D01*
X009625Y009338D01*
X009485Y009478D01*
X009301Y009554D01*
X009102Y009554D01*
X009301Y009554D01*
X009485Y009630D01*
X009625Y009771D01*
X009702Y009955D01*
X009702Y010154D01*
X009625Y010338D01*
X009485Y010478D01*
X009301Y010554D01*
X009102Y010554D01*
X009301Y010554D01*
X009485Y010630D01*
X009625Y010771D01*
X009702Y010955D01*
X009702Y011154D01*
X009625Y011338D01*
X009485Y011478D01*
X009301Y011554D01*
X009102Y011554D01*
X009301Y011554D01*
X009485Y011630D01*
X009625Y011771D01*
X009702Y011955D01*
X009702Y012154D01*
X009625Y012338D01*
X009485Y012478D01*
X009301Y012554D01*
X009102Y012554D01*
X008918Y012630D01*
X008778Y012771D01*
X008702Y012955D01*
X008702Y013154D01*
X008778Y013338D01*
X008918Y013478D01*
X009011Y013516D01*
X008879Y013571D01*
X008755Y013694D01*
X008648Y013694D01*
X008524Y013571D01*
X008392Y013516D01*
X008485Y013478D01*
X008625Y013338D01*
X008702Y013154D01*
X008702Y012955D01*
X008625Y012771D01*
X008485Y012630D01*
X008301Y012554D01*
X008102Y012554D01*
X007918Y012478D01*
X007778Y012338D01*
X007702Y012154D01*
X007702Y011955D01*
X007778Y011771D01*
X007918Y011630D01*
X008102Y011554D01*
X007918Y011478D01*
X007778Y011338D01*
X007702Y011154D01*
X007702Y010955D01*
X007778Y010771D01*
X007918Y010630D01*
X008102Y010554D01*
X007918Y010478D01*
X007778Y010338D01*
X007702Y010154D01*
X007702Y009955D01*
X007778Y009771D01*
X007918Y009630D01*
X008102Y009554D01*
X007918Y009478D01*
X007778Y009338D01*
X007702Y009154D01*
X007702Y008955D01*
X007778Y008771D01*
X007918Y008630D01*
X008102Y008554D01*
X007918Y008478D01*
X007778Y008338D01*
X007702Y008154D01*
X007702Y007955D01*
X007778Y007771D01*
X007918Y007630D01*
X008102Y007554D01*
X007918Y007478D01*
X007778Y007338D01*
X007702Y007154D01*
X007702Y006955D01*
X007778Y006771D01*
X007918Y006630D01*
X008102Y006554D01*
X008301Y006554D01*
X008485Y006630D01*
X008625Y006771D01*
X008702Y006955D01*
X008702Y007154D01*
X008625Y007338D01*
X008485Y007478D01*
X008301Y007554D01*
X008102Y007554D01*
X008301Y007554D01*
X008485Y007630D01*
X008625Y007771D01*
X008702Y007955D01*
X008702Y008154D01*
X008625Y008338D01*
X008485Y008478D01*
X008301Y008554D01*
X008102Y008554D01*
X008301Y008554D01*
X008485Y008630D01*
X008625Y008771D01*
X008702Y008955D01*
X008702Y009154D01*
X008625Y009338D01*
X008485Y009478D01*
X008301Y009554D01*
X008102Y009554D01*
X008301Y009554D01*
X008485Y009630D01*
X008625Y009771D01*
X008702Y009955D01*
X008702Y010154D01*
X008625Y010338D01*
X008485Y010478D01*
X008301Y010554D01*
X008102Y010554D01*
X008301Y010554D01*
X008485Y010630D01*
X008625Y010771D01*
X008702Y010955D01*
X008702Y011154D01*
X008625Y011338D01*
X008485Y011478D01*
X008301Y011554D01*
X008102Y011554D01*
X008301Y011554D01*
X008485Y011630D01*
X008625Y011771D01*
X008702Y011955D01*
X008702Y012154D01*
X008625Y012338D01*
X008485Y012478D01*
X008301Y012554D01*
X008102Y012554D01*
X007918Y012630D01*
X007778Y012771D01*
X007702Y012955D01*
X007702Y013154D01*
X007778Y013338D01*
X007918Y013478D01*
X008011Y013516D01*
X007879Y013571D01*
X007755Y013694D01*
X007648Y013694D01*
X007524Y013571D01*
X007392Y013516D01*
X007485Y013478D01*
X007625Y013338D01*
X007702Y013154D01*
X007702Y012955D01*
X007625Y012771D01*
X007485Y012630D01*
X007301Y012554D01*
X007102Y012554D01*
X006918Y012478D01*
X006778Y012338D01*
X006702Y012154D01*
X006702Y011955D01*
X006778Y011771D01*
X006918Y011630D01*
X007102Y011554D01*
X006918Y011478D01*
X006778Y011338D01*
X006702Y011154D01*
X006702Y010955D01*
X006778Y010771D01*
X006918Y010630D01*
X007102Y010554D01*
X006918Y010478D01*
X006778Y010338D01*
X006702Y010154D01*
X006702Y009955D01*
X006778Y009771D01*
X006918Y009630D01*
X007102Y009554D01*
X006918Y009478D01*
X006778Y009338D01*
X006702Y009154D01*
X006702Y008955D01*
X006778Y008771D01*
X006918Y008630D01*
X007102Y008554D01*
X006918Y008478D01*
X006778Y008338D01*
X006702Y008154D01*
X006702Y007955D01*
X006778Y007771D01*
X006918Y007630D01*
X007102Y007554D01*
X006918Y007478D01*
X006778Y007338D01*
X006702Y007154D01*
X006702Y006955D01*
X006778Y006771D01*
X006918Y006630D01*
X007102Y006554D01*
X007301Y006554D01*
X007485Y006630D01*
X007625Y006771D01*
X007702Y006955D01*
X007702Y007154D01*
X007625Y007338D01*
X007485Y007478D01*
X007301Y007554D01*
X007102Y007554D01*
X007301Y007554D01*
X007485Y007630D01*
X007625Y007771D01*
X007702Y007955D01*
X007702Y008154D01*
X007625Y008338D01*
X007485Y008478D01*
X007301Y008554D01*
X007102Y008554D01*
X007301Y008554D01*
X007485Y008630D01*
X007625Y008771D01*
X007702Y008955D01*
X007702Y009154D01*
X007625Y009338D01*
X007485Y009478D01*
X007301Y009554D01*
X007102Y009554D01*
X007301Y009554D01*
X007485Y009630D01*
X007625Y009771D01*
X007702Y009955D01*
X007702Y010154D01*
X007625Y010338D01*
X007485Y010478D01*
X007301Y010554D01*
X007102Y010554D01*
X007301Y010554D01*
X007485Y010630D01*
X007625Y010771D01*
X007702Y010955D01*
X007702Y011154D01*
X007625Y011338D01*
X007485Y011478D01*
X007301Y011554D01*
X007102Y011554D01*
X007301Y011554D01*
X007485Y011630D01*
X007625Y011771D01*
X007702Y011955D01*
X007702Y012154D01*
X007625Y012338D01*
X007485Y012478D01*
X007301Y012554D01*
X007102Y012554D01*
X006918Y012630D01*
X006778Y012771D01*
X006702Y012955D01*
X006702Y013154D01*
X006778Y013338D01*
X006918Y013478D01*
X007011Y013516D01*
X006879Y013571D01*
X006755Y013694D01*
X006648Y013694D01*
X006524Y013571D01*
X006392Y013516D01*
X006485Y013478D01*
X006625Y013338D01*
X006702Y013154D01*
X006702Y012955D01*
X006625Y012771D01*
X006485Y012630D01*
X006301Y012554D01*
X006102Y012554D01*
X005918Y012478D01*
X005778Y012338D01*
X005702Y012154D01*
X005702Y011955D01*
X005778Y011771D01*
X005918Y011630D01*
X006102Y011554D01*
X005918Y011478D01*
X005778Y011338D01*
X005702Y011154D01*
X005702Y010955D01*
X005778Y010771D01*
X005918Y010630D01*
X006102Y010554D01*
X005918Y010478D01*
X005778Y010338D01*
X005702Y010154D01*
X005702Y009955D01*
X005778Y009771D01*
X005918Y009630D01*
X006102Y009554D01*
X005918Y009478D01*
X005778Y009338D01*
X005702Y009154D01*
X005702Y008955D01*
X005778Y008771D01*
X005918Y008630D01*
X006102Y008554D01*
X005918Y008478D01*
X005778Y008338D01*
X005702Y008154D01*
X005702Y007955D01*
X005778Y007771D01*
X005918Y007630D01*
X006102Y007554D01*
X005918Y007478D01*
X005778Y007338D01*
X005702Y007154D01*
X005702Y006955D01*
X005778Y006771D01*
X005918Y006630D01*
X006102Y006554D01*
X006301Y006554D01*
X006485Y006630D01*
X006625Y006771D01*
X006702Y006955D01*
X006702Y007154D01*
X006625Y007338D01*
X006485Y007478D01*
X006301Y007554D01*
X006102Y007554D01*
X006301Y007554D01*
X006485Y007630D01*
X006625Y007771D01*
X006702Y007955D01*
X006702Y008154D01*
X006625Y008338D01*
X006485Y008478D01*
X006301Y008554D01*
X006102Y008554D01*
X006301Y008554D01*
X006485Y008630D01*
X006625Y008771D01*
X006702Y008955D01*
X006702Y009154D01*
X006625Y009338D01*
X006485Y009478D01*
X006301Y009554D01*
X006102Y009554D01*
X006301Y009554D01*
X006485Y009630D01*
X006625Y009771D01*
X006702Y009955D01*
X006702Y010154D01*
X006625Y010338D01*
X006485Y010478D01*
X006301Y010554D01*
X006102Y010554D01*
X006301Y010554D01*
X006485Y010630D01*
X006625Y010771D01*
X006702Y010955D01*
X006702Y011154D01*
X006625Y011338D01*
X006485Y011478D01*
X006301Y011554D01*
X006102Y011554D01*
X006301Y011554D01*
X006485Y011630D01*
X006625Y011771D01*
X006702Y011955D01*
X006702Y012154D01*
X006625Y012338D01*
X006485Y012478D01*
X006301Y012554D01*
X006102Y012554D01*
X005918Y012630D01*
X005778Y012771D01*
X005702Y012955D01*
X005702Y013154D01*
X005778Y013338D01*
X005918Y013478D01*
X006011Y013516D01*
X005879Y013571D01*
X005755Y013694D01*
X005648Y013694D01*
X005524Y013571D01*
X005392Y013516D01*
X005485Y013478D01*
X005625Y013338D01*
X005702Y013154D01*
X005702Y012955D01*
X005625Y012771D01*
X005485Y012630D01*
X005301Y012554D01*
X005102Y012554D01*
X004918Y012478D01*
X004778Y012338D01*
X004702Y012154D01*
X004702Y011955D01*
X004778Y011771D01*
X004918Y011630D01*
X005102Y011554D01*
X004918Y011478D01*
X004778Y011338D01*
X004702Y011154D01*
X004702Y010955D01*
X004778Y010771D01*
X004918Y010630D01*
X005102Y010554D01*
X004918Y010478D01*
X004778Y010338D01*
X004702Y010154D01*
X004702Y009955D01*
X004778Y009771D01*
X004918Y009630D01*
X005102Y009554D01*
X004918Y009478D01*
X004778Y009338D01*
X004702Y009154D01*
X004702Y008955D01*
X004778Y008771D01*
X004918Y008630D01*
X005102Y008554D01*
X004918Y008478D01*
X004778Y008338D01*
X004702Y008154D01*
X004702Y007955D01*
X004778Y007771D01*
X004918Y007630D01*
X005102Y007554D01*
X004918Y007478D01*
X004778Y007338D01*
X004702Y007154D01*
X004702Y006955D01*
X004778Y006771D01*
X004918Y006630D01*
X005102Y006554D01*
X005301Y006554D01*
X005485Y006630D01*
X005625Y006771D01*
X005702Y006955D01*
X005702Y007154D01*
X005625Y007338D01*
X005485Y007478D01*
X005301Y007554D01*
X005102Y007554D01*
X005301Y007554D01*
X005485Y007630D01*
X005625Y007771D01*
X005702Y007955D01*
X005702Y008154D01*
X005625Y008338D01*
X005485Y008478D01*
X005301Y008554D01*
X005102Y008554D01*
X005301Y008554D01*
X005485Y008630D01*
X005625Y008771D01*
X005702Y008955D01*
X005702Y009154D01*
X005625Y009338D01*
X005485Y009478D01*
X005301Y009554D01*
X005102Y009554D01*
X005301Y009554D01*
X005485Y009630D01*
X005625Y009771D01*
X005702Y009955D01*
X005702Y010154D01*
X005625Y010338D01*
X005485Y010478D01*
X005301Y010554D01*
X005102Y010554D01*
X005301Y010554D01*
X005485Y010630D01*
X005625Y010771D01*
X005702Y010955D01*
X005702Y011154D01*
X005625Y011338D01*
X005485Y011478D01*
X005301Y011554D01*
X005102Y011554D01*
X005301Y011554D01*
X005485Y011630D01*
X005625Y011771D01*
X005702Y011955D01*
X005702Y012154D01*
X005625Y012338D01*
X005485Y012478D01*
X005301Y012554D01*
X005102Y012554D01*
X004918Y012630D01*
X004778Y012771D01*
X004702Y012955D01*
X004702Y013154D01*
X004778Y013338D01*
X004918Y013478D01*
X005011Y013516D01*
X004879Y013571D01*
X004755Y013694D01*
X004648Y013694D01*
X004524Y013571D01*
X004392Y013516D01*
X004485Y013478D01*
X004625Y013338D01*
X004702Y013154D01*
X004702Y012955D01*
X004625Y012771D01*
X004485Y012630D01*
X004301Y012554D01*
X004102Y012554D01*
X003918Y012478D01*
X003778Y012338D01*
X003702Y012154D01*
X003702Y011955D01*
X003778Y011771D01*
X003918Y011630D01*
X004102Y011554D01*
X003918Y011478D01*
X003778Y011338D01*
X003702Y011154D01*
X003702Y010955D01*
X003778Y010771D01*
X003918Y010630D01*
X004102Y010554D01*
X003918Y010478D01*
X003778Y010338D01*
X003702Y010154D01*
X003702Y009955D01*
X003778Y009771D01*
X003918Y009630D01*
X004102Y009554D01*
X003918Y009478D01*
X003778Y009338D01*
X003702Y009154D01*
X003702Y008955D01*
X003778Y008771D01*
X003918Y008630D01*
X004102Y008554D01*
X003918Y008478D01*
X003778Y008338D01*
X003702Y008154D01*
X003702Y007955D01*
X003778Y007771D01*
X003918Y007630D01*
X004102Y007554D01*
X003918Y007478D01*
X003778Y007338D01*
X003702Y007154D01*
X003702Y006955D01*
X003778Y006771D01*
X003918Y006630D01*
X004102Y006554D01*
X004301Y006554D01*
X004485Y006630D01*
X004625Y006771D01*
X004702Y006955D01*
X004702Y007154D01*
X004625Y007338D01*
X004485Y007478D01*
X004301Y007554D01*
X004102Y007554D01*
X004301Y007554D01*
X004485Y007630D01*
X004625Y007771D01*
X004702Y007955D01*
X004702Y008154D01*
X004625Y008338D01*
X004485Y008478D01*
X004301Y008554D01*
X004102Y008554D01*
X004301Y008554D01*
X004485Y008630D01*
X004625Y008771D01*
X004702Y008955D01*
X004702Y009154D01*
X004625Y009338D01*
X004485Y009478D01*
X004301Y009554D01*
X004102Y009554D01*
X004301Y009554D01*
X004485Y009630D01*
X004625Y009771D01*
X004702Y009955D01*
X004702Y010154D01*
X004625Y010338D01*
X004485Y010478D01*
X004301Y010554D01*
X004102Y010554D01*
X004301Y010554D01*
X004485Y010630D01*
X004625Y010771D01*
X004702Y010955D01*
X004702Y011154D01*
X004625Y011338D01*
X004485Y011478D01*
X004301Y011554D01*
X004102Y011554D01*
X004301Y011554D01*
X004485Y011630D01*
X004625Y011771D01*
X004702Y011955D01*
X004702Y012154D01*
X004625Y012338D01*
X004485Y012478D01*
X004301Y012554D01*
X004102Y012554D01*
X003918Y012630D01*
X003778Y012771D01*
X003702Y012955D01*
X003702Y013154D01*
X003778Y013338D01*
X003918Y013478D01*
X004011Y013516D01*
X003879Y013571D01*
X003755Y013694D01*
X003648Y013694D01*
X003524Y013571D01*
X003392Y013516D01*
X003485Y013478D01*
X003625Y013338D01*
X003702Y013154D01*
X003702Y012955D01*
X003625Y012771D01*
X003485Y012630D01*
X003301Y012554D01*
X003102Y012554D01*
X002918Y012478D01*
X002778Y012338D01*
X002702Y012154D01*
X002702Y011955D01*
X002778Y011771D01*
X002918Y011630D01*
X003102Y011554D01*
X002918Y011478D01*
X002778Y011338D01*
X002702Y011154D01*
X002702Y010955D01*
X002778Y010771D01*
X002918Y010630D01*
X003102Y010554D01*
X002918Y010478D01*
X002778Y010338D01*
X002702Y010154D01*
X002702Y009955D01*
X002778Y009771D01*
X002918Y009630D01*
X003102Y009554D01*
X002918Y009478D01*
X002778Y009338D01*
X002702Y009154D01*
X002702Y008955D01*
X002778Y008771D01*
X002918Y008630D01*
X003102Y008554D01*
X002918Y008478D01*
X002778Y008338D01*
X002702Y008154D01*
X002702Y007955D01*
X002778Y007771D01*
X002918Y007630D01*
X003102Y007554D01*
X002918Y007478D01*
X002778Y007338D01*
X002702Y007154D01*
X002702Y006955D01*
X002778Y006771D01*
X002918Y006630D01*
X003102Y006554D01*
X003301Y006554D01*
X003485Y006630D01*
X003625Y006771D01*
X003702Y006955D01*
X003702Y007154D01*
X003625Y007338D01*
X003485Y007478D01*
X003301Y007554D01*
X003102Y007554D01*
X003301Y007554D01*
X003485Y007630D01*
X003625Y007771D01*
X003702Y007955D01*
X003702Y008154D01*
X003625Y008338D01*
X003485Y008478D01*
X003301Y008554D01*
X003102Y008554D01*
X003301Y008554D01*
X003485Y008630D01*
X003625Y008771D01*
X003702Y008955D01*
X003702Y009154D01*
X003625Y009338D01*
X003485Y009478D01*
X003301Y009554D01*
X003102Y009554D01*
X003301Y009554D01*
X003485Y009630D01*
X003625Y009771D01*
X003702Y009955D01*
X003702Y010154D01*
X003625Y010338D01*
X003485Y010478D01*
X003301Y010554D01*
X003102Y010554D01*
X003301Y010554D01*
X003485Y010630D01*
X003625Y010771D01*
X003702Y010955D01*
X003702Y011154D01*
X003625Y011338D01*
X003485Y011478D01*
X003301Y011554D01*
X003102Y011554D01*
X003301Y011554D01*
X003485Y011630D01*
X003625Y011771D01*
X003702Y011955D01*
X003702Y012154D01*
X003625Y012338D01*
X003485Y012478D01*
X003301Y012554D01*
X003102Y012554D01*
X002918Y012630D01*
X002778Y012771D01*
X002702Y012955D01*
X002702Y013154D01*
X002778Y013338D01*
X002918Y013478D01*
X003011Y013516D01*
X002879Y013571D01*
X002755Y013694D01*
X002648Y013694D01*
X002524Y013571D01*
X002392Y013516D01*
X002485Y013478D01*
X002625Y013338D01*
X002702Y013154D01*
X002702Y012955D01*
X002625Y012771D01*
X002485Y012630D01*
X002301Y012554D01*
X002102Y012554D01*
X001918Y012478D01*
X001778Y012338D01*
X001702Y012154D01*
X001702Y011955D01*
X001778Y011771D01*
X001918Y011630D01*
X002102Y011554D01*
X001918Y011478D01*
X001778Y011338D01*
X001702Y011154D01*
X001702Y010955D01*
X001778Y010771D01*
X001918Y010630D01*
X002102Y010554D01*
X001918Y010478D01*
X001778Y010338D01*
X001702Y010154D01*
X001702Y009955D01*
X001778Y009771D01*
X001918Y009630D01*
X002102Y009554D01*
X001918Y009478D01*
X001778Y009338D01*
X001702Y009154D01*
X001702Y008955D01*
X001778Y008771D01*
X001918Y008630D01*
X002102Y008554D01*
X001918Y008478D01*
X001778Y008338D01*
X001702Y008154D01*
X001702Y007955D01*
X001778Y007771D01*
X001918Y007630D01*
X002102Y007554D01*
X001918Y007478D01*
X001778Y007338D01*
X001702Y007154D01*
X001702Y006955D01*
X001778Y006771D01*
X001918Y006630D01*
X002102Y006554D01*
X002301Y006554D01*
X002485Y006630D01*
X002625Y006771D01*
X002702Y006955D01*
X002702Y007154D01*
X002625Y007338D01*
X002485Y007478D01*
X002301Y007554D01*
X002102Y007554D01*
X002301Y007554D01*
X002485Y007630D01*
X002625Y007771D01*
X002702Y007955D01*
X002702Y008154D01*
X002625Y008338D01*
X002485Y008478D01*
X002301Y008554D01*
X002102Y008554D01*
X002301Y008554D01*
X002485Y008630D01*
X002625Y008771D01*
X002702Y008955D01*
X002702Y009154D01*
X002625Y009338D01*
X002485Y009478D01*
X002301Y009554D01*
X002102Y009554D01*
X002301Y009554D01*
X002485Y009630D01*
X002625Y009771D01*
X002702Y009955D01*
X002702Y010154D01*
X002625Y010338D01*
X002485Y010478D01*
X002301Y010554D01*
X002102Y010554D01*
X002301Y010554D01*
X002485Y010630D01*
X002625Y010771D01*
X002702Y010955D01*
X002702Y011154D01*
X002625Y011338D01*
X002485Y011478D01*
X002301Y011554D01*
X002102Y011554D01*
X002301Y011554D01*
X002485Y011630D01*
X002625Y011771D01*
X002702Y011955D01*
X002702Y012154D01*
X002625Y012338D01*
X002485Y012478D01*
X002301Y012554D01*
X002102Y012554D01*
X001918Y012630D01*
X001778Y012771D01*
X001702Y012955D01*
X001702Y013154D01*
X001778Y013338D01*
X001918Y013478D01*
X002011Y013516D01*
X001879Y013571D01*
X001755Y013694D01*
X001648Y013694D01*
X001524Y013571D01*
X001392Y013516D01*
X001485Y013478D01*
X001625Y013338D01*
X001702Y013154D01*
X001702Y012955D01*
X001625Y012771D01*
X001485Y012630D01*
X001301Y012554D01*
X001102Y012554D01*
X000918Y012478D01*
X000778Y012338D01*
X000702Y012154D01*
X000702Y011955D01*
X000778Y011771D01*
X000918Y011630D01*
X001102Y011554D01*
X000918Y011478D01*
X000778Y011338D01*
X000702Y011154D01*
X000702Y010955D01*
X000778Y010771D01*
X000918Y010630D01*
X001102Y010554D01*
X000918Y010478D01*
X000778Y010338D01*
X000702Y010154D01*
X000702Y009955D01*
X000778Y009771D01*
X000918Y009630D01*
X001102Y009554D01*
X000918Y009478D01*
X000778Y009338D01*
X000702Y009154D01*
X000702Y008955D01*
X000778Y008771D01*
X000918Y008630D01*
X001102Y008554D01*
X000918Y008478D01*
X000778Y008338D01*
X000702Y008154D01*
X000702Y007955D01*
X000778Y007771D01*
X000918Y007630D01*
X001102Y007554D01*
X000918Y007478D01*
X000778Y007338D01*
X000702Y007154D01*
X000702Y006955D01*
X000778Y006771D01*
X000918Y006630D01*
X001102Y006554D01*
X001301Y006554D01*
X001485Y006630D01*
X001625Y006771D01*
X001702Y006955D01*
X001702Y007154D01*
X001625Y007338D01*
X001485Y007478D01*
X001301Y007554D01*
X001102Y007554D01*
X001301Y007554D01*
X001485Y007630D01*
X001625Y007771D01*
X001702Y007955D01*
X001702Y008154D01*
X001625Y008338D01*
X001485Y008478D01*
X001301Y008554D01*
X001102Y008554D01*
X001301Y008554D01*
X001485Y008630D01*
X001625Y008771D01*
X001702Y008955D01*
X001702Y009154D01*
X001625Y009338D01*
X001485Y009478D01*
X001301Y009554D01*
X001102Y009554D01*
X001301Y009554D01*
X001485Y009630D01*
X001625Y009771D01*
X001702Y009955D01*
X001702Y010154D01*
X001625Y010338D01*
X001485Y010478D01*
X001301Y010554D01*
X001102Y010554D01*
X001301Y010554D01*
X001485Y010630D01*
X001625Y010771D01*
X001702Y010955D01*
X001702Y011154D01*
X001625Y011338D01*
X001485Y011478D01*
X001301Y011554D01*
X001102Y011554D01*
X001301Y011554D01*
X001485Y011630D01*
X001625Y011771D01*
X001702Y011955D01*
X001702Y012154D01*
X001625Y012338D01*
X001485Y012478D01*
X001301Y012554D01*
X001102Y012554D01*
X000918Y012630D01*
X000778Y012771D01*
X000702Y012955D01*
X000702Y013154D01*
X000778Y013338D01*
X000918Y013478D01*
X001011Y013516D01*
X000879Y013571D01*
X000718Y013731D01*
X000632Y013941D01*
X000632Y014168D01*
X000718Y014377D01*
X000879Y014538D01*
X000922Y014555D01*
X000922Y015499D01*
X000922Y015610D01*
X000922Y016499D01*
X000922Y016610D01*
X000964Y016713D01*
X001043Y016792D01*
X001146Y016834D01*
X001701Y016834D01*
X001818Y016951D01*
X002111Y016951D01*
X002313Y017161D01*
X002314Y017163D01*
X002351Y017200D01*
X002389Y017239D01*
X002391Y017240D01*
X002393Y017242D01*
X002442Y017262D01*
X002491Y017283D01*
X002494Y017283D01*
X002496Y017284D01*
X002551Y017284D01*
X002602Y017285D01*
X002605Y017284D01*
X003307Y017284D01*
X003810Y017988D01*
X003778Y018021D01*
X003702Y018205D01*
X003702Y018404D01*
X003778Y018588D01*
X003918Y018728D01*
X003922Y018730D01*
X003922Y018749D01*
X003922Y018860D01*
X003964Y018963D01*
X004672Y019670D01*
X004672Y019703D01*
X004605Y019770D01*
X004605Y020369D01*
X004654Y020418D01*
X004625Y020448D01*
X004625Y020720D01*
X004983Y020720D01*
X004983Y020757D01*
X004625Y020757D01*
X004625Y021030D01*
X004730Y021135D01*
X004983Y021135D01*
X004983Y020758D01*
X005020Y020758D01*
X005020Y021135D01*
X005273Y021135D01*
X005378Y021030D01*
X005378Y020757D01*
X005020Y020757D01*
X005020Y020720D01*
X005378Y020720D01*
X005378Y020448D01*
X005349Y020418D01*
X005398Y020369D01*
X005398Y019770D01*
X005281Y019653D01*
X005232Y019653D01*
X005232Y019499D01*
X005189Y019396D01*
X005110Y019317D01*
X004503Y018710D01*
X004625Y018588D01*
X004702Y018404D01*
X004702Y018205D01*
X004625Y018021D01*
X004485Y017880D01*
X004395Y017843D01*
X003698Y016868D01*
X003689Y016846D01*
X003666Y016823D01*
X003660Y016814D01*
X003700Y016814D01*
X003700Y016834D01*
X003818Y016951D01*
X004416Y016951D01*
X004452Y016916D01*
X004487Y016951D01*
X005086Y016951D01*
X005101Y016935D01*
X005465Y017663D01*
X005481Y017702D01*
X005488Y017708D01*
X005492Y017717D01*
X005524Y017745D01*
X005554Y017775D01*
X005563Y017778D01*
X005570Y017785D01*
X005611Y017798D01*
X005650Y017814D01*
X005659Y017814D01*
X005668Y017817D01*
X005711Y017814D01*
X014078Y017814D01*
X013918Y017880D01*
X013778Y018021D01*
X013702Y018205D01*
X013702Y018404D01*
X013778Y018588D01*
X013918Y018728D01*
X014102Y018804D01*
X014301Y018804D01*
X014485Y018728D01*
X014625Y018588D01*
X014702Y018404D01*
X014702Y018205D01*
X014778Y018021D01*
X014918Y017880D01*
X015078Y017814D01*
X014325Y017814D01*
X014485Y017880D01*
X014625Y018021D01*
X014702Y018205D01*
X014702Y018404D01*
X014778Y018588D01*
X014918Y018728D01*
X014922Y018730D01*
X014922Y019138D01*
X014786Y019274D01*
X014652Y019274D01*
X014536Y019157D01*
X013937Y019157D01*
X013902Y019193D01*
X013866Y019157D01*
X013268Y019157D01*
X013150Y019275D01*
X013150Y019314D01*
X013143Y019317D01*
X013064Y019396D01*
X012864Y019596D01*
X012822Y019699D01*
X012822Y019810D01*
X012822Y020054D01*
X012719Y020054D01*
X012602Y020171D01*
X012602Y020937D01*
X012719Y021054D01*
X013484Y021054D01*
X013602Y020937D01*
X013602Y020171D01*
X013484Y020054D01*
X013382Y020054D01*
X013382Y019951D01*
X013866Y019951D01*
X013902Y019916D01*
X013937Y019951D01*
X014536Y019951D01*
X014652Y019834D01*
X014846Y019834D01*
X014957Y019834D01*
X015060Y019792D01*
X015360Y019492D01*
X015439Y019413D01*
X015482Y019310D01*
X015482Y018730D01*
X015485Y018728D01*
X015625Y018588D01*
X015702Y018404D01*
X015702Y018205D01*
X015778Y018021D01*
X015918Y017880D01*
X016102Y017804D01*
X016301Y017804D01*
X016485Y017880D01*
X016625Y018021D01*
X016702Y018205D01*
X016702Y018404D01*
X016625Y018588D01*
X016485Y018728D01*
X016301Y018804D01*
X016102Y018804D01*
X015918Y018728D01*
X015778Y018588D01*
X015702Y018404D01*
X015702Y018205D01*
X015625Y018021D01*
X015485Y017880D01*
X015301Y017804D01*
X015277Y017804D01*
X015349Y017775D01*
X015422Y017702D01*
X015922Y017202D01*
X015962Y017106D01*
X015962Y017003D01*
X015962Y015988D01*
X015985Y015978D01*
X016125Y015838D01*
X016202Y015654D01*
X016202Y015455D01*
X016278Y015271D01*
X016418Y015130D01*
X016602Y015054D01*
X016801Y015054D01*
X016985Y015130D01*
X017125Y015271D01*
X017202Y015455D01*
X017278Y015271D01*
X017418Y015130D01*
X017602Y015054D01*
X017801Y015054D01*
X017985Y015130D01*
X018125Y015271D01*
X018202Y015455D01*
X018278Y015271D01*
X018418Y015130D01*
X018602Y015054D01*
X018801Y015054D01*
X018985Y015130D01*
X019125Y015271D01*
X019202Y015455D01*
X019278Y015271D01*
X019418Y015130D01*
X019602Y015054D01*
X019801Y015054D01*
X019985Y015130D01*
X020125Y015271D01*
X020202Y015455D01*
X020278Y015271D01*
X020418Y015130D01*
X020602Y015054D01*
X020801Y015054D01*
X020985Y015130D01*
X021125Y015271D01*
X021202Y015455D01*
X021202Y015654D01*
X021125Y015838D01*
X020985Y015978D01*
X020801Y016054D01*
X020602Y016054D01*
X020418Y015978D01*
X020278Y015838D01*
X020202Y015654D01*
X020202Y015455D01*
X020202Y015654D01*
X020125Y015838D01*
X019985Y015978D01*
X019801Y016054D01*
X019602Y016054D01*
X019418Y015978D01*
X019278Y015838D01*
X019202Y015654D01*
X019202Y015455D01*
X019202Y015654D01*
X019125Y015838D01*
X018985Y015978D01*
X018801Y016054D01*
X018602Y016054D01*
X018418Y015978D01*
X018278Y015838D01*
X018202Y015654D01*
X018202Y015455D01*
X018202Y015654D01*
X018125Y015838D01*
X017985Y015978D01*
X017801Y016054D01*
X017602Y016054D01*
X017418Y015978D01*
X017278Y015838D01*
X017202Y015654D01*
X017202Y015455D01*
X017202Y015654D01*
X017125Y015838D01*
X016985Y015978D01*
X016801Y016054D01*
X016602Y016054D01*
X016418Y015978D01*
X016278Y015838D01*
X016202Y015654D01*
X016202Y015455D01*
X016125Y015271D01*
X015985Y015130D01*
X015801Y015054D01*
X015602Y015054D01*
X015418Y015130D01*
X015278Y015271D01*
X015202Y015455D01*
X015202Y015654D01*
X015278Y015838D01*
X015418Y015978D01*
X015442Y015988D01*
X015442Y016947D01*
X015094Y017294D01*
X014301Y017294D01*
X014349Y017275D01*
X014849Y016775D01*
X014922Y016702D01*
X014962Y016606D01*
X014962Y015988D01*
X014985Y015978D01*
X015125Y015838D01*
X015202Y015654D01*
X015202Y015455D01*
X015125Y015271D01*
X014985Y015130D01*
X014801Y015054D01*
X014602Y015054D01*
X014418Y015130D01*
X014278Y015271D01*
X014202Y015455D01*
X014202Y015654D01*
X014278Y015838D01*
X014418Y015978D01*
X014442Y015988D01*
X014442Y016447D01*
X014094Y016794D01*
X006112Y016794D01*
X005438Y015446D01*
X005422Y015407D01*
X005415Y015400D01*
X005411Y015392D01*
X005379Y015364D01*
X005349Y015334D01*
X005340Y015330D01*
X005333Y015324D01*
X005293Y015311D01*
X005253Y015294D01*
X005244Y015294D01*
X005235Y015291D01*
X005203Y015294D01*
X005203Y015275D01*
X005086Y015157D01*
X004487Y015157D01*
X004452Y015193D01*
X004416Y015157D01*
X003818Y015157D01*
X003700Y015275D01*
X003700Y015294D01*
X003203Y015294D01*
X003203Y015275D01*
X003086Y015157D01*
X002487Y015157D01*
X002452Y015193D01*
X002416Y015157D01*
X001818Y015157D01*
X001701Y015274D01*
X001482Y015274D01*
X001482Y014555D01*
X001524Y014538D01*
X001648Y014414D01*
X001755Y014414D01*
X001879Y014538D01*
X002088Y014624D01*
X002315Y014624D01*
X002524Y014538D01*
X002648Y014414D01*
X002755Y014414D01*
X002879Y014538D01*
X003088Y014624D01*
X003315Y014624D01*
X003524Y014538D01*
X003648Y014414D01*
X003755Y014414D01*
X003879Y014538D01*
X004088Y014624D01*
X004315Y014624D01*
X004524Y014538D01*
X004648Y014414D01*
X004755Y014414D01*
X004879Y014538D01*
X005088Y014624D01*
X005315Y014624D01*
X005524Y014538D01*
X005648Y014414D01*
X005755Y014414D01*
X005879Y014538D01*
X006088Y014624D01*
X006315Y014624D01*
X006524Y014538D01*
X006648Y014414D01*
X006755Y014414D01*
X006879Y014538D01*
X007088Y014624D01*
X007315Y014624D01*
X007524Y014538D01*
X007648Y014414D01*
X007755Y014414D01*
X007879Y014538D01*
X008088Y014624D01*
X008315Y014624D01*
X008524Y014538D01*
X008648Y014414D01*
X008755Y014414D01*
X008879Y014538D01*
X009088Y014624D01*
X009315Y014624D01*
X009524Y014538D01*
X009648Y014414D01*
X009755Y014414D01*
X009879Y014538D01*
X010088Y014624D01*
X010315Y014624D01*
X010524Y014538D01*
X010648Y014414D01*
X010755Y014414D01*
X010879Y014538D01*
X011088Y014624D01*
X011315Y014624D01*
X011524Y014538D01*
X011648Y014414D01*
X011755Y014414D01*
X011879Y014538D01*
X012088Y014624D01*
X012315Y014624D01*
X012524Y014538D01*
X012648Y014414D01*
X012755Y014414D01*
X012879Y014538D01*
X013088Y014624D01*
X013315Y014624D01*
X013524Y014538D01*
X013648Y014414D01*
X013755Y014414D01*
X013879Y014538D01*
X014088Y014624D01*
X014315Y014624D01*
X014524Y014538D01*
X014648Y014414D01*
X014755Y014414D01*
X014879Y014538D01*
X015088Y014624D01*
X015315Y014624D01*
X015524Y014538D01*
X015648Y014414D01*
X015755Y014414D01*
X015879Y014538D01*
X016088Y014624D01*
X016315Y014624D01*
X016524Y014538D01*
X016648Y014414D01*
X016755Y014414D01*
X016879Y014538D01*
X017088Y014624D01*
X017315Y014624D01*
X017524Y014538D01*
X017648Y014414D01*
X017755Y014414D01*
X017879Y014538D01*
X018088Y014624D01*
X018315Y014624D01*
X018524Y014538D01*
X018648Y014414D01*
X018755Y014414D01*
X018879Y014538D01*
X019088Y014624D01*
X019315Y014624D01*
X019524Y014538D01*
X019648Y014414D01*
X019755Y014414D01*
X019879Y014538D01*
X020088Y014624D01*
X020315Y014624D01*
X020524Y014538D01*
X020648Y014414D01*
X020755Y014414D01*
X020879Y014538D01*
X021088Y014624D01*
X021315Y014624D01*
X021524Y014538D01*
X021648Y014414D01*
X021755Y014414D01*
X021879Y014538D01*
X022088Y014624D01*
X022315Y014624D01*
X022524Y014538D01*
X022648Y014414D01*
X022973Y014414D01*
X022973Y014414D01*
X023023Y014414D01*
X023023Y014414D01*
X023247Y014321D01*
X023247Y014321D01*
X023419Y014150D01*
X023419Y014150D01*
X023442Y014094D01*
X023442Y015447D01*
X022554Y016334D01*
X022481Y016407D01*
X022442Y016503D01*
X022442Y020503D01*
X022442Y020513D01*
X022442Y020554D01*
X022432Y020670D01*
X022361Y020890D01*
X022225Y021078D01*
X022038Y021214D01*
X021817Y021285D01*
X021702Y021294D01*
X002302Y021294D01*
X002302Y018782D01*
X002473Y018711D01*
X002608Y018576D01*
X002682Y018400D01*
X002682Y018324D01*
X002302Y018324D01*
X002302Y018284D01*
X002682Y018284D01*
X002682Y018209D01*
X002608Y018032D01*
X002473Y017897D01*
X002302Y017826D01*
X002302Y017304D01*
X000462Y017304D01*
X000462Y001578D01*
X000483Y001475D01*
X000575Y001258D01*
X000719Y001071D01*
X000629Y001189D02*
X002922Y001189D01*
X002922Y001347D02*
X002777Y001347D01*
X002852Y001506D02*
X002922Y001506D01*
X002922Y001664D02*
X002852Y001664D01*
X002852Y001823D02*
X002922Y001823D01*
X002922Y001981D02*
X002852Y001981D01*
X002502Y001804D02*
X002502Y003804D01*
X002952Y004304D01*
X009452Y004304D01*
X009702Y004054D01*
X009702Y003554D01*
X010079Y003884D02*
X010324Y003884D01*
X010278Y003838D02*
X010202Y003654D01*
X010202Y003455D01*
X010278Y003271D01*
X010382Y003167D01*
X010382Y001941D01*
X010278Y001838D01*
X010202Y001654D01*
X010202Y001455D01*
X010278Y001271D01*
X010415Y001134D01*
X009989Y001134D01*
X010125Y001271D01*
X010202Y001455D01*
X010202Y001654D01*
X010125Y001838D01*
X010022Y001941D01*
X010022Y003167D01*
X010125Y003271D01*
X010202Y003455D01*
X010202Y003654D01*
X010125Y003838D01*
X009985Y003978D01*
X009982Y003980D01*
X009982Y003999D01*
X009982Y004110D01*
X009939Y004213D01*
X009689Y004463D01*
X009610Y004542D01*
X009507Y004584D01*
X009504Y004584D01*
X009513Y004588D01*
X009668Y004743D01*
X009702Y004824D01*
X009735Y004743D01*
X009890Y004588D01*
X010092Y004504D01*
X010181Y004504D01*
X010181Y005034D01*
X009652Y005034D01*
X009222Y005034D01*
X009222Y005074D01*
X009652Y005074D01*
X010181Y005074D01*
X010181Y005034D01*
X010222Y005034D01*
X010222Y005074D01*
X010652Y005074D01*
X011181Y005074D01*
X011181Y005034D01*
X010652Y005034D01*
X010222Y005034D01*
X010222Y004504D01*
X010311Y004504D01*
X010513Y004588D01*
X010668Y004743D01*
X010702Y004824D01*
X010735Y004743D01*
X010890Y004588D01*
X011092Y004504D01*
X011181Y004504D01*
X011181Y005034D01*
X011222Y005034D01*
X011222Y005074D01*
X011652Y005074D01*
X012181Y005074D01*
X012181Y005034D01*
X011752Y005034D01*
X011222Y005034D01*
X011222Y004504D01*
X011311Y004504D01*
X011513Y004588D01*
X011668Y004743D01*
X011702Y004824D01*
X011735Y004743D01*
X011819Y004659D01*
X011606Y004571D01*
X011434Y004400D01*
X011434Y004400D01*
X011342Y004176D01*
X011342Y004176D01*
X011342Y004126D01*
X011342Y004126D01*
X011342Y003901D01*
X011278Y003838D01*
X011202Y003654D01*
X011202Y003455D01*
X011278Y003271D01*
X011342Y003207D01*
X011342Y001901D01*
X011278Y001838D01*
X011202Y001654D01*
X011202Y001455D01*
X011278Y001271D01*
X011400Y001149D01*
X011386Y001134D01*
X010989Y001134D01*
X011125Y001271D01*
X011202Y001455D01*
X011202Y001654D01*
X011125Y001838D01*
X011022Y001941D01*
X011022Y003167D01*
X011125Y003271D01*
X011202Y003455D01*
X011202Y003654D01*
X011125Y003838D01*
X010985Y003978D01*
X010801Y004054D01*
X010602Y004054D01*
X010418Y003978D01*
X010278Y003838D01*
X010231Y003725D02*
X010172Y003725D01*
X010202Y003567D02*
X010202Y003567D01*
X010182Y003408D02*
X010221Y003408D01*
X010299Y003250D02*
X010104Y003250D01*
X010022Y003091D02*
X010382Y003091D01*
X010382Y002932D02*
X010022Y002932D01*
X010022Y002774D02*
X010382Y002774D01*
X010382Y002615D02*
X010022Y002615D01*
X010022Y002457D02*
X010382Y002457D01*
X010382Y002298D02*
X010022Y002298D01*
X010022Y002140D02*
X010382Y002140D01*
X010382Y001981D02*
X010022Y001981D01*
X010132Y001823D02*
X010272Y001823D01*
X010206Y001664D02*
X010197Y001664D01*
X010202Y001506D02*
X010202Y001506D01*
X010246Y001347D02*
X010157Y001347D01*
X010043Y001189D02*
X010360Y001189D01*
X011043Y001189D02*
X011360Y001189D01*
X011246Y001347D02*
X011157Y001347D01*
X011202Y001506D02*
X011202Y001506D01*
X011197Y001664D02*
X011206Y001664D01*
X011272Y001823D02*
X011132Y001823D01*
X011022Y001981D02*
X011342Y001981D01*
X011342Y002140D02*
X011022Y002140D01*
X011022Y002298D02*
X011342Y002298D01*
X011342Y002457D02*
X011022Y002457D01*
X011022Y002615D02*
X011342Y002615D01*
X011342Y002774D02*
X011022Y002774D01*
X011022Y002932D02*
X011342Y002932D01*
X011342Y003091D02*
X011022Y003091D01*
X011104Y003250D02*
X011299Y003250D01*
X011221Y003408D02*
X011182Y003408D01*
X011202Y003567D02*
X011202Y003567D01*
X011172Y003725D02*
X011231Y003725D01*
X011324Y003884D02*
X011079Y003884D01*
X010830Y004042D02*
X011342Y004042D01*
X011352Y004201D02*
X009944Y004201D01*
X009982Y004042D02*
X010573Y004042D01*
X010344Y004518D02*
X011059Y004518D01*
X011181Y004518D02*
X011222Y004518D01*
X011344Y004518D02*
X011553Y004518D01*
X011606Y004571D02*
X011606Y004571D01*
X011601Y004676D02*
X011802Y004676D01*
X012222Y005034D02*
X012222Y005074D01*
X012652Y005074D01*
X013181Y005074D01*
X013181Y005034D01*
X012652Y005034D01*
X012222Y005034D01*
X012691Y005311D02*
X012712Y005311D01*
X012839Y005469D02*
X012564Y005469D01*
X012478Y005628D02*
X012925Y005628D01*
X012771Y005786D02*
X012632Y005786D01*
X012697Y005945D02*
X012706Y005945D01*
X012702Y006103D02*
X012702Y006103D01*
X012746Y006262D02*
X012657Y006262D01*
X012543Y006420D02*
X012861Y006420D01*
X013043Y006579D02*
X012361Y006579D01*
X012592Y006738D02*
X012811Y006738D01*
X012726Y006896D02*
X012677Y006896D01*
X012702Y007055D02*
X012702Y007055D01*
X012677Y007213D02*
X012726Y007213D01*
X012812Y007372D02*
X012591Y007372D01*
X012359Y007530D02*
X013044Y007530D01*
X012860Y007689D02*
X012543Y007689D01*
X012657Y007847D02*
X012746Y007847D01*
X012702Y008006D02*
X012702Y008006D01*
X012697Y008164D02*
X012706Y008164D01*
X012772Y008323D02*
X012631Y008323D01*
X012477Y008481D02*
X012926Y008481D01*
X012909Y008640D02*
X012494Y008640D01*
X012637Y008799D02*
X012766Y008799D01*
X012702Y008957D02*
X012702Y008957D01*
X012702Y009116D02*
X012702Y009116D01*
X012652Y009274D02*
X012751Y009274D01*
X012873Y009433D02*
X012530Y009433D01*
X012390Y009591D02*
X013013Y009591D01*
X012799Y009750D02*
X012604Y009750D01*
X012682Y009908D02*
X012721Y009908D01*
X012702Y010067D02*
X012702Y010067D01*
X012672Y010225D02*
X012731Y010225D01*
X012824Y010384D02*
X012579Y010384D01*
X012329Y010543D02*
X013074Y010543D01*
X013329Y010543D02*
X014074Y010543D01*
X014329Y010543D02*
X015074Y010543D01*
X015329Y010543D02*
X016074Y010543D01*
X016329Y010543D02*
X017074Y010543D01*
X016848Y010701D02*
X016555Y010701D01*
X016662Y010860D02*
X016741Y010860D01*
X016702Y011018D02*
X016702Y011018D01*
X016692Y011177D02*
X016711Y011177D01*
X016777Y011335D02*
X016626Y011335D01*
X016447Y011494D02*
X016956Y011494D01*
X016896Y011652D02*
X016507Y011652D01*
X016642Y011811D02*
X016761Y011811D01*
X016702Y011969D02*
X016702Y011969D01*
X016702Y012128D02*
X016702Y012128D01*
X016647Y012287D02*
X016757Y012287D01*
X016885Y012445D02*
X016518Y012445D01*
X016420Y012604D02*
X016983Y012604D01*
X016787Y012762D02*
X016616Y012762D01*
X016687Y012921D02*
X016716Y012921D01*
X016702Y013079D02*
X016702Y013079D01*
X016667Y013238D02*
X016736Y013238D01*
X016836Y013396D02*
X016567Y013396D01*
X016485Y013555D02*
X016918Y013555D01*
X017485Y013555D02*
X017918Y013555D01*
X017836Y013396D02*
X017567Y013396D01*
X017667Y013238D02*
X017736Y013238D01*
X017702Y013079D02*
X017702Y013079D01*
X017687Y012921D02*
X017716Y012921D01*
X017787Y012762D02*
X017616Y012762D01*
X017420Y012604D02*
X017983Y012604D01*
X017885Y012445D02*
X017518Y012445D01*
X017647Y012287D02*
X017757Y012287D01*
X017702Y012128D02*
X017702Y012128D01*
X017702Y011969D02*
X017702Y011969D01*
X017761Y011811D02*
X017642Y011811D01*
X017507Y011652D02*
X017896Y011652D01*
X017956Y011494D02*
X017447Y011494D01*
X017626Y011335D02*
X017777Y011335D01*
X017711Y011177D02*
X017692Y011177D01*
X017702Y011018D02*
X017702Y011018D01*
X017662Y010860D02*
X017741Y010860D01*
X017848Y010701D02*
X017555Y010701D01*
X017329Y010543D02*
X018074Y010543D01*
X018329Y010543D02*
X019074Y010543D01*
X019329Y010543D02*
X020074Y010543D01*
X020329Y010543D02*
X021074Y010543D01*
X021329Y010543D02*
X022074Y010543D01*
X022329Y010543D02*
X022792Y010543D01*
X022792Y010701D02*
X022555Y010701D01*
X022662Y010860D02*
X022792Y010860D01*
X022792Y011018D02*
X022702Y011018D01*
X022692Y011177D02*
X022792Y011177D01*
X022792Y011335D02*
X022626Y011335D01*
X022792Y011494D02*
X022447Y011494D01*
X022507Y011652D02*
X022792Y011652D01*
X022792Y011811D02*
X022642Y011811D01*
X022702Y011969D02*
X022792Y011969D01*
X022792Y012128D02*
X022702Y012128D01*
X022647Y012287D02*
X022792Y012287D01*
X022792Y012445D02*
X022518Y012445D01*
X022420Y012604D02*
X022792Y012604D01*
X022792Y012762D02*
X022616Y012762D01*
X022687Y012921D02*
X022792Y012921D01*
X022792Y013079D02*
X022702Y013079D01*
X022667Y013238D02*
X022792Y013238D01*
X022792Y013396D02*
X022567Y013396D01*
X022485Y013555D02*
X022792Y013555D01*
X023379Y014189D02*
X023442Y014189D01*
X023442Y014348D02*
X023184Y014348D01*
X023442Y014506D02*
X022556Y014506D01*
X021847Y014506D02*
X021556Y014506D01*
X021319Y015054D02*
X021202Y015171D01*
X021202Y015937D01*
X021319Y016054D01*
X022084Y016054D01*
X022202Y015937D01*
X022202Y015171D01*
X022084Y015054D01*
X021319Y015054D01*
X021233Y015140D02*
X020995Y015140D01*
X021137Y015299D02*
X021202Y015299D01*
X021202Y015457D02*
X021202Y015457D01*
X021202Y015616D02*
X021202Y015616D01*
X021202Y015774D02*
X021152Y015774D01*
X021202Y015933D02*
X021030Y015933D01*
X020373Y015933D02*
X020030Y015933D01*
X020152Y015774D02*
X020252Y015774D01*
X020202Y015616D02*
X020202Y015616D01*
X020202Y015457D02*
X020202Y015457D01*
X020137Y015299D02*
X020266Y015299D01*
X020408Y015140D02*
X019995Y015140D01*
X019408Y015140D02*
X018995Y015140D01*
X019137Y015299D02*
X019266Y015299D01*
X019202Y015457D02*
X019202Y015457D01*
X019202Y015616D02*
X019202Y015616D01*
X019152Y015774D02*
X019252Y015774D01*
X019373Y015933D02*
X019030Y015933D01*
X018373Y015933D02*
X018030Y015933D01*
X018152Y015774D02*
X018252Y015774D01*
X018202Y015616D02*
X018202Y015616D01*
X018202Y015457D02*
X018202Y015457D01*
X018137Y015299D02*
X018266Y015299D01*
X018408Y015140D02*
X017995Y015140D01*
X017408Y015140D02*
X016995Y015140D01*
X017137Y015299D02*
X017266Y015299D01*
X017202Y015457D02*
X017202Y015457D01*
X017202Y015616D02*
X017202Y015616D01*
X017152Y015774D02*
X017252Y015774D01*
X017373Y015933D02*
X017030Y015933D01*
X016373Y015933D02*
X016030Y015933D01*
X015962Y016092D02*
X022797Y016092D01*
X022638Y016250D02*
X015962Y016250D01*
X015962Y016409D02*
X022480Y016409D01*
X022442Y016567D02*
X015962Y016567D01*
X015962Y016726D02*
X022442Y016726D01*
X022442Y016884D02*
X015962Y016884D01*
X015962Y017043D02*
X022442Y017043D01*
X022442Y017201D02*
X015922Y017201D01*
X015764Y017360D02*
X022442Y017360D01*
X022442Y017518D02*
X015605Y017518D01*
X015447Y017677D02*
X022442Y017677D01*
X022442Y017836D02*
X017324Y017836D01*
X017297Y017824D02*
X017473Y017897D01*
X017608Y018032D01*
X017682Y018209D01*
X017682Y018284D01*
X017222Y018284D01*
X017222Y018324D01*
X017682Y018324D01*
X017682Y018400D01*
X017608Y018576D01*
X017473Y018711D01*
X017297Y018784D01*
X017222Y018784D01*
X017222Y018325D01*
X017181Y018325D01*
X017181Y018784D01*
X017106Y018784D01*
X016930Y018711D01*
X016795Y018576D01*
X016722Y018400D01*
X016722Y018324D01*
X017181Y018324D01*
X017181Y018284D01*
X016722Y018284D01*
X016722Y018209D01*
X016795Y018032D01*
X016930Y017897D01*
X017106Y017824D01*
X017181Y017824D01*
X017181Y018284D01*
X017222Y018284D01*
X017222Y017824D01*
X017297Y017824D01*
X017222Y017836D02*
X017181Y017836D01*
X017079Y017836D02*
X016376Y017836D01*
X016598Y017994D02*
X016833Y017994D01*
X016745Y018153D02*
X016680Y018153D01*
X016702Y018311D02*
X017181Y018311D01*
X017222Y018311D02*
X020825Y018311D01*
X020825Y018279D02*
X020930Y018173D01*
X021183Y018173D01*
X021183Y018551D01*
X021220Y018551D01*
X021220Y018173D01*
X021473Y018173D01*
X021578Y018279D01*
X021578Y018551D01*
X021220Y018551D01*
X021220Y018588D01*
X021578Y018588D01*
X021578Y018861D01*
X021549Y018890D01*
X021598Y018940D01*
X021598Y019265D01*
X021906Y019613D01*
X021939Y019646D01*
X021942Y019654D01*
X021948Y019661D01*
X021964Y019705D01*
X021982Y019749D01*
X021982Y019758D01*
X021984Y019766D01*
X021982Y019813D01*
X021982Y020054D01*
X022084Y020054D01*
X022202Y020171D01*
X022202Y020937D01*
X022084Y021054D01*
X021319Y021054D01*
X021202Y020937D01*
X021202Y020171D01*
X021319Y020054D01*
X021422Y020054D01*
X021422Y019910D01*
X021196Y019655D01*
X020922Y019655D01*
X020805Y019538D01*
X020805Y018940D01*
X020854Y018890D01*
X020825Y018861D01*
X020825Y018588D01*
X021183Y018588D01*
X021183Y018551D01*
X020825Y018551D01*
X020825Y018279D01*
X020825Y018470D02*
X017653Y018470D01*
X017556Y018628D02*
X020825Y018628D01*
X020825Y018787D02*
X016343Y018787D01*
X016060Y018787D02*
X015482Y018787D01*
X015482Y018945D02*
X020805Y018945D01*
X020805Y019104D02*
X015482Y019104D01*
X015482Y019262D02*
X020805Y019262D01*
X020805Y019421D02*
X015431Y019421D01*
X015272Y019580D02*
X020846Y019580D01*
X021269Y019738D02*
X015114Y019738D01*
X014902Y019554D02*
X015202Y019254D01*
X015202Y018304D01*
X015598Y017994D02*
X015805Y017994D01*
X015723Y018153D02*
X015680Y018153D01*
X015702Y018311D02*
X015702Y018311D01*
X015674Y018470D02*
X015729Y018470D01*
X015818Y018628D02*
X015585Y018628D01*
X014922Y018787D02*
X014343Y018787D01*
X014060Y018787D02*
X004580Y018787D01*
X004585Y018628D02*
X013818Y018628D01*
X013729Y018470D02*
X004674Y018470D01*
X004702Y018311D02*
X013702Y018311D01*
X013723Y018153D02*
X004680Y018153D01*
X004598Y017994D02*
X013805Y017994D01*
X014027Y017836D02*
X004389Y017836D01*
X004276Y017677D02*
X005471Y017677D01*
X005393Y017518D02*
X004163Y017518D01*
X004050Y017360D02*
X005314Y017360D01*
X005234Y017201D02*
X003936Y017201D01*
X003823Y017043D02*
X005155Y017043D01*
X005999Y016567D02*
X014321Y016567D01*
X014442Y016409D02*
X005919Y016409D01*
X005840Y016250D02*
X014442Y016250D01*
X014442Y016092D02*
X005761Y016092D01*
X005682Y015933D02*
X006373Y015933D01*
X006418Y015978D02*
X006278Y015838D01*
X006202Y015654D01*
X006202Y015455D01*
X006278Y015271D01*
X006418Y015130D01*
X006602Y015054D01*
X006801Y015054D01*
X006985Y015130D01*
X007125Y015271D01*
X007202Y015455D01*
X007202Y015654D01*
X007125Y015838D01*
X006985Y015978D01*
X006801Y016054D01*
X006602Y016054D01*
X006418Y015978D01*
X006252Y015774D02*
X005602Y015774D01*
X005523Y015616D02*
X006202Y015616D01*
X006202Y015457D02*
X005444Y015457D01*
X005264Y015299D02*
X006266Y015299D01*
X006408Y015140D02*
X001482Y015140D01*
X001482Y014982D02*
X023442Y014982D01*
X023442Y015140D02*
X022170Y015140D01*
X022202Y015299D02*
X023442Y015299D01*
X023431Y015457D02*
X022202Y015457D01*
X022202Y015616D02*
X023272Y015616D01*
X023114Y015774D02*
X022202Y015774D01*
X022202Y015933D02*
X022955Y015933D01*
X023442Y014823D02*
X001482Y014823D01*
X001482Y014665D02*
X023442Y014665D01*
X021918Y013555D02*
X021485Y013555D01*
X021567Y013396D02*
X021836Y013396D01*
X021736Y013238D02*
X021667Y013238D01*
X021702Y013079D02*
X021702Y013079D01*
X021687Y012921D02*
X021716Y012921D01*
X021787Y012762D02*
X021616Y012762D01*
X021420Y012604D02*
X021983Y012604D01*
X021885Y012445D02*
X021518Y012445D01*
X021647Y012287D02*
X021757Y012287D01*
X021702Y012128D02*
X021702Y012128D01*
X021702Y011969D02*
X021702Y011969D01*
X021761Y011811D02*
X021642Y011811D01*
X021507Y011652D02*
X021896Y011652D01*
X021956Y011494D02*
X021447Y011494D01*
X021626Y011335D02*
X021777Y011335D01*
X021711Y011177D02*
X021692Y011177D01*
X021702Y011018D02*
X021702Y011018D01*
X021662Y010860D02*
X021741Y010860D01*
X021848Y010701D02*
X021555Y010701D01*
X021579Y010384D02*
X021824Y010384D01*
X021731Y010225D02*
X021672Y010225D01*
X021702Y010067D02*
X021702Y010067D01*
X021682Y009908D02*
X021721Y009908D01*
X021799Y009750D02*
X021604Y009750D01*
X021390Y009591D02*
X022013Y009591D01*
X021873Y009433D02*
X021530Y009433D01*
X021652Y009274D02*
X021751Y009274D01*
X021702Y009116D02*
X021702Y009116D01*
X021702Y008957D02*
X021702Y008957D01*
X021637Y008799D02*
X021766Y008799D01*
X021909Y008640D02*
X021494Y008640D01*
X021477Y008481D02*
X021926Y008481D01*
X021772Y008323D02*
X021631Y008323D01*
X021697Y008164D02*
X021706Y008164D01*
X021702Y008006D02*
X021702Y008006D01*
X021746Y007847D02*
X021657Y007847D01*
X021543Y007689D02*
X021860Y007689D01*
X022044Y007530D02*
X021359Y007530D01*
X021591Y007372D02*
X021812Y007372D01*
X021726Y007213D02*
X021677Y007213D01*
X021702Y007055D02*
X021702Y007055D01*
X021677Y006896D02*
X021726Y006896D01*
X021811Y006738D02*
X021592Y006738D01*
X021361Y006579D02*
X022043Y006579D01*
X021861Y006420D02*
X021543Y006420D01*
X021657Y006262D02*
X021746Y006262D01*
X021702Y006103D02*
X021702Y006103D01*
X021697Y005945D02*
X021706Y005945D01*
X021771Y005786D02*
X021632Y005786D01*
X021478Y005628D02*
X021925Y005628D01*
X021839Y005469D02*
X021564Y005469D01*
X021691Y005311D02*
X021712Y005311D01*
X021652Y005074D02*
X021222Y005074D01*
X021222Y005034D01*
X021652Y005034D01*
X022181Y005034D01*
X022181Y005074D01*
X021652Y005074D01*
X021181Y005074D02*
X021181Y005034D01*
X020652Y005034D01*
X020222Y005034D01*
X020222Y005074D01*
X020652Y005074D01*
X021181Y005074D01*
X020839Y005469D02*
X020564Y005469D01*
X020478Y005628D02*
X020925Y005628D01*
X020771Y005786D02*
X020632Y005786D01*
X020697Y005945D02*
X020706Y005945D01*
X020702Y006103D02*
X020702Y006103D01*
X020746Y006262D02*
X020657Y006262D01*
X020543Y006420D02*
X020861Y006420D01*
X021043Y006579D02*
X020361Y006579D01*
X020592Y006738D02*
X020811Y006738D01*
X020726Y006896D02*
X020677Y006896D01*
X020702Y007055D02*
X020702Y007055D01*
X020677Y007213D02*
X020726Y007213D01*
X020812Y007372D02*
X020591Y007372D01*
X020359Y007530D02*
X021044Y007530D01*
X020860Y007689D02*
X020543Y007689D01*
X020657Y007847D02*
X020746Y007847D01*
X020702Y008006D02*
X020702Y008006D01*
X020697Y008164D02*
X020706Y008164D01*
X020772Y008323D02*
X020631Y008323D01*
X020477Y008481D02*
X020926Y008481D01*
X020909Y008640D02*
X020494Y008640D01*
X020637Y008799D02*
X020766Y008799D01*
X020702Y008957D02*
X020702Y008957D01*
X020702Y009116D02*
X020702Y009116D01*
X020652Y009274D02*
X020751Y009274D01*
X020873Y009433D02*
X020530Y009433D01*
X020390Y009591D02*
X021013Y009591D01*
X020799Y009750D02*
X020604Y009750D01*
X020682Y009908D02*
X020721Y009908D01*
X020702Y010067D02*
X020702Y010067D01*
X020672Y010225D02*
X020731Y010225D01*
X020824Y010384D02*
X020579Y010384D01*
X020555Y010701D02*
X020848Y010701D01*
X020741Y010860D02*
X020662Y010860D01*
X020702Y011018D02*
X020702Y011018D01*
X020692Y011177D02*
X020711Y011177D01*
X020777Y011335D02*
X020626Y011335D01*
X020447Y011494D02*
X020956Y011494D01*
X020896Y011652D02*
X020507Y011652D01*
X020642Y011811D02*
X020761Y011811D01*
X020702Y011969D02*
X020702Y011969D01*
X020702Y012128D02*
X020702Y012128D01*
X020647Y012287D02*
X020757Y012287D01*
X020885Y012445D02*
X020518Y012445D01*
X020420Y012604D02*
X020983Y012604D01*
X020787Y012762D02*
X020616Y012762D01*
X020687Y012921D02*
X020716Y012921D01*
X020702Y013079D02*
X020702Y013079D01*
X020667Y013238D02*
X020736Y013238D01*
X020836Y013396D02*
X020567Y013396D01*
X020485Y013555D02*
X020918Y013555D01*
X020847Y014506D02*
X020556Y014506D01*
X019847Y014506D02*
X019556Y014506D01*
X018847Y014506D02*
X018556Y014506D01*
X017847Y014506D02*
X017556Y014506D01*
X016847Y014506D02*
X016556Y014506D01*
X016408Y015140D02*
X015995Y015140D01*
X016137Y015299D02*
X016266Y015299D01*
X016202Y015457D02*
X016202Y015457D01*
X016202Y015616D02*
X016202Y015616D01*
X016152Y015774D02*
X016252Y015774D01*
X015442Y016092D02*
X014962Y016092D01*
X014962Y016250D02*
X015442Y016250D01*
X015442Y016409D02*
X014962Y016409D01*
X014962Y016567D02*
X015442Y016567D01*
X015442Y016726D02*
X014898Y016726D01*
X014739Y016884D02*
X015442Y016884D01*
X015345Y017043D02*
X014581Y017043D01*
X014422Y017201D02*
X015187Y017201D01*
X015027Y017836D02*
X014376Y017836D01*
X014598Y017994D02*
X014805Y017994D01*
X014723Y018153D02*
X014680Y018153D01*
X014702Y018311D02*
X014702Y018311D01*
X014674Y018470D02*
X014729Y018470D01*
X014818Y018628D02*
X014585Y018628D01*
X014922Y018945D02*
X004739Y018945D01*
X004897Y019104D02*
X014922Y019104D01*
X014797Y019262D02*
X014641Y019262D01*
X014902Y019554D02*
X014236Y019554D01*
X014590Y019897D02*
X021409Y019897D01*
X021318Y020055D02*
X020803Y020055D01*
X020801Y020054D02*
X020985Y020130D01*
X021125Y020271D01*
X021202Y020455D01*
X021202Y020654D01*
X021125Y020838D01*
X020985Y020978D01*
X020801Y021054D01*
X020602Y021054D01*
X020418Y020978D01*
X020278Y020838D01*
X020202Y020654D01*
X020202Y020455D01*
X020278Y020271D01*
X020418Y020130D01*
X020602Y020054D01*
X020801Y020054D01*
X020600Y020055D02*
X019803Y020055D01*
X019801Y020054D02*
X019985Y020130D01*
X020125Y020271D01*
X020202Y020455D01*
X020202Y020654D01*
X020125Y020838D01*
X019985Y020978D01*
X019801Y021054D01*
X019602Y021054D01*
X019418Y020978D01*
X019278Y020838D01*
X019202Y020654D01*
X019202Y020455D01*
X019278Y020271D01*
X019418Y020130D01*
X019602Y020054D01*
X019801Y020054D01*
X019600Y020055D02*
X018803Y020055D01*
X018801Y020054D02*
X018985Y020130D01*
X019125Y020271D01*
X019202Y020455D01*
X019202Y020654D01*
X019125Y020838D01*
X018985Y020978D01*
X018801Y021054D01*
X018602Y021054D01*
X018418Y020978D01*
X018278Y020838D01*
X018202Y020654D01*
X018202Y020455D01*
X018278Y020271D01*
X018418Y020130D01*
X018602Y020054D01*
X018801Y020054D01*
X018600Y020055D02*
X017803Y020055D01*
X017801Y020054D02*
X017985Y020130D01*
X018125Y020271D01*
X018202Y020455D01*
X018202Y020654D01*
X018125Y020838D01*
X017985Y020978D01*
X017801Y021054D01*
X017602Y021054D01*
X017418Y020978D01*
X017278Y020838D01*
X017202Y020654D01*
X017202Y020455D01*
X017278Y020271D01*
X017418Y020130D01*
X017602Y020054D01*
X017801Y020054D01*
X017600Y020055D02*
X016803Y020055D01*
X016801Y020054D02*
X016985Y020130D01*
X017125Y020271D01*
X017202Y020455D01*
X017202Y020654D01*
X017125Y020838D01*
X016985Y020978D01*
X016801Y021054D01*
X016602Y021054D01*
X016418Y020978D01*
X016278Y020838D01*
X016202Y020654D01*
X016202Y020455D01*
X016278Y020271D01*
X016418Y020130D01*
X016602Y020054D01*
X016801Y020054D01*
X016600Y020055D02*
X015803Y020055D01*
X015801Y020054D02*
X015985Y020130D01*
X016125Y020271D01*
X016202Y020455D01*
X016202Y020654D01*
X016125Y020838D01*
X015985Y020978D01*
X015801Y021054D01*
X015602Y021054D01*
X015418Y020978D01*
X015278Y020838D01*
X015202Y020654D01*
X015202Y020455D01*
X015278Y020271D01*
X015418Y020130D01*
X015602Y020054D01*
X015801Y020054D01*
X015600Y020055D02*
X014803Y020055D01*
X014801Y020054D02*
X014985Y020130D01*
X015125Y020271D01*
X015202Y020455D01*
X015202Y020654D01*
X015125Y020838D01*
X014985Y020978D01*
X014801Y021054D01*
X014602Y021054D01*
X014418Y020978D01*
X014278Y020838D01*
X014202Y020654D01*
X014202Y020455D01*
X014278Y020271D01*
X014418Y020130D01*
X014602Y020054D01*
X014801Y020054D01*
X014600Y020055D02*
X013485Y020055D01*
X013602Y020214D02*
X014335Y020214D01*
X014236Y020372D02*
X013602Y020372D01*
X013602Y020531D02*
X014202Y020531D01*
X014216Y020689D02*
X013602Y020689D01*
X013602Y020848D02*
X014288Y020848D01*
X014487Y021006D02*
X013532Y021006D01*
X013102Y020554D02*
X013102Y019754D01*
X013302Y019554D01*
X013567Y019554D01*
X013163Y019262D02*
X005056Y019262D01*
X005199Y019421D02*
X013039Y019421D01*
X012880Y019580D02*
X005232Y019580D01*
X005366Y019738D02*
X012822Y019738D01*
X012822Y019897D02*
X005398Y019897D01*
X005398Y020055D02*
X006000Y020055D01*
X006002Y020054D02*
X006201Y020054D01*
X006385Y020130D01*
X006525Y020271D01*
X006602Y020455D01*
X006602Y020654D01*
X006525Y020838D01*
X006385Y020978D01*
X006201Y021054D01*
X006002Y021054D01*
X005818Y020978D01*
X005678Y020838D01*
X005602Y020654D01*
X005602Y020455D01*
X005678Y020271D01*
X005818Y020130D01*
X006002Y020054D01*
X006203Y020055D02*
X008000Y020055D01*
X008002Y020054D02*
X008201Y020054D01*
X008385Y020130D01*
X008525Y020271D01*
X008602Y020455D01*
X008678Y020271D01*
X008818Y020130D01*
X009002Y020054D01*
X009201Y020054D01*
X009385Y020130D01*
X009525Y020271D01*
X009602Y020455D01*
X009678Y020271D01*
X009818Y020130D01*
X010002Y020054D01*
X010201Y020054D01*
X010385Y020130D01*
X010525Y020271D01*
X010602Y020455D01*
X010678Y020271D01*
X010818Y020130D01*
X011002Y020054D01*
X011201Y020054D01*
X011385Y020130D01*
X011525Y020271D01*
X011602Y020455D01*
X011678Y020271D01*
X011818Y020130D01*
X012002Y020054D01*
X012201Y020054D01*
X012385Y020130D01*
X012525Y020271D01*
X012602Y020455D01*
X012602Y020654D01*
X012525Y020838D01*
X012385Y020978D01*
X012201Y021054D01*
X012002Y021054D01*
X011818Y020978D01*
X011678Y020838D01*
X011602Y020654D01*
X011602Y020455D01*
X011602Y020654D01*
X011525Y020838D01*
X011385Y020978D01*
X011201Y021054D01*
X011002Y021054D01*
X010818Y020978D01*
X010678Y020838D01*
X010602Y020654D01*
X010602Y020455D01*
X010602Y020654D01*
X010525Y020838D01*
X010385Y020978D01*
X010201Y021054D01*
X010002Y021054D01*
X009818Y020978D01*
X009678Y020838D01*
X009602Y020654D01*
X009602Y020455D01*
X009602Y020654D01*
X009525Y020838D01*
X009385Y020978D01*
X009201Y021054D01*
X009002Y021054D01*
X008818Y020978D01*
X008678Y020838D01*
X008602Y020654D01*
X008602Y020455D01*
X008602Y020654D01*
X008525Y020838D01*
X008385Y020978D01*
X008201Y021054D01*
X008002Y021054D01*
X007818Y020978D01*
X007678Y020838D01*
X007602Y020654D01*
X007602Y020455D01*
X007678Y020271D01*
X007818Y020130D01*
X008002Y020054D01*
X008203Y020055D02*
X009000Y020055D01*
X009203Y020055D02*
X010000Y020055D01*
X010203Y020055D02*
X011000Y020055D01*
X011203Y020055D02*
X012000Y020055D01*
X012203Y020055D02*
X012718Y020055D01*
X012602Y020214D02*
X012468Y020214D01*
X012567Y020372D02*
X012602Y020372D01*
X012602Y020531D02*
X012602Y020531D01*
X012587Y020689D02*
X012602Y020689D01*
X012602Y020848D02*
X012515Y020848D01*
X012671Y021006D02*
X012317Y021006D01*
X011887Y021006D02*
X011317Y021006D01*
X011515Y020848D02*
X011688Y020848D01*
X011616Y020689D02*
X011587Y020689D01*
X011602Y020531D02*
X011602Y020531D01*
X011567Y020372D02*
X011636Y020372D01*
X011735Y020214D02*
X011468Y020214D01*
X010735Y020214D02*
X010468Y020214D01*
X010567Y020372D02*
X010636Y020372D01*
X010602Y020531D02*
X010602Y020531D01*
X010587Y020689D02*
X010616Y020689D01*
X010688Y020848D02*
X010515Y020848D01*
X010317Y021006D02*
X010887Y021006D01*
X009887Y021006D02*
X009317Y021006D01*
X009515Y020848D02*
X009688Y020848D01*
X009616Y020689D02*
X009587Y020689D01*
X009602Y020531D02*
X009602Y020531D01*
X009567Y020372D02*
X009636Y020372D01*
X009735Y020214D02*
X009468Y020214D01*
X008735Y020214D02*
X008468Y020214D01*
X008567Y020372D02*
X008636Y020372D01*
X008602Y020531D02*
X008602Y020531D01*
X008587Y020689D02*
X008616Y020689D01*
X008688Y020848D02*
X008515Y020848D01*
X008317Y021006D02*
X008887Y021006D01*
X007887Y021006D02*
X007264Y021006D01*
X007197Y021034D02*
X007373Y020961D01*
X007508Y020826D01*
X007582Y020650D01*
X007582Y020574D01*
X007122Y020574D01*
X007122Y020534D01*
X007582Y020534D01*
X007582Y020459D01*
X007508Y020282D01*
X007373Y020147D01*
X007197Y020074D01*
X007122Y020074D01*
X007122Y020534D01*
X007081Y020534D01*
X006622Y020534D01*
X006622Y020459D01*
X006695Y020282D01*
X006830Y020147D01*
X007006Y020074D01*
X007081Y020074D01*
X007081Y020534D01*
X007081Y020574D01*
X006622Y020574D01*
X006622Y020650D01*
X006695Y020826D01*
X006830Y020961D01*
X007006Y021034D01*
X007081Y021034D01*
X007081Y020575D01*
X007122Y020575D01*
X007122Y021034D01*
X007197Y021034D01*
X007122Y021006D02*
X007081Y021006D01*
X006939Y021006D02*
X006317Y021006D01*
X006515Y020848D02*
X006716Y020848D01*
X006638Y020689D02*
X006587Y020689D01*
X006602Y020531D02*
X006622Y020531D01*
X006657Y020372D02*
X006567Y020372D01*
X006468Y020214D02*
X006763Y020214D01*
X007081Y020214D02*
X007122Y020214D01*
X007122Y020372D02*
X007081Y020372D01*
X007081Y020531D02*
X007122Y020531D01*
X007122Y020689D02*
X007081Y020689D01*
X007081Y020848D02*
X007122Y020848D01*
X007487Y020848D02*
X007688Y020848D01*
X007616Y020689D02*
X007565Y020689D01*
X007582Y020531D02*
X007602Y020531D01*
X007636Y020372D02*
X007546Y020372D01*
X007440Y020214D02*
X007735Y020214D01*
X005887Y021006D02*
X005378Y021006D01*
X005378Y020848D02*
X005688Y020848D01*
X005616Y020689D02*
X005378Y020689D01*
X005378Y020531D02*
X005602Y020531D01*
X005636Y020372D02*
X005395Y020372D01*
X005398Y020214D02*
X005735Y020214D01*
X005002Y020070D02*
X004952Y019954D01*
X004952Y019554D01*
X004202Y018804D01*
X004202Y018304D01*
X004202Y018054D01*
X003452Y017004D01*
X002552Y017004D01*
X002117Y016554D01*
X001202Y016554D01*
X001202Y015554D01*
X002117Y015554D01*
X001202Y015554D02*
X001202Y014054D01*
X000736Y013713D02*
X000462Y013713D01*
X000462Y013555D02*
X000918Y013555D01*
X000836Y013396D02*
X000462Y013396D01*
X000462Y013238D02*
X000736Y013238D01*
X000702Y013079D02*
X000462Y013079D01*
X000462Y012921D02*
X000716Y012921D01*
X000787Y012762D02*
X000462Y012762D01*
X000462Y012604D02*
X000983Y012604D01*
X000885Y012445D02*
X000462Y012445D01*
X000462Y012287D02*
X000757Y012287D01*
X000702Y012128D02*
X000462Y012128D01*
X000462Y011969D02*
X000702Y011969D01*
X000761Y011811D02*
X000462Y011811D01*
X000462Y011652D02*
X000896Y011652D01*
X000956Y011494D02*
X000462Y011494D01*
X000462Y011335D02*
X000777Y011335D01*
X000711Y011177D02*
X000462Y011177D01*
X000462Y011018D02*
X000702Y011018D01*
X000741Y010860D02*
X000462Y010860D01*
X000462Y010701D02*
X000848Y010701D01*
X001074Y010543D02*
X000462Y010543D01*
X000462Y010384D02*
X000824Y010384D01*
X000731Y010225D02*
X000462Y010225D01*
X000462Y010067D02*
X000702Y010067D01*
X000721Y009908D02*
X000462Y009908D01*
X000462Y009750D02*
X000799Y009750D01*
X001013Y009591D02*
X000462Y009591D01*
X000462Y009433D02*
X000873Y009433D01*
X000751Y009274D02*
X000462Y009274D01*
X000462Y009116D02*
X000702Y009116D01*
X000702Y008957D02*
X000462Y008957D01*
X000462Y008799D02*
X000766Y008799D01*
X000909Y008640D02*
X000462Y008640D01*
X000462Y008481D02*
X000926Y008481D01*
X000772Y008323D02*
X000462Y008323D01*
X000462Y008164D02*
X000706Y008164D01*
X000702Y008006D02*
X000462Y008006D01*
X000462Y007847D02*
X000746Y007847D01*
X000860Y007689D02*
X000462Y007689D01*
X000462Y007530D02*
X001044Y007530D01*
X000812Y007372D02*
X000462Y007372D01*
X000462Y007213D02*
X000726Y007213D01*
X000702Y007055D02*
X000462Y007055D01*
X000462Y006896D02*
X000726Y006896D01*
X000811Y006738D02*
X000462Y006738D01*
X000462Y006579D02*
X001043Y006579D01*
X000861Y006420D02*
X000462Y006420D01*
X000462Y006262D02*
X000746Y006262D01*
X000702Y006103D02*
X000462Y006103D01*
X000462Y005945D02*
X000706Y005945D01*
X000771Y005786D02*
X000462Y005786D01*
X000462Y005628D02*
X000925Y005628D01*
X000839Y005469D02*
X000462Y005469D01*
X000462Y005311D02*
X000712Y005311D01*
X000652Y005152D02*
X000462Y005152D01*
X000462Y004994D02*
X000652Y004994D01*
X000697Y004835D02*
X000462Y004835D01*
X000462Y004676D02*
X000802Y004676D01*
X001059Y004518D02*
X000462Y004518D01*
X000462Y004359D02*
X002624Y004359D01*
X002767Y004518D02*
X002344Y004518D01*
X002222Y004518D02*
X002181Y004518D01*
X002059Y004518D02*
X001344Y004518D01*
X001222Y004518D02*
X001181Y004518D01*
X001181Y004676D02*
X001222Y004676D01*
X001222Y004835D02*
X001181Y004835D01*
X001181Y004994D02*
X001222Y004994D01*
X001601Y004676D02*
X001802Y004676D01*
X002181Y004676D02*
X002222Y004676D01*
X002222Y004835D02*
X002181Y004835D01*
X002181Y004994D02*
X002222Y004994D01*
X002601Y004676D02*
X002802Y004676D01*
X003222Y005034D02*
X003222Y005074D01*
X003652Y005074D01*
X004181Y005074D01*
X004181Y005034D01*
X003652Y005034D01*
X003222Y005034D01*
X003691Y005311D02*
X003712Y005311D01*
X003839Y005469D02*
X003564Y005469D01*
X003478Y005628D02*
X003925Y005628D01*
X003771Y005786D02*
X003632Y005786D01*
X003697Y005945D02*
X003706Y005945D01*
X003702Y006103D02*
X003702Y006103D01*
X003746Y006262D02*
X003657Y006262D01*
X003543Y006420D02*
X003861Y006420D01*
X004043Y006579D02*
X003361Y006579D01*
X003592Y006738D02*
X003811Y006738D01*
X003726Y006896D02*
X003677Y006896D01*
X003702Y007055D02*
X003702Y007055D01*
X003677Y007213D02*
X003726Y007213D01*
X003812Y007372D02*
X003591Y007372D01*
X003359Y007530D02*
X004044Y007530D01*
X003860Y007689D02*
X003543Y007689D01*
X003657Y007847D02*
X003746Y007847D01*
X003702Y008006D02*
X003702Y008006D01*
X003697Y008164D02*
X003706Y008164D01*
X003772Y008323D02*
X003631Y008323D01*
X003477Y008481D02*
X003926Y008481D01*
X003909Y008640D02*
X003494Y008640D01*
X003637Y008799D02*
X003766Y008799D01*
X003702Y008957D02*
X003702Y008957D01*
X003702Y009116D02*
X003702Y009116D01*
X003652Y009274D02*
X003751Y009274D01*
X003873Y009433D02*
X003530Y009433D01*
X003390Y009591D02*
X004013Y009591D01*
X003799Y009750D02*
X003604Y009750D01*
X003682Y009908D02*
X003721Y009908D01*
X003702Y010067D02*
X003702Y010067D01*
X003672Y010225D02*
X003731Y010225D01*
X003824Y010384D02*
X003579Y010384D01*
X003329Y010543D02*
X004074Y010543D01*
X004329Y010543D02*
X005074Y010543D01*
X005329Y010543D02*
X006074Y010543D01*
X006329Y010543D02*
X007074Y010543D01*
X007329Y010543D02*
X008074Y010543D01*
X008329Y010543D02*
X009074Y010543D01*
X009329Y010543D02*
X010074Y010543D01*
X010329Y010543D02*
X011074Y010543D01*
X011329Y010543D02*
X012074Y010543D01*
X011848Y010701D02*
X011555Y010701D01*
X011662Y010860D02*
X011741Y010860D01*
X011702Y011018D02*
X011702Y011018D01*
X011692Y011177D02*
X011711Y011177D01*
X011777Y011335D02*
X011626Y011335D01*
X011447Y011494D02*
X011956Y011494D01*
X011896Y011652D02*
X011507Y011652D01*
X011642Y011811D02*
X011761Y011811D01*
X011702Y011969D02*
X011702Y011969D01*
X011702Y012128D02*
X011702Y012128D01*
X011647Y012287D02*
X011757Y012287D01*
X011885Y012445D02*
X011518Y012445D01*
X011420Y012604D02*
X011983Y012604D01*
X011787Y012762D02*
X011616Y012762D01*
X011687Y012921D02*
X011716Y012921D01*
X011702Y013079D02*
X011702Y013079D01*
X011667Y013238D02*
X011736Y013238D01*
X011836Y013396D02*
X011567Y013396D01*
X011485Y013555D02*
X011918Y013555D01*
X012485Y013555D02*
X012918Y013555D01*
X012836Y013396D02*
X012567Y013396D01*
X012667Y013238D02*
X012736Y013238D01*
X012702Y013079D02*
X012702Y013079D01*
X012687Y012921D02*
X012716Y012921D01*
X012787Y012762D02*
X012616Y012762D01*
X012420Y012604D02*
X012983Y012604D01*
X012885Y012445D02*
X012518Y012445D01*
X012647Y012287D02*
X012757Y012287D01*
X012702Y012128D02*
X012702Y012128D01*
X012702Y011969D02*
X012702Y011969D01*
X012761Y011811D02*
X012642Y011811D01*
X012507Y011652D02*
X012896Y011652D01*
X012956Y011494D02*
X012447Y011494D01*
X012626Y011335D02*
X012777Y011335D01*
X012711Y011177D02*
X012692Y011177D01*
X012702Y011018D02*
X012702Y011018D01*
X012662Y010860D02*
X012741Y010860D01*
X012848Y010701D02*
X012555Y010701D01*
X011824Y010384D02*
X011579Y010384D01*
X011672Y010225D02*
X011731Y010225D01*
X011702Y010067D02*
X011702Y010067D01*
X011682Y009908D02*
X011721Y009908D01*
X011799Y009750D02*
X011604Y009750D01*
X011390Y009591D02*
X012013Y009591D01*
X011873Y009433D02*
X011530Y009433D01*
X011652Y009274D02*
X011751Y009274D01*
X011702Y009116D02*
X011702Y009116D01*
X011702Y008957D02*
X011702Y008957D01*
X011637Y008799D02*
X011766Y008799D01*
X011909Y008640D02*
X011494Y008640D01*
X011477Y008481D02*
X011926Y008481D01*
X011772Y008323D02*
X011631Y008323D01*
X011697Y008164D02*
X011706Y008164D01*
X011702Y008006D02*
X011702Y008006D01*
X011746Y007847D02*
X011657Y007847D01*
X011543Y007689D02*
X011860Y007689D01*
X012044Y007530D02*
X011359Y007530D01*
X011591Y007372D02*
X011812Y007372D01*
X011726Y007213D02*
X011677Y007213D01*
X011702Y007055D02*
X011702Y007055D01*
X011677Y006896D02*
X011726Y006896D01*
X011811Y006738D02*
X011592Y006738D01*
X011361Y006579D02*
X012043Y006579D01*
X011861Y006420D02*
X011543Y006420D01*
X011657Y006262D02*
X011746Y006262D01*
X011702Y006103D02*
X011702Y006103D01*
X011697Y005945D02*
X011706Y005945D01*
X011771Y005786D02*
X011632Y005786D01*
X011478Y005628D02*
X011925Y005628D01*
X011839Y005469D02*
X011564Y005469D01*
X011691Y005311D02*
X011712Y005311D01*
X011222Y004994D02*
X011181Y004994D01*
X011181Y004835D02*
X011222Y004835D01*
X011222Y004676D02*
X011181Y004676D01*
X010802Y004676D02*
X010601Y004676D01*
X010222Y004676D02*
X010181Y004676D01*
X010181Y004518D02*
X010222Y004518D01*
X010059Y004518D02*
X009634Y004518D01*
X009601Y004676D02*
X009802Y004676D01*
X009792Y004359D02*
X011418Y004359D01*
X012062Y003944D02*
X012413Y003944D01*
X012295Y003826D01*
X012222Y003650D01*
X012222Y003574D01*
X012681Y003574D01*
X012681Y003534D01*
X012222Y003534D01*
X012222Y003459D01*
X012295Y003282D01*
X012430Y003147D01*
X012606Y003074D01*
X012681Y003074D01*
X012681Y003534D01*
X012722Y003534D01*
X012722Y003574D01*
X013182Y003574D01*
X013182Y003650D01*
X013108Y003826D01*
X012990Y003944D01*
X013413Y003944D01*
X013295Y003826D01*
X013222Y003650D01*
X013222Y003574D01*
X013681Y003574D01*
X013681Y003534D01*
X013222Y003534D01*
X013222Y003459D01*
X013295Y003282D01*
X013430Y003147D01*
X013606Y003074D01*
X013681Y003074D01*
X013681Y003534D01*
X013722Y003534D01*
X013722Y003574D01*
X014182Y003574D01*
X014182Y003650D01*
X014108Y003826D01*
X013990Y003944D01*
X014385Y003944D01*
X014278Y003838D01*
X014202Y003654D01*
X014202Y003455D01*
X014278Y003271D01*
X014382Y003167D01*
X014382Y001941D01*
X014278Y001838D01*
X014202Y001654D01*
X014202Y001455D01*
X014278Y001271D01*
X014418Y001130D01*
X014602Y001054D01*
X014801Y001054D01*
X014985Y001130D01*
X015125Y001271D01*
X015202Y001455D01*
X015202Y001654D01*
X015125Y001838D01*
X015022Y001941D01*
X015022Y003167D01*
X015125Y003271D01*
X015202Y003455D01*
X015202Y003654D01*
X015125Y003838D01*
X015019Y003944D01*
X015422Y003944D01*
X015422Y003305D01*
X015305Y003188D01*
X015305Y002590D01*
X015354Y002540D01*
X015325Y002511D01*
X015325Y002238D01*
X015683Y002238D01*
X015683Y002201D01*
X015720Y002201D01*
X015720Y001823D01*
X015973Y001823D01*
X016078Y001929D01*
X016078Y002201D01*
X015720Y002201D01*
X015720Y002238D01*
X016078Y002238D01*
X016078Y002511D01*
X016049Y002540D01*
X016098Y002590D01*
X016098Y003188D01*
X015982Y003305D01*
X015982Y003944D01*
X016385Y003944D01*
X016278Y003838D01*
X016202Y003654D01*
X016202Y003455D01*
X016278Y003271D01*
X016382Y003167D01*
X016382Y001941D01*
X016278Y001838D01*
X016202Y001654D01*
X016202Y001455D01*
X016278Y001271D01*
X016418Y001130D01*
X016602Y001054D01*
X016801Y001054D01*
X016985Y001130D01*
X017125Y001271D01*
X017202Y001455D01*
X017278Y001271D01*
X017418Y001130D01*
X017602Y001054D01*
X017801Y001054D01*
X017985Y001130D01*
X018125Y001271D01*
X018202Y001455D01*
X018278Y001271D01*
X018418Y001130D01*
X018602Y001054D01*
X018801Y001054D01*
X018985Y001130D01*
X019125Y001271D01*
X019202Y001455D01*
X019278Y001271D01*
X019418Y001130D01*
X019602Y001054D01*
X019801Y001054D01*
X019985Y001130D01*
X020125Y001271D01*
X020202Y001455D01*
X020278Y001271D01*
X020418Y001130D01*
X020602Y001054D01*
X020801Y001054D01*
X020985Y001130D01*
X021125Y001271D01*
X021202Y001455D01*
X021278Y001271D01*
X021418Y001130D01*
X021602Y001054D01*
X021801Y001054D01*
X021985Y001130D01*
X022125Y001271D01*
X022202Y001455D01*
X022202Y001654D01*
X022125Y001838D01*
X022022Y001941D01*
X022022Y003167D01*
X022125Y003271D01*
X022202Y003455D01*
X022202Y003654D01*
X022125Y003838D01*
X022019Y003944D01*
X023223Y003944D01*
X023355Y003999D01*
X023442Y004085D01*
X023442Y002662D01*
X022481Y001702D01*
X022442Y001606D01*
X022442Y001554D01*
X022432Y001439D01*
X022361Y001218D01*
X022225Y001031D01*
X022038Y000895D01*
X021817Y000823D01*
X021702Y000814D01*
X021674Y000814D01*
X021650Y000814D01*
X011857Y000814D01*
X011860Y000817D01*
X011939Y000896D01*
X011982Y000999D01*
X011982Y001129D01*
X011985Y001130D01*
X012125Y001271D01*
X012202Y001455D01*
X012202Y001654D01*
X012125Y001838D01*
X012062Y001901D01*
X012062Y003207D01*
X012125Y003271D01*
X012202Y003455D01*
X012202Y003654D01*
X012125Y003838D01*
X012062Y003901D01*
X012062Y003944D01*
X012079Y003884D02*
X012352Y003884D01*
X012253Y003725D02*
X012172Y003725D01*
X012202Y003567D02*
X012681Y003567D01*
X012722Y003567D02*
X013681Y003567D01*
X013722Y003567D02*
X014202Y003567D01*
X014182Y003534D02*
X013722Y003534D01*
X013722Y003074D01*
X013797Y003074D01*
X013973Y003147D01*
X014108Y003282D01*
X014182Y003459D01*
X014182Y003534D01*
X014161Y003408D02*
X014221Y003408D01*
X014299Y003250D02*
X014076Y003250D01*
X013837Y003091D02*
X014382Y003091D01*
X014382Y002932D02*
X012062Y002932D01*
X012062Y002774D02*
X014382Y002774D01*
X014382Y002615D02*
X012062Y002615D01*
X012062Y002457D02*
X014382Y002457D01*
X014382Y002298D02*
X012062Y002298D01*
X012062Y002140D02*
X014382Y002140D01*
X014382Y001981D02*
X013925Y001981D01*
X013973Y001961D02*
X013797Y002034D01*
X013722Y002034D01*
X013722Y001575D01*
X013681Y001575D01*
X013681Y002034D01*
X013606Y002034D01*
X013430Y001961D01*
X013295Y001826D01*
X013222Y001650D01*
X013222Y001574D01*
X013681Y001574D01*
X013681Y001534D01*
X013222Y001534D01*
X013222Y001459D01*
X013295Y001282D01*
X013430Y001147D01*
X013606Y001074D01*
X013681Y001074D01*
X013681Y001534D01*
X013722Y001534D01*
X013722Y001574D01*
X014182Y001574D01*
X014182Y001650D01*
X014108Y001826D01*
X013973Y001961D01*
X014110Y001823D02*
X014272Y001823D01*
X014206Y001664D02*
X014176Y001664D01*
X014182Y001534D02*
X013722Y001534D01*
X013722Y001074D01*
X013797Y001074D01*
X013973Y001147D01*
X014108Y001282D01*
X014182Y001459D01*
X014182Y001534D01*
X014182Y001506D02*
X014202Y001506D01*
X014246Y001347D02*
X014135Y001347D01*
X014015Y001189D02*
X014360Y001189D01*
X013722Y001189D02*
X013681Y001189D01*
X013681Y001347D02*
X013722Y001347D01*
X013722Y001506D02*
X013681Y001506D01*
X013681Y001664D02*
X013722Y001664D01*
X013722Y001823D02*
X013681Y001823D01*
X013681Y001981D02*
X013722Y001981D01*
X013478Y001981D02*
X012925Y001981D01*
X012973Y001961D02*
X012797Y002034D01*
X012722Y002034D01*
X012722Y001575D01*
X012681Y001575D01*
X012681Y002034D01*
X012606Y002034D01*
X012430Y001961D01*
X012295Y001826D01*
X012222Y001650D01*
X012222Y001574D01*
X012681Y001574D01*
X012681Y001534D01*
X012222Y001534D01*
X012222Y001459D01*
X012295Y001282D01*
X012430Y001147D01*
X012606Y001074D01*
X012681Y001074D01*
X012681Y001534D01*
X012722Y001534D01*
X012722Y001574D01*
X013182Y001574D01*
X013182Y001650D01*
X013108Y001826D01*
X012973Y001961D01*
X013110Y001823D02*
X013293Y001823D01*
X013228Y001664D02*
X013176Y001664D01*
X013182Y001534D02*
X012722Y001534D01*
X012722Y001074D01*
X012797Y001074D01*
X012973Y001147D01*
X013108Y001282D01*
X013182Y001459D01*
X013182Y001534D01*
X013182Y001506D02*
X013222Y001506D01*
X013268Y001347D02*
X013135Y001347D01*
X013015Y001189D02*
X013389Y001189D01*
X012722Y001189D02*
X012681Y001189D01*
X012681Y001347D02*
X012722Y001347D01*
X012722Y001506D02*
X012681Y001506D01*
X012681Y001664D02*
X012722Y001664D01*
X012722Y001823D02*
X012681Y001823D01*
X012681Y001981D02*
X012722Y001981D01*
X012478Y001981D02*
X012062Y001981D01*
X012132Y001823D02*
X012293Y001823D01*
X012228Y001664D02*
X012197Y001664D01*
X012202Y001506D02*
X012222Y001506D01*
X012268Y001347D02*
X012157Y001347D01*
X012043Y001189D02*
X012389Y001189D01*
X011982Y001030D02*
X022223Y001030D01*
X022339Y001189D02*
X022043Y001189D01*
X022157Y001347D02*
X022403Y001347D01*
X022438Y001506D02*
X022202Y001506D01*
X022197Y001664D02*
X022466Y001664D01*
X022602Y001823D02*
X022132Y001823D01*
X022022Y001981D02*
X022761Y001981D01*
X022919Y002140D02*
X022022Y002140D01*
X022022Y002298D02*
X023078Y002298D01*
X023236Y002457D02*
X022022Y002457D01*
X022022Y002615D02*
X023395Y002615D01*
X023442Y002774D02*
X022022Y002774D01*
X022022Y002932D02*
X023442Y002932D01*
X023442Y003091D02*
X022022Y003091D01*
X022104Y003250D02*
X023442Y003250D01*
X023442Y003408D02*
X022182Y003408D01*
X022202Y003567D02*
X023442Y003567D01*
X023442Y003725D02*
X022172Y003725D01*
X022079Y003884D02*
X023442Y003884D01*
X023442Y004042D02*
X023399Y004042D01*
X022792Y004676D02*
X022601Y004676D01*
X022706Y004835D02*
X022792Y004835D01*
X022792Y004994D02*
X022752Y004994D01*
X022752Y005152D02*
X022792Y005152D01*
X022792Y005311D02*
X022691Y005311D01*
X022792Y005469D02*
X022564Y005469D01*
X022478Y005628D02*
X022792Y005628D01*
X022792Y005786D02*
X022632Y005786D01*
X022697Y005945D02*
X022792Y005945D01*
X022792Y006103D02*
X022702Y006103D01*
X022657Y006262D02*
X022792Y006262D01*
X022792Y006420D02*
X022543Y006420D01*
X022361Y006579D02*
X022792Y006579D01*
X022792Y006738D02*
X022592Y006738D01*
X022677Y006896D02*
X022792Y006896D01*
X022792Y007055D02*
X022702Y007055D01*
X022677Y007213D02*
X022792Y007213D01*
X022792Y007372D02*
X022591Y007372D01*
X022792Y007530D02*
X022359Y007530D01*
X022543Y007689D02*
X022792Y007689D01*
X022792Y007847D02*
X022657Y007847D01*
X022702Y008006D02*
X022792Y008006D01*
X022792Y008164D02*
X022697Y008164D01*
X022631Y008323D02*
X022792Y008323D01*
X022792Y008481D02*
X022477Y008481D01*
X022494Y008640D02*
X022792Y008640D01*
X022792Y008799D02*
X022637Y008799D01*
X022702Y008957D02*
X022792Y008957D01*
X022792Y009116D02*
X022702Y009116D01*
X022652Y009274D02*
X022792Y009274D01*
X022792Y009433D02*
X022530Y009433D01*
X022390Y009591D02*
X022792Y009591D01*
X022792Y009750D02*
X022604Y009750D01*
X022682Y009908D02*
X022792Y009908D01*
X022792Y010067D02*
X022702Y010067D01*
X022672Y010225D02*
X022792Y010225D01*
X022792Y010384D02*
X022579Y010384D01*
X020013Y009591D02*
X019390Y009591D01*
X019530Y009433D02*
X019873Y009433D01*
X019751Y009274D02*
X019652Y009274D01*
X019702Y009116D02*
X019702Y009116D01*
X019702Y008957D02*
X019702Y008957D01*
X019637Y008799D02*
X019766Y008799D01*
X019909Y008640D02*
X019494Y008640D01*
X019477Y008481D02*
X019926Y008481D01*
X019772Y008323D02*
X019631Y008323D01*
X019697Y008164D02*
X019706Y008164D01*
X019702Y008006D02*
X019702Y008006D01*
X019746Y007847D02*
X019657Y007847D01*
X019543Y007689D02*
X019860Y007689D01*
X020044Y007530D02*
X019359Y007530D01*
X019591Y007372D02*
X019812Y007372D01*
X019726Y007213D02*
X019677Y007213D01*
X019702Y007055D02*
X019702Y007055D01*
X019677Y006896D02*
X019726Y006896D01*
X019811Y006738D02*
X019592Y006738D01*
X019361Y006579D02*
X020043Y006579D01*
X019861Y006420D02*
X019543Y006420D01*
X019657Y006262D02*
X019746Y006262D01*
X019702Y006103D02*
X019702Y006103D01*
X019697Y005945D02*
X019706Y005945D01*
X019771Y005786D02*
X019632Y005786D01*
X019478Y005628D02*
X019925Y005628D01*
X019839Y005469D02*
X019564Y005469D01*
X019691Y005311D02*
X019712Y005311D01*
X019752Y005074D02*
X019222Y005074D01*
X019222Y005034D01*
X019652Y005034D01*
X020181Y005034D01*
X020181Y005074D01*
X019752Y005074D01*
X019181Y005074D02*
X019181Y005034D01*
X018752Y005034D01*
X018222Y005034D01*
X018222Y005074D01*
X018652Y005074D01*
X019181Y005074D01*
X018839Y005469D02*
X018564Y005469D01*
X018478Y005628D02*
X018925Y005628D01*
X018771Y005786D02*
X018632Y005786D01*
X018697Y005945D02*
X018706Y005945D01*
X018702Y006103D02*
X018702Y006103D01*
X018746Y006262D02*
X018657Y006262D01*
X018543Y006420D02*
X018861Y006420D01*
X019043Y006579D02*
X018361Y006579D01*
X018592Y006738D02*
X018811Y006738D01*
X018726Y006896D02*
X018677Y006896D01*
X018702Y007055D02*
X018702Y007055D01*
X018677Y007213D02*
X018726Y007213D01*
X018812Y007372D02*
X018591Y007372D01*
X018359Y007530D02*
X019044Y007530D01*
X018860Y007689D02*
X018543Y007689D01*
X018657Y007847D02*
X018746Y007847D01*
X018702Y008006D02*
X018702Y008006D01*
X018697Y008164D02*
X018706Y008164D01*
X018772Y008323D02*
X018631Y008323D01*
X018477Y008481D02*
X018926Y008481D01*
X018909Y008640D02*
X018494Y008640D01*
X018637Y008799D02*
X018766Y008799D01*
X018702Y008957D02*
X018702Y008957D01*
X018702Y009116D02*
X018702Y009116D01*
X018652Y009274D02*
X018751Y009274D01*
X018873Y009433D02*
X018530Y009433D01*
X018390Y009591D02*
X019013Y009591D01*
X018799Y009750D02*
X018604Y009750D01*
X018682Y009908D02*
X018721Y009908D01*
X018702Y010067D02*
X018702Y010067D01*
X018672Y010225D02*
X018731Y010225D01*
X018824Y010384D02*
X018579Y010384D01*
X018555Y010701D02*
X018848Y010701D01*
X018741Y010860D02*
X018662Y010860D01*
X018702Y011018D02*
X018702Y011018D01*
X018692Y011177D02*
X018711Y011177D01*
X018777Y011335D02*
X018626Y011335D01*
X018447Y011494D02*
X018956Y011494D01*
X018896Y011652D02*
X018507Y011652D01*
X018642Y011811D02*
X018761Y011811D01*
X018702Y011969D02*
X018702Y011969D01*
X018702Y012128D02*
X018702Y012128D01*
X018647Y012287D02*
X018757Y012287D01*
X018885Y012445D02*
X018518Y012445D01*
X018420Y012604D02*
X018983Y012604D01*
X018787Y012762D02*
X018616Y012762D01*
X018687Y012921D02*
X018716Y012921D01*
X018702Y013079D02*
X018702Y013079D01*
X018667Y013238D02*
X018736Y013238D01*
X018836Y013396D02*
X018567Y013396D01*
X018485Y013555D02*
X018918Y013555D01*
X019485Y013555D02*
X019918Y013555D01*
X019836Y013396D02*
X019567Y013396D01*
X019667Y013238D02*
X019736Y013238D01*
X019702Y013079D02*
X019702Y013079D01*
X019687Y012921D02*
X019716Y012921D01*
X019787Y012762D02*
X019616Y012762D01*
X019420Y012604D02*
X019983Y012604D01*
X019885Y012445D02*
X019518Y012445D01*
X019647Y012287D02*
X019757Y012287D01*
X019702Y012128D02*
X019702Y012128D01*
X019702Y011969D02*
X019702Y011969D01*
X019761Y011811D02*
X019642Y011811D01*
X019507Y011652D02*
X019896Y011652D01*
X019956Y011494D02*
X019447Y011494D01*
X019626Y011335D02*
X019777Y011335D01*
X019711Y011177D02*
X019692Y011177D01*
X019702Y011018D02*
X019702Y011018D01*
X019662Y010860D02*
X019741Y010860D01*
X019848Y010701D02*
X019555Y010701D01*
X019579Y010384D02*
X019824Y010384D01*
X019731Y010225D02*
X019672Y010225D01*
X019702Y010067D02*
X019702Y010067D01*
X019682Y009908D02*
X019721Y009908D01*
X019799Y009750D02*
X019604Y009750D01*
X018013Y009591D02*
X017390Y009591D01*
X017530Y009433D02*
X017873Y009433D01*
X017751Y009274D02*
X017652Y009274D01*
X017702Y009116D02*
X017702Y009116D01*
X017702Y008957D02*
X017702Y008957D01*
X017637Y008799D02*
X017766Y008799D01*
X017909Y008640D02*
X017494Y008640D01*
X017477Y008481D02*
X017926Y008481D01*
X017772Y008323D02*
X017631Y008323D01*
X017697Y008164D02*
X017706Y008164D01*
X017702Y008006D02*
X017702Y008006D01*
X017746Y007847D02*
X017657Y007847D01*
X017543Y007689D02*
X017860Y007689D01*
X018044Y007530D02*
X017359Y007530D01*
X017591Y007372D02*
X017812Y007372D01*
X017726Y007213D02*
X017677Y007213D01*
X017702Y007055D02*
X017702Y007055D01*
X017677Y006896D02*
X017726Y006896D01*
X017811Y006738D02*
X017592Y006738D01*
X017361Y006579D02*
X018043Y006579D01*
X017861Y006420D02*
X017543Y006420D01*
X017657Y006262D02*
X017746Y006262D01*
X017702Y006103D02*
X017702Y006103D01*
X017697Y005945D02*
X017706Y005945D01*
X017771Y005786D02*
X017632Y005786D01*
X017478Y005628D02*
X017925Y005628D01*
X017839Y005469D02*
X017564Y005469D01*
X017691Y005311D02*
X017712Y005311D01*
X017652Y005074D02*
X017222Y005074D01*
X017222Y005034D01*
X017652Y005034D01*
X018181Y005034D01*
X018181Y005074D01*
X017652Y005074D01*
X017181Y005074D02*
X017181Y005034D01*
X016652Y005034D01*
X016222Y005034D01*
X016222Y005074D01*
X016652Y005074D01*
X017181Y005074D01*
X016839Y005469D02*
X016564Y005469D01*
X016478Y005628D02*
X016925Y005628D01*
X016771Y005786D02*
X016632Y005786D01*
X016697Y005945D02*
X016706Y005945D01*
X016702Y006103D02*
X016702Y006103D01*
X016746Y006262D02*
X016657Y006262D01*
X016543Y006420D02*
X016861Y006420D01*
X017043Y006579D02*
X016361Y006579D01*
X016592Y006738D02*
X016811Y006738D01*
X016726Y006896D02*
X016677Y006896D01*
X016702Y007055D02*
X016702Y007055D01*
X016677Y007213D02*
X016726Y007213D01*
X016812Y007372D02*
X016591Y007372D01*
X016359Y007530D02*
X017044Y007530D01*
X016860Y007689D02*
X016543Y007689D01*
X016657Y007847D02*
X016746Y007847D01*
X016702Y008006D02*
X016702Y008006D01*
X016697Y008164D02*
X016706Y008164D01*
X016772Y008323D02*
X016631Y008323D01*
X016477Y008481D02*
X016926Y008481D01*
X016909Y008640D02*
X016494Y008640D01*
X016637Y008799D02*
X016766Y008799D01*
X016702Y008957D02*
X016702Y008957D01*
X016702Y009116D02*
X016702Y009116D01*
X016652Y009274D02*
X016751Y009274D01*
X016873Y009433D02*
X016530Y009433D01*
X016390Y009591D02*
X017013Y009591D01*
X016799Y009750D02*
X016604Y009750D01*
X016682Y009908D02*
X016721Y009908D01*
X016702Y010067D02*
X016702Y010067D01*
X016672Y010225D02*
X016731Y010225D01*
X016824Y010384D02*
X016579Y010384D01*
X015824Y010384D02*
X015579Y010384D01*
X015672Y010225D02*
X015731Y010225D01*
X015702Y010067D02*
X015702Y010067D01*
X015682Y009908D02*
X015721Y009908D01*
X015799Y009750D02*
X015604Y009750D01*
X015390Y009591D02*
X016013Y009591D01*
X015873Y009433D02*
X015530Y009433D01*
X015652Y009274D02*
X015751Y009274D01*
X015702Y009116D02*
X015702Y009116D01*
X015702Y008957D02*
X015702Y008957D01*
X015637Y008799D02*
X015766Y008799D01*
X015909Y008640D02*
X015494Y008640D01*
X015477Y008481D02*
X015926Y008481D01*
X015772Y008323D02*
X015631Y008323D01*
X015697Y008164D02*
X015706Y008164D01*
X015702Y008006D02*
X015702Y008006D01*
X015746Y007847D02*
X015657Y007847D01*
X015543Y007689D02*
X015860Y007689D01*
X016044Y007530D02*
X015359Y007530D01*
X015591Y007372D02*
X015812Y007372D01*
X015726Y007213D02*
X015677Y007213D01*
X015702Y007055D02*
X015702Y007055D01*
X015677Y006896D02*
X015726Y006896D01*
X015811Y006738D02*
X015592Y006738D01*
X015361Y006579D02*
X016043Y006579D01*
X015861Y006420D02*
X015543Y006420D01*
X015657Y006262D02*
X015746Y006262D01*
X015702Y006103D02*
X015702Y006103D01*
X015697Y005945D02*
X015706Y005945D01*
X015771Y005786D02*
X015632Y005786D01*
X015478Y005628D02*
X015925Y005628D01*
X015839Y005469D02*
X015564Y005469D01*
X015691Y005311D02*
X015712Y005311D01*
X015652Y005074D02*
X015222Y005074D01*
X015222Y005034D01*
X015652Y005034D01*
X016181Y005034D01*
X016181Y005074D01*
X015652Y005074D01*
X015181Y005074D02*
X015181Y005034D01*
X014652Y005034D01*
X014222Y005034D01*
X014222Y005074D01*
X014652Y005074D01*
X015181Y005074D01*
X014839Y005469D02*
X014564Y005469D01*
X014478Y005628D02*
X014925Y005628D01*
X014771Y005786D02*
X014632Y005786D01*
X014697Y005945D02*
X014706Y005945D01*
X014702Y006103D02*
X014702Y006103D01*
X014746Y006262D02*
X014657Y006262D01*
X014543Y006420D02*
X014861Y006420D01*
X015043Y006579D02*
X014361Y006579D01*
X014592Y006738D02*
X014811Y006738D01*
X014726Y006896D02*
X014677Y006896D01*
X014702Y007055D02*
X014702Y007055D01*
X014677Y007213D02*
X014726Y007213D01*
X014812Y007372D02*
X014591Y007372D01*
X014359Y007530D02*
X015044Y007530D01*
X014860Y007689D02*
X014543Y007689D01*
X014657Y007847D02*
X014746Y007847D01*
X014702Y008006D02*
X014702Y008006D01*
X014697Y008164D02*
X014706Y008164D01*
X014772Y008323D02*
X014631Y008323D01*
X014477Y008481D02*
X014926Y008481D01*
X014909Y008640D02*
X014494Y008640D01*
X014637Y008799D02*
X014766Y008799D01*
X014702Y008957D02*
X014702Y008957D01*
X014702Y009116D02*
X014702Y009116D01*
X014652Y009274D02*
X014751Y009274D01*
X014873Y009433D02*
X014530Y009433D01*
X014390Y009591D02*
X015013Y009591D01*
X014799Y009750D02*
X014604Y009750D01*
X014682Y009908D02*
X014721Y009908D01*
X014702Y010067D02*
X014702Y010067D01*
X014672Y010225D02*
X014731Y010225D01*
X014824Y010384D02*
X014579Y010384D01*
X014555Y010701D02*
X014848Y010701D01*
X014741Y010860D02*
X014662Y010860D01*
X014702Y011018D02*
X014702Y011018D01*
X014692Y011177D02*
X014711Y011177D01*
X014777Y011335D02*
X014626Y011335D01*
X014447Y011494D02*
X014956Y011494D01*
X014896Y011652D02*
X014507Y011652D01*
X014642Y011811D02*
X014761Y011811D01*
X014702Y011969D02*
X014702Y011969D01*
X014702Y012128D02*
X014702Y012128D01*
X014647Y012287D02*
X014757Y012287D01*
X014885Y012445D02*
X014518Y012445D01*
X014420Y012604D02*
X014983Y012604D01*
X014787Y012762D02*
X014616Y012762D01*
X014687Y012921D02*
X014716Y012921D01*
X014702Y013079D02*
X014702Y013079D01*
X014667Y013238D02*
X014736Y013238D01*
X014836Y013396D02*
X014567Y013396D01*
X014485Y013555D02*
X014918Y013555D01*
X015485Y013555D02*
X015918Y013555D01*
X015836Y013396D02*
X015567Y013396D01*
X015667Y013238D02*
X015736Y013238D01*
X015702Y013079D02*
X015702Y013079D01*
X015687Y012921D02*
X015716Y012921D01*
X015787Y012762D02*
X015616Y012762D01*
X015420Y012604D02*
X015983Y012604D01*
X015885Y012445D02*
X015518Y012445D01*
X015647Y012287D02*
X015757Y012287D01*
X015702Y012128D02*
X015702Y012128D01*
X015702Y011969D02*
X015702Y011969D01*
X015761Y011811D02*
X015642Y011811D01*
X015507Y011652D02*
X015896Y011652D01*
X015956Y011494D02*
X015447Y011494D01*
X015626Y011335D02*
X015777Y011335D01*
X015711Y011177D02*
X015692Y011177D01*
X015702Y011018D02*
X015702Y011018D01*
X015662Y010860D02*
X015741Y010860D01*
X015848Y010701D02*
X015555Y010701D01*
X013956Y011494D02*
X013447Y011494D01*
X013507Y011652D02*
X013896Y011652D01*
X013761Y011811D02*
X013642Y011811D01*
X013702Y011969D02*
X013702Y011969D01*
X013702Y012128D02*
X013702Y012128D01*
X013647Y012287D02*
X013757Y012287D01*
X013885Y012445D02*
X013518Y012445D01*
X013420Y012604D02*
X013983Y012604D01*
X013787Y012762D02*
X013616Y012762D01*
X013687Y012921D02*
X013716Y012921D01*
X013702Y013079D02*
X013702Y013079D01*
X013667Y013238D02*
X013736Y013238D01*
X013836Y013396D02*
X013567Y013396D01*
X013485Y013555D02*
X013918Y013555D01*
X013847Y014506D02*
X013556Y014506D01*
X013319Y015054D02*
X013202Y015171D01*
X013202Y015937D01*
X013319Y016054D01*
X014084Y016054D01*
X014202Y015937D01*
X014202Y015171D01*
X014084Y015054D01*
X013319Y015054D01*
X013233Y015140D02*
X012995Y015140D01*
X012985Y015130D02*
X013125Y015271D01*
X013202Y015455D01*
X013202Y015654D01*
X013125Y015838D01*
X012985Y015978D01*
X012801Y016054D01*
X012602Y016054D01*
X012418Y015978D01*
X012278Y015838D01*
X012202Y015654D01*
X012202Y015455D01*
X012278Y015271D01*
X012418Y015130D01*
X012602Y015054D01*
X012801Y015054D01*
X012985Y015130D01*
X013137Y015299D02*
X013202Y015299D01*
X013202Y015457D02*
X013202Y015457D01*
X013202Y015616D02*
X013202Y015616D01*
X013202Y015774D02*
X013152Y015774D01*
X013202Y015933D02*
X013030Y015933D01*
X012373Y015933D02*
X012030Y015933D01*
X011985Y015978D02*
X012125Y015838D01*
X012202Y015654D01*
X012202Y015455D01*
X012125Y015271D01*
X011985Y015130D01*
X011801Y015054D01*
X011602Y015054D01*
X011418Y015130D01*
X011278Y015271D01*
X011202Y015455D01*
X011202Y015654D01*
X011278Y015838D01*
X011418Y015978D01*
X011602Y016054D01*
X011801Y016054D01*
X011985Y015978D01*
X012152Y015774D02*
X012252Y015774D01*
X012202Y015616D02*
X012202Y015616D01*
X012202Y015457D02*
X012202Y015457D01*
X012137Y015299D02*
X012266Y015299D01*
X012408Y015140D02*
X011995Y015140D01*
X011408Y015140D02*
X010995Y015140D01*
X010985Y015130D02*
X011125Y015271D01*
X011202Y015455D01*
X011202Y015654D01*
X011125Y015838D01*
X010985Y015978D01*
X010801Y016054D01*
X010602Y016054D01*
X010418Y015978D01*
X010278Y015838D01*
X010202Y015654D01*
X010202Y015455D01*
X010278Y015271D01*
X010418Y015130D01*
X010602Y015054D01*
X010801Y015054D01*
X010985Y015130D01*
X011137Y015299D02*
X011266Y015299D01*
X011202Y015457D02*
X011202Y015457D01*
X011202Y015616D02*
X011202Y015616D01*
X011152Y015774D02*
X011252Y015774D01*
X011373Y015933D02*
X011030Y015933D01*
X010373Y015933D02*
X010030Y015933D01*
X009985Y015978D02*
X009801Y016054D01*
X009602Y016054D01*
X009418Y015978D01*
X009278Y015838D01*
X009202Y015654D01*
X009202Y015455D01*
X009278Y015271D01*
X009418Y015130D01*
X009602Y015054D01*
X009801Y015054D01*
X009985Y015130D01*
X010125Y015271D01*
X010202Y015455D01*
X010202Y015654D01*
X010125Y015838D01*
X009985Y015978D01*
X010152Y015774D02*
X010252Y015774D01*
X010202Y015616D02*
X010202Y015616D01*
X010202Y015457D02*
X010202Y015457D01*
X010137Y015299D02*
X010266Y015299D01*
X010408Y015140D02*
X009995Y015140D01*
X009408Y015140D02*
X008995Y015140D01*
X008985Y015130D02*
X009125Y015271D01*
X009202Y015455D01*
X009202Y015654D01*
X009125Y015838D01*
X008985Y015978D01*
X008801Y016054D01*
X008602Y016054D01*
X008418Y015978D01*
X008278Y015838D01*
X008202Y015654D01*
X008202Y015455D01*
X008278Y015271D01*
X008418Y015130D01*
X008602Y015054D01*
X008801Y015054D01*
X008985Y015130D01*
X009137Y015299D02*
X009266Y015299D01*
X009202Y015457D02*
X009202Y015457D01*
X009202Y015616D02*
X009202Y015616D01*
X009152Y015774D02*
X009252Y015774D01*
X009373Y015933D02*
X009030Y015933D01*
X008373Y015933D02*
X008002Y015933D01*
X007973Y015961D02*
X007797Y016034D01*
X007722Y016034D01*
X007722Y015575D01*
X007681Y015575D01*
X007681Y016034D01*
X007606Y016034D01*
X007430Y015961D01*
X007295Y015826D01*
X007222Y015650D01*
X007222Y015574D01*
X007681Y015574D01*
X007681Y015534D01*
X007222Y015534D01*
X007222Y015459D01*
X007295Y015282D01*
X007430Y015147D01*
X007606Y015074D01*
X007681Y015074D01*
X007681Y015534D01*
X007722Y015534D01*
X007722Y015574D01*
X008182Y015574D01*
X008182Y015650D01*
X008108Y015826D01*
X007973Y015961D01*
X008130Y015774D02*
X008252Y015774D01*
X008202Y015616D02*
X008182Y015616D01*
X008182Y015534D02*
X007722Y015534D01*
X007722Y015074D01*
X007797Y015074D01*
X007973Y015147D01*
X008108Y015282D01*
X008182Y015459D01*
X008182Y015534D01*
X008181Y015457D02*
X008202Y015457D01*
X008266Y015299D02*
X008115Y015299D01*
X007956Y015140D02*
X008408Y015140D01*
X007722Y015140D02*
X007681Y015140D01*
X007681Y015299D02*
X007722Y015299D01*
X007722Y015457D02*
X007681Y015457D01*
X007681Y015616D02*
X007722Y015616D01*
X007722Y015774D02*
X007681Y015774D01*
X007681Y015933D02*
X007722Y015933D01*
X007401Y015933D02*
X007030Y015933D01*
X007152Y015774D02*
X007273Y015774D01*
X007222Y015616D02*
X007202Y015616D01*
X007202Y015457D02*
X007222Y015457D01*
X007288Y015299D02*
X007137Y015299D01*
X006995Y015140D02*
X007447Y015140D01*
X007556Y014506D02*
X007847Y014506D01*
X008556Y014506D02*
X008847Y014506D01*
X009556Y014506D02*
X009847Y014506D01*
X010556Y014506D02*
X010847Y014506D01*
X011556Y014506D02*
X011847Y014506D01*
X012556Y014506D02*
X012847Y014506D01*
X014170Y015140D02*
X014408Y015140D01*
X014266Y015299D02*
X014202Y015299D01*
X014202Y015457D02*
X014202Y015457D01*
X014202Y015616D02*
X014202Y015616D01*
X014202Y015774D02*
X014252Y015774D01*
X014202Y015933D02*
X014373Y015933D01*
X015030Y015933D02*
X015373Y015933D01*
X015252Y015774D02*
X015152Y015774D01*
X015202Y015616D02*
X015202Y015616D01*
X015202Y015457D02*
X015202Y015457D01*
X015137Y015299D02*
X015266Y015299D01*
X015408Y015140D02*
X014995Y015140D01*
X014847Y014506D02*
X014556Y014506D01*
X015556Y014506D02*
X015847Y014506D01*
X014162Y016726D02*
X006078Y016726D01*
X003922Y018787D02*
X002302Y018787D01*
X002302Y018945D02*
X003957Y018945D01*
X004105Y019104D02*
X002302Y019104D01*
X002302Y019262D02*
X004264Y019262D01*
X004422Y019421D02*
X002302Y019421D01*
X002302Y019580D02*
X004581Y019580D01*
X004637Y019738D02*
X002302Y019738D01*
X002302Y019897D02*
X004605Y019897D01*
X004605Y020055D02*
X002302Y020055D01*
X002302Y020214D02*
X004605Y020214D01*
X004608Y020372D02*
X002302Y020372D01*
X002302Y020531D02*
X004625Y020531D01*
X004625Y020689D02*
X002302Y020689D01*
X002302Y020848D02*
X004625Y020848D01*
X004625Y021006D02*
X002302Y021006D01*
X002302Y021165D02*
X022105Y021165D01*
X022132Y021006D02*
X022276Y021006D01*
X022202Y020848D02*
X022375Y020848D01*
X022426Y020689D02*
X022202Y020689D01*
X022202Y020531D02*
X022442Y020531D01*
X022442Y020372D02*
X022202Y020372D01*
X022202Y020214D02*
X022442Y020214D01*
X022442Y020055D02*
X022085Y020055D01*
X021982Y019897D02*
X022442Y019897D01*
X022442Y019738D02*
X021977Y019738D01*
X021876Y019580D02*
X022442Y019580D01*
X022442Y019421D02*
X021736Y019421D01*
X021598Y019262D02*
X022442Y019262D01*
X022442Y019104D02*
X021598Y019104D01*
X021598Y018945D02*
X022442Y018945D01*
X022442Y018787D02*
X021578Y018787D01*
X021578Y018628D02*
X022442Y018628D01*
X022442Y018470D02*
X021578Y018470D01*
X021578Y018311D02*
X022442Y018311D01*
X022442Y018153D02*
X017658Y018153D01*
X017570Y017994D02*
X022442Y017994D01*
X021220Y018311D02*
X021183Y018311D01*
X021183Y018470D02*
X021220Y018470D01*
X021202Y019239D02*
X021702Y019804D01*
X021702Y020554D01*
X021202Y020531D02*
X021202Y020531D01*
X021187Y020689D02*
X021202Y020689D01*
X021202Y020848D02*
X021115Y020848D01*
X021271Y021006D02*
X020917Y021006D01*
X020487Y021006D02*
X019917Y021006D01*
X020115Y020848D02*
X020288Y020848D01*
X020216Y020689D02*
X020187Y020689D01*
X020202Y020531D02*
X020202Y020531D01*
X020167Y020372D02*
X020236Y020372D01*
X020335Y020214D02*
X020068Y020214D01*
X019335Y020214D02*
X019068Y020214D01*
X019167Y020372D02*
X019236Y020372D01*
X019202Y020531D02*
X019202Y020531D01*
X019187Y020689D02*
X019216Y020689D01*
X019288Y020848D02*
X019115Y020848D01*
X018917Y021006D02*
X019487Y021006D01*
X018487Y021006D02*
X017917Y021006D01*
X018115Y020848D02*
X018288Y020848D01*
X018216Y020689D02*
X018187Y020689D01*
X018202Y020531D02*
X018202Y020531D01*
X018167Y020372D02*
X018236Y020372D01*
X018335Y020214D02*
X018068Y020214D01*
X017335Y020214D02*
X017068Y020214D01*
X017167Y020372D02*
X017236Y020372D01*
X017202Y020531D02*
X017202Y020531D01*
X017187Y020689D02*
X017216Y020689D01*
X017288Y020848D02*
X017115Y020848D01*
X016917Y021006D02*
X017487Y021006D01*
X016487Y021006D02*
X015917Y021006D01*
X016115Y020848D02*
X016288Y020848D01*
X016216Y020689D02*
X016187Y020689D01*
X016202Y020531D02*
X016202Y020531D01*
X016167Y020372D02*
X016236Y020372D01*
X016335Y020214D02*
X016068Y020214D01*
X015335Y020214D02*
X015068Y020214D01*
X015167Y020372D02*
X015236Y020372D01*
X015202Y020531D02*
X015202Y020531D01*
X015187Y020689D02*
X015216Y020689D01*
X015288Y020848D02*
X015115Y020848D01*
X014917Y021006D02*
X015487Y021006D01*
X016585Y018628D02*
X016847Y018628D01*
X016751Y018470D02*
X016674Y018470D01*
X017181Y018470D02*
X017222Y018470D01*
X017222Y018628D02*
X017181Y018628D01*
X017181Y018153D02*
X017222Y018153D01*
X017222Y017994D02*
X017181Y017994D01*
X016027Y017836D02*
X015376Y017836D01*
X010918Y013555D02*
X010485Y013555D01*
X010567Y013396D02*
X010836Y013396D01*
X010736Y013238D02*
X010667Y013238D01*
X010702Y013079D02*
X010702Y013079D01*
X010687Y012921D02*
X010716Y012921D01*
X010787Y012762D02*
X010616Y012762D01*
X010420Y012604D02*
X010983Y012604D01*
X010885Y012445D02*
X010518Y012445D01*
X010647Y012287D02*
X010757Y012287D01*
X010702Y012128D02*
X010702Y012128D01*
X010702Y011969D02*
X010702Y011969D01*
X010761Y011811D02*
X010642Y011811D01*
X010507Y011652D02*
X010896Y011652D01*
X010956Y011494D02*
X010447Y011494D01*
X010626Y011335D02*
X010777Y011335D01*
X010711Y011177D02*
X010692Y011177D01*
X010702Y011018D02*
X010702Y011018D01*
X010662Y010860D02*
X010741Y010860D01*
X010848Y010701D02*
X010555Y010701D01*
X010579Y010384D02*
X010824Y010384D01*
X010731Y010225D02*
X010672Y010225D01*
X010702Y010067D02*
X010702Y010067D01*
X010682Y009908D02*
X010721Y009908D01*
X010799Y009750D02*
X010604Y009750D01*
X010390Y009591D02*
X011013Y009591D01*
X010873Y009433D02*
X010530Y009433D01*
X010652Y009274D02*
X010751Y009274D01*
X010702Y009116D02*
X010702Y009116D01*
X010702Y008957D02*
X010702Y008957D01*
X010637Y008799D02*
X010766Y008799D01*
X010909Y008640D02*
X010494Y008640D01*
X010477Y008481D02*
X010926Y008481D01*
X010772Y008323D02*
X010631Y008323D01*
X010697Y008164D02*
X010706Y008164D01*
X010702Y008006D02*
X010702Y008006D01*
X010746Y007847D02*
X010657Y007847D01*
X010543Y007689D02*
X010860Y007689D01*
X011044Y007530D02*
X010359Y007530D01*
X010591Y007372D02*
X010812Y007372D01*
X010726Y007213D02*
X010677Y007213D01*
X010702Y007055D02*
X010702Y007055D01*
X010677Y006896D02*
X010726Y006896D01*
X010811Y006738D02*
X010592Y006738D01*
X010361Y006579D02*
X011043Y006579D01*
X010861Y006420D02*
X010543Y006420D01*
X010657Y006262D02*
X010746Y006262D01*
X010702Y006103D02*
X010702Y006103D01*
X010697Y005945D02*
X010706Y005945D01*
X010771Y005786D02*
X010632Y005786D01*
X010478Y005628D02*
X010925Y005628D01*
X010839Y005469D02*
X010564Y005469D01*
X010691Y005311D02*
X010712Y005311D01*
X010222Y004994D02*
X010181Y004994D01*
X010181Y004835D02*
X010222Y004835D01*
X009712Y005311D02*
X009691Y005311D01*
X009564Y005469D02*
X009839Y005469D01*
X009925Y005628D02*
X009478Y005628D01*
X009632Y005786D02*
X009771Y005786D01*
X009706Y005945D02*
X009697Y005945D01*
X009702Y006103D02*
X009702Y006103D01*
X009746Y006262D02*
X009657Y006262D01*
X009543Y006420D02*
X009861Y006420D01*
X010043Y006579D02*
X009361Y006579D01*
X009592Y006738D02*
X009811Y006738D01*
X009726Y006896D02*
X009677Y006896D01*
X009702Y007055D02*
X009702Y007055D01*
X009677Y007213D02*
X009726Y007213D01*
X009812Y007372D02*
X009591Y007372D01*
X009359Y007530D02*
X010044Y007530D01*
X009860Y007689D02*
X009543Y007689D01*
X009657Y007847D02*
X009746Y007847D01*
X009702Y008006D02*
X009702Y008006D01*
X009697Y008164D02*
X009706Y008164D01*
X009772Y008323D02*
X009631Y008323D01*
X009477Y008481D02*
X009926Y008481D01*
X009909Y008640D02*
X009494Y008640D01*
X009637Y008799D02*
X009766Y008799D01*
X009702Y008957D02*
X009702Y008957D01*
X009702Y009116D02*
X009702Y009116D01*
X009652Y009274D02*
X009751Y009274D01*
X009873Y009433D02*
X009530Y009433D01*
X009390Y009591D02*
X010013Y009591D01*
X009799Y009750D02*
X009604Y009750D01*
X009682Y009908D02*
X009721Y009908D01*
X009702Y010067D02*
X009702Y010067D01*
X009672Y010225D02*
X009731Y010225D01*
X009824Y010384D02*
X009579Y010384D01*
X009555Y010701D02*
X009848Y010701D01*
X009741Y010860D02*
X009662Y010860D01*
X009702Y011018D02*
X009702Y011018D01*
X009692Y011177D02*
X009711Y011177D01*
X009777Y011335D02*
X009626Y011335D01*
X009447Y011494D02*
X009956Y011494D01*
X009896Y011652D02*
X009507Y011652D01*
X009642Y011811D02*
X009761Y011811D01*
X009702Y011969D02*
X009702Y011969D01*
X009702Y012128D02*
X009702Y012128D01*
X009647Y012287D02*
X009757Y012287D01*
X009885Y012445D02*
X009518Y012445D01*
X009420Y012604D02*
X009983Y012604D01*
X009787Y012762D02*
X009616Y012762D01*
X009687Y012921D02*
X009716Y012921D01*
X009702Y013079D02*
X009702Y013079D01*
X009667Y013238D02*
X009736Y013238D01*
X009836Y013396D02*
X009567Y013396D01*
X009485Y013555D02*
X009918Y013555D01*
X008918Y013555D02*
X008485Y013555D01*
X008567Y013396D02*
X008836Y013396D01*
X008736Y013238D02*
X008667Y013238D01*
X008702Y013079D02*
X008702Y013079D01*
X008687Y012921D02*
X008716Y012921D01*
X008787Y012762D02*
X008616Y012762D01*
X008420Y012604D02*
X008983Y012604D01*
X008885Y012445D02*
X008518Y012445D01*
X008647Y012287D02*
X008757Y012287D01*
X008702Y012128D02*
X008702Y012128D01*
X008702Y011969D02*
X008702Y011969D01*
X008761Y011811D02*
X008642Y011811D01*
X008507Y011652D02*
X008896Y011652D01*
X008956Y011494D02*
X008447Y011494D01*
X008626Y011335D02*
X008777Y011335D01*
X008711Y011177D02*
X008692Y011177D01*
X008702Y011018D02*
X008702Y011018D01*
X008662Y010860D02*
X008741Y010860D01*
X008848Y010701D02*
X008555Y010701D01*
X008579Y010384D02*
X008824Y010384D01*
X008731Y010225D02*
X008672Y010225D01*
X008702Y010067D02*
X008702Y010067D01*
X008682Y009908D02*
X008721Y009908D01*
X008799Y009750D02*
X008604Y009750D01*
X008390Y009591D02*
X009013Y009591D01*
X008873Y009433D02*
X008530Y009433D01*
X008652Y009274D02*
X008751Y009274D01*
X008702Y009116D02*
X008702Y009116D01*
X008702Y008957D02*
X008702Y008957D01*
X008637Y008799D02*
X008766Y008799D01*
X008909Y008640D02*
X008494Y008640D01*
X008477Y008481D02*
X008926Y008481D01*
X008772Y008323D02*
X008631Y008323D01*
X008697Y008164D02*
X008706Y008164D01*
X008702Y008006D02*
X008702Y008006D01*
X008746Y007847D02*
X008657Y007847D01*
X008543Y007689D02*
X008860Y007689D01*
X009044Y007530D02*
X008359Y007530D01*
X008591Y007372D02*
X008812Y007372D01*
X008726Y007213D02*
X008677Y007213D01*
X008702Y007055D02*
X008702Y007055D01*
X008677Y006896D02*
X008726Y006896D01*
X008811Y006738D02*
X008592Y006738D01*
X008361Y006579D02*
X009043Y006579D01*
X008861Y006420D02*
X008543Y006420D01*
X008657Y006262D02*
X008746Y006262D01*
X008702Y006103D02*
X008702Y006103D01*
X008697Y005945D02*
X008706Y005945D01*
X008771Y005786D02*
X008632Y005786D01*
X008478Y005628D02*
X008925Y005628D01*
X008839Y005469D02*
X008564Y005469D01*
X008691Y005311D02*
X008712Y005311D01*
X008652Y005074D02*
X008222Y005074D01*
X008222Y005034D01*
X008652Y005034D01*
X009181Y005034D01*
X009181Y005074D01*
X008652Y005074D01*
X008181Y005074D02*
X008181Y005034D01*
X007652Y005034D01*
X007222Y005034D01*
X007222Y005074D01*
X007652Y005074D01*
X008181Y005074D01*
X007839Y005469D02*
X007564Y005469D01*
X007478Y005628D02*
X007925Y005628D01*
X007771Y005786D02*
X007632Y005786D01*
X007697Y005945D02*
X007706Y005945D01*
X007702Y006103D02*
X007702Y006103D01*
X007746Y006262D02*
X007657Y006262D01*
X007543Y006420D02*
X007861Y006420D01*
X008043Y006579D02*
X007361Y006579D01*
X007592Y006738D02*
X007811Y006738D01*
X007726Y006896D02*
X007677Y006896D01*
X007702Y007055D02*
X007702Y007055D01*
X007677Y007213D02*
X007726Y007213D01*
X007812Y007372D02*
X007591Y007372D01*
X007359Y007530D02*
X008044Y007530D01*
X007860Y007689D02*
X007543Y007689D01*
X007657Y007847D02*
X007746Y007847D01*
X007702Y008006D02*
X007702Y008006D01*
X007697Y008164D02*
X007706Y008164D01*
X007772Y008323D02*
X007631Y008323D01*
X007477Y008481D02*
X007926Y008481D01*
X007909Y008640D02*
X007494Y008640D01*
X007637Y008799D02*
X007766Y008799D01*
X007702Y008957D02*
X007702Y008957D01*
X007702Y009116D02*
X007702Y009116D01*
X007652Y009274D02*
X007751Y009274D01*
X007873Y009433D02*
X007530Y009433D01*
X007390Y009591D02*
X008013Y009591D01*
X007799Y009750D02*
X007604Y009750D01*
X007682Y009908D02*
X007721Y009908D01*
X007702Y010067D02*
X007702Y010067D01*
X007672Y010225D02*
X007731Y010225D01*
X007824Y010384D02*
X007579Y010384D01*
X007555Y010701D02*
X007848Y010701D01*
X007741Y010860D02*
X007662Y010860D01*
X007702Y011018D02*
X007702Y011018D01*
X007692Y011177D02*
X007711Y011177D01*
X007777Y011335D02*
X007626Y011335D01*
X007447Y011494D02*
X007956Y011494D01*
X007896Y011652D02*
X007507Y011652D01*
X007642Y011811D02*
X007761Y011811D01*
X007702Y011969D02*
X007702Y011969D01*
X007702Y012128D02*
X007702Y012128D01*
X007647Y012287D02*
X007757Y012287D01*
X007885Y012445D02*
X007518Y012445D01*
X007420Y012604D02*
X007983Y012604D01*
X007787Y012762D02*
X007616Y012762D01*
X007687Y012921D02*
X007716Y012921D01*
X007702Y013079D02*
X007702Y013079D01*
X007667Y013238D02*
X007736Y013238D01*
X007836Y013396D02*
X007567Y013396D01*
X007485Y013555D02*
X007918Y013555D01*
X006918Y013555D02*
X006485Y013555D01*
X006567Y013396D02*
X006836Y013396D01*
X006736Y013238D02*
X006667Y013238D01*
X006702Y013079D02*
X006702Y013079D01*
X006687Y012921D02*
X006716Y012921D01*
X006787Y012762D02*
X006616Y012762D01*
X006420Y012604D02*
X006983Y012604D01*
X006885Y012445D02*
X006518Y012445D01*
X006647Y012287D02*
X006757Y012287D01*
X006702Y012128D02*
X006702Y012128D01*
X006702Y011969D02*
X006702Y011969D01*
X006761Y011811D02*
X006642Y011811D01*
X006507Y011652D02*
X006896Y011652D01*
X006956Y011494D02*
X006447Y011494D01*
X006626Y011335D02*
X006777Y011335D01*
X006711Y011177D02*
X006692Y011177D01*
X006702Y011018D02*
X006702Y011018D01*
X006662Y010860D02*
X006741Y010860D01*
X006848Y010701D02*
X006555Y010701D01*
X006579Y010384D02*
X006824Y010384D01*
X006731Y010225D02*
X006672Y010225D01*
X006702Y010067D02*
X006702Y010067D01*
X006682Y009908D02*
X006721Y009908D01*
X006799Y009750D02*
X006604Y009750D01*
X006390Y009591D02*
X007013Y009591D01*
X006873Y009433D02*
X006530Y009433D01*
X006652Y009274D02*
X006751Y009274D01*
X006702Y009116D02*
X006702Y009116D01*
X006702Y008957D02*
X006702Y008957D01*
X006637Y008799D02*
X006766Y008799D01*
X006909Y008640D02*
X006494Y008640D01*
X006477Y008481D02*
X006926Y008481D01*
X006772Y008323D02*
X006631Y008323D01*
X006697Y008164D02*
X006706Y008164D01*
X006702Y008006D02*
X006702Y008006D01*
X006746Y007847D02*
X006657Y007847D01*
X006543Y007689D02*
X006860Y007689D01*
X007044Y007530D02*
X006359Y007530D01*
X006591Y007372D02*
X006812Y007372D01*
X006726Y007213D02*
X006677Y007213D01*
X006702Y007055D02*
X006702Y007055D01*
X006677Y006896D02*
X006726Y006896D01*
X006811Y006738D02*
X006592Y006738D01*
X006361Y006579D02*
X007043Y006579D01*
X006861Y006420D02*
X006543Y006420D01*
X006657Y006262D02*
X006746Y006262D01*
X006702Y006103D02*
X006702Y006103D01*
X006697Y005945D02*
X006706Y005945D01*
X006771Y005786D02*
X006632Y005786D01*
X006478Y005628D02*
X006925Y005628D01*
X006839Y005469D02*
X006564Y005469D01*
X006691Y005311D02*
X006712Y005311D01*
X006652Y005074D02*
X006222Y005074D01*
X006222Y005034D01*
X006652Y005034D01*
X007181Y005034D01*
X007181Y005074D01*
X006652Y005074D01*
X006181Y005074D02*
X006181Y005034D01*
X005652Y005034D01*
X005222Y005034D01*
X005222Y005074D01*
X005652Y005074D01*
X006181Y005074D01*
X005839Y005469D02*
X005564Y005469D01*
X005478Y005628D02*
X005925Y005628D01*
X005771Y005786D02*
X005632Y005786D01*
X005697Y005945D02*
X005706Y005945D01*
X005702Y006103D02*
X005702Y006103D01*
X005746Y006262D02*
X005657Y006262D01*
X005543Y006420D02*
X005861Y006420D01*
X006043Y006579D02*
X005361Y006579D01*
X005592Y006738D02*
X005811Y006738D01*
X005726Y006896D02*
X005677Y006896D01*
X005702Y007055D02*
X005702Y007055D01*
X005677Y007213D02*
X005726Y007213D01*
X005812Y007372D02*
X005591Y007372D01*
X005359Y007530D02*
X006044Y007530D01*
X005860Y007689D02*
X005543Y007689D01*
X005657Y007847D02*
X005746Y007847D01*
X005702Y008006D02*
X005702Y008006D01*
X005697Y008164D02*
X005706Y008164D01*
X005772Y008323D02*
X005631Y008323D01*
X005477Y008481D02*
X005926Y008481D01*
X005909Y008640D02*
X005494Y008640D01*
X005637Y008799D02*
X005766Y008799D01*
X005702Y008957D02*
X005702Y008957D01*
X005702Y009116D02*
X005702Y009116D01*
X005652Y009274D02*
X005751Y009274D01*
X005873Y009433D02*
X005530Y009433D01*
X005390Y009591D02*
X006013Y009591D01*
X005799Y009750D02*
X005604Y009750D01*
X005682Y009908D02*
X005721Y009908D01*
X005702Y010067D02*
X005702Y010067D01*
X005672Y010225D02*
X005731Y010225D01*
X005824Y010384D02*
X005579Y010384D01*
X005555Y010701D02*
X005848Y010701D01*
X005741Y010860D02*
X005662Y010860D01*
X005702Y011018D02*
X005702Y011018D01*
X005692Y011177D02*
X005711Y011177D01*
X005777Y011335D02*
X005626Y011335D01*
X005447Y011494D02*
X005956Y011494D01*
X005896Y011652D02*
X005507Y011652D01*
X005642Y011811D02*
X005761Y011811D01*
X005702Y011969D02*
X005702Y011969D01*
X005702Y012128D02*
X005702Y012128D01*
X005647Y012287D02*
X005757Y012287D01*
X005885Y012445D02*
X005518Y012445D01*
X005420Y012604D02*
X005983Y012604D01*
X005787Y012762D02*
X005616Y012762D01*
X005687Y012921D02*
X005716Y012921D01*
X005702Y013079D02*
X005702Y013079D01*
X005667Y013238D02*
X005736Y013238D01*
X005836Y013396D02*
X005567Y013396D01*
X005485Y013555D02*
X005918Y013555D01*
X005847Y014506D02*
X005556Y014506D01*
X004847Y014506D02*
X004556Y014506D01*
X003847Y014506D02*
X003556Y014506D01*
X002847Y014506D02*
X002556Y014506D01*
X001847Y014506D02*
X001556Y014506D01*
X000922Y014665D02*
X000462Y014665D01*
X000462Y014823D02*
X000922Y014823D01*
X000922Y014982D02*
X000462Y014982D01*
X000462Y015140D02*
X000922Y015140D01*
X000922Y015299D02*
X000462Y015299D01*
X000462Y015457D02*
X000922Y015457D01*
X000922Y015616D02*
X000462Y015616D01*
X000462Y015774D02*
X000922Y015774D01*
X000922Y015933D02*
X000462Y015933D01*
X000462Y016092D02*
X000922Y016092D01*
X000922Y016250D02*
X000462Y016250D01*
X000462Y016409D02*
X000922Y016409D01*
X000922Y016567D02*
X000462Y016567D01*
X000462Y016726D02*
X000977Y016726D01*
X000462Y016884D02*
X001751Y016884D01*
X002200Y017043D02*
X000462Y017043D01*
X000462Y017201D02*
X002353Y017201D01*
X002302Y017360D02*
X003362Y017360D01*
X003475Y017518D02*
X002302Y017518D01*
X002302Y017677D02*
X003588Y017677D01*
X003701Y017836D02*
X003324Y017836D01*
X003297Y017824D02*
X003473Y017897D01*
X003608Y018032D01*
X003682Y018209D01*
X003682Y018284D01*
X003222Y018284D01*
X003222Y018324D01*
X003682Y018324D01*
X003682Y018400D01*
X003608Y018576D01*
X003473Y018711D01*
X003297Y018784D01*
X003222Y018784D01*
X003222Y018325D01*
X003181Y018325D01*
X003181Y018784D01*
X003106Y018784D01*
X002930Y018711D01*
X002795Y018576D01*
X002722Y018400D01*
X002722Y018324D01*
X003181Y018324D01*
X003181Y018284D01*
X002722Y018284D01*
X002722Y018209D01*
X002795Y018032D01*
X002930Y017897D01*
X003106Y017824D01*
X003181Y017824D01*
X003181Y018284D01*
X003222Y018284D01*
X003222Y017824D01*
X003297Y017824D01*
X003222Y017836D02*
X003181Y017836D01*
X003079Y017836D02*
X002324Y017836D01*
X002570Y017994D02*
X002833Y017994D01*
X002745Y018153D02*
X002658Y018153D01*
X002653Y018470D02*
X002751Y018470D01*
X002847Y018628D02*
X002556Y018628D01*
X002302Y018311D02*
X003181Y018311D01*
X003222Y018311D02*
X003702Y018311D01*
X003723Y018153D02*
X003658Y018153D01*
X003570Y017994D02*
X003805Y017994D01*
X003729Y018470D02*
X003653Y018470D01*
X003556Y018628D02*
X003818Y018628D01*
X003222Y018628D02*
X003181Y018628D01*
X003181Y018470D02*
X003222Y018470D01*
X003222Y018153D02*
X003181Y018153D01*
X003181Y017994D02*
X003222Y017994D01*
X003710Y016884D02*
X003751Y016884D01*
X006556Y014506D02*
X006847Y014506D01*
X004918Y013555D02*
X004485Y013555D01*
X004567Y013396D02*
X004836Y013396D01*
X004736Y013238D02*
X004667Y013238D01*
X004702Y013079D02*
X004702Y013079D01*
X004687Y012921D02*
X004716Y012921D01*
X004787Y012762D02*
X004616Y012762D01*
X004420Y012604D02*
X004983Y012604D01*
X004885Y012445D02*
X004518Y012445D01*
X004647Y012287D02*
X004757Y012287D01*
X004702Y012128D02*
X004702Y012128D01*
X004702Y011969D02*
X004702Y011969D01*
X004761Y011811D02*
X004642Y011811D01*
X004507Y011652D02*
X004896Y011652D01*
X004956Y011494D02*
X004447Y011494D01*
X004626Y011335D02*
X004777Y011335D01*
X004711Y011177D02*
X004692Y011177D01*
X004702Y011018D02*
X004702Y011018D01*
X004662Y010860D02*
X004741Y010860D01*
X004848Y010701D02*
X004555Y010701D01*
X004579Y010384D02*
X004824Y010384D01*
X004731Y010225D02*
X004672Y010225D01*
X004702Y010067D02*
X004702Y010067D01*
X004682Y009908D02*
X004721Y009908D01*
X004799Y009750D02*
X004604Y009750D01*
X004390Y009591D02*
X005013Y009591D01*
X004873Y009433D02*
X004530Y009433D01*
X004652Y009274D02*
X004751Y009274D01*
X004702Y009116D02*
X004702Y009116D01*
X004702Y008957D02*
X004702Y008957D01*
X004637Y008799D02*
X004766Y008799D01*
X004909Y008640D02*
X004494Y008640D01*
X004477Y008481D02*
X004926Y008481D01*
X004772Y008323D02*
X004631Y008323D01*
X004697Y008164D02*
X004706Y008164D01*
X004702Y008006D02*
X004702Y008006D01*
X004746Y007847D02*
X004657Y007847D01*
X004543Y007689D02*
X004860Y007689D01*
X005044Y007530D02*
X004359Y007530D01*
X004591Y007372D02*
X004812Y007372D01*
X004726Y007213D02*
X004677Y007213D01*
X004702Y007055D02*
X004702Y007055D01*
X004677Y006896D02*
X004726Y006896D01*
X004811Y006738D02*
X004592Y006738D01*
X004361Y006579D02*
X005043Y006579D01*
X004861Y006420D02*
X004543Y006420D01*
X004657Y006262D02*
X004746Y006262D01*
X004702Y006103D02*
X004702Y006103D01*
X004697Y005945D02*
X004706Y005945D01*
X004771Y005786D02*
X004632Y005786D01*
X004478Y005628D02*
X004925Y005628D01*
X004839Y005469D02*
X004564Y005469D01*
X004691Y005311D02*
X004712Y005311D01*
X004752Y005074D02*
X004222Y005074D01*
X004222Y005034D01*
X004752Y005034D01*
X005181Y005034D01*
X005181Y005074D01*
X004752Y005074D01*
X005691Y005311D02*
X005712Y005311D01*
X005988Y003725D02*
X007415Y003725D01*
X007269Y003567D02*
X006134Y003567D01*
X006200Y003408D02*
X007203Y003408D01*
X007202Y003250D02*
X006202Y003250D01*
X006154Y003091D02*
X007249Y003091D01*
X007366Y002932D02*
X006037Y002932D01*
X005982Y002774D02*
X007422Y002774D01*
X007422Y002615D02*
X005982Y002615D01*
X006080Y002457D02*
X006352Y002457D01*
X006325Y002298D02*
X006098Y002298D01*
X006098Y002140D02*
X006683Y002140D01*
X006720Y002140D02*
X007305Y002140D01*
X007305Y002298D02*
X007078Y002298D01*
X007052Y002457D02*
X007323Y002457D01*
X007702Y002139D02*
X007702Y003304D01*
X008154Y003091D02*
X009382Y003091D01*
X009382Y002932D02*
X008037Y002932D01*
X007982Y002774D02*
X009382Y002774D01*
X009382Y002615D02*
X007982Y002615D01*
X008080Y002457D02*
X008352Y002457D01*
X008325Y002298D02*
X008098Y002298D01*
X008098Y002140D02*
X008683Y002140D01*
X008720Y002140D02*
X009382Y002140D01*
X009382Y002298D02*
X009078Y002298D01*
X009052Y002457D02*
X009382Y002457D01*
X009382Y001981D02*
X009078Y001981D01*
X009053Y001823D02*
X009272Y001823D01*
X009206Y001664D02*
X009098Y001664D01*
X009098Y001506D02*
X009202Y001506D01*
X009246Y001347D02*
X009098Y001347D01*
X009098Y001189D02*
X009360Y001189D01*
X008702Y001470D02*
X007702Y001470D01*
X007305Y001506D02*
X007098Y001506D01*
X007098Y001664D02*
X007305Y001664D01*
X007322Y001823D02*
X007053Y001823D01*
X007078Y001981D02*
X007305Y001981D01*
X007305Y001347D02*
X007098Y001347D01*
X007098Y001189D02*
X007305Y001189D01*
X006702Y001470D02*
X005702Y001470D01*
X005305Y001506D02*
X005098Y001506D01*
X005098Y001664D02*
X005305Y001664D01*
X005322Y001823D02*
X005053Y001823D01*
X005078Y001981D02*
X005305Y001981D01*
X005305Y002140D02*
X004720Y002140D01*
X004683Y002140D02*
X004098Y002140D01*
X004098Y002298D02*
X004325Y002298D01*
X004352Y002457D02*
X004080Y002457D01*
X003702Y002139D02*
X003202Y002054D01*
X003202Y001054D01*
X003452Y000854D01*
X011502Y000854D01*
X011702Y001054D01*
X011702Y001554D01*
X011915Y000871D02*
X021965Y000871D01*
X021360Y001189D02*
X021043Y001189D01*
X021157Y001347D02*
X021246Y001347D01*
X021202Y001455D02*
X021202Y001654D01*
X021278Y001838D01*
X021382Y001941D01*
X021382Y003167D01*
X021278Y003271D01*
X021202Y003455D01*
X021202Y003654D01*
X021278Y003838D01*
X021385Y003944D01*
X021019Y003944D01*
X021125Y003838D01*
X021202Y003654D01*
X021202Y003455D01*
X021125Y003271D01*
X021022Y003167D01*
X021022Y001941D01*
X021125Y001838D01*
X021202Y001654D01*
X021202Y001455D01*
X021202Y001506D02*
X021202Y001506D01*
X021197Y001664D02*
X021206Y001664D01*
X021272Y001823D02*
X021132Y001823D01*
X021022Y001981D02*
X021382Y001981D01*
X021382Y002140D02*
X021022Y002140D01*
X021022Y002298D02*
X021382Y002298D01*
X021382Y002457D02*
X021022Y002457D01*
X021022Y002615D02*
X021382Y002615D01*
X021382Y002774D02*
X021022Y002774D01*
X021022Y002932D02*
X021382Y002932D01*
X021382Y003091D02*
X021022Y003091D01*
X021104Y003250D02*
X021299Y003250D01*
X021221Y003408D02*
X021182Y003408D01*
X021202Y003567D02*
X021202Y003567D01*
X021172Y003725D02*
X021231Y003725D01*
X021324Y003884D02*
X021079Y003884D01*
X020385Y003944D02*
X020278Y003838D01*
X020202Y003654D01*
X020202Y003455D01*
X020278Y003271D01*
X020382Y003167D01*
X020382Y001941D01*
X020278Y001838D01*
X020202Y001654D01*
X020202Y001455D01*
X020202Y001654D01*
X020125Y001838D01*
X020022Y001941D01*
X020022Y003167D01*
X020125Y003271D01*
X020202Y003455D01*
X020202Y003654D01*
X020125Y003838D01*
X020019Y003944D01*
X020385Y003944D01*
X020324Y003884D02*
X020079Y003884D01*
X020172Y003725D02*
X020231Y003725D01*
X020202Y003567D02*
X020202Y003567D01*
X020182Y003408D02*
X020221Y003408D01*
X020299Y003250D02*
X020104Y003250D01*
X020022Y003091D02*
X020382Y003091D01*
X020382Y002932D02*
X020022Y002932D01*
X020022Y002774D02*
X020382Y002774D01*
X020382Y002615D02*
X020022Y002615D01*
X020022Y002457D02*
X020382Y002457D01*
X020382Y002298D02*
X020022Y002298D01*
X020022Y002140D02*
X020382Y002140D01*
X020382Y001981D02*
X020022Y001981D01*
X020132Y001823D02*
X020272Y001823D01*
X020206Y001664D02*
X020197Y001664D01*
X020202Y001506D02*
X020202Y001506D01*
X020246Y001347D02*
X020157Y001347D01*
X020043Y001189D02*
X020360Y001189D01*
X019360Y001189D02*
X019043Y001189D01*
X019157Y001347D02*
X019246Y001347D01*
X019202Y001455D02*
X019202Y001654D01*
X019278Y001838D01*
X019382Y001941D01*
X019382Y003167D01*
X019278Y003271D01*
X019202Y003455D01*
X019202Y003654D01*
X019278Y003838D01*
X019385Y003944D01*
X019019Y003944D01*
X019125Y003838D01*
X019202Y003654D01*
X019202Y003455D01*
X019125Y003271D01*
X019022Y003167D01*
X019022Y001941D01*
X019125Y001838D01*
X019202Y001654D01*
X019202Y001455D01*
X019202Y001506D02*
X019202Y001506D01*
X019197Y001664D02*
X019206Y001664D01*
X019272Y001823D02*
X019132Y001823D01*
X019022Y001981D02*
X019382Y001981D01*
X019382Y002140D02*
X019022Y002140D01*
X019022Y002298D02*
X019382Y002298D01*
X019382Y002457D02*
X019022Y002457D01*
X019022Y002615D02*
X019382Y002615D01*
X019382Y002774D02*
X019022Y002774D01*
X019022Y002932D02*
X019382Y002932D01*
X019382Y003091D02*
X019022Y003091D01*
X019104Y003250D02*
X019299Y003250D01*
X019221Y003408D02*
X019182Y003408D01*
X019202Y003567D02*
X019202Y003567D01*
X019172Y003725D02*
X019231Y003725D01*
X019324Y003884D02*
X019079Y003884D01*
X018385Y003944D02*
X018278Y003838D01*
X018202Y003654D01*
X018202Y003455D01*
X018278Y003271D01*
X018382Y003167D01*
X018382Y001941D01*
X018278Y001838D01*
X018202Y001654D01*
X018202Y001455D01*
X018202Y001654D01*
X018125Y001838D01*
X018022Y001941D01*
X018022Y003167D01*
X018125Y003271D01*
X018202Y003455D01*
X018202Y003654D01*
X018125Y003838D01*
X018019Y003944D01*
X018385Y003944D01*
X018324Y003884D02*
X018079Y003884D01*
X018172Y003725D02*
X018231Y003725D01*
X018202Y003567D02*
X018202Y003567D01*
X018182Y003408D02*
X018221Y003408D01*
X018299Y003250D02*
X018104Y003250D01*
X018022Y003091D02*
X018382Y003091D01*
X018382Y002932D02*
X018022Y002932D01*
X018022Y002774D02*
X018382Y002774D01*
X018382Y002615D02*
X018022Y002615D01*
X018022Y002457D02*
X018382Y002457D01*
X018382Y002298D02*
X018022Y002298D01*
X018022Y002140D02*
X018382Y002140D01*
X018382Y001981D02*
X018022Y001981D01*
X018132Y001823D02*
X018272Y001823D01*
X018206Y001664D02*
X018197Y001664D01*
X018202Y001506D02*
X018202Y001506D01*
X018246Y001347D02*
X018157Y001347D01*
X018043Y001189D02*
X018360Y001189D01*
X017360Y001189D02*
X017043Y001189D01*
X017157Y001347D02*
X017246Y001347D01*
X017202Y001455D02*
X017202Y001654D01*
X017278Y001838D01*
X017382Y001941D01*
X017382Y003167D01*
X017278Y003271D01*
X017202Y003455D01*
X017202Y003654D01*
X017278Y003838D01*
X017385Y003944D01*
X017019Y003944D01*
X017125Y003838D01*
X017202Y003654D01*
X017202Y003455D01*
X017125Y003271D01*
X017022Y003167D01*
X017022Y001941D01*
X017125Y001838D01*
X017202Y001654D01*
X017202Y001455D01*
X017202Y001506D02*
X017202Y001506D01*
X017197Y001664D02*
X017206Y001664D01*
X017272Y001823D02*
X017132Y001823D01*
X017022Y001981D02*
X017382Y001981D01*
X017382Y002140D02*
X017022Y002140D01*
X017022Y002298D02*
X017382Y002298D01*
X017382Y002457D02*
X017022Y002457D01*
X017022Y002615D02*
X017382Y002615D01*
X017382Y002774D02*
X017022Y002774D01*
X017022Y002932D02*
X017382Y002932D01*
X017382Y003091D02*
X017022Y003091D01*
X017104Y003250D02*
X017299Y003250D01*
X017221Y003408D02*
X017182Y003408D01*
X017202Y003567D02*
X017202Y003567D01*
X017172Y003725D02*
X017231Y003725D01*
X017324Y003884D02*
X017079Y003884D01*
X016324Y003884D02*
X015982Y003884D01*
X015982Y003725D02*
X016231Y003725D01*
X016202Y003567D02*
X015982Y003567D01*
X015982Y003408D02*
X016221Y003408D01*
X016299Y003250D02*
X016037Y003250D01*
X016098Y003091D02*
X016382Y003091D01*
X016382Y002932D02*
X016098Y002932D01*
X016098Y002774D02*
X016382Y002774D01*
X016382Y002615D02*
X016098Y002615D01*
X016078Y002457D02*
X016382Y002457D01*
X016382Y002298D02*
X016078Y002298D01*
X016078Y002140D02*
X016382Y002140D01*
X016382Y001981D02*
X016078Y001981D01*
X016272Y001823D02*
X015132Y001823D01*
X015197Y001664D02*
X016206Y001664D01*
X016202Y001506D02*
X015202Y001506D01*
X015157Y001347D02*
X016246Y001347D01*
X016360Y001189D02*
X015043Y001189D01*
X015430Y001823D02*
X015325Y001929D01*
X015325Y002201D01*
X015683Y002201D01*
X015683Y001823D01*
X015430Y001823D01*
X015325Y001981D02*
X015022Y001981D01*
X015022Y002140D02*
X015325Y002140D01*
X015325Y002298D02*
X015022Y002298D01*
X015022Y002457D02*
X015325Y002457D01*
X015305Y002615D02*
X015022Y002615D01*
X015022Y002774D02*
X015305Y002774D01*
X015305Y002932D02*
X015022Y002932D01*
X015022Y003091D02*
X015305Y003091D01*
X015366Y003250D02*
X015104Y003250D01*
X015182Y003408D02*
X015422Y003408D01*
X015422Y003567D02*
X015202Y003567D01*
X015172Y003725D02*
X015422Y003725D01*
X015422Y003884D02*
X015079Y003884D01*
X015702Y004304D02*
X015702Y002889D01*
X015683Y002140D02*
X015720Y002140D01*
X015720Y001981D02*
X015683Y001981D01*
X013722Y003091D02*
X013681Y003091D01*
X013566Y003091D02*
X012837Y003091D01*
X012797Y003074D02*
X012973Y003147D01*
X013108Y003282D01*
X013182Y003459D01*
X013182Y003534D01*
X012722Y003534D01*
X012722Y003074D01*
X012797Y003074D01*
X012722Y003091D02*
X012681Y003091D01*
X012566Y003091D02*
X012062Y003091D01*
X012104Y003250D02*
X012327Y003250D01*
X012243Y003408D02*
X012182Y003408D01*
X012681Y003408D02*
X012722Y003408D01*
X012722Y003250D02*
X012681Y003250D01*
X013076Y003250D02*
X013327Y003250D01*
X013243Y003408D02*
X013161Y003408D01*
X013150Y003725D02*
X013253Y003725D01*
X013352Y003884D02*
X013051Y003884D01*
X013681Y003408D02*
X013722Y003408D01*
X013722Y003250D02*
X013681Y003250D01*
X014150Y003725D02*
X014231Y003725D01*
X014324Y003884D02*
X014051Y003884D01*
X014181Y005034D02*
X013652Y005034D01*
X013222Y005034D01*
X013222Y005074D01*
X013652Y005074D01*
X014181Y005074D01*
X014181Y005034D01*
X013712Y005311D02*
X013691Y005311D01*
X013564Y005469D02*
X013839Y005469D01*
X013925Y005628D02*
X013478Y005628D01*
X013632Y005786D02*
X013771Y005786D01*
X013706Y005945D02*
X013697Y005945D01*
X013702Y006103D02*
X013702Y006103D01*
X013746Y006262D02*
X013657Y006262D01*
X013543Y006420D02*
X013861Y006420D01*
X014043Y006579D02*
X013361Y006579D01*
X013592Y006738D02*
X013811Y006738D01*
X013726Y006896D02*
X013677Y006896D01*
X013702Y007055D02*
X013702Y007055D01*
X013677Y007213D02*
X013726Y007213D01*
X013812Y007372D02*
X013591Y007372D01*
X013359Y007530D02*
X014044Y007530D01*
X013860Y007689D02*
X013543Y007689D01*
X013657Y007847D02*
X013746Y007847D01*
X013702Y008006D02*
X013702Y008006D01*
X013697Y008164D02*
X013706Y008164D01*
X013772Y008323D02*
X013631Y008323D01*
X013477Y008481D02*
X013926Y008481D01*
X013909Y008640D02*
X013494Y008640D01*
X013637Y008799D02*
X013766Y008799D01*
X013702Y008957D02*
X013702Y008957D01*
X013702Y009116D02*
X013702Y009116D01*
X013652Y009274D02*
X013751Y009274D01*
X013873Y009433D02*
X013530Y009433D01*
X013390Y009591D02*
X014013Y009591D01*
X013799Y009750D02*
X013604Y009750D01*
X013682Y009908D02*
X013721Y009908D01*
X013702Y010067D02*
X013702Y010067D01*
X013672Y010225D02*
X013731Y010225D01*
X013824Y010384D02*
X013579Y010384D01*
X013555Y010701D02*
X013848Y010701D01*
X013741Y010860D02*
X013662Y010860D01*
X013702Y011018D02*
X013702Y011018D01*
X013692Y011177D02*
X013711Y011177D01*
X013777Y011335D02*
X013626Y011335D01*
X017579Y010384D02*
X017824Y010384D01*
X017731Y010225D02*
X017672Y010225D01*
X017702Y010067D02*
X017702Y010067D01*
X017682Y009908D02*
X017721Y009908D01*
X017799Y009750D02*
X017604Y009750D01*
X016712Y005311D02*
X016691Y005311D01*
X014712Y005311D02*
X014691Y005311D01*
X018691Y005311D02*
X018712Y005311D01*
X020691Y005311D02*
X020712Y005311D01*
X009324Y003884D02*
X002950Y003884D01*
X002852Y003725D02*
X005415Y003725D01*
X005269Y003567D02*
X002852Y003567D01*
X002838Y003408D02*
X005203Y003408D01*
X005202Y003250D02*
X002782Y003250D01*
X002782Y003091D02*
X005249Y003091D01*
X005366Y002932D02*
X002782Y002932D01*
X002782Y002774D02*
X005422Y002774D01*
X005422Y002615D02*
X002782Y002615D01*
X002782Y002457D02*
X003323Y002457D01*
X003059Y002298D02*
X002782Y002298D01*
X002222Y002298D02*
X000462Y002298D01*
X000462Y002140D02*
X000672Y002140D01*
X000672Y002179D02*
X000672Y001804D01*
X000672Y001430D01*
X000777Y001324D01*
X001001Y001324D01*
X001001Y001804D01*
X000672Y001804D01*
X001001Y001804D01*
X001001Y001804D01*
X001002Y001804D01*
X001002Y001804D01*
X001332Y001804D01*
X001332Y001430D01*
X001226Y001324D01*
X001002Y001324D01*
X001002Y001804D01*
X001332Y001804D01*
X001332Y002179D01*
X001226Y002284D01*
X001002Y002284D01*
X001002Y001805D01*
X001001Y001805D01*
X001001Y002284D01*
X000777Y002284D01*
X000672Y002179D01*
X000672Y001981D02*
X000462Y001981D01*
X000462Y001823D02*
X000672Y001823D01*
X000672Y001664D02*
X000462Y001664D01*
X000477Y001506D02*
X000672Y001506D01*
X000754Y001347D02*
X000537Y001347D01*
X001001Y001347D02*
X001002Y001347D01*
X001001Y001506D02*
X001002Y001506D01*
X001001Y001664D02*
X001002Y001664D01*
X001001Y001823D02*
X001002Y001823D01*
X001001Y001981D02*
X001002Y001981D01*
X001001Y002140D02*
X001002Y002140D01*
X001332Y002140D02*
X002152Y002140D01*
X002152Y001981D02*
X001332Y001981D01*
X001332Y001823D02*
X002152Y001823D01*
X002152Y001664D02*
X001332Y001664D01*
X001332Y001506D02*
X002152Y001506D01*
X002226Y001347D02*
X001249Y001347D01*
X001038Y000871D02*
X002983Y000871D01*
X003702Y001470D02*
X004702Y001470D01*
X005098Y001347D02*
X005305Y001347D01*
X005305Y001189D02*
X005098Y001189D01*
X004350Y001823D02*
X004081Y001823D01*
X004098Y001981D02*
X004325Y001981D01*
X004683Y002298D02*
X004720Y002298D01*
X004720Y002457D02*
X004683Y002457D01*
X005052Y002457D02*
X005323Y002457D01*
X005305Y002298D02*
X005078Y002298D01*
X005702Y002139D02*
X005702Y003304D01*
X006683Y002457D02*
X006720Y002457D01*
X006720Y002298D02*
X006683Y002298D01*
X006325Y001981D02*
X006098Y001981D01*
X006081Y001823D02*
X006350Y001823D01*
X008081Y001823D02*
X008350Y001823D01*
X008325Y001981D02*
X008098Y001981D01*
X008683Y002298D02*
X008720Y002298D01*
X008720Y002457D02*
X008683Y002457D01*
X008202Y003250D02*
X009299Y003250D01*
X009221Y003408D02*
X008200Y003408D01*
X008134Y003567D02*
X009202Y003567D01*
X009231Y003725D02*
X007988Y003725D01*
X007712Y005311D02*
X007691Y005311D01*
X002925Y005628D02*
X002478Y005628D01*
X002564Y005469D02*
X002839Y005469D01*
X002712Y005311D02*
X002691Y005311D01*
X002632Y005786D02*
X002771Y005786D01*
X002706Y005945D02*
X002697Y005945D01*
X002702Y006103D02*
X002702Y006103D01*
X002746Y006262D02*
X002657Y006262D01*
X002543Y006420D02*
X002861Y006420D01*
X003043Y006579D02*
X002361Y006579D01*
X002592Y006738D02*
X002811Y006738D01*
X002726Y006896D02*
X002677Y006896D01*
X002702Y007055D02*
X002702Y007055D01*
X002677Y007213D02*
X002726Y007213D01*
X002812Y007372D02*
X002591Y007372D01*
X002359Y007530D02*
X003044Y007530D01*
X002860Y007689D02*
X002543Y007689D01*
X002657Y007847D02*
X002746Y007847D01*
X002702Y008006D02*
X002702Y008006D01*
X002697Y008164D02*
X002706Y008164D01*
X002772Y008323D02*
X002631Y008323D01*
X002477Y008481D02*
X002926Y008481D01*
X002909Y008640D02*
X002494Y008640D01*
X002637Y008799D02*
X002766Y008799D01*
X002702Y008957D02*
X002702Y008957D01*
X002702Y009116D02*
X002702Y009116D01*
X002652Y009274D02*
X002751Y009274D01*
X002873Y009433D02*
X002530Y009433D01*
X002390Y009591D02*
X003013Y009591D01*
X002799Y009750D02*
X002604Y009750D01*
X002682Y009908D02*
X002721Y009908D01*
X002702Y010067D02*
X002702Y010067D01*
X002672Y010225D02*
X002731Y010225D01*
X002824Y010384D02*
X002579Y010384D01*
X002329Y010543D02*
X003074Y010543D01*
X002848Y010701D02*
X002555Y010701D01*
X002662Y010860D02*
X002741Y010860D01*
X002702Y011018D02*
X002702Y011018D01*
X002692Y011177D02*
X002711Y011177D01*
X002777Y011335D02*
X002626Y011335D01*
X002447Y011494D02*
X002956Y011494D01*
X002896Y011652D02*
X002507Y011652D01*
X002642Y011811D02*
X002761Y011811D01*
X002702Y011969D02*
X002702Y011969D01*
X002702Y012128D02*
X002702Y012128D01*
X002647Y012287D02*
X002757Y012287D01*
X002885Y012445D02*
X002518Y012445D01*
X002420Y012604D02*
X002983Y012604D01*
X002787Y012762D02*
X002616Y012762D01*
X002687Y012921D02*
X002716Y012921D01*
X002702Y013079D02*
X002702Y013079D01*
X002667Y013238D02*
X002736Y013238D01*
X002836Y013396D02*
X002567Y013396D01*
X002485Y013555D02*
X002918Y013555D01*
X003485Y013555D02*
X003918Y013555D01*
X003836Y013396D02*
X003567Y013396D01*
X003667Y013238D02*
X003736Y013238D01*
X003702Y013079D02*
X003702Y013079D01*
X003687Y012921D02*
X003716Y012921D01*
X003787Y012762D02*
X003616Y012762D01*
X003420Y012604D02*
X003983Y012604D01*
X003885Y012445D02*
X003518Y012445D01*
X003647Y012287D02*
X003757Y012287D01*
X003702Y012128D02*
X003702Y012128D01*
X003702Y011969D02*
X003702Y011969D01*
X003761Y011811D02*
X003642Y011811D01*
X003507Y011652D02*
X003896Y011652D01*
X003956Y011494D02*
X003447Y011494D01*
X003626Y011335D02*
X003777Y011335D01*
X003711Y011177D02*
X003692Y011177D01*
X003702Y011018D02*
X003702Y011018D01*
X003662Y010860D02*
X003741Y010860D01*
X003848Y010701D02*
X003555Y010701D01*
X002074Y010543D02*
X001329Y010543D01*
X001555Y010701D02*
X001848Y010701D01*
X001741Y010860D02*
X001662Y010860D01*
X001702Y011018D02*
X001702Y011018D01*
X001692Y011177D02*
X001711Y011177D01*
X001777Y011335D02*
X001626Y011335D01*
X001447Y011494D02*
X001956Y011494D01*
X001896Y011652D02*
X001507Y011652D01*
X001642Y011811D02*
X001761Y011811D01*
X001702Y011969D02*
X001702Y011969D01*
X001702Y012128D02*
X001702Y012128D01*
X001647Y012287D02*
X001757Y012287D01*
X001885Y012445D02*
X001518Y012445D01*
X001420Y012604D02*
X001983Y012604D01*
X001787Y012762D02*
X001616Y012762D01*
X001687Y012921D02*
X001716Y012921D01*
X001702Y013079D02*
X001702Y013079D01*
X001667Y013238D02*
X001736Y013238D01*
X001836Y013396D02*
X001567Y013396D01*
X001485Y013555D02*
X001918Y013555D01*
X000847Y014506D02*
X000462Y014506D01*
X000462Y014348D02*
X000706Y014348D01*
X000640Y014189D02*
X000462Y014189D01*
X000462Y014031D02*
X000632Y014031D01*
X000660Y013872D02*
X000462Y013872D01*
X001579Y010384D02*
X001824Y010384D01*
X001731Y010225D02*
X001672Y010225D01*
X001702Y010067D02*
X001702Y010067D01*
X001682Y009908D02*
X001721Y009908D01*
X001799Y009750D02*
X001604Y009750D01*
X001390Y009591D02*
X002013Y009591D01*
X001873Y009433D02*
X001530Y009433D01*
X001652Y009274D02*
X001751Y009274D01*
X001702Y009116D02*
X001702Y009116D01*
X001702Y008957D02*
X001702Y008957D01*
X001637Y008799D02*
X001766Y008799D01*
X001909Y008640D02*
X001494Y008640D01*
X001477Y008481D02*
X001926Y008481D01*
X001772Y008323D02*
X001631Y008323D01*
X001697Y008164D02*
X001706Y008164D01*
X001702Y008006D02*
X001702Y008006D01*
X001746Y007847D02*
X001657Y007847D01*
X001543Y007689D02*
X001860Y007689D01*
X002044Y007530D02*
X001359Y007530D01*
X001591Y007372D02*
X001812Y007372D01*
X001726Y007213D02*
X001677Y007213D01*
X001702Y007055D02*
X001702Y007055D01*
X001677Y006896D02*
X001726Y006896D01*
X001811Y006738D02*
X001592Y006738D01*
X001361Y006579D02*
X002043Y006579D01*
X001861Y006420D02*
X001543Y006420D01*
X001657Y006262D02*
X001746Y006262D01*
X001702Y006103D02*
X001702Y006103D01*
X001697Y005945D02*
X001706Y005945D01*
X001771Y005786D02*
X001632Y005786D01*
X001478Y005628D02*
X001925Y005628D01*
X001839Y005469D02*
X001564Y005469D01*
X001691Y005311D02*
X001712Y005311D01*
X001226Y004284D02*
X001002Y004284D01*
X001002Y003805D01*
X001001Y003805D01*
X001001Y004284D01*
X000777Y004284D01*
X000672Y004179D01*
X000672Y003804D01*
X000672Y003430D01*
X000777Y003324D01*
X001001Y003324D01*
X001001Y003804D01*
X000672Y003804D01*
X001001Y003804D01*
X001001Y003804D01*
X001002Y003804D01*
X001002Y003804D01*
X001332Y003804D01*
X001332Y003430D01*
X001226Y003324D01*
X001002Y003324D01*
X001002Y003804D01*
X001332Y003804D01*
X001332Y004179D01*
X001226Y004284D01*
X001310Y004201D02*
X002165Y004201D01*
X002152Y004042D02*
X001332Y004042D01*
X001332Y003884D02*
X002152Y003884D01*
X002152Y003725D02*
X001332Y003725D01*
X001332Y003567D02*
X002152Y003567D01*
X002165Y003408D02*
X001310Y003408D01*
X001002Y003408D02*
X001001Y003408D01*
X001001Y003567D02*
X001002Y003567D01*
X001001Y003725D02*
X001002Y003725D01*
X001001Y003884D02*
X001002Y003884D01*
X001001Y004042D02*
X001002Y004042D01*
X001001Y004201D02*
X001002Y004201D01*
X000694Y004201D02*
X000462Y004201D01*
X000462Y004042D02*
X000672Y004042D01*
X000672Y003884D02*
X000462Y003884D01*
X000462Y003725D02*
X000672Y003725D01*
X000672Y003567D02*
X000462Y003567D01*
X000462Y003408D02*
X000693Y003408D01*
X000462Y003250D02*
X002222Y003250D01*
X002222Y003091D02*
X000462Y003091D01*
X000462Y002932D02*
X002222Y002932D01*
X002222Y002774D02*
X000462Y002774D01*
X000462Y002615D02*
X002222Y002615D01*
X002222Y002457D02*
X000462Y002457D01*
X004983Y020848D02*
X005020Y020848D01*
X005020Y021006D02*
X004983Y021006D01*
X021068Y020214D02*
X021202Y020214D01*
X021202Y020372D02*
X021167Y020372D01*
M02*
